%TF.GenerationSoftware,KiCad,Pcbnew,10.0.4*%
%TF.CreationDate,2026-07-07T13:21:09-07:00*%
%TF.ProjectId,main-controller-v1,6d61696e-2d63-46f6-9e74-726f6c6c6572,rev?*%
%TF.SameCoordinates,Original*%
%TF.FileFunction,Legend,Top*%
%TF.FilePolarity,Positive*%
%FSLAX46Y46*%
G04 Gerber Fmt 4.6, Leading zero omitted, Abs format (unit mm)*
G04 Created by KiCad (PCBNEW 10.0.4) date 2026-07-07 13:21:09*
%MOMM*%
%LPD*%
G01*
G04 APERTURE LIST*
%ADD10C,0.200000*%
%ADD11C,0.150000*%
%ADD12C,0.100000*%
%ADD13C,0.120000*%
%ADD14C,0.050000*%
G04 APERTURE END LIST*
D10*
X80891101Y-39867219D02*
X80557768Y-39391028D01*
X80319673Y-39867219D02*
X80319673Y-38867219D01*
X80319673Y-38867219D02*
X80700625Y-38867219D01*
X80700625Y-38867219D02*
X80795863Y-38914838D01*
X80795863Y-38914838D02*
X80843482Y-38962457D01*
X80843482Y-38962457D02*
X80891101Y-39057695D01*
X80891101Y-39057695D02*
X80891101Y-39200552D01*
X80891101Y-39200552D02*
X80843482Y-39295790D01*
X80843482Y-39295790D02*
X80795863Y-39343409D01*
X80795863Y-39343409D02*
X80700625Y-39391028D01*
X80700625Y-39391028D02*
X80319673Y-39391028D01*
X81319673Y-39343409D02*
X81653006Y-39343409D01*
X81795863Y-39867219D02*
X81319673Y-39867219D01*
X81319673Y-39867219D02*
X81319673Y-38867219D01*
X81319673Y-38867219D02*
X81795863Y-38867219D01*
X82176816Y-39819600D02*
X82319673Y-39867219D01*
X82319673Y-39867219D02*
X82557768Y-39867219D01*
X82557768Y-39867219D02*
X82653006Y-39819600D01*
X82653006Y-39819600D02*
X82700625Y-39771980D01*
X82700625Y-39771980D02*
X82748244Y-39676742D01*
X82748244Y-39676742D02*
X82748244Y-39581504D01*
X82748244Y-39581504D02*
X82700625Y-39486266D01*
X82700625Y-39486266D02*
X82653006Y-39438647D01*
X82653006Y-39438647D02*
X82557768Y-39391028D01*
X82557768Y-39391028D02*
X82367292Y-39343409D01*
X82367292Y-39343409D02*
X82272054Y-39295790D01*
X82272054Y-39295790D02*
X82224435Y-39248171D01*
X82224435Y-39248171D02*
X82176816Y-39152933D01*
X82176816Y-39152933D02*
X82176816Y-39057695D01*
X82176816Y-39057695D02*
X82224435Y-38962457D01*
X82224435Y-38962457D02*
X82272054Y-38914838D01*
X82272054Y-38914838D02*
X82367292Y-38867219D01*
X82367292Y-38867219D02*
X82605387Y-38867219D01*
X82605387Y-38867219D02*
X82748244Y-38914838D01*
X83176816Y-39343409D02*
X83510149Y-39343409D01*
X83653006Y-39867219D02*
X83176816Y-39867219D01*
X83176816Y-39867219D02*
X83176816Y-38867219D01*
X83176816Y-38867219D02*
X83653006Y-38867219D01*
X83938721Y-38867219D02*
X84510149Y-38867219D01*
X84224435Y-39867219D02*
X84224435Y-38867219D01*
X81153006Y-54843409D02*
X81295863Y-54891028D01*
X81295863Y-54891028D02*
X81343482Y-54938647D01*
X81343482Y-54938647D02*
X81391101Y-55033885D01*
X81391101Y-55033885D02*
X81391101Y-55176742D01*
X81391101Y-55176742D02*
X81343482Y-55271980D01*
X81343482Y-55271980D02*
X81295863Y-55319600D01*
X81295863Y-55319600D02*
X81200625Y-55367219D01*
X81200625Y-55367219D02*
X80819673Y-55367219D01*
X80819673Y-55367219D02*
X80819673Y-54367219D01*
X80819673Y-54367219D02*
X81153006Y-54367219D01*
X81153006Y-54367219D02*
X81248244Y-54414838D01*
X81248244Y-54414838D02*
X81295863Y-54462457D01*
X81295863Y-54462457D02*
X81343482Y-54557695D01*
X81343482Y-54557695D02*
X81343482Y-54652933D01*
X81343482Y-54652933D02*
X81295863Y-54748171D01*
X81295863Y-54748171D02*
X81248244Y-54795790D01*
X81248244Y-54795790D02*
X81153006Y-54843409D01*
X81153006Y-54843409D02*
X80819673Y-54843409D01*
X82010149Y-54367219D02*
X82200625Y-54367219D01*
X82200625Y-54367219D02*
X82295863Y-54414838D01*
X82295863Y-54414838D02*
X82391101Y-54510076D01*
X82391101Y-54510076D02*
X82438720Y-54700552D01*
X82438720Y-54700552D02*
X82438720Y-55033885D01*
X82438720Y-55033885D02*
X82391101Y-55224361D01*
X82391101Y-55224361D02*
X82295863Y-55319600D01*
X82295863Y-55319600D02*
X82200625Y-55367219D01*
X82200625Y-55367219D02*
X82010149Y-55367219D01*
X82010149Y-55367219D02*
X81914911Y-55319600D01*
X81914911Y-55319600D02*
X81819673Y-55224361D01*
X81819673Y-55224361D02*
X81772054Y-55033885D01*
X81772054Y-55033885D02*
X81772054Y-54700552D01*
X81772054Y-54700552D02*
X81819673Y-54510076D01*
X81819673Y-54510076D02*
X81914911Y-54414838D01*
X81914911Y-54414838D02*
X82010149Y-54367219D01*
X83057768Y-54367219D02*
X83248244Y-54367219D01*
X83248244Y-54367219D02*
X83343482Y-54414838D01*
X83343482Y-54414838D02*
X83438720Y-54510076D01*
X83438720Y-54510076D02*
X83486339Y-54700552D01*
X83486339Y-54700552D02*
X83486339Y-55033885D01*
X83486339Y-55033885D02*
X83438720Y-55224361D01*
X83438720Y-55224361D02*
X83343482Y-55319600D01*
X83343482Y-55319600D02*
X83248244Y-55367219D01*
X83248244Y-55367219D02*
X83057768Y-55367219D01*
X83057768Y-55367219D02*
X82962530Y-55319600D01*
X82962530Y-55319600D02*
X82867292Y-55224361D01*
X82867292Y-55224361D02*
X82819673Y-55033885D01*
X82819673Y-55033885D02*
X82819673Y-54700552D01*
X82819673Y-54700552D02*
X82867292Y-54510076D01*
X82867292Y-54510076D02*
X82962530Y-54414838D01*
X82962530Y-54414838D02*
X83057768Y-54367219D01*
X83772054Y-54367219D02*
X84343482Y-54367219D01*
X84057768Y-55367219D02*
X84057768Y-54367219D01*
X124019673Y-28367219D02*
X124019673Y-29176742D01*
X124019673Y-29176742D02*
X124067292Y-29271980D01*
X124067292Y-29271980D02*
X124114911Y-29319600D01*
X124114911Y-29319600D02*
X124210149Y-29367219D01*
X124210149Y-29367219D02*
X124400625Y-29367219D01*
X124400625Y-29367219D02*
X124495863Y-29319600D01*
X124495863Y-29319600D02*
X124543482Y-29271980D01*
X124543482Y-29271980D02*
X124591101Y-29176742D01*
X124591101Y-29176742D02*
X124591101Y-28367219D01*
X125019673Y-29319600D02*
X125162530Y-29367219D01*
X125162530Y-29367219D02*
X125400625Y-29367219D01*
X125400625Y-29367219D02*
X125495863Y-29319600D01*
X125495863Y-29319600D02*
X125543482Y-29271980D01*
X125543482Y-29271980D02*
X125591101Y-29176742D01*
X125591101Y-29176742D02*
X125591101Y-29081504D01*
X125591101Y-29081504D02*
X125543482Y-28986266D01*
X125543482Y-28986266D02*
X125495863Y-28938647D01*
X125495863Y-28938647D02*
X125400625Y-28891028D01*
X125400625Y-28891028D02*
X125210149Y-28843409D01*
X125210149Y-28843409D02*
X125114911Y-28795790D01*
X125114911Y-28795790D02*
X125067292Y-28748171D01*
X125067292Y-28748171D02*
X125019673Y-28652933D01*
X125019673Y-28652933D02*
X125019673Y-28557695D01*
X125019673Y-28557695D02*
X125067292Y-28462457D01*
X125067292Y-28462457D02*
X125114911Y-28414838D01*
X125114911Y-28414838D02*
X125210149Y-28367219D01*
X125210149Y-28367219D02*
X125448244Y-28367219D01*
X125448244Y-28367219D02*
X125591101Y-28414838D01*
X126353006Y-28843409D02*
X126495863Y-28891028D01*
X126495863Y-28891028D02*
X126543482Y-28938647D01*
X126543482Y-28938647D02*
X126591101Y-29033885D01*
X126591101Y-29033885D02*
X126591101Y-29176742D01*
X126591101Y-29176742D02*
X126543482Y-29271980D01*
X126543482Y-29271980D02*
X126495863Y-29319600D01*
X126495863Y-29319600D02*
X126400625Y-29367219D01*
X126400625Y-29367219D02*
X126019673Y-29367219D01*
X126019673Y-29367219D02*
X126019673Y-28367219D01*
X126019673Y-28367219D02*
X126353006Y-28367219D01*
X126353006Y-28367219D02*
X126448244Y-28414838D01*
X126448244Y-28414838D02*
X126495863Y-28462457D01*
X126495863Y-28462457D02*
X126543482Y-28557695D01*
X126543482Y-28557695D02*
X126543482Y-28652933D01*
X126543482Y-28652933D02*
X126495863Y-28748171D01*
X126495863Y-28748171D02*
X126448244Y-28795790D01*
X126448244Y-28795790D02*
X126353006Y-28843409D01*
X126353006Y-28843409D02*
X126019673Y-28843409D01*
X127019673Y-28986266D02*
X127781578Y-28986266D01*
X128829196Y-29271980D02*
X128781577Y-29319600D01*
X128781577Y-29319600D02*
X128638720Y-29367219D01*
X128638720Y-29367219D02*
X128543482Y-29367219D01*
X128543482Y-29367219D02*
X128400625Y-29319600D01*
X128400625Y-29319600D02*
X128305387Y-29224361D01*
X128305387Y-29224361D02*
X128257768Y-29129123D01*
X128257768Y-29129123D02*
X128210149Y-28938647D01*
X128210149Y-28938647D02*
X128210149Y-28795790D01*
X128210149Y-28795790D02*
X128257768Y-28605314D01*
X128257768Y-28605314D02*
X128305387Y-28510076D01*
X128305387Y-28510076D02*
X128400625Y-28414838D01*
X128400625Y-28414838D02*
X128543482Y-28367219D01*
X128543482Y-28367219D02*
X128638720Y-28367219D01*
X128638720Y-28367219D02*
X128781577Y-28414838D01*
X128781577Y-28414838D02*
X128829196Y-28462457D01*
X130019673Y-29367219D02*
X130019673Y-28367219D01*
X130019673Y-28367219D02*
X130400625Y-28367219D01*
X130400625Y-28367219D02*
X130495863Y-28414838D01*
X130495863Y-28414838D02*
X130543482Y-28462457D01*
X130543482Y-28462457D02*
X130591101Y-28557695D01*
X130591101Y-28557695D02*
X130591101Y-28700552D01*
X130591101Y-28700552D02*
X130543482Y-28795790D01*
X130543482Y-28795790D02*
X130495863Y-28843409D01*
X130495863Y-28843409D02*
X130400625Y-28891028D01*
X130400625Y-28891028D02*
X130019673Y-28891028D01*
X131162530Y-29367219D02*
X131067292Y-29319600D01*
X131067292Y-29319600D02*
X131019673Y-29271980D01*
X131019673Y-29271980D02*
X130972054Y-29176742D01*
X130972054Y-29176742D02*
X130972054Y-28891028D01*
X130972054Y-28891028D02*
X131019673Y-28795790D01*
X131019673Y-28795790D02*
X131067292Y-28748171D01*
X131067292Y-28748171D02*
X131162530Y-28700552D01*
X131162530Y-28700552D02*
X131305387Y-28700552D01*
X131305387Y-28700552D02*
X131400625Y-28748171D01*
X131400625Y-28748171D02*
X131448244Y-28795790D01*
X131448244Y-28795790D02*
X131495863Y-28891028D01*
X131495863Y-28891028D02*
X131495863Y-29176742D01*
X131495863Y-29176742D02*
X131448244Y-29271980D01*
X131448244Y-29271980D02*
X131400625Y-29319600D01*
X131400625Y-29319600D02*
X131305387Y-29367219D01*
X131305387Y-29367219D02*
X131162530Y-29367219D01*
X131924435Y-29367219D02*
X131924435Y-28700552D01*
X131924435Y-28891028D02*
X131972054Y-28795790D01*
X131972054Y-28795790D02*
X132019673Y-28748171D01*
X132019673Y-28748171D02*
X132114911Y-28700552D01*
X132114911Y-28700552D02*
X132210149Y-28700552D01*
X132400626Y-28700552D02*
X132781578Y-28700552D01*
X132543483Y-28367219D02*
X132543483Y-29224361D01*
X132543483Y-29224361D02*
X132591102Y-29319600D01*
X132591102Y-29319600D02*
X132686340Y-29367219D01*
X132686340Y-29367219D02*
X132781578Y-29367219D01*
X75774435Y-85697219D02*
X76060149Y-85792457D01*
X76060149Y-85792457D02*
X76155387Y-85887695D01*
X76155387Y-85887695D02*
X76250625Y-86078171D01*
X76250625Y-86078171D02*
X76250625Y-86363885D01*
X76250625Y-86363885D02*
X76155387Y-86554361D01*
X76155387Y-86554361D02*
X76060149Y-86649600D01*
X76060149Y-86649600D02*
X75869673Y-86744838D01*
X75869673Y-86744838D02*
X75107768Y-86744838D01*
X75107768Y-86744838D02*
X75107768Y-84744838D01*
X75107768Y-84744838D02*
X75774435Y-84744838D01*
X75774435Y-84744838D02*
X75964911Y-84840076D01*
X75964911Y-84840076D02*
X76060149Y-84935314D01*
X76060149Y-84935314D02*
X76155387Y-85125790D01*
X76155387Y-85125790D02*
X76155387Y-85316266D01*
X76155387Y-85316266D02*
X76060149Y-85506742D01*
X76060149Y-85506742D02*
X75964911Y-85601980D01*
X75964911Y-85601980D02*
X75774435Y-85697219D01*
X75774435Y-85697219D02*
X75107768Y-85697219D01*
X77107768Y-86744838D02*
X77107768Y-85411504D01*
X77107768Y-85792457D02*
X77203006Y-85601980D01*
X77203006Y-85601980D02*
X77298244Y-85506742D01*
X77298244Y-85506742D02*
X77488720Y-85411504D01*
X77488720Y-85411504D02*
X77679197Y-85411504D01*
X78345863Y-86744838D02*
X78345863Y-85411504D01*
X78345863Y-84744838D02*
X78250625Y-84840076D01*
X78250625Y-84840076D02*
X78345863Y-84935314D01*
X78345863Y-84935314D02*
X78441101Y-84840076D01*
X78441101Y-84840076D02*
X78345863Y-84744838D01*
X78345863Y-84744838D02*
X78345863Y-84935314D01*
X80155387Y-86744838D02*
X80155387Y-84744838D01*
X80155387Y-86649600D02*
X79964911Y-86744838D01*
X79964911Y-86744838D02*
X79583958Y-86744838D01*
X79583958Y-86744838D02*
X79393482Y-86649600D01*
X79393482Y-86649600D02*
X79298244Y-86554361D01*
X79298244Y-86554361D02*
X79203006Y-86363885D01*
X79203006Y-86363885D02*
X79203006Y-85792457D01*
X79203006Y-85792457D02*
X79298244Y-85601980D01*
X79298244Y-85601980D02*
X79393482Y-85506742D01*
X79393482Y-85506742D02*
X79583958Y-85411504D01*
X79583958Y-85411504D02*
X79964911Y-85411504D01*
X79964911Y-85411504D02*
X80155387Y-85506742D01*
X81964911Y-85411504D02*
X81964911Y-87030552D01*
X81964911Y-87030552D02*
X81869673Y-87221028D01*
X81869673Y-87221028D02*
X81774435Y-87316266D01*
X81774435Y-87316266D02*
X81583958Y-87411504D01*
X81583958Y-87411504D02*
X81298244Y-87411504D01*
X81298244Y-87411504D02*
X81107768Y-87316266D01*
X81964911Y-86649600D02*
X81774435Y-86744838D01*
X81774435Y-86744838D02*
X81393482Y-86744838D01*
X81393482Y-86744838D02*
X81203006Y-86649600D01*
X81203006Y-86649600D02*
X81107768Y-86554361D01*
X81107768Y-86554361D02*
X81012530Y-86363885D01*
X81012530Y-86363885D02*
X81012530Y-85792457D01*
X81012530Y-85792457D02*
X81107768Y-85601980D01*
X81107768Y-85601980D02*
X81203006Y-85506742D01*
X81203006Y-85506742D02*
X81393482Y-85411504D01*
X81393482Y-85411504D02*
X81774435Y-85411504D01*
X81774435Y-85411504D02*
X81964911Y-85506742D01*
X83679197Y-86649600D02*
X83488721Y-86744838D01*
X83488721Y-86744838D02*
X83107768Y-86744838D01*
X83107768Y-86744838D02*
X82917292Y-86649600D01*
X82917292Y-86649600D02*
X82822054Y-86459123D01*
X82822054Y-86459123D02*
X82822054Y-85697219D01*
X82822054Y-85697219D02*
X82917292Y-85506742D01*
X82917292Y-85506742D02*
X83107768Y-85411504D01*
X83107768Y-85411504D02*
X83488721Y-85411504D01*
X83488721Y-85411504D02*
X83679197Y-85506742D01*
X83679197Y-85506742D02*
X83774435Y-85697219D01*
X83774435Y-85697219D02*
X83774435Y-85887695D01*
X83774435Y-85887695D02*
X82822054Y-86078171D01*
X87298245Y-86744838D02*
X86631578Y-85792457D01*
X86155388Y-86744838D02*
X86155388Y-84744838D01*
X86155388Y-84744838D02*
X86917293Y-84744838D01*
X86917293Y-84744838D02*
X87107769Y-84840076D01*
X87107769Y-84840076D02*
X87203007Y-84935314D01*
X87203007Y-84935314D02*
X87298245Y-85125790D01*
X87298245Y-85125790D02*
X87298245Y-85411504D01*
X87298245Y-85411504D02*
X87203007Y-85601980D01*
X87203007Y-85601980D02*
X87107769Y-85697219D01*
X87107769Y-85697219D02*
X86917293Y-85792457D01*
X86917293Y-85792457D02*
X86155388Y-85792457D01*
X88917293Y-86649600D02*
X88726817Y-86744838D01*
X88726817Y-86744838D02*
X88345864Y-86744838D01*
X88345864Y-86744838D02*
X88155388Y-86649600D01*
X88155388Y-86649600D02*
X88060150Y-86459123D01*
X88060150Y-86459123D02*
X88060150Y-85697219D01*
X88060150Y-85697219D02*
X88155388Y-85506742D01*
X88155388Y-85506742D02*
X88345864Y-85411504D01*
X88345864Y-85411504D02*
X88726817Y-85411504D01*
X88726817Y-85411504D02*
X88917293Y-85506742D01*
X88917293Y-85506742D02*
X89012531Y-85697219D01*
X89012531Y-85697219D02*
X89012531Y-85887695D01*
X89012531Y-85887695D02*
X88060150Y-86078171D01*
X90726817Y-86649600D02*
X90536341Y-86744838D01*
X90536341Y-86744838D02*
X90155388Y-86744838D01*
X90155388Y-86744838D02*
X89964912Y-86649600D01*
X89964912Y-86649600D02*
X89869674Y-86554361D01*
X89869674Y-86554361D02*
X89774436Y-86363885D01*
X89774436Y-86363885D02*
X89774436Y-85792457D01*
X89774436Y-85792457D02*
X89869674Y-85601980D01*
X89869674Y-85601980D02*
X89964912Y-85506742D01*
X89964912Y-85506742D02*
X90155388Y-85411504D01*
X90155388Y-85411504D02*
X90536341Y-85411504D01*
X90536341Y-85411504D02*
X90726817Y-85506742D01*
X91298246Y-85411504D02*
X92060150Y-85411504D01*
X91583960Y-84744838D02*
X91583960Y-86459123D01*
X91583960Y-86459123D02*
X91679198Y-86649600D01*
X91679198Y-86649600D02*
X91869674Y-86744838D01*
X91869674Y-86744838D02*
X92060150Y-86744838D01*
X92726817Y-86744838D02*
X92726817Y-85411504D01*
X92726817Y-84744838D02*
X92631579Y-84840076D01*
X92631579Y-84840076D02*
X92726817Y-84935314D01*
X92726817Y-84935314D02*
X92822055Y-84840076D01*
X92822055Y-84840076D02*
X92726817Y-84744838D01*
X92726817Y-84744838D02*
X92726817Y-84935314D01*
X93393484Y-85411504D02*
X94155388Y-85411504D01*
X93679198Y-86744838D02*
X93679198Y-85030552D01*
X93679198Y-85030552D02*
X93774436Y-84840076D01*
X93774436Y-84840076D02*
X93964912Y-84744838D01*
X93964912Y-84744838D02*
X94155388Y-84744838D01*
X94822055Y-86744838D02*
X94822055Y-85411504D01*
X94822055Y-84744838D02*
X94726817Y-84840076D01*
X94726817Y-84840076D02*
X94822055Y-84935314D01*
X94822055Y-84935314D02*
X94917293Y-84840076D01*
X94917293Y-84840076D02*
X94822055Y-84744838D01*
X94822055Y-84744838D02*
X94822055Y-84935314D01*
X96536341Y-86649600D02*
X96345865Y-86744838D01*
X96345865Y-86744838D02*
X95964912Y-86744838D01*
X95964912Y-86744838D02*
X95774436Y-86649600D01*
X95774436Y-86649600D02*
X95679198Y-86459123D01*
X95679198Y-86459123D02*
X95679198Y-85697219D01*
X95679198Y-85697219D02*
X95774436Y-85506742D01*
X95774436Y-85506742D02*
X95964912Y-85411504D01*
X95964912Y-85411504D02*
X96345865Y-85411504D01*
X96345865Y-85411504D02*
X96536341Y-85506742D01*
X96536341Y-85506742D02*
X96631579Y-85697219D01*
X96631579Y-85697219D02*
X96631579Y-85887695D01*
X96631579Y-85887695D02*
X95679198Y-86078171D01*
X97488722Y-86744838D02*
X97488722Y-85411504D01*
X97488722Y-85792457D02*
X97583960Y-85601980D01*
X97583960Y-85601980D02*
X97679198Y-85506742D01*
X97679198Y-85506742D02*
X97869674Y-85411504D01*
X97869674Y-85411504D02*
X98060151Y-85411504D01*
X103274435Y-91697219D02*
X102607768Y-91697219D01*
X102607768Y-92744838D02*
X102607768Y-90744838D01*
X102607768Y-90744838D02*
X103560149Y-90744838D01*
X105179197Y-91411504D02*
X105179197Y-92744838D01*
X104322054Y-91411504D02*
X104322054Y-92459123D01*
X104322054Y-92459123D02*
X104417292Y-92649600D01*
X104417292Y-92649600D02*
X104607768Y-92744838D01*
X104607768Y-92744838D02*
X104893483Y-92744838D01*
X104893483Y-92744838D02*
X105083959Y-92649600D01*
X105083959Y-92649600D02*
X105179197Y-92554361D01*
X106036340Y-92649600D02*
X106226816Y-92744838D01*
X106226816Y-92744838D02*
X106607768Y-92744838D01*
X106607768Y-92744838D02*
X106798245Y-92649600D01*
X106798245Y-92649600D02*
X106893483Y-92459123D01*
X106893483Y-92459123D02*
X106893483Y-92363885D01*
X106893483Y-92363885D02*
X106798245Y-92173409D01*
X106798245Y-92173409D02*
X106607768Y-92078171D01*
X106607768Y-92078171D02*
X106322054Y-92078171D01*
X106322054Y-92078171D02*
X106131578Y-91982933D01*
X106131578Y-91982933D02*
X106036340Y-91792457D01*
X106036340Y-91792457D02*
X106036340Y-91697219D01*
X106036340Y-91697219D02*
X106131578Y-91506742D01*
X106131578Y-91506742D02*
X106322054Y-91411504D01*
X106322054Y-91411504D02*
X106607768Y-91411504D01*
X106607768Y-91411504D02*
X106798245Y-91506742D01*
X108512531Y-92649600D02*
X108322055Y-92744838D01*
X108322055Y-92744838D02*
X107941102Y-92744838D01*
X107941102Y-92744838D02*
X107750626Y-92649600D01*
X107750626Y-92649600D02*
X107655388Y-92459123D01*
X107655388Y-92459123D02*
X107655388Y-91697219D01*
X107655388Y-91697219D02*
X107750626Y-91506742D01*
X107750626Y-91506742D02*
X107941102Y-91411504D01*
X107941102Y-91411504D02*
X108322055Y-91411504D01*
X108322055Y-91411504D02*
X108512531Y-91506742D01*
X108512531Y-91506742D02*
X108607769Y-91697219D01*
X108607769Y-91697219D02*
X108607769Y-91887695D01*
X108607769Y-91887695D02*
X107655388Y-92078171D01*
X121155387Y-61840076D02*
X120964911Y-61744838D01*
X120964911Y-61744838D02*
X120679197Y-61744838D01*
X120679197Y-61744838D02*
X120393482Y-61840076D01*
X120393482Y-61840076D02*
X120203006Y-62030552D01*
X120203006Y-62030552D02*
X120107768Y-62221028D01*
X120107768Y-62221028D02*
X120012530Y-62601980D01*
X120012530Y-62601980D02*
X120012530Y-62887695D01*
X120012530Y-62887695D02*
X120107768Y-63268647D01*
X120107768Y-63268647D02*
X120203006Y-63459123D01*
X120203006Y-63459123D02*
X120393482Y-63649600D01*
X120393482Y-63649600D02*
X120679197Y-63744838D01*
X120679197Y-63744838D02*
X120869673Y-63744838D01*
X120869673Y-63744838D02*
X121155387Y-63649600D01*
X121155387Y-63649600D02*
X121250625Y-63554361D01*
X121250625Y-63554361D02*
X121250625Y-62887695D01*
X121250625Y-62887695D02*
X120869673Y-62887695D01*
X122107768Y-63744838D02*
X122107768Y-61744838D01*
X122107768Y-61744838D02*
X123250625Y-63744838D01*
X123250625Y-63744838D02*
X123250625Y-61744838D01*
X124203006Y-63744838D02*
X124203006Y-61744838D01*
X124203006Y-61744838D02*
X124679196Y-61744838D01*
X124679196Y-61744838D02*
X124964911Y-61840076D01*
X124964911Y-61840076D02*
X125155387Y-62030552D01*
X125155387Y-62030552D02*
X125250625Y-62221028D01*
X125250625Y-62221028D02*
X125345863Y-62601980D01*
X125345863Y-62601980D02*
X125345863Y-62887695D01*
X125345863Y-62887695D02*
X125250625Y-63268647D01*
X125250625Y-63268647D02*
X125155387Y-63459123D01*
X125155387Y-63459123D02*
X124964911Y-63649600D01*
X124964911Y-63649600D02*
X124679196Y-63744838D01*
X124679196Y-63744838D02*
X124203006Y-63744838D01*
X120774435Y-67697219D02*
X120107768Y-67697219D01*
X120107768Y-68744838D02*
X120107768Y-66744838D01*
X120107768Y-66744838D02*
X121060149Y-66744838D01*
X122774435Y-68744838D02*
X121822054Y-68744838D01*
X121822054Y-68744838D02*
X121822054Y-66744838D01*
X123822054Y-66744838D02*
X124203007Y-66744838D01*
X124203007Y-66744838D02*
X124393483Y-66840076D01*
X124393483Y-66840076D02*
X124583959Y-67030552D01*
X124583959Y-67030552D02*
X124679197Y-67411504D01*
X124679197Y-67411504D02*
X124679197Y-68078171D01*
X124679197Y-68078171D02*
X124583959Y-68459123D01*
X124583959Y-68459123D02*
X124393483Y-68649600D01*
X124393483Y-68649600D02*
X124203007Y-68744838D01*
X124203007Y-68744838D02*
X123822054Y-68744838D01*
X123822054Y-68744838D02*
X123631578Y-68649600D01*
X123631578Y-68649600D02*
X123441102Y-68459123D01*
X123441102Y-68459123D02*
X123345864Y-68078171D01*
X123345864Y-68078171D02*
X123345864Y-67411504D01*
X123345864Y-67411504D02*
X123441102Y-67030552D01*
X123441102Y-67030552D02*
X123631578Y-66840076D01*
X123631578Y-66840076D02*
X123822054Y-66744838D01*
X125345864Y-66744838D02*
X125822054Y-68744838D01*
X125822054Y-68744838D02*
X126203007Y-67316266D01*
X126203007Y-67316266D02*
X126583959Y-68744838D01*
X126583959Y-68744838D02*
X127060150Y-66744838D01*
X121155387Y-73840076D02*
X120964911Y-73744838D01*
X120964911Y-73744838D02*
X120679197Y-73744838D01*
X120679197Y-73744838D02*
X120393482Y-73840076D01*
X120393482Y-73840076D02*
X120203006Y-74030552D01*
X120203006Y-74030552D02*
X120107768Y-74221028D01*
X120107768Y-74221028D02*
X120012530Y-74601980D01*
X120012530Y-74601980D02*
X120012530Y-74887695D01*
X120012530Y-74887695D02*
X120107768Y-75268647D01*
X120107768Y-75268647D02*
X120203006Y-75459123D01*
X120203006Y-75459123D02*
X120393482Y-75649600D01*
X120393482Y-75649600D02*
X120679197Y-75744838D01*
X120679197Y-75744838D02*
X120869673Y-75744838D01*
X120869673Y-75744838D02*
X121155387Y-75649600D01*
X121155387Y-75649600D02*
X121250625Y-75554361D01*
X121250625Y-75554361D02*
X121250625Y-74887695D01*
X121250625Y-74887695D02*
X120869673Y-74887695D01*
X122107768Y-75744838D02*
X122107768Y-73744838D01*
X122107768Y-73744838D02*
X123250625Y-75744838D01*
X123250625Y-75744838D02*
X123250625Y-73744838D01*
X124203006Y-75744838D02*
X124203006Y-73744838D01*
X124203006Y-73744838D02*
X124679196Y-73744838D01*
X124679196Y-73744838D02*
X124964911Y-73840076D01*
X124964911Y-73840076D02*
X125155387Y-74030552D01*
X125155387Y-74030552D02*
X125250625Y-74221028D01*
X125250625Y-74221028D02*
X125345863Y-74601980D01*
X125345863Y-74601980D02*
X125345863Y-74887695D01*
X125345863Y-74887695D02*
X125250625Y-75268647D01*
X125250625Y-75268647D02*
X125155387Y-75459123D01*
X125155387Y-75459123D02*
X124964911Y-75649600D01*
X124964911Y-75649600D02*
X124679196Y-75744838D01*
X124679196Y-75744838D02*
X124203006Y-75744838D01*
X121250625Y-80744838D02*
X120583958Y-79792457D01*
X120107768Y-80744838D02*
X120107768Y-78744838D01*
X120107768Y-78744838D02*
X120869673Y-78744838D01*
X120869673Y-78744838D02*
X121060149Y-78840076D01*
X121060149Y-78840076D02*
X121155387Y-78935314D01*
X121155387Y-78935314D02*
X121250625Y-79125790D01*
X121250625Y-79125790D02*
X121250625Y-79411504D01*
X121250625Y-79411504D02*
X121155387Y-79601980D01*
X121155387Y-79601980D02*
X121060149Y-79697219D01*
X121060149Y-79697219D02*
X120869673Y-79792457D01*
X120869673Y-79792457D02*
X120107768Y-79792457D01*
X122012530Y-80173409D02*
X122964911Y-80173409D01*
X121822054Y-80744838D02*
X122488720Y-78744838D01*
X122488720Y-78744838D02*
X123155387Y-80744838D01*
X123822054Y-80744838D02*
X123822054Y-78744838D01*
X124774435Y-80744838D02*
X124774435Y-78744838D01*
X124774435Y-78744838D02*
X125917292Y-80744838D01*
X125917292Y-80744838D02*
X125917292Y-78744838D01*
X120512530Y-90435314D02*
X120607768Y-90340076D01*
X120607768Y-90340076D02*
X120798244Y-90244838D01*
X120798244Y-90244838D02*
X121274435Y-90244838D01*
X121274435Y-90244838D02*
X121464911Y-90340076D01*
X121464911Y-90340076D02*
X121560149Y-90435314D01*
X121560149Y-90435314D02*
X121655387Y-90625790D01*
X121655387Y-90625790D02*
X121655387Y-90816266D01*
X121655387Y-90816266D02*
X121560149Y-91101980D01*
X121560149Y-91101980D02*
X120417292Y-92244838D01*
X120417292Y-92244838D02*
X121655387Y-92244838D01*
X123369673Y-90911504D02*
X123369673Y-92244838D01*
X122893482Y-90149600D02*
X122417292Y-91578171D01*
X122417292Y-91578171D02*
X123655387Y-91578171D01*
X124131578Y-90244838D02*
X124798244Y-92244838D01*
X124798244Y-92244838D02*
X125464911Y-90244838D01*
X126036340Y-91673409D02*
X126988721Y-91673409D01*
X125845864Y-92244838D02*
X126512530Y-90244838D01*
X126512530Y-90244838D02*
X127179197Y-92244838D01*
X128988721Y-92054361D02*
X128893483Y-92149600D01*
X128893483Y-92149600D02*
X128607769Y-92244838D01*
X128607769Y-92244838D02*
X128417293Y-92244838D01*
X128417293Y-92244838D02*
X128131578Y-92149600D01*
X128131578Y-92149600D02*
X127941102Y-91959123D01*
X127941102Y-91959123D02*
X127845864Y-91768647D01*
X127845864Y-91768647D02*
X127750626Y-91387695D01*
X127750626Y-91387695D02*
X127750626Y-91101980D01*
X127750626Y-91101980D02*
X127845864Y-90721028D01*
X127845864Y-90721028D02*
X127941102Y-90530552D01*
X127941102Y-90530552D02*
X128131578Y-90340076D01*
X128131578Y-90340076D02*
X128417293Y-90244838D01*
X128417293Y-90244838D02*
X128607769Y-90244838D01*
X128607769Y-90244838D02*
X128893483Y-90340076D01*
X128893483Y-90340076D02*
X128988721Y-90435314D01*
X129369674Y-92435314D02*
X130893483Y-92435314D01*
X132512531Y-92054361D02*
X132417293Y-92149600D01*
X132417293Y-92149600D02*
X132131579Y-92244838D01*
X132131579Y-92244838D02*
X131941103Y-92244838D01*
X131941103Y-92244838D02*
X131655388Y-92149600D01*
X131655388Y-92149600D02*
X131464912Y-91959123D01*
X131464912Y-91959123D02*
X131369674Y-91768647D01*
X131369674Y-91768647D02*
X131274436Y-91387695D01*
X131274436Y-91387695D02*
X131274436Y-91101980D01*
X131274436Y-91101980D02*
X131369674Y-90721028D01*
X131369674Y-90721028D02*
X131464912Y-90530552D01*
X131464912Y-90530552D02*
X131655388Y-90340076D01*
X131655388Y-90340076D02*
X131941103Y-90244838D01*
X131941103Y-90244838D02*
X132131579Y-90244838D01*
X132131579Y-90244838D02*
X132417293Y-90340076D01*
X132417293Y-90340076D02*
X132512531Y-90435314D01*
X133750626Y-90244838D02*
X134131579Y-90244838D01*
X134131579Y-90244838D02*
X134322055Y-90340076D01*
X134322055Y-90340076D02*
X134512531Y-90530552D01*
X134512531Y-90530552D02*
X134607769Y-90911504D01*
X134607769Y-90911504D02*
X134607769Y-91578171D01*
X134607769Y-91578171D02*
X134512531Y-91959123D01*
X134512531Y-91959123D02*
X134322055Y-92149600D01*
X134322055Y-92149600D02*
X134131579Y-92244838D01*
X134131579Y-92244838D02*
X133750626Y-92244838D01*
X133750626Y-92244838D02*
X133560150Y-92149600D01*
X133560150Y-92149600D02*
X133369674Y-91959123D01*
X133369674Y-91959123D02*
X133274436Y-91578171D01*
X133274436Y-91578171D02*
X133274436Y-90911504D01*
X133274436Y-90911504D02*
X133369674Y-90530552D01*
X133369674Y-90530552D02*
X133560150Y-90340076D01*
X133560150Y-90340076D02*
X133750626Y-90244838D01*
X135464912Y-92244838D02*
X135464912Y-90244838D01*
X135464912Y-90244838D02*
X136131579Y-91673409D01*
X136131579Y-91673409D02*
X136798245Y-90244838D01*
X136798245Y-90244838D02*
X136798245Y-92244838D01*
X120512530Y-95435314D02*
X120607768Y-95340076D01*
X120607768Y-95340076D02*
X120798244Y-95244838D01*
X120798244Y-95244838D02*
X121274435Y-95244838D01*
X121274435Y-95244838D02*
X121464911Y-95340076D01*
X121464911Y-95340076D02*
X121560149Y-95435314D01*
X121560149Y-95435314D02*
X121655387Y-95625790D01*
X121655387Y-95625790D02*
X121655387Y-95816266D01*
X121655387Y-95816266D02*
X121560149Y-96101980D01*
X121560149Y-96101980D02*
X120417292Y-97244838D01*
X120417292Y-97244838D02*
X121655387Y-97244838D01*
X123369673Y-95911504D02*
X123369673Y-97244838D01*
X122893482Y-95149600D02*
X122417292Y-96578171D01*
X122417292Y-96578171D02*
X123655387Y-96578171D01*
X124131578Y-95244838D02*
X124798244Y-97244838D01*
X124798244Y-97244838D02*
X125464911Y-95244838D01*
X126036340Y-96673409D02*
X126988721Y-96673409D01*
X125845864Y-97244838D02*
X126512530Y-95244838D01*
X126512530Y-95244838D02*
X127179197Y-97244838D01*
X128988721Y-97054361D02*
X128893483Y-97149600D01*
X128893483Y-97149600D02*
X128607769Y-97244838D01*
X128607769Y-97244838D02*
X128417293Y-97244838D01*
X128417293Y-97244838D02*
X128131578Y-97149600D01*
X128131578Y-97149600D02*
X127941102Y-96959123D01*
X127941102Y-96959123D02*
X127845864Y-96768647D01*
X127845864Y-96768647D02*
X127750626Y-96387695D01*
X127750626Y-96387695D02*
X127750626Y-96101980D01*
X127750626Y-96101980D02*
X127845864Y-95721028D01*
X127845864Y-95721028D02*
X127941102Y-95530552D01*
X127941102Y-95530552D02*
X128131578Y-95340076D01*
X128131578Y-95340076D02*
X128417293Y-95244838D01*
X128417293Y-95244838D02*
X128607769Y-95244838D01*
X128607769Y-95244838D02*
X128893483Y-95340076D01*
X128893483Y-95340076D02*
X128988721Y-95435314D01*
X129369674Y-97435314D02*
X130893483Y-97435314D01*
X131369674Y-97244838D02*
X131369674Y-95244838D01*
X131369674Y-96197219D02*
X132512531Y-96197219D01*
X132512531Y-97244838D02*
X132512531Y-95244838D01*
X133845864Y-95244838D02*
X134226817Y-95244838D01*
X134226817Y-95244838D02*
X134417293Y-95340076D01*
X134417293Y-95340076D02*
X134607769Y-95530552D01*
X134607769Y-95530552D02*
X134703007Y-95911504D01*
X134703007Y-95911504D02*
X134703007Y-96578171D01*
X134703007Y-96578171D02*
X134607769Y-96959123D01*
X134607769Y-96959123D02*
X134417293Y-97149600D01*
X134417293Y-97149600D02*
X134226817Y-97244838D01*
X134226817Y-97244838D02*
X133845864Y-97244838D01*
X133845864Y-97244838D02*
X133655388Y-97149600D01*
X133655388Y-97149600D02*
X133464912Y-96959123D01*
X133464912Y-96959123D02*
X133369674Y-96578171D01*
X133369674Y-96578171D02*
X133369674Y-95911504D01*
X133369674Y-95911504D02*
X133464912Y-95530552D01*
X133464912Y-95530552D02*
X133655388Y-95340076D01*
X133655388Y-95340076D02*
X133845864Y-95244838D01*
X135274436Y-95244838D02*
X136417293Y-95244838D01*
X135845864Y-97244838D02*
X135845864Y-95244838D01*
X156512530Y-107935314D02*
X156607768Y-107840076D01*
X156607768Y-107840076D02*
X156798244Y-107744838D01*
X156798244Y-107744838D02*
X157274435Y-107744838D01*
X157274435Y-107744838D02*
X157464911Y-107840076D01*
X157464911Y-107840076D02*
X157560149Y-107935314D01*
X157560149Y-107935314D02*
X157655387Y-108125790D01*
X157655387Y-108125790D02*
X157655387Y-108316266D01*
X157655387Y-108316266D02*
X157560149Y-108601980D01*
X157560149Y-108601980D02*
X156417292Y-109744838D01*
X156417292Y-109744838D02*
X157655387Y-109744838D01*
X159369673Y-108411504D02*
X159369673Y-109744838D01*
X158893482Y-107649600D02*
X158417292Y-109078171D01*
X158417292Y-109078171D02*
X159655387Y-109078171D01*
X160131578Y-107744838D02*
X160798244Y-109744838D01*
X160798244Y-109744838D02*
X161464911Y-107744838D01*
X162036340Y-109173409D02*
X162988721Y-109173409D01*
X161845864Y-109744838D02*
X162512530Y-107744838D01*
X162512530Y-107744838D02*
X163179197Y-109744838D01*
X164988721Y-109554361D02*
X164893483Y-109649600D01*
X164893483Y-109649600D02*
X164607769Y-109744838D01*
X164607769Y-109744838D02*
X164417293Y-109744838D01*
X164417293Y-109744838D02*
X164131578Y-109649600D01*
X164131578Y-109649600D02*
X163941102Y-109459123D01*
X163941102Y-109459123D02*
X163845864Y-109268647D01*
X163845864Y-109268647D02*
X163750626Y-108887695D01*
X163750626Y-108887695D02*
X163750626Y-108601980D01*
X163750626Y-108601980D02*
X163845864Y-108221028D01*
X163845864Y-108221028D02*
X163941102Y-108030552D01*
X163941102Y-108030552D02*
X164131578Y-107840076D01*
X164131578Y-107840076D02*
X164417293Y-107744838D01*
X164417293Y-107744838D02*
X164607769Y-107744838D01*
X164607769Y-107744838D02*
X164893483Y-107840076D01*
X164893483Y-107840076D02*
X164988721Y-107935314D01*
X165369674Y-109935314D02*
X166893483Y-109935314D01*
X168512531Y-109554361D02*
X168417293Y-109649600D01*
X168417293Y-109649600D02*
X168131579Y-109744838D01*
X168131579Y-109744838D02*
X167941103Y-109744838D01*
X167941103Y-109744838D02*
X167655388Y-109649600D01*
X167655388Y-109649600D02*
X167464912Y-109459123D01*
X167464912Y-109459123D02*
X167369674Y-109268647D01*
X167369674Y-109268647D02*
X167274436Y-108887695D01*
X167274436Y-108887695D02*
X167274436Y-108601980D01*
X167274436Y-108601980D02*
X167369674Y-108221028D01*
X167369674Y-108221028D02*
X167464912Y-108030552D01*
X167464912Y-108030552D02*
X167655388Y-107840076D01*
X167655388Y-107840076D02*
X167941103Y-107744838D01*
X167941103Y-107744838D02*
X168131579Y-107744838D01*
X168131579Y-107744838D02*
X168417293Y-107840076D01*
X168417293Y-107840076D02*
X168512531Y-107935314D01*
X169750626Y-107744838D02*
X170131579Y-107744838D01*
X170131579Y-107744838D02*
X170322055Y-107840076D01*
X170322055Y-107840076D02*
X170512531Y-108030552D01*
X170512531Y-108030552D02*
X170607769Y-108411504D01*
X170607769Y-108411504D02*
X170607769Y-109078171D01*
X170607769Y-109078171D02*
X170512531Y-109459123D01*
X170512531Y-109459123D02*
X170322055Y-109649600D01*
X170322055Y-109649600D02*
X170131579Y-109744838D01*
X170131579Y-109744838D02*
X169750626Y-109744838D01*
X169750626Y-109744838D02*
X169560150Y-109649600D01*
X169560150Y-109649600D02*
X169369674Y-109459123D01*
X169369674Y-109459123D02*
X169274436Y-109078171D01*
X169274436Y-109078171D02*
X169274436Y-108411504D01*
X169274436Y-108411504D02*
X169369674Y-108030552D01*
X169369674Y-108030552D02*
X169560150Y-107840076D01*
X169560150Y-107840076D02*
X169750626Y-107744838D01*
X171464912Y-109744838D02*
X171464912Y-107744838D01*
X171464912Y-107744838D02*
X172131579Y-109173409D01*
X172131579Y-109173409D02*
X172798245Y-107744838D01*
X172798245Y-107744838D02*
X172798245Y-109744838D01*
X156512530Y-112435314D02*
X156607768Y-112340076D01*
X156607768Y-112340076D02*
X156798244Y-112244838D01*
X156798244Y-112244838D02*
X157274435Y-112244838D01*
X157274435Y-112244838D02*
X157464911Y-112340076D01*
X157464911Y-112340076D02*
X157560149Y-112435314D01*
X157560149Y-112435314D02*
X157655387Y-112625790D01*
X157655387Y-112625790D02*
X157655387Y-112816266D01*
X157655387Y-112816266D02*
X157560149Y-113101980D01*
X157560149Y-113101980D02*
X156417292Y-114244838D01*
X156417292Y-114244838D02*
X157655387Y-114244838D01*
X159369673Y-112911504D02*
X159369673Y-114244838D01*
X158893482Y-112149600D02*
X158417292Y-113578171D01*
X158417292Y-113578171D02*
X159655387Y-113578171D01*
X160131578Y-112244838D02*
X160798244Y-114244838D01*
X160798244Y-114244838D02*
X161464911Y-112244838D01*
X162036340Y-113673409D02*
X162988721Y-113673409D01*
X161845864Y-114244838D02*
X162512530Y-112244838D01*
X162512530Y-112244838D02*
X163179197Y-114244838D01*
X164988721Y-114054361D02*
X164893483Y-114149600D01*
X164893483Y-114149600D02*
X164607769Y-114244838D01*
X164607769Y-114244838D02*
X164417293Y-114244838D01*
X164417293Y-114244838D02*
X164131578Y-114149600D01*
X164131578Y-114149600D02*
X163941102Y-113959123D01*
X163941102Y-113959123D02*
X163845864Y-113768647D01*
X163845864Y-113768647D02*
X163750626Y-113387695D01*
X163750626Y-113387695D02*
X163750626Y-113101980D01*
X163750626Y-113101980D02*
X163845864Y-112721028D01*
X163845864Y-112721028D02*
X163941102Y-112530552D01*
X163941102Y-112530552D02*
X164131578Y-112340076D01*
X164131578Y-112340076D02*
X164417293Y-112244838D01*
X164417293Y-112244838D02*
X164607769Y-112244838D01*
X164607769Y-112244838D02*
X164893483Y-112340076D01*
X164893483Y-112340076D02*
X164988721Y-112435314D01*
X165369674Y-114435314D02*
X166893483Y-114435314D01*
X168512531Y-114054361D02*
X168417293Y-114149600D01*
X168417293Y-114149600D02*
X168131579Y-114244838D01*
X168131579Y-114244838D02*
X167941103Y-114244838D01*
X167941103Y-114244838D02*
X167655388Y-114149600D01*
X167655388Y-114149600D02*
X167464912Y-113959123D01*
X167464912Y-113959123D02*
X167369674Y-113768647D01*
X167369674Y-113768647D02*
X167274436Y-113387695D01*
X167274436Y-113387695D02*
X167274436Y-113101980D01*
X167274436Y-113101980D02*
X167369674Y-112721028D01*
X167369674Y-112721028D02*
X167464912Y-112530552D01*
X167464912Y-112530552D02*
X167655388Y-112340076D01*
X167655388Y-112340076D02*
X167941103Y-112244838D01*
X167941103Y-112244838D02*
X168131579Y-112244838D01*
X168131579Y-112244838D02*
X168417293Y-112340076D01*
X168417293Y-112340076D02*
X168512531Y-112435314D01*
X169750626Y-112244838D02*
X170131579Y-112244838D01*
X170131579Y-112244838D02*
X170322055Y-112340076D01*
X170322055Y-112340076D02*
X170512531Y-112530552D01*
X170512531Y-112530552D02*
X170607769Y-112911504D01*
X170607769Y-112911504D02*
X170607769Y-113578171D01*
X170607769Y-113578171D02*
X170512531Y-113959123D01*
X170512531Y-113959123D02*
X170322055Y-114149600D01*
X170322055Y-114149600D02*
X170131579Y-114244838D01*
X170131579Y-114244838D02*
X169750626Y-114244838D01*
X169750626Y-114244838D02*
X169560150Y-114149600D01*
X169560150Y-114149600D02*
X169369674Y-113959123D01*
X169369674Y-113959123D02*
X169274436Y-113578171D01*
X169274436Y-113578171D02*
X169274436Y-112911504D01*
X169274436Y-112911504D02*
X169369674Y-112530552D01*
X169369674Y-112530552D02*
X169560150Y-112340076D01*
X169560150Y-112340076D02*
X169750626Y-112244838D01*
X171464912Y-114244838D02*
X171464912Y-112244838D01*
X171464912Y-112244838D02*
X172131579Y-113673409D01*
X172131579Y-113673409D02*
X172798245Y-112244838D01*
X172798245Y-112244838D02*
X172798245Y-114244838D01*
X160917292Y-102244838D02*
X162250625Y-102244838D01*
X162250625Y-102244838D02*
X160917292Y-104244838D01*
X160917292Y-104244838D02*
X162250625Y-104244838D01*
X163298244Y-104244838D02*
X163107768Y-104149600D01*
X163107768Y-104149600D02*
X163012530Y-104054361D01*
X163012530Y-104054361D02*
X162917292Y-103863885D01*
X162917292Y-103863885D02*
X162917292Y-103292457D01*
X162917292Y-103292457D02*
X163012530Y-103101980D01*
X163012530Y-103101980D02*
X163107768Y-103006742D01*
X163107768Y-103006742D02*
X163298244Y-102911504D01*
X163298244Y-102911504D02*
X163583959Y-102911504D01*
X163583959Y-102911504D02*
X163774435Y-103006742D01*
X163774435Y-103006742D02*
X163869673Y-103101980D01*
X163869673Y-103101980D02*
X163964911Y-103292457D01*
X163964911Y-103292457D02*
X163964911Y-103863885D01*
X163964911Y-103863885D02*
X163869673Y-104054361D01*
X163869673Y-104054361D02*
X163774435Y-104149600D01*
X163774435Y-104149600D02*
X163583959Y-104244838D01*
X163583959Y-104244838D02*
X163298244Y-104244838D01*
X164822054Y-102911504D02*
X164822054Y-104244838D01*
X164822054Y-103101980D02*
X164917292Y-103006742D01*
X164917292Y-103006742D02*
X165107768Y-102911504D01*
X165107768Y-102911504D02*
X165393483Y-102911504D01*
X165393483Y-102911504D02*
X165583959Y-103006742D01*
X165583959Y-103006742D02*
X165679197Y-103197219D01*
X165679197Y-103197219D02*
X165679197Y-104244838D01*
X167393483Y-104149600D02*
X167203007Y-104244838D01*
X167203007Y-104244838D02*
X166822054Y-104244838D01*
X166822054Y-104244838D02*
X166631578Y-104149600D01*
X166631578Y-104149600D02*
X166536340Y-103959123D01*
X166536340Y-103959123D02*
X166536340Y-103197219D01*
X166536340Y-103197219D02*
X166631578Y-103006742D01*
X166631578Y-103006742D02*
X166822054Y-102911504D01*
X166822054Y-102911504D02*
X167203007Y-102911504D01*
X167203007Y-102911504D02*
X167393483Y-103006742D01*
X167393483Y-103006742D02*
X167488721Y-103197219D01*
X167488721Y-103197219D02*
X167488721Y-103387695D01*
X167488721Y-103387695D02*
X166536340Y-103578171D01*
X170917293Y-104244838D02*
X169774436Y-104244838D01*
X170345864Y-104244838D02*
X170345864Y-102244838D01*
X170345864Y-102244838D02*
X170155388Y-102530552D01*
X170155388Y-102530552D02*
X169964912Y-102721028D01*
X169964912Y-102721028D02*
X169774436Y-102816266D01*
X171679198Y-102435314D02*
X171774436Y-102340076D01*
X171774436Y-102340076D02*
X171964912Y-102244838D01*
X171964912Y-102244838D02*
X172441103Y-102244838D01*
X172441103Y-102244838D02*
X172631579Y-102340076D01*
X172631579Y-102340076D02*
X172726817Y-102435314D01*
X172726817Y-102435314D02*
X172822055Y-102625790D01*
X172822055Y-102625790D02*
X172822055Y-102816266D01*
X172822055Y-102816266D02*
X172726817Y-103101980D01*
X172726817Y-103101980D02*
X171583960Y-104244838D01*
X171583960Y-104244838D02*
X172822055Y-104244838D01*
X161073229Y-92090992D02*
X162406562Y-92090992D01*
X162406562Y-92090992D02*
X161073229Y-94090992D01*
X161073229Y-94090992D02*
X162406562Y-94090992D01*
X163454181Y-94090992D02*
X163263705Y-93995754D01*
X163263705Y-93995754D02*
X163168467Y-93900515D01*
X163168467Y-93900515D02*
X163073229Y-93710039D01*
X163073229Y-93710039D02*
X163073229Y-93138611D01*
X163073229Y-93138611D02*
X163168467Y-92948134D01*
X163168467Y-92948134D02*
X163263705Y-92852896D01*
X163263705Y-92852896D02*
X163454181Y-92757658D01*
X163454181Y-92757658D02*
X163739896Y-92757658D01*
X163739896Y-92757658D02*
X163930372Y-92852896D01*
X163930372Y-92852896D02*
X164025610Y-92948134D01*
X164025610Y-92948134D02*
X164120848Y-93138611D01*
X164120848Y-93138611D02*
X164120848Y-93710039D01*
X164120848Y-93710039D02*
X164025610Y-93900515D01*
X164025610Y-93900515D02*
X163930372Y-93995754D01*
X163930372Y-93995754D02*
X163739896Y-94090992D01*
X163739896Y-94090992D02*
X163454181Y-94090992D01*
X164977991Y-92757658D02*
X164977991Y-94090992D01*
X164977991Y-92948134D02*
X165073229Y-92852896D01*
X165073229Y-92852896D02*
X165263705Y-92757658D01*
X165263705Y-92757658D02*
X165549420Y-92757658D01*
X165549420Y-92757658D02*
X165739896Y-92852896D01*
X165739896Y-92852896D02*
X165835134Y-93043373D01*
X165835134Y-93043373D02*
X165835134Y-94090992D01*
X167549420Y-93995754D02*
X167358944Y-94090992D01*
X167358944Y-94090992D02*
X166977991Y-94090992D01*
X166977991Y-94090992D02*
X166787515Y-93995754D01*
X166787515Y-93995754D02*
X166692277Y-93805277D01*
X166692277Y-93805277D02*
X166692277Y-93043373D01*
X166692277Y-93043373D02*
X166787515Y-92852896D01*
X166787515Y-92852896D02*
X166977991Y-92757658D01*
X166977991Y-92757658D02*
X167358944Y-92757658D01*
X167358944Y-92757658D02*
X167549420Y-92852896D01*
X167549420Y-92852896D02*
X167644658Y-93043373D01*
X167644658Y-93043373D02*
X167644658Y-93233849D01*
X167644658Y-93233849D02*
X166692277Y-93424325D01*
X171073230Y-94090992D02*
X169930373Y-94090992D01*
X170501801Y-94090992D02*
X170501801Y-92090992D01*
X170501801Y-92090992D02*
X170311325Y-92376706D01*
X170311325Y-92376706D02*
X170120849Y-92567182D01*
X170120849Y-92567182D02*
X169930373Y-92662420D01*
X172311325Y-92090992D02*
X172501802Y-92090992D01*
X172501802Y-92090992D02*
X172692278Y-92186230D01*
X172692278Y-92186230D02*
X172787516Y-92281468D01*
X172787516Y-92281468D02*
X172882754Y-92471944D01*
X172882754Y-92471944D02*
X172977992Y-92852896D01*
X172977992Y-92852896D02*
X172977992Y-93329087D01*
X172977992Y-93329087D02*
X172882754Y-93710039D01*
X172882754Y-93710039D02*
X172787516Y-93900515D01*
X172787516Y-93900515D02*
X172692278Y-93995754D01*
X172692278Y-93995754D02*
X172501802Y-94090992D01*
X172501802Y-94090992D02*
X172311325Y-94090992D01*
X172311325Y-94090992D02*
X172120849Y-93995754D01*
X172120849Y-93995754D02*
X172025611Y-93900515D01*
X172025611Y-93900515D02*
X171930373Y-93710039D01*
X171930373Y-93710039D02*
X171835135Y-93329087D01*
X171835135Y-93329087D02*
X171835135Y-92852896D01*
X171835135Y-92852896D02*
X171930373Y-92471944D01*
X171930373Y-92471944D02*
X172025611Y-92281468D01*
X172025611Y-92281468D02*
X172120849Y-92186230D01*
X172120849Y-92186230D02*
X172311325Y-92090992D01*
X161073229Y-97129453D02*
X162406562Y-97129453D01*
X162406562Y-97129453D02*
X161073229Y-99129453D01*
X161073229Y-99129453D02*
X162406562Y-99129453D01*
X163454181Y-99129453D02*
X163263705Y-99034215D01*
X163263705Y-99034215D02*
X163168467Y-98938976D01*
X163168467Y-98938976D02*
X163073229Y-98748500D01*
X163073229Y-98748500D02*
X163073229Y-98177072D01*
X163073229Y-98177072D02*
X163168467Y-97986595D01*
X163168467Y-97986595D02*
X163263705Y-97891357D01*
X163263705Y-97891357D02*
X163454181Y-97796119D01*
X163454181Y-97796119D02*
X163739896Y-97796119D01*
X163739896Y-97796119D02*
X163930372Y-97891357D01*
X163930372Y-97891357D02*
X164025610Y-97986595D01*
X164025610Y-97986595D02*
X164120848Y-98177072D01*
X164120848Y-98177072D02*
X164120848Y-98748500D01*
X164120848Y-98748500D02*
X164025610Y-98938976D01*
X164025610Y-98938976D02*
X163930372Y-99034215D01*
X163930372Y-99034215D02*
X163739896Y-99129453D01*
X163739896Y-99129453D02*
X163454181Y-99129453D01*
X164977991Y-97796119D02*
X164977991Y-99129453D01*
X164977991Y-97986595D02*
X165073229Y-97891357D01*
X165073229Y-97891357D02*
X165263705Y-97796119D01*
X165263705Y-97796119D02*
X165549420Y-97796119D01*
X165549420Y-97796119D02*
X165739896Y-97891357D01*
X165739896Y-97891357D02*
X165835134Y-98081834D01*
X165835134Y-98081834D02*
X165835134Y-99129453D01*
X167549420Y-99034215D02*
X167358944Y-99129453D01*
X167358944Y-99129453D02*
X166977991Y-99129453D01*
X166977991Y-99129453D02*
X166787515Y-99034215D01*
X166787515Y-99034215D02*
X166692277Y-98843738D01*
X166692277Y-98843738D02*
X166692277Y-98081834D01*
X166692277Y-98081834D02*
X166787515Y-97891357D01*
X166787515Y-97891357D02*
X166977991Y-97796119D01*
X166977991Y-97796119D02*
X167358944Y-97796119D01*
X167358944Y-97796119D02*
X167549420Y-97891357D01*
X167549420Y-97891357D02*
X167644658Y-98081834D01*
X167644658Y-98081834D02*
X167644658Y-98272310D01*
X167644658Y-98272310D02*
X166692277Y-98462786D01*
X171073230Y-99129453D02*
X169930373Y-99129453D01*
X170501801Y-99129453D02*
X170501801Y-97129453D01*
X170501801Y-97129453D02*
X170311325Y-97415167D01*
X170311325Y-97415167D02*
X170120849Y-97605643D01*
X170120849Y-97605643D02*
X169930373Y-97700881D01*
X172977992Y-99129453D02*
X171835135Y-99129453D01*
X172406563Y-99129453D02*
X172406563Y-97129453D01*
X172406563Y-97129453D02*
X172216087Y-97415167D01*
X172216087Y-97415167D02*
X172025611Y-97605643D01*
X172025611Y-97605643D02*
X171835135Y-97700881D01*
X162573229Y-46744838D02*
X163906562Y-46744838D01*
X163906562Y-46744838D02*
X162573229Y-48744838D01*
X162573229Y-48744838D02*
X163906562Y-48744838D01*
X164954181Y-48744838D02*
X164763705Y-48649600D01*
X164763705Y-48649600D02*
X164668467Y-48554361D01*
X164668467Y-48554361D02*
X164573229Y-48363885D01*
X164573229Y-48363885D02*
X164573229Y-47792457D01*
X164573229Y-47792457D02*
X164668467Y-47601980D01*
X164668467Y-47601980D02*
X164763705Y-47506742D01*
X164763705Y-47506742D02*
X164954181Y-47411504D01*
X164954181Y-47411504D02*
X165239896Y-47411504D01*
X165239896Y-47411504D02*
X165430372Y-47506742D01*
X165430372Y-47506742D02*
X165525610Y-47601980D01*
X165525610Y-47601980D02*
X165620848Y-47792457D01*
X165620848Y-47792457D02*
X165620848Y-48363885D01*
X165620848Y-48363885D02*
X165525610Y-48554361D01*
X165525610Y-48554361D02*
X165430372Y-48649600D01*
X165430372Y-48649600D02*
X165239896Y-48744838D01*
X165239896Y-48744838D02*
X164954181Y-48744838D01*
X166477991Y-47411504D02*
X166477991Y-48744838D01*
X166477991Y-47601980D02*
X166573229Y-47506742D01*
X166573229Y-47506742D02*
X166763705Y-47411504D01*
X166763705Y-47411504D02*
X167049420Y-47411504D01*
X167049420Y-47411504D02*
X167239896Y-47506742D01*
X167239896Y-47506742D02*
X167335134Y-47697219D01*
X167335134Y-47697219D02*
X167335134Y-48744838D01*
X169049420Y-48649600D02*
X168858944Y-48744838D01*
X168858944Y-48744838D02*
X168477991Y-48744838D01*
X168477991Y-48744838D02*
X168287515Y-48649600D01*
X168287515Y-48649600D02*
X168192277Y-48459123D01*
X168192277Y-48459123D02*
X168192277Y-47697219D01*
X168192277Y-47697219D02*
X168287515Y-47506742D01*
X168287515Y-47506742D02*
X168477991Y-47411504D01*
X168477991Y-47411504D02*
X168858944Y-47411504D01*
X168858944Y-47411504D02*
X169049420Y-47506742D01*
X169049420Y-47506742D02*
X169144658Y-47697219D01*
X169144658Y-47697219D02*
X169144658Y-47887695D01*
X169144658Y-47887695D02*
X168192277Y-48078171D01*
X172573230Y-48744838D02*
X171430373Y-48744838D01*
X172001801Y-48744838D02*
X172001801Y-46744838D01*
X172001801Y-46744838D02*
X171811325Y-47030552D01*
X171811325Y-47030552D02*
X171620849Y-47221028D01*
X171620849Y-47221028D02*
X171430373Y-47316266D01*
X162573229Y-51783300D02*
X163906562Y-51783300D01*
X163906562Y-51783300D02*
X162573229Y-53783300D01*
X162573229Y-53783300D02*
X163906562Y-53783300D01*
X164954181Y-53783300D02*
X164763705Y-53688062D01*
X164763705Y-53688062D02*
X164668467Y-53592823D01*
X164668467Y-53592823D02*
X164573229Y-53402347D01*
X164573229Y-53402347D02*
X164573229Y-52830919D01*
X164573229Y-52830919D02*
X164668467Y-52640442D01*
X164668467Y-52640442D02*
X164763705Y-52545204D01*
X164763705Y-52545204D02*
X164954181Y-52449966D01*
X164954181Y-52449966D02*
X165239896Y-52449966D01*
X165239896Y-52449966D02*
X165430372Y-52545204D01*
X165430372Y-52545204D02*
X165525610Y-52640442D01*
X165525610Y-52640442D02*
X165620848Y-52830919D01*
X165620848Y-52830919D02*
X165620848Y-53402347D01*
X165620848Y-53402347D02*
X165525610Y-53592823D01*
X165525610Y-53592823D02*
X165430372Y-53688062D01*
X165430372Y-53688062D02*
X165239896Y-53783300D01*
X165239896Y-53783300D02*
X164954181Y-53783300D01*
X166477991Y-52449966D02*
X166477991Y-53783300D01*
X166477991Y-52640442D02*
X166573229Y-52545204D01*
X166573229Y-52545204D02*
X166763705Y-52449966D01*
X166763705Y-52449966D02*
X167049420Y-52449966D01*
X167049420Y-52449966D02*
X167239896Y-52545204D01*
X167239896Y-52545204D02*
X167335134Y-52735681D01*
X167335134Y-52735681D02*
X167335134Y-53783300D01*
X169049420Y-53688062D02*
X168858944Y-53783300D01*
X168858944Y-53783300D02*
X168477991Y-53783300D01*
X168477991Y-53783300D02*
X168287515Y-53688062D01*
X168287515Y-53688062D02*
X168192277Y-53497585D01*
X168192277Y-53497585D02*
X168192277Y-52735681D01*
X168192277Y-52735681D02*
X168287515Y-52545204D01*
X168287515Y-52545204D02*
X168477991Y-52449966D01*
X168477991Y-52449966D02*
X168858944Y-52449966D01*
X168858944Y-52449966D02*
X169049420Y-52545204D01*
X169049420Y-52545204D02*
X169144658Y-52735681D01*
X169144658Y-52735681D02*
X169144658Y-52926157D01*
X169144658Y-52926157D02*
X168192277Y-53116633D01*
X171430373Y-51973776D02*
X171525611Y-51878538D01*
X171525611Y-51878538D02*
X171716087Y-51783300D01*
X171716087Y-51783300D02*
X172192278Y-51783300D01*
X172192278Y-51783300D02*
X172382754Y-51878538D01*
X172382754Y-51878538D02*
X172477992Y-51973776D01*
X172477992Y-51973776D02*
X172573230Y-52164252D01*
X172573230Y-52164252D02*
X172573230Y-52354728D01*
X172573230Y-52354728D02*
X172477992Y-52640442D01*
X172477992Y-52640442D02*
X171335135Y-53783300D01*
X171335135Y-53783300D02*
X172573230Y-53783300D01*
X162573229Y-56821761D02*
X163906562Y-56821761D01*
X163906562Y-56821761D02*
X162573229Y-58821761D01*
X162573229Y-58821761D02*
X163906562Y-58821761D01*
X164954181Y-58821761D02*
X164763705Y-58726523D01*
X164763705Y-58726523D02*
X164668467Y-58631284D01*
X164668467Y-58631284D02*
X164573229Y-58440808D01*
X164573229Y-58440808D02*
X164573229Y-57869380D01*
X164573229Y-57869380D02*
X164668467Y-57678903D01*
X164668467Y-57678903D02*
X164763705Y-57583665D01*
X164763705Y-57583665D02*
X164954181Y-57488427D01*
X164954181Y-57488427D02*
X165239896Y-57488427D01*
X165239896Y-57488427D02*
X165430372Y-57583665D01*
X165430372Y-57583665D02*
X165525610Y-57678903D01*
X165525610Y-57678903D02*
X165620848Y-57869380D01*
X165620848Y-57869380D02*
X165620848Y-58440808D01*
X165620848Y-58440808D02*
X165525610Y-58631284D01*
X165525610Y-58631284D02*
X165430372Y-58726523D01*
X165430372Y-58726523D02*
X165239896Y-58821761D01*
X165239896Y-58821761D02*
X164954181Y-58821761D01*
X166477991Y-57488427D02*
X166477991Y-58821761D01*
X166477991Y-57678903D02*
X166573229Y-57583665D01*
X166573229Y-57583665D02*
X166763705Y-57488427D01*
X166763705Y-57488427D02*
X167049420Y-57488427D01*
X167049420Y-57488427D02*
X167239896Y-57583665D01*
X167239896Y-57583665D02*
X167335134Y-57774142D01*
X167335134Y-57774142D02*
X167335134Y-58821761D01*
X169049420Y-58726523D02*
X168858944Y-58821761D01*
X168858944Y-58821761D02*
X168477991Y-58821761D01*
X168477991Y-58821761D02*
X168287515Y-58726523D01*
X168287515Y-58726523D02*
X168192277Y-58536046D01*
X168192277Y-58536046D02*
X168192277Y-57774142D01*
X168192277Y-57774142D02*
X168287515Y-57583665D01*
X168287515Y-57583665D02*
X168477991Y-57488427D01*
X168477991Y-57488427D02*
X168858944Y-57488427D01*
X168858944Y-57488427D02*
X169049420Y-57583665D01*
X169049420Y-57583665D02*
X169144658Y-57774142D01*
X169144658Y-57774142D02*
X169144658Y-57964618D01*
X169144658Y-57964618D02*
X168192277Y-58155094D01*
X171335135Y-56821761D02*
X172573230Y-56821761D01*
X172573230Y-56821761D02*
X171906563Y-57583665D01*
X171906563Y-57583665D02*
X172192278Y-57583665D01*
X172192278Y-57583665D02*
X172382754Y-57678903D01*
X172382754Y-57678903D02*
X172477992Y-57774142D01*
X172477992Y-57774142D02*
X172573230Y-57964618D01*
X172573230Y-57964618D02*
X172573230Y-58440808D01*
X172573230Y-58440808D02*
X172477992Y-58631284D01*
X172477992Y-58631284D02*
X172382754Y-58726523D01*
X172382754Y-58726523D02*
X172192278Y-58821761D01*
X172192278Y-58821761D02*
X171620849Y-58821761D01*
X171620849Y-58821761D02*
X171430373Y-58726523D01*
X171430373Y-58726523D02*
X171335135Y-58631284D01*
X162573229Y-61860223D02*
X163906562Y-61860223D01*
X163906562Y-61860223D02*
X162573229Y-63860223D01*
X162573229Y-63860223D02*
X163906562Y-63860223D01*
X164954181Y-63860223D02*
X164763705Y-63764985D01*
X164763705Y-63764985D02*
X164668467Y-63669746D01*
X164668467Y-63669746D02*
X164573229Y-63479270D01*
X164573229Y-63479270D02*
X164573229Y-62907842D01*
X164573229Y-62907842D02*
X164668467Y-62717365D01*
X164668467Y-62717365D02*
X164763705Y-62622127D01*
X164763705Y-62622127D02*
X164954181Y-62526889D01*
X164954181Y-62526889D02*
X165239896Y-62526889D01*
X165239896Y-62526889D02*
X165430372Y-62622127D01*
X165430372Y-62622127D02*
X165525610Y-62717365D01*
X165525610Y-62717365D02*
X165620848Y-62907842D01*
X165620848Y-62907842D02*
X165620848Y-63479270D01*
X165620848Y-63479270D02*
X165525610Y-63669746D01*
X165525610Y-63669746D02*
X165430372Y-63764985D01*
X165430372Y-63764985D02*
X165239896Y-63860223D01*
X165239896Y-63860223D02*
X164954181Y-63860223D01*
X166477991Y-62526889D02*
X166477991Y-63860223D01*
X166477991Y-62717365D02*
X166573229Y-62622127D01*
X166573229Y-62622127D02*
X166763705Y-62526889D01*
X166763705Y-62526889D02*
X167049420Y-62526889D01*
X167049420Y-62526889D02*
X167239896Y-62622127D01*
X167239896Y-62622127D02*
X167335134Y-62812604D01*
X167335134Y-62812604D02*
X167335134Y-63860223D01*
X169049420Y-63764985D02*
X168858944Y-63860223D01*
X168858944Y-63860223D02*
X168477991Y-63860223D01*
X168477991Y-63860223D02*
X168287515Y-63764985D01*
X168287515Y-63764985D02*
X168192277Y-63574508D01*
X168192277Y-63574508D02*
X168192277Y-62812604D01*
X168192277Y-62812604D02*
X168287515Y-62622127D01*
X168287515Y-62622127D02*
X168477991Y-62526889D01*
X168477991Y-62526889D02*
X168858944Y-62526889D01*
X168858944Y-62526889D02*
X169049420Y-62622127D01*
X169049420Y-62622127D02*
X169144658Y-62812604D01*
X169144658Y-62812604D02*
X169144658Y-63003080D01*
X169144658Y-63003080D02*
X168192277Y-63193556D01*
X172382754Y-62526889D02*
X172382754Y-63860223D01*
X171906563Y-61764985D02*
X171430373Y-63193556D01*
X171430373Y-63193556D02*
X172668468Y-63193556D01*
X162573229Y-66898684D02*
X163906562Y-66898684D01*
X163906562Y-66898684D02*
X162573229Y-68898684D01*
X162573229Y-68898684D02*
X163906562Y-68898684D01*
X164954181Y-68898684D02*
X164763705Y-68803446D01*
X164763705Y-68803446D02*
X164668467Y-68708207D01*
X164668467Y-68708207D02*
X164573229Y-68517731D01*
X164573229Y-68517731D02*
X164573229Y-67946303D01*
X164573229Y-67946303D02*
X164668467Y-67755826D01*
X164668467Y-67755826D02*
X164763705Y-67660588D01*
X164763705Y-67660588D02*
X164954181Y-67565350D01*
X164954181Y-67565350D02*
X165239896Y-67565350D01*
X165239896Y-67565350D02*
X165430372Y-67660588D01*
X165430372Y-67660588D02*
X165525610Y-67755826D01*
X165525610Y-67755826D02*
X165620848Y-67946303D01*
X165620848Y-67946303D02*
X165620848Y-68517731D01*
X165620848Y-68517731D02*
X165525610Y-68708207D01*
X165525610Y-68708207D02*
X165430372Y-68803446D01*
X165430372Y-68803446D02*
X165239896Y-68898684D01*
X165239896Y-68898684D02*
X164954181Y-68898684D01*
X166477991Y-67565350D02*
X166477991Y-68898684D01*
X166477991Y-67755826D02*
X166573229Y-67660588D01*
X166573229Y-67660588D02*
X166763705Y-67565350D01*
X166763705Y-67565350D02*
X167049420Y-67565350D01*
X167049420Y-67565350D02*
X167239896Y-67660588D01*
X167239896Y-67660588D02*
X167335134Y-67851065D01*
X167335134Y-67851065D02*
X167335134Y-68898684D01*
X169049420Y-68803446D02*
X168858944Y-68898684D01*
X168858944Y-68898684D02*
X168477991Y-68898684D01*
X168477991Y-68898684D02*
X168287515Y-68803446D01*
X168287515Y-68803446D02*
X168192277Y-68612969D01*
X168192277Y-68612969D02*
X168192277Y-67851065D01*
X168192277Y-67851065D02*
X168287515Y-67660588D01*
X168287515Y-67660588D02*
X168477991Y-67565350D01*
X168477991Y-67565350D02*
X168858944Y-67565350D01*
X168858944Y-67565350D02*
X169049420Y-67660588D01*
X169049420Y-67660588D02*
X169144658Y-67851065D01*
X169144658Y-67851065D02*
X169144658Y-68041541D01*
X169144658Y-68041541D02*
X168192277Y-68232017D01*
X172477992Y-66898684D02*
X171525611Y-66898684D01*
X171525611Y-66898684D02*
X171430373Y-67851065D01*
X171430373Y-67851065D02*
X171525611Y-67755826D01*
X171525611Y-67755826D02*
X171716087Y-67660588D01*
X171716087Y-67660588D02*
X172192278Y-67660588D01*
X172192278Y-67660588D02*
X172382754Y-67755826D01*
X172382754Y-67755826D02*
X172477992Y-67851065D01*
X172477992Y-67851065D02*
X172573230Y-68041541D01*
X172573230Y-68041541D02*
X172573230Y-68517731D01*
X172573230Y-68517731D02*
X172477992Y-68708207D01*
X172477992Y-68708207D02*
X172382754Y-68803446D01*
X172382754Y-68803446D02*
X172192278Y-68898684D01*
X172192278Y-68898684D02*
X171716087Y-68898684D01*
X171716087Y-68898684D02*
X171525611Y-68803446D01*
X171525611Y-68803446D02*
X171430373Y-68708207D01*
X162573229Y-71937146D02*
X163906562Y-71937146D01*
X163906562Y-71937146D02*
X162573229Y-73937146D01*
X162573229Y-73937146D02*
X163906562Y-73937146D01*
X164954181Y-73937146D02*
X164763705Y-73841908D01*
X164763705Y-73841908D02*
X164668467Y-73746669D01*
X164668467Y-73746669D02*
X164573229Y-73556193D01*
X164573229Y-73556193D02*
X164573229Y-72984765D01*
X164573229Y-72984765D02*
X164668467Y-72794288D01*
X164668467Y-72794288D02*
X164763705Y-72699050D01*
X164763705Y-72699050D02*
X164954181Y-72603812D01*
X164954181Y-72603812D02*
X165239896Y-72603812D01*
X165239896Y-72603812D02*
X165430372Y-72699050D01*
X165430372Y-72699050D02*
X165525610Y-72794288D01*
X165525610Y-72794288D02*
X165620848Y-72984765D01*
X165620848Y-72984765D02*
X165620848Y-73556193D01*
X165620848Y-73556193D02*
X165525610Y-73746669D01*
X165525610Y-73746669D02*
X165430372Y-73841908D01*
X165430372Y-73841908D02*
X165239896Y-73937146D01*
X165239896Y-73937146D02*
X164954181Y-73937146D01*
X166477991Y-72603812D02*
X166477991Y-73937146D01*
X166477991Y-72794288D02*
X166573229Y-72699050D01*
X166573229Y-72699050D02*
X166763705Y-72603812D01*
X166763705Y-72603812D02*
X167049420Y-72603812D01*
X167049420Y-72603812D02*
X167239896Y-72699050D01*
X167239896Y-72699050D02*
X167335134Y-72889527D01*
X167335134Y-72889527D02*
X167335134Y-73937146D01*
X169049420Y-73841908D02*
X168858944Y-73937146D01*
X168858944Y-73937146D02*
X168477991Y-73937146D01*
X168477991Y-73937146D02*
X168287515Y-73841908D01*
X168287515Y-73841908D02*
X168192277Y-73651431D01*
X168192277Y-73651431D02*
X168192277Y-72889527D01*
X168192277Y-72889527D02*
X168287515Y-72699050D01*
X168287515Y-72699050D02*
X168477991Y-72603812D01*
X168477991Y-72603812D02*
X168858944Y-72603812D01*
X168858944Y-72603812D02*
X169049420Y-72699050D01*
X169049420Y-72699050D02*
X169144658Y-72889527D01*
X169144658Y-72889527D02*
X169144658Y-73080003D01*
X169144658Y-73080003D02*
X168192277Y-73270479D01*
X172382754Y-71937146D02*
X172001801Y-71937146D01*
X172001801Y-71937146D02*
X171811325Y-72032384D01*
X171811325Y-72032384D02*
X171716087Y-72127622D01*
X171716087Y-72127622D02*
X171525611Y-72413336D01*
X171525611Y-72413336D02*
X171430373Y-72794288D01*
X171430373Y-72794288D02*
X171430373Y-73556193D01*
X171430373Y-73556193D02*
X171525611Y-73746669D01*
X171525611Y-73746669D02*
X171620849Y-73841908D01*
X171620849Y-73841908D02*
X171811325Y-73937146D01*
X171811325Y-73937146D02*
X172192278Y-73937146D01*
X172192278Y-73937146D02*
X172382754Y-73841908D01*
X172382754Y-73841908D02*
X172477992Y-73746669D01*
X172477992Y-73746669D02*
X172573230Y-73556193D01*
X172573230Y-73556193D02*
X172573230Y-73080003D01*
X172573230Y-73080003D02*
X172477992Y-72889527D01*
X172477992Y-72889527D02*
X172382754Y-72794288D01*
X172382754Y-72794288D02*
X172192278Y-72699050D01*
X172192278Y-72699050D02*
X171811325Y-72699050D01*
X171811325Y-72699050D02*
X171620849Y-72794288D01*
X171620849Y-72794288D02*
X171525611Y-72889527D01*
X171525611Y-72889527D02*
X171430373Y-73080003D01*
X162573229Y-76975607D02*
X163906562Y-76975607D01*
X163906562Y-76975607D02*
X162573229Y-78975607D01*
X162573229Y-78975607D02*
X163906562Y-78975607D01*
X164954181Y-78975607D02*
X164763705Y-78880369D01*
X164763705Y-78880369D02*
X164668467Y-78785130D01*
X164668467Y-78785130D02*
X164573229Y-78594654D01*
X164573229Y-78594654D02*
X164573229Y-78023226D01*
X164573229Y-78023226D02*
X164668467Y-77832749D01*
X164668467Y-77832749D02*
X164763705Y-77737511D01*
X164763705Y-77737511D02*
X164954181Y-77642273D01*
X164954181Y-77642273D02*
X165239896Y-77642273D01*
X165239896Y-77642273D02*
X165430372Y-77737511D01*
X165430372Y-77737511D02*
X165525610Y-77832749D01*
X165525610Y-77832749D02*
X165620848Y-78023226D01*
X165620848Y-78023226D02*
X165620848Y-78594654D01*
X165620848Y-78594654D02*
X165525610Y-78785130D01*
X165525610Y-78785130D02*
X165430372Y-78880369D01*
X165430372Y-78880369D02*
X165239896Y-78975607D01*
X165239896Y-78975607D02*
X164954181Y-78975607D01*
X166477991Y-77642273D02*
X166477991Y-78975607D01*
X166477991Y-77832749D02*
X166573229Y-77737511D01*
X166573229Y-77737511D02*
X166763705Y-77642273D01*
X166763705Y-77642273D02*
X167049420Y-77642273D01*
X167049420Y-77642273D02*
X167239896Y-77737511D01*
X167239896Y-77737511D02*
X167335134Y-77927988D01*
X167335134Y-77927988D02*
X167335134Y-78975607D01*
X169049420Y-78880369D02*
X168858944Y-78975607D01*
X168858944Y-78975607D02*
X168477991Y-78975607D01*
X168477991Y-78975607D02*
X168287515Y-78880369D01*
X168287515Y-78880369D02*
X168192277Y-78689892D01*
X168192277Y-78689892D02*
X168192277Y-77927988D01*
X168192277Y-77927988D02*
X168287515Y-77737511D01*
X168287515Y-77737511D02*
X168477991Y-77642273D01*
X168477991Y-77642273D02*
X168858944Y-77642273D01*
X168858944Y-77642273D02*
X169049420Y-77737511D01*
X169049420Y-77737511D02*
X169144658Y-77927988D01*
X169144658Y-77927988D02*
X169144658Y-78118464D01*
X169144658Y-78118464D02*
X168192277Y-78308940D01*
X171335135Y-76975607D02*
X172668468Y-76975607D01*
X172668468Y-76975607D02*
X171811325Y-78975607D01*
X162573229Y-82014069D02*
X163906562Y-82014069D01*
X163906562Y-82014069D02*
X162573229Y-84014069D01*
X162573229Y-84014069D02*
X163906562Y-84014069D01*
X164954181Y-84014069D02*
X164763705Y-83918831D01*
X164763705Y-83918831D02*
X164668467Y-83823592D01*
X164668467Y-83823592D02*
X164573229Y-83633116D01*
X164573229Y-83633116D02*
X164573229Y-83061688D01*
X164573229Y-83061688D02*
X164668467Y-82871211D01*
X164668467Y-82871211D02*
X164763705Y-82775973D01*
X164763705Y-82775973D02*
X164954181Y-82680735D01*
X164954181Y-82680735D02*
X165239896Y-82680735D01*
X165239896Y-82680735D02*
X165430372Y-82775973D01*
X165430372Y-82775973D02*
X165525610Y-82871211D01*
X165525610Y-82871211D02*
X165620848Y-83061688D01*
X165620848Y-83061688D02*
X165620848Y-83633116D01*
X165620848Y-83633116D02*
X165525610Y-83823592D01*
X165525610Y-83823592D02*
X165430372Y-83918831D01*
X165430372Y-83918831D02*
X165239896Y-84014069D01*
X165239896Y-84014069D02*
X164954181Y-84014069D01*
X166477991Y-82680735D02*
X166477991Y-84014069D01*
X166477991Y-82871211D02*
X166573229Y-82775973D01*
X166573229Y-82775973D02*
X166763705Y-82680735D01*
X166763705Y-82680735D02*
X167049420Y-82680735D01*
X167049420Y-82680735D02*
X167239896Y-82775973D01*
X167239896Y-82775973D02*
X167335134Y-82966450D01*
X167335134Y-82966450D02*
X167335134Y-84014069D01*
X169049420Y-83918831D02*
X168858944Y-84014069D01*
X168858944Y-84014069D02*
X168477991Y-84014069D01*
X168477991Y-84014069D02*
X168287515Y-83918831D01*
X168287515Y-83918831D02*
X168192277Y-83728354D01*
X168192277Y-83728354D02*
X168192277Y-82966450D01*
X168192277Y-82966450D02*
X168287515Y-82775973D01*
X168287515Y-82775973D02*
X168477991Y-82680735D01*
X168477991Y-82680735D02*
X168858944Y-82680735D01*
X168858944Y-82680735D02*
X169049420Y-82775973D01*
X169049420Y-82775973D02*
X169144658Y-82966450D01*
X169144658Y-82966450D02*
X169144658Y-83156926D01*
X169144658Y-83156926D02*
X168192277Y-83347402D01*
X171811325Y-82871211D02*
X171620849Y-82775973D01*
X171620849Y-82775973D02*
X171525611Y-82680735D01*
X171525611Y-82680735D02*
X171430373Y-82490259D01*
X171430373Y-82490259D02*
X171430373Y-82395021D01*
X171430373Y-82395021D02*
X171525611Y-82204545D01*
X171525611Y-82204545D02*
X171620849Y-82109307D01*
X171620849Y-82109307D02*
X171811325Y-82014069D01*
X171811325Y-82014069D02*
X172192278Y-82014069D01*
X172192278Y-82014069D02*
X172382754Y-82109307D01*
X172382754Y-82109307D02*
X172477992Y-82204545D01*
X172477992Y-82204545D02*
X172573230Y-82395021D01*
X172573230Y-82395021D02*
X172573230Y-82490259D01*
X172573230Y-82490259D02*
X172477992Y-82680735D01*
X172477992Y-82680735D02*
X172382754Y-82775973D01*
X172382754Y-82775973D02*
X172192278Y-82871211D01*
X172192278Y-82871211D02*
X171811325Y-82871211D01*
X171811325Y-82871211D02*
X171620849Y-82966450D01*
X171620849Y-82966450D02*
X171525611Y-83061688D01*
X171525611Y-83061688D02*
X171430373Y-83252164D01*
X171430373Y-83252164D02*
X171430373Y-83633116D01*
X171430373Y-83633116D02*
X171525611Y-83823592D01*
X171525611Y-83823592D02*
X171620849Y-83918831D01*
X171620849Y-83918831D02*
X171811325Y-84014069D01*
X171811325Y-84014069D02*
X172192278Y-84014069D01*
X172192278Y-84014069D02*
X172382754Y-83918831D01*
X172382754Y-83918831D02*
X172477992Y-83823592D01*
X172477992Y-83823592D02*
X172573230Y-83633116D01*
X172573230Y-83633116D02*
X172573230Y-83252164D01*
X172573230Y-83252164D02*
X172477992Y-83061688D01*
X172477992Y-83061688D02*
X172382754Y-82966450D01*
X172382754Y-82966450D02*
X172192278Y-82871211D01*
X162573229Y-87052530D02*
X163906562Y-87052530D01*
X163906562Y-87052530D02*
X162573229Y-89052530D01*
X162573229Y-89052530D02*
X163906562Y-89052530D01*
X164954181Y-89052530D02*
X164763705Y-88957292D01*
X164763705Y-88957292D02*
X164668467Y-88862053D01*
X164668467Y-88862053D02*
X164573229Y-88671577D01*
X164573229Y-88671577D02*
X164573229Y-88100149D01*
X164573229Y-88100149D02*
X164668467Y-87909672D01*
X164668467Y-87909672D02*
X164763705Y-87814434D01*
X164763705Y-87814434D02*
X164954181Y-87719196D01*
X164954181Y-87719196D02*
X165239896Y-87719196D01*
X165239896Y-87719196D02*
X165430372Y-87814434D01*
X165430372Y-87814434D02*
X165525610Y-87909672D01*
X165525610Y-87909672D02*
X165620848Y-88100149D01*
X165620848Y-88100149D02*
X165620848Y-88671577D01*
X165620848Y-88671577D02*
X165525610Y-88862053D01*
X165525610Y-88862053D02*
X165430372Y-88957292D01*
X165430372Y-88957292D02*
X165239896Y-89052530D01*
X165239896Y-89052530D02*
X164954181Y-89052530D01*
X166477991Y-87719196D02*
X166477991Y-89052530D01*
X166477991Y-87909672D02*
X166573229Y-87814434D01*
X166573229Y-87814434D02*
X166763705Y-87719196D01*
X166763705Y-87719196D02*
X167049420Y-87719196D01*
X167049420Y-87719196D02*
X167239896Y-87814434D01*
X167239896Y-87814434D02*
X167335134Y-88004911D01*
X167335134Y-88004911D02*
X167335134Y-89052530D01*
X169049420Y-88957292D02*
X168858944Y-89052530D01*
X168858944Y-89052530D02*
X168477991Y-89052530D01*
X168477991Y-89052530D02*
X168287515Y-88957292D01*
X168287515Y-88957292D02*
X168192277Y-88766815D01*
X168192277Y-88766815D02*
X168192277Y-88004911D01*
X168192277Y-88004911D02*
X168287515Y-87814434D01*
X168287515Y-87814434D02*
X168477991Y-87719196D01*
X168477991Y-87719196D02*
X168858944Y-87719196D01*
X168858944Y-87719196D02*
X169049420Y-87814434D01*
X169049420Y-87814434D02*
X169144658Y-88004911D01*
X169144658Y-88004911D02*
X169144658Y-88195387D01*
X169144658Y-88195387D02*
X168192277Y-88385863D01*
X171620849Y-89052530D02*
X172001801Y-89052530D01*
X172001801Y-89052530D02*
X172192278Y-88957292D01*
X172192278Y-88957292D02*
X172287516Y-88862053D01*
X172287516Y-88862053D02*
X172477992Y-88576339D01*
X172477992Y-88576339D02*
X172573230Y-88195387D01*
X172573230Y-88195387D02*
X172573230Y-87433482D01*
X172573230Y-87433482D02*
X172477992Y-87243006D01*
X172477992Y-87243006D02*
X172382754Y-87147768D01*
X172382754Y-87147768D02*
X172192278Y-87052530D01*
X172192278Y-87052530D02*
X171811325Y-87052530D01*
X171811325Y-87052530D02*
X171620849Y-87147768D01*
X171620849Y-87147768D02*
X171525611Y-87243006D01*
X171525611Y-87243006D02*
X171430373Y-87433482D01*
X171430373Y-87433482D02*
X171430373Y-87909672D01*
X171430373Y-87909672D02*
X171525611Y-88100149D01*
X171525611Y-88100149D02*
X171620849Y-88195387D01*
X171620849Y-88195387D02*
X171811325Y-88290625D01*
X171811325Y-88290625D02*
X172192278Y-88290625D01*
X172192278Y-88290625D02*
X172382754Y-88195387D01*
X172382754Y-88195387D02*
X172477992Y-88100149D01*
X172477992Y-88100149D02*
X172573230Y-87909672D01*
X193577292Y-40744838D02*
X194910625Y-40744838D01*
X194910625Y-40744838D02*
X193577292Y-42744838D01*
X193577292Y-42744838D02*
X194910625Y-42744838D01*
X195958244Y-42744838D02*
X195767768Y-42649600D01*
X195767768Y-42649600D02*
X195672530Y-42554361D01*
X195672530Y-42554361D02*
X195577292Y-42363885D01*
X195577292Y-42363885D02*
X195577292Y-41792457D01*
X195577292Y-41792457D02*
X195672530Y-41601980D01*
X195672530Y-41601980D02*
X195767768Y-41506742D01*
X195767768Y-41506742D02*
X195958244Y-41411504D01*
X195958244Y-41411504D02*
X196243959Y-41411504D01*
X196243959Y-41411504D02*
X196434435Y-41506742D01*
X196434435Y-41506742D02*
X196529673Y-41601980D01*
X196529673Y-41601980D02*
X196624911Y-41792457D01*
X196624911Y-41792457D02*
X196624911Y-42363885D01*
X196624911Y-42363885D02*
X196529673Y-42554361D01*
X196529673Y-42554361D02*
X196434435Y-42649600D01*
X196434435Y-42649600D02*
X196243959Y-42744838D01*
X196243959Y-42744838D02*
X195958244Y-42744838D01*
X197482054Y-41411504D02*
X197482054Y-42744838D01*
X197482054Y-41601980D02*
X197577292Y-41506742D01*
X197577292Y-41506742D02*
X197767768Y-41411504D01*
X197767768Y-41411504D02*
X198053483Y-41411504D01*
X198053483Y-41411504D02*
X198243959Y-41506742D01*
X198243959Y-41506742D02*
X198339197Y-41697219D01*
X198339197Y-41697219D02*
X198339197Y-42744838D01*
X200053483Y-42649600D02*
X199863007Y-42744838D01*
X199863007Y-42744838D02*
X199482054Y-42744838D01*
X199482054Y-42744838D02*
X199291578Y-42649600D01*
X199291578Y-42649600D02*
X199196340Y-42459123D01*
X199196340Y-42459123D02*
X199196340Y-41697219D01*
X199196340Y-41697219D02*
X199291578Y-41506742D01*
X199291578Y-41506742D02*
X199482054Y-41411504D01*
X199482054Y-41411504D02*
X199863007Y-41411504D01*
X199863007Y-41411504D02*
X200053483Y-41506742D01*
X200053483Y-41506742D02*
X200148721Y-41697219D01*
X200148721Y-41697219D02*
X200148721Y-41887695D01*
X200148721Y-41887695D02*
X199196340Y-42078171D01*
X203577293Y-42744838D02*
X202434436Y-42744838D01*
X203005864Y-42744838D02*
X203005864Y-40744838D01*
X203005864Y-40744838D02*
X202815388Y-41030552D01*
X202815388Y-41030552D02*
X202624912Y-41221028D01*
X202624912Y-41221028D02*
X202434436Y-41316266D01*
X194077292Y-128244838D02*
X195410625Y-128244838D01*
X195410625Y-128244838D02*
X194077292Y-130244838D01*
X194077292Y-130244838D02*
X195410625Y-130244838D01*
X196458244Y-130244838D02*
X196267768Y-130149600D01*
X196267768Y-130149600D02*
X196172530Y-130054361D01*
X196172530Y-130054361D02*
X196077292Y-129863885D01*
X196077292Y-129863885D02*
X196077292Y-129292457D01*
X196077292Y-129292457D02*
X196172530Y-129101980D01*
X196172530Y-129101980D02*
X196267768Y-129006742D01*
X196267768Y-129006742D02*
X196458244Y-128911504D01*
X196458244Y-128911504D02*
X196743959Y-128911504D01*
X196743959Y-128911504D02*
X196934435Y-129006742D01*
X196934435Y-129006742D02*
X197029673Y-129101980D01*
X197029673Y-129101980D02*
X197124911Y-129292457D01*
X197124911Y-129292457D02*
X197124911Y-129863885D01*
X197124911Y-129863885D02*
X197029673Y-130054361D01*
X197029673Y-130054361D02*
X196934435Y-130149600D01*
X196934435Y-130149600D02*
X196743959Y-130244838D01*
X196743959Y-130244838D02*
X196458244Y-130244838D01*
X197982054Y-128911504D02*
X197982054Y-130244838D01*
X197982054Y-129101980D02*
X198077292Y-129006742D01*
X198077292Y-129006742D02*
X198267768Y-128911504D01*
X198267768Y-128911504D02*
X198553483Y-128911504D01*
X198553483Y-128911504D02*
X198743959Y-129006742D01*
X198743959Y-129006742D02*
X198839197Y-129197219D01*
X198839197Y-129197219D02*
X198839197Y-130244838D01*
X200553483Y-130149600D02*
X200363007Y-130244838D01*
X200363007Y-130244838D02*
X199982054Y-130244838D01*
X199982054Y-130244838D02*
X199791578Y-130149600D01*
X199791578Y-130149600D02*
X199696340Y-129959123D01*
X199696340Y-129959123D02*
X199696340Y-129197219D01*
X199696340Y-129197219D02*
X199791578Y-129006742D01*
X199791578Y-129006742D02*
X199982054Y-128911504D01*
X199982054Y-128911504D02*
X200363007Y-128911504D01*
X200363007Y-128911504D02*
X200553483Y-129006742D01*
X200553483Y-129006742D02*
X200648721Y-129197219D01*
X200648721Y-129197219D02*
X200648721Y-129387695D01*
X200648721Y-129387695D02*
X199696340Y-129578171D01*
X204077293Y-130244838D02*
X202934436Y-130244838D01*
X203505864Y-130244838D02*
X203505864Y-128244838D01*
X203505864Y-128244838D02*
X203315388Y-128530552D01*
X203315388Y-128530552D02*
X203124912Y-128721028D01*
X203124912Y-128721028D02*
X202934436Y-128816266D01*
X204839198Y-128435314D02*
X204934436Y-128340076D01*
X204934436Y-128340076D02*
X205124912Y-128244838D01*
X205124912Y-128244838D02*
X205601103Y-128244838D01*
X205601103Y-128244838D02*
X205791579Y-128340076D01*
X205791579Y-128340076D02*
X205886817Y-128435314D01*
X205886817Y-128435314D02*
X205982055Y-128625790D01*
X205982055Y-128625790D02*
X205982055Y-128816266D01*
X205982055Y-128816266D02*
X205886817Y-129101980D01*
X205886817Y-129101980D02*
X204743960Y-130244838D01*
X204743960Y-130244838D02*
X205982055Y-130244838D01*
X95274435Y-115747219D02*
X95560149Y-115842457D01*
X95560149Y-115842457D02*
X95655387Y-115937695D01*
X95655387Y-115937695D02*
X95750625Y-116128171D01*
X95750625Y-116128171D02*
X95750625Y-116413885D01*
X95750625Y-116413885D02*
X95655387Y-116604361D01*
X95655387Y-116604361D02*
X95560149Y-116699600D01*
X95560149Y-116699600D02*
X95369673Y-116794838D01*
X95369673Y-116794838D02*
X94607768Y-116794838D01*
X94607768Y-116794838D02*
X94607768Y-114794838D01*
X94607768Y-114794838D02*
X95274435Y-114794838D01*
X95274435Y-114794838D02*
X95464911Y-114890076D01*
X95464911Y-114890076D02*
X95560149Y-114985314D01*
X95560149Y-114985314D02*
X95655387Y-115175790D01*
X95655387Y-115175790D02*
X95655387Y-115366266D01*
X95655387Y-115366266D02*
X95560149Y-115556742D01*
X95560149Y-115556742D02*
X95464911Y-115651980D01*
X95464911Y-115651980D02*
X95274435Y-115747219D01*
X95274435Y-115747219D02*
X94607768Y-115747219D01*
X97464911Y-115461504D02*
X97464911Y-116794838D01*
X96607768Y-115461504D02*
X96607768Y-116509123D01*
X96607768Y-116509123D02*
X96703006Y-116699600D01*
X96703006Y-116699600D02*
X96893482Y-116794838D01*
X96893482Y-116794838D02*
X97179197Y-116794838D01*
X97179197Y-116794838D02*
X97369673Y-116699600D01*
X97369673Y-116699600D02*
X97464911Y-116604361D01*
X99274435Y-116699600D02*
X99083959Y-116794838D01*
X99083959Y-116794838D02*
X98703006Y-116794838D01*
X98703006Y-116794838D02*
X98512530Y-116699600D01*
X98512530Y-116699600D02*
X98417292Y-116604361D01*
X98417292Y-116604361D02*
X98322054Y-116413885D01*
X98322054Y-116413885D02*
X98322054Y-115842457D01*
X98322054Y-115842457D02*
X98417292Y-115651980D01*
X98417292Y-115651980D02*
X98512530Y-115556742D01*
X98512530Y-115556742D02*
X98703006Y-115461504D01*
X98703006Y-115461504D02*
X99083959Y-115461504D01*
X99083959Y-115461504D02*
X99274435Y-115556742D01*
X100131578Y-116794838D02*
X100131578Y-114794838D01*
X100322054Y-116032933D02*
X100893483Y-116794838D01*
X100893483Y-115461504D02*
X100131578Y-116223409D01*
X102988722Y-114794838D02*
X104131579Y-114794838D01*
X103560150Y-116794838D02*
X103560150Y-114794838D01*
X104798246Y-116794838D02*
X104798246Y-115461504D01*
X104798246Y-115842457D02*
X104893484Y-115651980D01*
X104893484Y-115651980D02*
X104988722Y-115556742D01*
X104988722Y-115556742D02*
X105179198Y-115461504D01*
X105179198Y-115461504D02*
X105369675Y-115461504D01*
X106893484Y-116794838D02*
X106893484Y-115747219D01*
X106893484Y-115747219D02*
X106798246Y-115556742D01*
X106798246Y-115556742D02*
X106607770Y-115461504D01*
X106607770Y-115461504D02*
X106226817Y-115461504D01*
X106226817Y-115461504D02*
X106036341Y-115556742D01*
X106893484Y-116699600D02*
X106703008Y-116794838D01*
X106703008Y-116794838D02*
X106226817Y-116794838D01*
X106226817Y-116794838D02*
X106036341Y-116699600D01*
X106036341Y-116699600D02*
X105941103Y-116509123D01*
X105941103Y-116509123D02*
X105941103Y-116318647D01*
X105941103Y-116318647D02*
X106036341Y-116128171D01*
X106036341Y-116128171D02*
X106226817Y-116032933D01*
X106226817Y-116032933D02*
X106703008Y-116032933D01*
X106703008Y-116032933D02*
X106893484Y-115937695D01*
X107845865Y-115461504D02*
X107845865Y-116794838D01*
X107845865Y-115651980D02*
X107941103Y-115556742D01*
X107941103Y-115556742D02*
X108131579Y-115461504D01*
X108131579Y-115461504D02*
X108417294Y-115461504D01*
X108417294Y-115461504D02*
X108607770Y-115556742D01*
X108607770Y-115556742D02*
X108703008Y-115747219D01*
X108703008Y-115747219D02*
X108703008Y-116794838D01*
X109560151Y-116699600D02*
X109750627Y-116794838D01*
X109750627Y-116794838D02*
X110131579Y-116794838D01*
X110131579Y-116794838D02*
X110322056Y-116699600D01*
X110322056Y-116699600D02*
X110417294Y-116509123D01*
X110417294Y-116509123D02*
X110417294Y-116413885D01*
X110417294Y-116413885D02*
X110322056Y-116223409D01*
X110322056Y-116223409D02*
X110131579Y-116128171D01*
X110131579Y-116128171D02*
X109845865Y-116128171D01*
X109845865Y-116128171D02*
X109655389Y-116032933D01*
X109655389Y-116032933D02*
X109560151Y-115842457D01*
X109560151Y-115842457D02*
X109560151Y-115747219D01*
X109560151Y-115747219D02*
X109655389Y-115556742D01*
X109655389Y-115556742D02*
X109845865Y-115461504D01*
X109845865Y-115461504D02*
X110131579Y-115461504D01*
X110131579Y-115461504D02*
X110322056Y-115556742D01*
X110988723Y-115461504D02*
X111750627Y-115461504D01*
X111274437Y-116794838D02*
X111274437Y-115080552D01*
X111274437Y-115080552D02*
X111369675Y-114890076D01*
X111369675Y-114890076D02*
X111560151Y-114794838D01*
X111560151Y-114794838D02*
X111750627Y-114794838D01*
X112703008Y-116794838D02*
X112512532Y-116699600D01*
X112512532Y-116699600D02*
X112417294Y-116604361D01*
X112417294Y-116604361D02*
X112322056Y-116413885D01*
X112322056Y-116413885D02*
X112322056Y-115842457D01*
X112322056Y-115842457D02*
X112417294Y-115651980D01*
X112417294Y-115651980D02*
X112512532Y-115556742D01*
X112512532Y-115556742D02*
X112703008Y-115461504D01*
X112703008Y-115461504D02*
X112988723Y-115461504D01*
X112988723Y-115461504D02*
X113179199Y-115556742D01*
X113179199Y-115556742D02*
X113274437Y-115651980D01*
X113274437Y-115651980D02*
X113369675Y-115842457D01*
X113369675Y-115842457D02*
X113369675Y-116413885D01*
X113369675Y-116413885D02*
X113274437Y-116604361D01*
X113274437Y-116604361D02*
X113179199Y-116699600D01*
X113179199Y-116699600D02*
X112988723Y-116794838D01*
X112988723Y-116794838D02*
X112703008Y-116794838D01*
X114226818Y-116794838D02*
X114226818Y-115461504D01*
X114226818Y-115842457D02*
X114322056Y-115651980D01*
X114322056Y-115651980D02*
X114417294Y-115556742D01*
X114417294Y-115556742D02*
X114607770Y-115461504D01*
X114607770Y-115461504D02*
X114798247Y-115461504D01*
X115464913Y-116794838D02*
X115464913Y-115461504D01*
X115464913Y-115651980D02*
X115560151Y-115556742D01*
X115560151Y-115556742D02*
X115750627Y-115461504D01*
X115750627Y-115461504D02*
X116036342Y-115461504D01*
X116036342Y-115461504D02*
X116226818Y-115556742D01*
X116226818Y-115556742D02*
X116322056Y-115747219D01*
X116322056Y-115747219D02*
X116322056Y-116794838D01*
X116322056Y-115747219D02*
X116417294Y-115556742D01*
X116417294Y-115556742D02*
X116607770Y-115461504D01*
X116607770Y-115461504D02*
X116893484Y-115461504D01*
X116893484Y-115461504D02*
X117083961Y-115556742D01*
X117083961Y-115556742D02*
X117179199Y-115747219D01*
X117179199Y-115747219D02*
X117179199Y-116794838D01*
X118893485Y-116699600D02*
X118703009Y-116794838D01*
X118703009Y-116794838D02*
X118322056Y-116794838D01*
X118322056Y-116794838D02*
X118131580Y-116699600D01*
X118131580Y-116699600D02*
X118036342Y-116509123D01*
X118036342Y-116509123D02*
X118036342Y-115747219D01*
X118036342Y-115747219D02*
X118131580Y-115556742D01*
X118131580Y-115556742D02*
X118322056Y-115461504D01*
X118322056Y-115461504D02*
X118703009Y-115461504D01*
X118703009Y-115461504D02*
X118893485Y-115556742D01*
X118893485Y-115556742D02*
X118988723Y-115747219D01*
X118988723Y-115747219D02*
X118988723Y-115937695D01*
X118988723Y-115937695D02*
X118036342Y-116128171D01*
X119845866Y-116794838D02*
X119845866Y-115461504D01*
X119845866Y-115842457D02*
X119941104Y-115651980D01*
X119941104Y-115651980D02*
X120036342Y-115556742D01*
X120036342Y-115556742D02*
X120226818Y-115461504D01*
X120226818Y-115461504D02*
X120417295Y-115461504D01*
X141512530Y-32149600D02*
X141798244Y-32244838D01*
X141798244Y-32244838D02*
X142274435Y-32244838D01*
X142274435Y-32244838D02*
X142464911Y-32149600D01*
X142464911Y-32149600D02*
X142560149Y-32054361D01*
X142560149Y-32054361D02*
X142655387Y-31863885D01*
X142655387Y-31863885D02*
X142655387Y-31673409D01*
X142655387Y-31673409D02*
X142560149Y-31482933D01*
X142560149Y-31482933D02*
X142464911Y-31387695D01*
X142464911Y-31387695D02*
X142274435Y-31292457D01*
X142274435Y-31292457D02*
X141893482Y-31197219D01*
X141893482Y-31197219D02*
X141703006Y-31101980D01*
X141703006Y-31101980D02*
X141607768Y-31006742D01*
X141607768Y-31006742D02*
X141512530Y-30816266D01*
X141512530Y-30816266D02*
X141512530Y-30625790D01*
X141512530Y-30625790D02*
X141607768Y-30435314D01*
X141607768Y-30435314D02*
X141703006Y-30340076D01*
X141703006Y-30340076D02*
X141893482Y-30244838D01*
X141893482Y-30244838D02*
X142369673Y-30244838D01*
X142369673Y-30244838D02*
X142655387Y-30340076D01*
X143226816Y-30244838D02*
X144369673Y-30244838D01*
X143798244Y-32244838D02*
X143798244Y-30244838D01*
X144941102Y-31673409D02*
X145893483Y-31673409D01*
X144750626Y-32244838D02*
X145417292Y-30244838D01*
X145417292Y-30244838D02*
X146083959Y-32244838D01*
X146464912Y-30244838D02*
X147607769Y-30244838D01*
X147036340Y-32244838D02*
X147036340Y-30244838D01*
X148274436Y-30244838D02*
X148274436Y-31863885D01*
X148274436Y-31863885D02*
X148369674Y-32054361D01*
X148369674Y-32054361D02*
X148464912Y-32149600D01*
X148464912Y-32149600D02*
X148655388Y-32244838D01*
X148655388Y-32244838D02*
X149036341Y-32244838D01*
X149036341Y-32244838D02*
X149226817Y-32149600D01*
X149226817Y-32149600D02*
X149322055Y-32054361D01*
X149322055Y-32054361D02*
X149417293Y-31863885D01*
X149417293Y-31863885D02*
X149417293Y-30244838D01*
X150274436Y-32149600D02*
X150560150Y-32244838D01*
X150560150Y-32244838D02*
X151036341Y-32244838D01*
X151036341Y-32244838D02*
X151226817Y-32149600D01*
X151226817Y-32149600D02*
X151322055Y-32054361D01*
X151322055Y-32054361D02*
X151417293Y-31863885D01*
X151417293Y-31863885D02*
X151417293Y-31673409D01*
X151417293Y-31673409D02*
X151322055Y-31482933D01*
X151322055Y-31482933D02*
X151226817Y-31387695D01*
X151226817Y-31387695D02*
X151036341Y-31292457D01*
X151036341Y-31292457D02*
X150655388Y-31197219D01*
X150655388Y-31197219D02*
X150464912Y-31101980D01*
X150464912Y-31101980D02*
X150369674Y-31006742D01*
X150369674Y-31006742D02*
X150274436Y-30816266D01*
X150274436Y-30816266D02*
X150274436Y-30625790D01*
X150274436Y-30625790D02*
X150369674Y-30435314D01*
X150369674Y-30435314D02*
X150464912Y-30340076D01*
X150464912Y-30340076D02*
X150655388Y-30244838D01*
X150655388Y-30244838D02*
X151131579Y-30244838D01*
X151131579Y-30244838D02*
X151417293Y-30340076D01*
X154750627Y-32244838D02*
X153798246Y-32244838D01*
X153798246Y-32244838D02*
X153798246Y-30244838D01*
X155417294Y-31197219D02*
X156083961Y-31197219D01*
X156369675Y-32244838D02*
X155417294Y-32244838D01*
X155417294Y-32244838D02*
X155417294Y-30244838D01*
X155417294Y-30244838D02*
X156369675Y-30244838D01*
X157226818Y-32244838D02*
X157226818Y-30244838D01*
X157226818Y-30244838D02*
X157703008Y-30244838D01*
X157703008Y-30244838D02*
X157988723Y-30340076D01*
X157988723Y-30340076D02*
X158179199Y-30530552D01*
X158179199Y-30530552D02*
X158274437Y-30721028D01*
X158274437Y-30721028D02*
X158369675Y-31101980D01*
X158369675Y-31101980D02*
X158369675Y-31387695D01*
X158369675Y-31387695D02*
X158274437Y-31768647D01*
X158274437Y-31768647D02*
X158179199Y-31959123D01*
X158179199Y-31959123D02*
X157988723Y-32149600D01*
X157988723Y-32149600D02*
X157703008Y-32244838D01*
X157703008Y-32244838D02*
X157226818Y-32244838D01*
D11*
X90508333Y-45429580D02*
X90460714Y-45477200D01*
X90460714Y-45477200D02*
X90317857Y-45524819D01*
X90317857Y-45524819D02*
X90222619Y-45524819D01*
X90222619Y-45524819D02*
X90079762Y-45477200D01*
X90079762Y-45477200D02*
X89984524Y-45381961D01*
X89984524Y-45381961D02*
X89936905Y-45286723D01*
X89936905Y-45286723D02*
X89889286Y-45096247D01*
X89889286Y-45096247D02*
X89889286Y-44953390D01*
X89889286Y-44953390D02*
X89936905Y-44762914D01*
X89936905Y-44762914D02*
X89984524Y-44667676D01*
X89984524Y-44667676D02*
X90079762Y-44572438D01*
X90079762Y-44572438D02*
X90222619Y-44524819D01*
X90222619Y-44524819D02*
X90317857Y-44524819D01*
X90317857Y-44524819D02*
X90460714Y-44572438D01*
X90460714Y-44572438D02*
X90508333Y-44620057D01*
X90889286Y-44620057D02*
X90936905Y-44572438D01*
X90936905Y-44572438D02*
X91032143Y-44524819D01*
X91032143Y-44524819D02*
X91270238Y-44524819D01*
X91270238Y-44524819D02*
X91365476Y-44572438D01*
X91365476Y-44572438D02*
X91413095Y-44620057D01*
X91413095Y-44620057D02*
X91460714Y-44715295D01*
X91460714Y-44715295D02*
X91460714Y-44810533D01*
X91460714Y-44810533D02*
X91413095Y-44953390D01*
X91413095Y-44953390D02*
X90841667Y-45524819D01*
X90841667Y-45524819D02*
X91460714Y-45524819D01*
D12*
X198905844Y-31376109D02*
X198739178Y-31138014D01*
X198620130Y-31376109D02*
X198620130Y-30876109D01*
X198620130Y-30876109D02*
X198810606Y-30876109D01*
X198810606Y-30876109D02*
X198858225Y-30899919D01*
X198858225Y-30899919D02*
X198882035Y-30923728D01*
X198882035Y-30923728D02*
X198905844Y-30971347D01*
X198905844Y-30971347D02*
X198905844Y-31042776D01*
X198905844Y-31042776D02*
X198882035Y-31090395D01*
X198882035Y-31090395D02*
X198858225Y-31114204D01*
X198858225Y-31114204D02*
X198810606Y-31138014D01*
X198810606Y-31138014D02*
X198620130Y-31138014D01*
X199382035Y-31376109D02*
X199096321Y-31376109D01*
X199239178Y-31376109D02*
X199239178Y-30876109D01*
X199239178Y-30876109D02*
X199191559Y-30947538D01*
X199191559Y-30947538D02*
X199143940Y-30995157D01*
X199143940Y-30995157D02*
X199096321Y-31018966D01*
X199810606Y-31042776D02*
X199810606Y-31376109D01*
X199691558Y-30852300D02*
X199572511Y-31209442D01*
X199572511Y-31209442D02*
X199882034Y-31209442D01*
D11*
X78133333Y-120454819D02*
X77657143Y-120454819D01*
X77657143Y-120454819D02*
X77657143Y-119454819D01*
X78990476Y-120454819D02*
X78419048Y-120454819D01*
X78704762Y-120454819D02*
X78704762Y-119454819D01*
X78704762Y-119454819D02*
X78609524Y-119597676D01*
X78609524Y-119597676D02*
X78514286Y-119692914D01*
X78514286Y-119692914D02*
X78419048Y-119740533D01*
D12*
X204542207Y-31376109D02*
X204375541Y-31138014D01*
X204256493Y-31376109D02*
X204256493Y-30876109D01*
X204256493Y-30876109D02*
X204446969Y-30876109D01*
X204446969Y-30876109D02*
X204494588Y-30899919D01*
X204494588Y-30899919D02*
X204518398Y-30923728D01*
X204518398Y-30923728D02*
X204542207Y-30971347D01*
X204542207Y-30971347D02*
X204542207Y-31042776D01*
X204542207Y-31042776D02*
X204518398Y-31090395D01*
X204518398Y-31090395D02*
X204494588Y-31114204D01*
X204494588Y-31114204D02*
X204446969Y-31138014D01*
X204446969Y-31138014D02*
X204256493Y-31138014D01*
X205018398Y-31376109D02*
X204732684Y-31376109D01*
X204875541Y-31376109D02*
X204875541Y-30876109D01*
X204875541Y-30876109D02*
X204827922Y-30947538D01*
X204827922Y-30947538D02*
X204780303Y-30995157D01*
X204780303Y-30995157D02*
X204732684Y-31018966D01*
X205446969Y-30876109D02*
X205351731Y-30876109D01*
X205351731Y-30876109D02*
X205304112Y-30899919D01*
X205304112Y-30899919D02*
X205280302Y-30923728D01*
X205280302Y-30923728D02*
X205232683Y-30995157D01*
X205232683Y-30995157D02*
X205208874Y-31090395D01*
X205208874Y-31090395D02*
X205208874Y-31280871D01*
X205208874Y-31280871D02*
X205232683Y-31328490D01*
X205232683Y-31328490D02*
X205256493Y-31352300D01*
X205256493Y-31352300D02*
X205304112Y-31376109D01*
X205304112Y-31376109D02*
X205399350Y-31376109D01*
X205399350Y-31376109D02*
X205446969Y-31352300D01*
X205446969Y-31352300D02*
X205470778Y-31328490D01*
X205470778Y-31328490D02*
X205494588Y-31280871D01*
X205494588Y-31280871D02*
X205494588Y-31161823D01*
X205494588Y-31161823D02*
X205470778Y-31114204D01*
X205470778Y-31114204D02*
X205446969Y-31090395D01*
X205446969Y-31090395D02*
X205399350Y-31066585D01*
X205399350Y-31066585D02*
X205304112Y-31066585D01*
X205304112Y-31066585D02*
X205256493Y-31090395D01*
X205256493Y-31090395D02*
X205232683Y-31114204D01*
X205232683Y-31114204D02*
X205208874Y-31161823D01*
D11*
X74616667Y-60657200D02*
X74759524Y-60704819D01*
X74759524Y-60704819D02*
X74997619Y-60704819D01*
X74997619Y-60704819D02*
X75092857Y-60657200D01*
X75092857Y-60657200D02*
X75140476Y-60609580D01*
X75140476Y-60609580D02*
X75188095Y-60514342D01*
X75188095Y-60514342D02*
X75188095Y-60419104D01*
X75188095Y-60419104D02*
X75140476Y-60323866D01*
X75140476Y-60323866D02*
X75092857Y-60276247D01*
X75092857Y-60276247D02*
X74997619Y-60228628D01*
X74997619Y-60228628D02*
X74807143Y-60181009D01*
X74807143Y-60181009D02*
X74711905Y-60133390D01*
X74711905Y-60133390D02*
X74664286Y-60085771D01*
X74664286Y-60085771D02*
X74616667Y-59990533D01*
X74616667Y-59990533D02*
X74616667Y-59895295D01*
X74616667Y-59895295D02*
X74664286Y-59800057D01*
X74664286Y-59800057D02*
X74711905Y-59752438D01*
X74711905Y-59752438D02*
X74807143Y-59704819D01*
X74807143Y-59704819D02*
X75045238Y-59704819D01*
X75045238Y-59704819D02*
X75188095Y-59752438D01*
X75521429Y-59704819D02*
X75759524Y-60704819D01*
X75759524Y-60704819D02*
X75950000Y-59990533D01*
X75950000Y-59990533D02*
X76140476Y-60704819D01*
X76140476Y-60704819D02*
X76378572Y-59704819D01*
X76711905Y-59800057D02*
X76759524Y-59752438D01*
X76759524Y-59752438D02*
X76854762Y-59704819D01*
X76854762Y-59704819D02*
X77092857Y-59704819D01*
X77092857Y-59704819D02*
X77188095Y-59752438D01*
X77188095Y-59752438D02*
X77235714Y-59800057D01*
X77235714Y-59800057D02*
X77283333Y-59895295D01*
X77283333Y-59895295D02*
X77283333Y-59990533D01*
X77283333Y-59990533D02*
X77235714Y-60133390D01*
X77235714Y-60133390D02*
X76664286Y-60704819D01*
X76664286Y-60704819D02*
X77283333Y-60704819D01*
X90508333Y-59024819D02*
X90175000Y-58548628D01*
X89936905Y-59024819D02*
X89936905Y-58024819D01*
X89936905Y-58024819D02*
X90317857Y-58024819D01*
X90317857Y-58024819D02*
X90413095Y-58072438D01*
X90413095Y-58072438D02*
X90460714Y-58120057D01*
X90460714Y-58120057D02*
X90508333Y-58215295D01*
X90508333Y-58215295D02*
X90508333Y-58358152D01*
X90508333Y-58358152D02*
X90460714Y-58453390D01*
X90460714Y-58453390D02*
X90413095Y-58501009D01*
X90413095Y-58501009D02*
X90317857Y-58548628D01*
X90317857Y-58548628D02*
X89936905Y-58548628D01*
X90889286Y-58120057D02*
X90936905Y-58072438D01*
X90936905Y-58072438D02*
X91032143Y-58024819D01*
X91032143Y-58024819D02*
X91270238Y-58024819D01*
X91270238Y-58024819D02*
X91365476Y-58072438D01*
X91365476Y-58072438D02*
X91413095Y-58120057D01*
X91413095Y-58120057D02*
X91460714Y-58215295D01*
X91460714Y-58215295D02*
X91460714Y-58310533D01*
X91460714Y-58310533D02*
X91413095Y-58453390D01*
X91413095Y-58453390D02*
X90841667Y-59024819D01*
X90841667Y-59024819D02*
X91460714Y-59024819D01*
X102876666Y-96682257D02*
X102543333Y-96682257D01*
X102543333Y-97206067D02*
X102543333Y-96206067D01*
X102543333Y-96206067D02*
X103019523Y-96206067D01*
X103924285Y-97206067D02*
X103352857Y-97206067D01*
X103638571Y-97206067D02*
X103638571Y-96206067D01*
X103638571Y-96206067D02*
X103543333Y-96348924D01*
X103543333Y-96348924D02*
X103448095Y-96444162D01*
X103448095Y-96444162D02*
X103352857Y-96491781D01*
D12*
X193094480Y-31376109D02*
X192927814Y-31138014D01*
X192808766Y-31376109D02*
X192808766Y-30876109D01*
X192808766Y-30876109D02*
X192999242Y-30876109D01*
X192999242Y-30876109D02*
X193046861Y-30899919D01*
X193046861Y-30899919D02*
X193070671Y-30923728D01*
X193070671Y-30923728D02*
X193094480Y-30971347D01*
X193094480Y-30971347D02*
X193094480Y-31042776D01*
X193094480Y-31042776D02*
X193070671Y-31090395D01*
X193070671Y-31090395D02*
X193046861Y-31114204D01*
X193046861Y-31114204D02*
X192999242Y-31138014D01*
X192999242Y-31138014D02*
X192808766Y-31138014D01*
X193570671Y-31376109D02*
X193284957Y-31376109D01*
X193427814Y-31376109D02*
X193427814Y-30876109D01*
X193427814Y-30876109D02*
X193380195Y-30947538D01*
X193380195Y-30947538D02*
X193332576Y-30995157D01*
X193332576Y-30995157D02*
X193284957Y-31018966D01*
X193761147Y-30923728D02*
X193784956Y-30899919D01*
X193784956Y-30899919D02*
X193832575Y-30876109D01*
X193832575Y-30876109D02*
X193951623Y-30876109D01*
X193951623Y-30876109D02*
X193999242Y-30899919D01*
X193999242Y-30899919D02*
X194023051Y-30923728D01*
X194023051Y-30923728D02*
X194046861Y-30971347D01*
X194046861Y-30971347D02*
X194046861Y-31018966D01*
X194046861Y-31018966D02*
X194023051Y-31090395D01*
X194023051Y-31090395D02*
X193737337Y-31376109D01*
X193737337Y-31376109D02*
X194046861Y-31376109D01*
D11*
X110988095Y-127379819D02*
X110988095Y-128189342D01*
X110988095Y-128189342D02*
X111035714Y-128284580D01*
X111035714Y-128284580D02*
X111083333Y-128332200D01*
X111083333Y-128332200D02*
X111178571Y-128379819D01*
X111178571Y-128379819D02*
X111369047Y-128379819D01*
X111369047Y-128379819D02*
X111464285Y-128332200D01*
X111464285Y-128332200D02*
X111511904Y-128284580D01*
X111511904Y-128284580D02*
X111559523Y-128189342D01*
X111559523Y-128189342D02*
X111559523Y-127379819D01*
X111940476Y-127379819D02*
X112559523Y-127379819D01*
X112559523Y-127379819D02*
X112226190Y-127760771D01*
X112226190Y-127760771D02*
X112369047Y-127760771D01*
X112369047Y-127760771D02*
X112464285Y-127808390D01*
X112464285Y-127808390D02*
X112511904Y-127856009D01*
X112511904Y-127856009D02*
X112559523Y-127951247D01*
X112559523Y-127951247D02*
X112559523Y-128189342D01*
X112559523Y-128189342D02*
X112511904Y-128284580D01*
X112511904Y-128284580D02*
X112464285Y-128332200D01*
X112464285Y-128332200D02*
X112369047Y-128379819D01*
X112369047Y-128379819D02*
X112083333Y-128379819D01*
X112083333Y-128379819D02*
X111988095Y-128332200D01*
X111988095Y-128332200D02*
X111940476Y-128284580D01*
X108014166Y-80454819D02*
X108014166Y-81169104D01*
X108014166Y-81169104D02*
X107966547Y-81311961D01*
X107966547Y-81311961D02*
X107871309Y-81407200D01*
X107871309Y-81407200D02*
X107728452Y-81454819D01*
X107728452Y-81454819D02*
X107633214Y-81454819D01*
X108395119Y-80454819D02*
X109014166Y-80454819D01*
X109014166Y-80454819D02*
X108680833Y-80835771D01*
X108680833Y-80835771D02*
X108823690Y-80835771D01*
X108823690Y-80835771D02*
X108918928Y-80883390D01*
X108918928Y-80883390D02*
X108966547Y-80931009D01*
X108966547Y-80931009D02*
X109014166Y-81026247D01*
X109014166Y-81026247D02*
X109014166Y-81264342D01*
X109014166Y-81264342D02*
X108966547Y-81359580D01*
X108966547Y-81359580D02*
X108918928Y-81407200D01*
X108918928Y-81407200D02*
X108823690Y-81454819D01*
X108823690Y-81454819D02*
X108537976Y-81454819D01*
X108537976Y-81454819D02*
X108442738Y-81407200D01*
X108442738Y-81407200D02*
X108395119Y-81359580D01*
X137483333Y-49279819D02*
X137150000Y-48803628D01*
X136911905Y-49279819D02*
X136911905Y-48279819D01*
X136911905Y-48279819D02*
X137292857Y-48279819D01*
X137292857Y-48279819D02*
X137388095Y-48327438D01*
X137388095Y-48327438D02*
X137435714Y-48375057D01*
X137435714Y-48375057D02*
X137483333Y-48470295D01*
X137483333Y-48470295D02*
X137483333Y-48613152D01*
X137483333Y-48613152D02*
X137435714Y-48708390D01*
X137435714Y-48708390D02*
X137388095Y-48756009D01*
X137388095Y-48756009D02*
X137292857Y-48803628D01*
X137292857Y-48803628D02*
X136911905Y-48803628D01*
X138340476Y-48613152D02*
X138340476Y-49279819D01*
X138102381Y-48232200D02*
X137864286Y-48946485D01*
X137864286Y-48946485D02*
X138483333Y-48946485D01*
D12*
X190376298Y-31376109D02*
X190209632Y-31138014D01*
X190090584Y-31376109D02*
X190090584Y-30876109D01*
X190090584Y-30876109D02*
X190281060Y-30876109D01*
X190281060Y-30876109D02*
X190328679Y-30899919D01*
X190328679Y-30899919D02*
X190352489Y-30923728D01*
X190352489Y-30923728D02*
X190376298Y-30971347D01*
X190376298Y-30971347D02*
X190376298Y-31042776D01*
X190376298Y-31042776D02*
X190352489Y-31090395D01*
X190352489Y-31090395D02*
X190328679Y-31114204D01*
X190328679Y-31114204D02*
X190281060Y-31138014D01*
X190281060Y-31138014D02*
X190090584Y-31138014D01*
X190852489Y-31376109D02*
X190566775Y-31376109D01*
X190709632Y-31376109D02*
X190709632Y-30876109D01*
X190709632Y-30876109D02*
X190662013Y-30947538D01*
X190662013Y-30947538D02*
X190614394Y-30995157D01*
X190614394Y-30995157D02*
X190566775Y-31018966D01*
X191328679Y-31376109D02*
X191042965Y-31376109D01*
X191185822Y-31376109D02*
X191185822Y-30876109D01*
X191185822Y-30876109D02*
X191138203Y-30947538D01*
X191138203Y-30947538D02*
X191090584Y-30995157D01*
X191090584Y-30995157D02*
X191042965Y-31018966D01*
D11*
X177166666Y-42954819D02*
X177166666Y-43669104D01*
X177166666Y-43669104D02*
X177119047Y-43811961D01*
X177119047Y-43811961D02*
X177023809Y-43907200D01*
X177023809Y-43907200D02*
X176880952Y-43954819D01*
X176880952Y-43954819D02*
X176785714Y-43954819D01*
X178071428Y-42954819D02*
X177880952Y-42954819D01*
X177880952Y-42954819D02*
X177785714Y-43002438D01*
X177785714Y-43002438D02*
X177738095Y-43050057D01*
X177738095Y-43050057D02*
X177642857Y-43192914D01*
X177642857Y-43192914D02*
X177595238Y-43383390D01*
X177595238Y-43383390D02*
X177595238Y-43764342D01*
X177595238Y-43764342D02*
X177642857Y-43859580D01*
X177642857Y-43859580D02*
X177690476Y-43907200D01*
X177690476Y-43907200D02*
X177785714Y-43954819D01*
X177785714Y-43954819D02*
X177976190Y-43954819D01*
X177976190Y-43954819D02*
X178071428Y-43907200D01*
X178071428Y-43907200D02*
X178119047Y-43859580D01*
X178119047Y-43859580D02*
X178166666Y-43764342D01*
X178166666Y-43764342D02*
X178166666Y-43526247D01*
X178166666Y-43526247D02*
X178119047Y-43431009D01*
X178119047Y-43431009D02*
X178071428Y-43383390D01*
X178071428Y-43383390D02*
X177976190Y-43335771D01*
X177976190Y-43335771D02*
X177785714Y-43335771D01*
X177785714Y-43335771D02*
X177690476Y-43383390D01*
X177690476Y-43383390D02*
X177642857Y-43431009D01*
X177642857Y-43431009D02*
X177595238Y-43526247D01*
X106988095Y-25944819D02*
X106988095Y-26754342D01*
X106988095Y-26754342D02*
X107035714Y-26849580D01*
X107035714Y-26849580D02*
X107083333Y-26897200D01*
X107083333Y-26897200D02*
X107178571Y-26944819D01*
X107178571Y-26944819D02*
X107369047Y-26944819D01*
X107369047Y-26944819D02*
X107464285Y-26897200D01*
X107464285Y-26897200D02*
X107511904Y-26849580D01*
X107511904Y-26849580D02*
X107559523Y-26754342D01*
X107559523Y-26754342D02*
X107559523Y-25944819D01*
X108559523Y-26944819D02*
X107988095Y-26944819D01*
X108273809Y-26944819D02*
X108273809Y-25944819D01*
X108273809Y-25944819D02*
X108178571Y-26087676D01*
X108178571Y-26087676D02*
X108083333Y-26182914D01*
X108083333Y-26182914D02*
X107988095Y-26230533D01*
X102988094Y-30959104D02*
X103464284Y-30959104D01*
X102892856Y-31244819D02*
X103226189Y-30244819D01*
X103226189Y-30244819D02*
X103559522Y-31244819D01*
X103892856Y-30578152D02*
X103892856Y-31244819D01*
X103892856Y-30673390D02*
X103940475Y-30625771D01*
X103940475Y-30625771D02*
X104035713Y-30578152D01*
X104035713Y-30578152D02*
X104178570Y-30578152D01*
X104178570Y-30578152D02*
X104273808Y-30625771D01*
X104273808Y-30625771D02*
X104321427Y-30721009D01*
X104321427Y-30721009D02*
X104321427Y-31244819D01*
X104654761Y-30578152D02*
X105035713Y-30578152D01*
X104797618Y-30244819D02*
X104797618Y-31101961D01*
X104797618Y-31101961D02*
X104845237Y-31197200D01*
X104845237Y-31197200D02*
X104940475Y-31244819D01*
X104940475Y-31244819D02*
X105035713Y-31244819D01*
X105749999Y-31197200D02*
X105654761Y-31244819D01*
X105654761Y-31244819D02*
X105464285Y-31244819D01*
X105464285Y-31244819D02*
X105369047Y-31197200D01*
X105369047Y-31197200D02*
X105321428Y-31101961D01*
X105321428Y-31101961D02*
X105321428Y-30721009D01*
X105321428Y-30721009D02*
X105369047Y-30625771D01*
X105369047Y-30625771D02*
X105464285Y-30578152D01*
X105464285Y-30578152D02*
X105654761Y-30578152D01*
X105654761Y-30578152D02*
X105749999Y-30625771D01*
X105749999Y-30625771D02*
X105797618Y-30721009D01*
X105797618Y-30721009D02*
X105797618Y-30816247D01*
X105797618Y-30816247D02*
X105321428Y-30911485D01*
X106226190Y-30578152D02*
X106226190Y-31244819D01*
X106226190Y-30673390D02*
X106273809Y-30625771D01*
X106273809Y-30625771D02*
X106369047Y-30578152D01*
X106369047Y-30578152D02*
X106511904Y-30578152D01*
X106511904Y-30578152D02*
X106607142Y-30625771D01*
X106607142Y-30625771D02*
X106654761Y-30721009D01*
X106654761Y-30721009D02*
X106654761Y-31244819D01*
X107130952Y-30578152D02*
X107130952Y-31244819D01*
X107130952Y-30673390D02*
X107178571Y-30625771D01*
X107178571Y-30625771D02*
X107273809Y-30578152D01*
X107273809Y-30578152D02*
X107416666Y-30578152D01*
X107416666Y-30578152D02*
X107511904Y-30625771D01*
X107511904Y-30625771D02*
X107559523Y-30721009D01*
X107559523Y-30721009D02*
X107559523Y-31244819D01*
X108464285Y-31244819D02*
X108464285Y-30721009D01*
X108464285Y-30721009D02*
X108416666Y-30625771D01*
X108416666Y-30625771D02*
X108321428Y-30578152D01*
X108321428Y-30578152D02*
X108130952Y-30578152D01*
X108130952Y-30578152D02*
X108035714Y-30625771D01*
X108464285Y-31197200D02*
X108369047Y-31244819D01*
X108369047Y-31244819D02*
X108130952Y-31244819D01*
X108130952Y-31244819D02*
X108035714Y-31197200D01*
X108035714Y-31197200D02*
X107988095Y-31101961D01*
X107988095Y-31101961D02*
X107988095Y-31006723D01*
X107988095Y-31006723D02*
X108035714Y-30911485D01*
X108035714Y-30911485D02*
X108130952Y-30863866D01*
X108130952Y-30863866D02*
X108369047Y-30863866D01*
X108369047Y-30863866D02*
X108464285Y-30816247D01*
X109654762Y-30959104D02*
X110130952Y-30959104D01*
X109559524Y-31244819D02*
X109892857Y-30244819D01*
X109892857Y-30244819D02*
X110226190Y-31244819D01*
X110559524Y-31244819D02*
X110559524Y-30578152D01*
X110559524Y-30768628D02*
X110607143Y-30673390D01*
X110607143Y-30673390D02*
X110654762Y-30625771D01*
X110654762Y-30625771D02*
X110750000Y-30578152D01*
X110750000Y-30578152D02*
X110845238Y-30578152D01*
X111559524Y-31197200D02*
X111464286Y-31244819D01*
X111464286Y-31244819D02*
X111273810Y-31244819D01*
X111273810Y-31244819D02*
X111178572Y-31197200D01*
X111178572Y-31197200D02*
X111130953Y-31101961D01*
X111130953Y-31101961D02*
X111130953Y-30721009D01*
X111130953Y-30721009D02*
X111178572Y-30625771D01*
X111178572Y-30625771D02*
X111273810Y-30578152D01*
X111273810Y-30578152D02*
X111464286Y-30578152D01*
X111464286Y-30578152D02*
X111559524Y-30625771D01*
X111559524Y-30625771D02*
X111607143Y-30721009D01*
X111607143Y-30721009D02*
X111607143Y-30816247D01*
X111607143Y-30816247D02*
X111130953Y-30911485D01*
X112464286Y-31244819D02*
X112464286Y-30721009D01*
X112464286Y-30721009D02*
X112416667Y-30625771D01*
X112416667Y-30625771D02*
X112321429Y-30578152D01*
X112321429Y-30578152D02*
X112130953Y-30578152D01*
X112130953Y-30578152D02*
X112035715Y-30625771D01*
X112464286Y-31197200D02*
X112369048Y-31244819D01*
X112369048Y-31244819D02*
X112130953Y-31244819D01*
X112130953Y-31244819D02*
X112035715Y-31197200D01*
X112035715Y-31197200D02*
X111988096Y-31101961D01*
X111988096Y-31101961D02*
X111988096Y-31006723D01*
X111988096Y-31006723D02*
X112035715Y-30911485D01*
X112035715Y-30911485D02*
X112130953Y-30863866D01*
X112130953Y-30863866D02*
X112369048Y-30863866D01*
X112369048Y-30863866D02*
X112464286Y-30816247D01*
X91857142Y-66859580D02*
X91809523Y-66907200D01*
X91809523Y-66907200D02*
X91666666Y-66954819D01*
X91666666Y-66954819D02*
X91571428Y-66954819D01*
X91571428Y-66954819D02*
X91428571Y-66907200D01*
X91428571Y-66907200D02*
X91333333Y-66811961D01*
X91333333Y-66811961D02*
X91285714Y-66716723D01*
X91285714Y-66716723D02*
X91238095Y-66526247D01*
X91238095Y-66526247D02*
X91238095Y-66383390D01*
X91238095Y-66383390D02*
X91285714Y-66192914D01*
X91285714Y-66192914D02*
X91333333Y-66097676D01*
X91333333Y-66097676D02*
X91428571Y-66002438D01*
X91428571Y-66002438D02*
X91571428Y-65954819D01*
X91571428Y-65954819D02*
X91666666Y-65954819D01*
X91666666Y-65954819D02*
X91809523Y-66002438D01*
X91809523Y-66002438D02*
X91857142Y-66050057D01*
X92809523Y-66954819D02*
X92238095Y-66954819D01*
X92523809Y-66954819D02*
X92523809Y-65954819D01*
X92523809Y-65954819D02*
X92428571Y-66097676D01*
X92428571Y-66097676D02*
X92333333Y-66192914D01*
X92333333Y-66192914D02*
X92238095Y-66240533D01*
X93428571Y-65954819D02*
X93523809Y-65954819D01*
X93523809Y-65954819D02*
X93619047Y-66002438D01*
X93619047Y-66002438D02*
X93666666Y-66050057D01*
X93666666Y-66050057D02*
X93714285Y-66145295D01*
X93714285Y-66145295D02*
X93761904Y-66335771D01*
X93761904Y-66335771D02*
X93761904Y-66573866D01*
X93761904Y-66573866D02*
X93714285Y-66764342D01*
X93714285Y-66764342D02*
X93666666Y-66859580D01*
X93666666Y-66859580D02*
X93619047Y-66907200D01*
X93619047Y-66907200D02*
X93523809Y-66954819D01*
X93523809Y-66954819D02*
X93428571Y-66954819D01*
X93428571Y-66954819D02*
X93333333Y-66907200D01*
X93333333Y-66907200D02*
X93285714Y-66859580D01*
X93285714Y-66859580D02*
X93238095Y-66764342D01*
X93238095Y-66764342D02*
X93190476Y-66573866D01*
X93190476Y-66573866D02*
X93190476Y-66335771D01*
X93190476Y-66335771D02*
X93238095Y-66145295D01*
X93238095Y-66145295D02*
X93285714Y-66050057D01*
X93285714Y-66050057D02*
X93333333Y-66002438D01*
X93333333Y-66002438D02*
X93428571Y-65954819D01*
X90333333Y-41859580D02*
X90285714Y-41907200D01*
X90285714Y-41907200D02*
X90142857Y-41954819D01*
X90142857Y-41954819D02*
X90047619Y-41954819D01*
X90047619Y-41954819D02*
X89904762Y-41907200D01*
X89904762Y-41907200D02*
X89809524Y-41811961D01*
X89809524Y-41811961D02*
X89761905Y-41716723D01*
X89761905Y-41716723D02*
X89714286Y-41526247D01*
X89714286Y-41526247D02*
X89714286Y-41383390D01*
X89714286Y-41383390D02*
X89761905Y-41192914D01*
X89761905Y-41192914D02*
X89809524Y-41097676D01*
X89809524Y-41097676D02*
X89904762Y-41002438D01*
X89904762Y-41002438D02*
X90047619Y-40954819D01*
X90047619Y-40954819D02*
X90142857Y-40954819D01*
X90142857Y-40954819D02*
X90285714Y-41002438D01*
X90285714Y-41002438D02*
X90333333Y-41050057D01*
X91285714Y-41954819D02*
X90714286Y-41954819D01*
X91000000Y-41954819D02*
X91000000Y-40954819D01*
X91000000Y-40954819D02*
X90904762Y-41097676D01*
X90904762Y-41097676D02*
X90809524Y-41192914D01*
X90809524Y-41192914D02*
X90714286Y-41240533D01*
X90508333Y-55929580D02*
X90460714Y-55977200D01*
X90460714Y-55977200D02*
X90317857Y-56024819D01*
X90317857Y-56024819D02*
X90222619Y-56024819D01*
X90222619Y-56024819D02*
X90079762Y-55977200D01*
X90079762Y-55977200D02*
X89984524Y-55881961D01*
X89984524Y-55881961D02*
X89936905Y-55786723D01*
X89936905Y-55786723D02*
X89889286Y-55596247D01*
X89889286Y-55596247D02*
X89889286Y-55453390D01*
X89889286Y-55453390D02*
X89936905Y-55262914D01*
X89936905Y-55262914D02*
X89984524Y-55167676D01*
X89984524Y-55167676D02*
X90079762Y-55072438D01*
X90079762Y-55072438D02*
X90222619Y-55024819D01*
X90222619Y-55024819D02*
X90317857Y-55024819D01*
X90317857Y-55024819D02*
X90460714Y-55072438D01*
X90460714Y-55072438D02*
X90508333Y-55120057D01*
X90841667Y-55024819D02*
X91460714Y-55024819D01*
X91460714Y-55024819D02*
X91127381Y-55405771D01*
X91127381Y-55405771D02*
X91270238Y-55405771D01*
X91270238Y-55405771D02*
X91365476Y-55453390D01*
X91365476Y-55453390D02*
X91413095Y-55501009D01*
X91413095Y-55501009D02*
X91460714Y-55596247D01*
X91460714Y-55596247D02*
X91460714Y-55834342D01*
X91460714Y-55834342D02*
X91413095Y-55929580D01*
X91413095Y-55929580D02*
X91365476Y-55977200D01*
X91365476Y-55977200D02*
X91270238Y-56024819D01*
X91270238Y-56024819D02*
X90984524Y-56024819D01*
X90984524Y-56024819D02*
X90889286Y-55977200D01*
X90889286Y-55977200D02*
X90841667Y-55929580D01*
X89833333Y-66859580D02*
X89785714Y-66907200D01*
X89785714Y-66907200D02*
X89642857Y-66954819D01*
X89642857Y-66954819D02*
X89547619Y-66954819D01*
X89547619Y-66954819D02*
X89404762Y-66907200D01*
X89404762Y-66907200D02*
X89309524Y-66811961D01*
X89309524Y-66811961D02*
X89261905Y-66716723D01*
X89261905Y-66716723D02*
X89214286Y-66526247D01*
X89214286Y-66526247D02*
X89214286Y-66383390D01*
X89214286Y-66383390D02*
X89261905Y-66192914D01*
X89261905Y-66192914D02*
X89309524Y-66097676D01*
X89309524Y-66097676D02*
X89404762Y-66002438D01*
X89404762Y-66002438D02*
X89547619Y-65954819D01*
X89547619Y-65954819D02*
X89642857Y-65954819D01*
X89642857Y-65954819D02*
X89785714Y-66002438D01*
X89785714Y-66002438D02*
X89833333Y-66050057D01*
X90309524Y-66954819D02*
X90500000Y-66954819D01*
X90500000Y-66954819D02*
X90595238Y-66907200D01*
X90595238Y-66907200D02*
X90642857Y-66859580D01*
X90642857Y-66859580D02*
X90738095Y-66716723D01*
X90738095Y-66716723D02*
X90785714Y-66526247D01*
X90785714Y-66526247D02*
X90785714Y-66145295D01*
X90785714Y-66145295D02*
X90738095Y-66050057D01*
X90738095Y-66050057D02*
X90690476Y-66002438D01*
X90690476Y-66002438D02*
X90595238Y-65954819D01*
X90595238Y-65954819D02*
X90404762Y-65954819D01*
X90404762Y-65954819D02*
X90309524Y-66002438D01*
X90309524Y-66002438D02*
X90261905Y-66050057D01*
X90261905Y-66050057D02*
X90214286Y-66145295D01*
X90214286Y-66145295D02*
X90214286Y-66383390D01*
X90214286Y-66383390D02*
X90261905Y-66478628D01*
X90261905Y-66478628D02*
X90309524Y-66526247D01*
X90309524Y-66526247D02*
X90404762Y-66573866D01*
X90404762Y-66573866D02*
X90595238Y-66573866D01*
X90595238Y-66573866D02*
X90690476Y-66526247D01*
X90690476Y-66526247D02*
X90738095Y-66478628D01*
X90738095Y-66478628D02*
X90785714Y-66383390D01*
D12*
X179416666Y-31376109D02*
X179250000Y-31138014D01*
X179130952Y-31376109D02*
X179130952Y-30876109D01*
X179130952Y-30876109D02*
X179321428Y-30876109D01*
X179321428Y-30876109D02*
X179369047Y-30899919D01*
X179369047Y-30899919D02*
X179392857Y-30923728D01*
X179392857Y-30923728D02*
X179416666Y-30971347D01*
X179416666Y-30971347D02*
X179416666Y-31042776D01*
X179416666Y-31042776D02*
X179392857Y-31090395D01*
X179392857Y-31090395D02*
X179369047Y-31114204D01*
X179369047Y-31114204D02*
X179321428Y-31138014D01*
X179321428Y-31138014D02*
X179130952Y-31138014D01*
X179583333Y-30876109D02*
X179916666Y-30876109D01*
X179916666Y-30876109D02*
X179702381Y-31376109D01*
D11*
X108014166Y-66454819D02*
X108014166Y-67169104D01*
X108014166Y-67169104D02*
X107966547Y-67311961D01*
X107966547Y-67311961D02*
X107871309Y-67407200D01*
X107871309Y-67407200D02*
X107728452Y-67454819D01*
X107728452Y-67454819D02*
X107633214Y-67454819D01*
X108918928Y-66788152D02*
X108918928Y-67454819D01*
X108680833Y-66407200D02*
X108442738Y-67121485D01*
X108442738Y-67121485D02*
X109061785Y-67121485D01*
D12*
X210178571Y-31376109D02*
X210011905Y-31138014D01*
X209892857Y-31376109D02*
X209892857Y-30876109D01*
X209892857Y-30876109D02*
X210083333Y-30876109D01*
X210083333Y-30876109D02*
X210130952Y-30899919D01*
X210130952Y-30899919D02*
X210154762Y-30923728D01*
X210154762Y-30923728D02*
X210178571Y-30971347D01*
X210178571Y-30971347D02*
X210178571Y-31042776D01*
X210178571Y-31042776D02*
X210154762Y-31090395D01*
X210154762Y-31090395D02*
X210130952Y-31114204D01*
X210130952Y-31114204D02*
X210083333Y-31138014D01*
X210083333Y-31138014D02*
X209892857Y-31138014D01*
X210654762Y-31376109D02*
X210369048Y-31376109D01*
X210511905Y-31376109D02*
X210511905Y-30876109D01*
X210511905Y-30876109D02*
X210464286Y-30947538D01*
X210464286Y-30947538D02*
X210416667Y-30995157D01*
X210416667Y-30995157D02*
X210369048Y-31018966D01*
X210940476Y-31090395D02*
X210892857Y-31066585D01*
X210892857Y-31066585D02*
X210869047Y-31042776D01*
X210869047Y-31042776D02*
X210845238Y-30995157D01*
X210845238Y-30995157D02*
X210845238Y-30971347D01*
X210845238Y-30971347D02*
X210869047Y-30923728D01*
X210869047Y-30923728D02*
X210892857Y-30899919D01*
X210892857Y-30899919D02*
X210940476Y-30876109D01*
X210940476Y-30876109D02*
X211035714Y-30876109D01*
X211035714Y-30876109D02*
X211083333Y-30899919D01*
X211083333Y-30899919D02*
X211107142Y-30923728D01*
X211107142Y-30923728D02*
X211130952Y-30971347D01*
X211130952Y-30971347D02*
X211130952Y-30995157D01*
X211130952Y-30995157D02*
X211107142Y-31042776D01*
X211107142Y-31042776D02*
X211083333Y-31066585D01*
X211083333Y-31066585D02*
X211035714Y-31090395D01*
X211035714Y-31090395D02*
X210940476Y-31090395D01*
X210940476Y-31090395D02*
X210892857Y-31114204D01*
X210892857Y-31114204D02*
X210869047Y-31138014D01*
X210869047Y-31138014D02*
X210845238Y-31185633D01*
X210845238Y-31185633D02*
X210845238Y-31280871D01*
X210845238Y-31280871D02*
X210869047Y-31328490D01*
X210869047Y-31328490D02*
X210892857Y-31352300D01*
X210892857Y-31352300D02*
X210940476Y-31376109D01*
X210940476Y-31376109D02*
X211035714Y-31376109D01*
X211035714Y-31376109D02*
X211083333Y-31352300D01*
X211083333Y-31352300D02*
X211107142Y-31328490D01*
X211107142Y-31328490D02*
X211130952Y-31280871D01*
X211130952Y-31280871D02*
X211130952Y-31185633D01*
X211130952Y-31185633D02*
X211107142Y-31138014D01*
X211107142Y-31138014D02*
X211083333Y-31114204D01*
X211083333Y-31114204D02*
X211035714Y-31090395D01*
D11*
X154857142Y-36634580D02*
X154809523Y-36682200D01*
X154809523Y-36682200D02*
X154666666Y-36729819D01*
X154666666Y-36729819D02*
X154571428Y-36729819D01*
X154571428Y-36729819D02*
X154428571Y-36682200D01*
X154428571Y-36682200D02*
X154333333Y-36586961D01*
X154333333Y-36586961D02*
X154285714Y-36491723D01*
X154285714Y-36491723D02*
X154238095Y-36301247D01*
X154238095Y-36301247D02*
X154238095Y-36158390D01*
X154238095Y-36158390D02*
X154285714Y-35967914D01*
X154285714Y-35967914D02*
X154333333Y-35872676D01*
X154333333Y-35872676D02*
X154428571Y-35777438D01*
X154428571Y-35777438D02*
X154571428Y-35729819D01*
X154571428Y-35729819D02*
X154666666Y-35729819D01*
X154666666Y-35729819D02*
X154809523Y-35777438D01*
X154809523Y-35777438D02*
X154857142Y-35825057D01*
X155809523Y-36729819D02*
X155238095Y-36729819D01*
X155523809Y-36729819D02*
X155523809Y-35729819D01*
X155523809Y-35729819D02*
X155428571Y-35872676D01*
X155428571Y-35872676D02*
X155333333Y-35967914D01*
X155333333Y-35967914D02*
X155238095Y-36015533D01*
X156761904Y-36729819D02*
X156190476Y-36729819D01*
X156476190Y-36729819D02*
X156476190Y-35729819D01*
X156476190Y-35729819D02*
X156380952Y-35872676D01*
X156380952Y-35872676D02*
X156285714Y-35967914D01*
X156285714Y-35967914D02*
X156190476Y-36015533D01*
D12*
X184101905Y-47457419D02*
X184101905Y-46457419D01*
X184673333Y-47457419D02*
X184244762Y-46885990D01*
X184673333Y-46457419D02*
X184101905Y-47028847D01*
X185625714Y-47457419D02*
X185054286Y-47457419D01*
X185340000Y-47457419D02*
X185340000Y-46457419D01*
X185340000Y-46457419D02*
X185244762Y-46600276D01*
X185244762Y-46600276D02*
X185149524Y-46695514D01*
X185149524Y-46695514D02*
X185054286Y-46743133D01*
D11*
X105833333Y-61454819D02*
X105500000Y-60978628D01*
X105261905Y-61454819D02*
X105261905Y-60454819D01*
X105261905Y-60454819D02*
X105642857Y-60454819D01*
X105642857Y-60454819D02*
X105738095Y-60502438D01*
X105738095Y-60502438D02*
X105785714Y-60550057D01*
X105785714Y-60550057D02*
X105833333Y-60645295D01*
X105833333Y-60645295D02*
X105833333Y-60788152D01*
X105833333Y-60788152D02*
X105785714Y-60883390D01*
X105785714Y-60883390D02*
X105738095Y-60931009D01*
X105738095Y-60931009D02*
X105642857Y-60978628D01*
X105642857Y-60978628D02*
X105261905Y-60978628D01*
X106690476Y-60454819D02*
X106500000Y-60454819D01*
X106500000Y-60454819D02*
X106404762Y-60502438D01*
X106404762Y-60502438D02*
X106357143Y-60550057D01*
X106357143Y-60550057D02*
X106261905Y-60692914D01*
X106261905Y-60692914D02*
X106214286Y-60883390D01*
X106214286Y-60883390D02*
X106214286Y-61264342D01*
X106214286Y-61264342D02*
X106261905Y-61359580D01*
X106261905Y-61359580D02*
X106309524Y-61407200D01*
X106309524Y-61407200D02*
X106404762Y-61454819D01*
X106404762Y-61454819D02*
X106595238Y-61454819D01*
X106595238Y-61454819D02*
X106690476Y-61407200D01*
X106690476Y-61407200D02*
X106738095Y-61359580D01*
X106738095Y-61359580D02*
X106785714Y-61264342D01*
X106785714Y-61264342D02*
X106785714Y-61026247D01*
X106785714Y-61026247D02*
X106738095Y-60931009D01*
X106738095Y-60931009D02*
X106690476Y-60883390D01*
X106690476Y-60883390D02*
X106595238Y-60835771D01*
X106595238Y-60835771D02*
X106404762Y-60835771D01*
X106404762Y-60835771D02*
X106309524Y-60883390D01*
X106309524Y-60883390D02*
X106261905Y-60931009D01*
X106261905Y-60931009D02*
X106214286Y-61026247D01*
X80333333Y-66859580D02*
X80285714Y-66907200D01*
X80285714Y-66907200D02*
X80142857Y-66954819D01*
X80142857Y-66954819D02*
X80047619Y-66954819D01*
X80047619Y-66954819D02*
X79904762Y-66907200D01*
X79904762Y-66907200D02*
X79809524Y-66811961D01*
X79809524Y-66811961D02*
X79761905Y-66716723D01*
X79761905Y-66716723D02*
X79714286Y-66526247D01*
X79714286Y-66526247D02*
X79714286Y-66383390D01*
X79714286Y-66383390D02*
X79761905Y-66192914D01*
X79761905Y-66192914D02*
X79809524Y-66097676D01*
X79809524Y-66097676D02*
X79904762Y-66002438D01*
X79904762Y-66002438D02*
X80047619Y-65954819D01*
X80047619Y-65954819D02*
X80142857Y-65954819D01*
X80142857Y-65954819D02*
X80285714Y-66002438D01*
X80285714Y-66002438D02*
X80333333Y-66050057D01*
X80904762Y-66383390D02*
X80809524Y-66335771D01*
X80809524Y-66335771D02*
X80761905Y-66288152D01*
X80761905Y-66288152D02*
X80714286Y-66192914D01*
X80714286Y-66192914D02*
X80714286Y-66145295D01*
X80714286Y-66145295D02*
X80761905Y-66050057D01*
X80761905Y-66050057D02*
X80809524Y-66002438D01*
X80809524Y-66002438D02*
X80904762Y-65954819D01*
X80904762Y-65954819D02*
X81095238Y-65954819D01*
X81095238Y-65954819D02*
X81190476Y-66002438D01*
X81190476Y-66002438D02*
X81238095Y-66050057D01*
X81238095Y-66050057D02*
X81285714Y-66145295D01*
X81285714Y-66145295D02*
X81285714Y-66192914D01*
X81285714Y-66192914D02*
X81238095Y-66288152D01*
X81238095Y-66288152D02*
X81190476Y-66335771D01*
X81190476Y-66335771D02*
X81095238Y-66383390D01*
X81095238Y-66383390D02*
X80904762Y-66383390D01*
X80904762Y-66383390D02*
X80809524Y-66431009D01*
X80809524Y-66431009D02*
X80761905Y-66478628D01*
X80761905Y-66478628D02*
X80714286Y-66573866D01*
X80714286Y-66573866D02*
X80714286Y-66764342D01*
X80714286Y-66764342D02*
X80761905Y-66859580D01*
X80761905Y-66859580D02*
X80809524Y-66907200D01*
X80809524Y-66907200D02*
X80904762Y-66954819D01*
X80904762Y-66954819D02*
X81095238Y-66954819D01*
X81095238Y-66954819D02*
X81190476Y-66907200D01*
X81190476Y-66907200D02*
X81238095Y-66859580D01*
X81238095Y-66859580D02*
X81285714Y-66764342D01*
X81285714Y-66764342D02*
X81285714Y-66573866D01*
X81285714Y-66573866D02*
X81238095Y-66478628D01*
X81238095Y-66478628D02*
X81190476Y-66431009D01*
X81190476Y-66431009D02*
X81095238Y-66383390D01*
D12*
X184101905Y-54457419D02*
X184101905Y-53457419D01*
X184673333Y-54457419D02*
X184244762Y-53885990D01*
X184673333Y-53457419D02*
X184101905Y-54028847D01*
X185054286Y-53552657D02*
X185101905Y-53505038D01*
X185101905Y-53505038D02*
X185197143Y-53457419D01*
X185197143Y-53457419D02*
X185435238Y-53457419D01*
X185435238Y-53457419D02*
X185530476Y-53505038D01*
X185530476Y-53505038D02*
X185578095Y-53552657D01*
X185578095Y-53552657D02*
X185625714Y-53647895D01*
X185625714Y-53647895D02*
X185625714Y-53743133D01*
X185625714Y-53743133D02*
X185578095Y-53885990D01*
X185578095Y-53885990D02*
X185006667Y-54457419D01*
X185006667Y-54457419D02*
X185625714Y-54457419D01*
X185053030Y-31376109D02*
X184886364Y-31138014D01*
X184767316Y-31376109D02*
X184767316Y-30876109D01*
X184767316Y-30876109D02*
X184957792Y-30876109D01*
X184957792Y-30876109D02*
X185005411Y-30899919D01*
X185005411Y-30899919D02*
X185029221Y-30923728D01*
X185029221Y-30923728D02*
X185053030Y-30971347D01*
X185053030Y-30971347D02*
X185053030Y-31042776D01*
X185053030Y-31042776D02*
X185029221Y-31090395D01*
X185029221Y-31090395D02*
X185005411Y-31114204D01*
X185005411Y-31114204D02*
X184957792Y-31138014D01*
X184957792Y-31138014D02*
X184767316Y-31138014D01*
X185291126Y-31376109D02*
X185386364Y-31376109D01*
X185386364Y-31376109D02*
X185433983Y-31352300D01*
X185433983Y-31352300D02*
X185457792Y-31328490D01*
X185457792Y-31328490D02*
X185505411Y-31257061D01*
X185505411Y-31257061D02*
X185529221Y-31161823D01*
X185529221Y-31161823D02*
X185529221Y-30971347D01*
X185529221Y-30971347D02*
X185505411Y-30923728D01*
X185505411Y-30923728D02*
X185481602Y-30899919D01*
X185481602Y-30899919D02*
X185433983Y-30876109D01*
X185433983Y-30876109D02*
X185338745Y-30876109D01*
X185338745Y-30876109D02*
X185291126Y-30899919D01*
X185291126Y-30899919D02*
X185267316Y-30923728D01*
X185267316Y-30923728D02*
X185243507Y-30971347D01*
X185243507Y-30971347D02*
X185243507Y-31090395D01*
X185243507Y-31090395D02*
X185267316Y-31138014D01*
X185267316Y-31138014D02*
X185291126Y-31161823D01*
X185291126Y-31161823D02*
X185338745Y-31185633D01*
X185338745Y-31185633D02*
X185433983Y-31185633D01*
X185433983Y-31185633D02*
X185481602Y-31161823D01*
X185481602Y-31161823D02*
X185505411Y-31138014D01*
X185505411Y-31138014D02*
X185529221Y-31090395D01*
X196087662Y-31376109D02*
X195920996Y-31138014D01*
X195801948Y-31376109D02*
X195801948Y-30876109D01*
X195801948Y-30876109D02*
X195992424Y-30876109D01*
X195992424Y-30876109D02*
X196040043Y-30899919D01*
X196040043Y-30899919D02*
X196063853Y-30923728D01*
X196063853Y-30923728D02*
X196087662Y-30971347D01*
X196087662Y-30971347D02*
X196087662Y-31042776D01*
X196087662Y-31042776D02*
X196063853Y-31090395D01*
X196063853Y-31090395D02*
X196040043Y-31114204D01*
X196040043Y-31114204D02*
X195992424Y-31138014D01*
X195992424Y-31138014D02*
X195801948Y-31138014D01*
X196563853Y-31376109D02*
X196278139Y-31376109D01*
X196420996Y-31376109D02*
X196420996Y-30876109D01*
X196420996Y-30876109D02*
X196373377Y-30947538D01*
X196373377Y-30947538D02*
X196325758Y-30995157D01*
X196325758Y-30995157D02*
X196278139Y-31018966D01*
X196730519Y-30876109D02*
X197040043Y-30876109D01*
X197040043Y-30876109D02*
X196873376Y-31066585D01*
X196873376Y-31066585D02*
X196944805Y-31066585D01*
X196944805Y-31066585D02*
X196992424Y-31090395D01*
X196992424Y-31090395D02*
X197016233Y-31114204D01*
X197016233Y-31114204D02*
X197040043Y-31161823D01*
X197040043Y-31161823D02*
X197040043Y-31280871D01*
X197040043Y-31280871D02*
X197016233Y-31328490D01*
X197016233Y-31328490D02*
X196992424Y-31352300D01*
X196992424Y-31352300D02*
X196944805Y-31376109D01*
X196944805Y-31376109D02*
X196801948Y-31376109D01*
X196801948Y-31376109D02*
X196754329Y-31352300D01*
X196754329Y-31352300D02*
X196730519Y-31328490D01*
D11*
X90458333Y-48524819D02*
X90125000Y-48048628D01*
X89886905Y-48524819D02*
X89886905Y-47524819D01*
X89886905Y-47524819D02*
X90267857Y-47524819D01*
X90267857Y-47524819D02*
X90363095Y-47572438D01*
X90363095Y-47572438D02*
X90410714Y-47620057D01*
X90410714Y-47620057D02*
X90458333Y-47715295D01*
X90458333Y-47715295D02*
X90458333Y-47858152D01*
X90458333Y-47858152D02*
X90410714Y-47953390D01*
X90410714Y-47953390D02*
X90363095Y-48001009D01*
X90363095Y-48001009D02*
X90267857Y-48048628D01*
X90267857Y-48048628D02*
X89886905Y-48048628D01*
X91410714Y-48524819D02*
X90839286Y-48524819D01*
X91125000Y-48524819D02*
X91125000Y-47524819D01*
X91125000Y-47524819D02*
X91029762Y-47667676D01*
X91029762Y-47667676D02*
X90934524Y-47762914D01*
X90934524Y-47762914D02*
X90839286Y-47810533D01*
X113666666Y-86954819D02*
X113666666Y-87669104D01*
X113666666Y-87669104D02*
X113619047Y-87811961D01*
X113619047Y-87811961D02*
X113523809Y-87907200D01*
X113523809Y-87907200D02*
X113380952Y-87954819D01*
X113380952Y-87954819D02*
X113285714Y-87954819D01*
X114095238Y-87050057D02*
X114142857Y-87002438D01*
X114142857Y-87002438D02*
X114238095Y-86954819D01*
X114238095Y-86954819D02*
X114476190Y-86954819D01*
X114476190Y-86954819D02*
X114571428Y-87002438D01*
X114571428Y-87002438D02*
X114619047Y-87050057D01*
X114619047Y-87050057D02*
X114666666Y-87145295D01*
X114666666Y-87145295D02*
X114666666Y-87240533D01*
X114666666Y-87240533D02*
X114619047Y-87383390D01*
X114619047Y-87383390D02*
X114047619Y-87954819D01*
X114047619Y-87954819D02*
X114666666Y-87954819D01*
X127761905Y-32954819D02*
X127761905Y-31954819D01*
X127761905Y-31954819D02*
X128000000Y-31954819D01*
X128000000Y-31954819D02*
X128142857Y-32002438D01*
X128142857Y-32002438D02*
X128238095Y-32097676D01*
X128238095Y-32097676D02*
X128285714Y-32192914D01*
X128285714Y-32192914D02*
X128333333Y-32383390D01*
X128333333Y-32383390D02*
X128333333Y-32526247D01*
X128333333Y-32526247D02*
X128285714Y-32716723D01*
X128285714Y-32716723D02*
X128238095Y-32811961D01*
X128238095Y-32811961D02*
X128142857Y-32907200D01*
X128142857Y-32907200D02*
X128000000Y-32954819D01*
X128000000Y-32954819D02*
X127761905Y-32954819D01*
X129190476Y-32288152D02*
X129190476Y-32954819D01*
X128952381Y-31907200D02*
X128714286Y-32621485D01*
X128714286Y-32621485D02*
X129333333Y-32621485D01*
X105833333Y-73954819D02*
X105500000Y-73478628D01*
X105261905Y-73954819D02*
X105261905Y-72954819D01*
X105261905Y-72954819D02*
X105642857Y-72954819D01*
X105642857Y-72954819D02*
X105738095Y-73002438D01*
X105738095Y-73002438D02*
X105785714Y-73050057D01*
X105785714Y-73050057D02*
X105833333Y-73145295D01*
X105833333Y-73145295D02*
X105833333Y-73288152D01*
X105833333Y-73288152D02*
X105785714Y-73383390D01*
X105785714Y-73383390D02*
X105738095Y-73431009D01*
X105738095Y-73431009D02*
X105642857Y-73478628D01*
X105642857Y-73478628D02*
X105261905Y-73478628D01*
X106738095Y-72954819D02*
X106261905Y-72954819D01*
X106261905Y-72954819D02*
X106214286Y-73431009D01*
X106214286Y-73431009D02*
X106261905Y-73383390D01*
X106261905Y-73383390D02*
X106357143Y-73335771D01*
X106357143Y-73335771D02*
X106595238Y-73335771D01*
X106595238Y-73335771D02*
X106690476Y-73383390D01*
X106690476Y-73383390D02*
X106738095Y-73431009D01*
X106738095Y-73431009D02*
X106785714Y-73526247D01*
X106785714Y-73526247D02*
X106785714Y-73764342D01*
X106785714Y-73764342D02*
X106738095Y-73859580D01*
X106738095Y-73859580D02*
X106690476Y-73907200D01*
X106690476Y-73907200D02*
X106595238Y-73954819D01*
X106595238Y-73954819D02*
X106357143Y-73954819D01*
X106357143Y-73954819D02*
X106261905Y-73907200D01*
X106261905Y-73907200D02*
X106214286Y-73859580D01*
X103761905Y-108854819D02*
X103761905Y-107854819D01*
X103761905Y-107854819D02*
X104000000Y-107854819D01*
X104000000Y-107854819D02*
X104142857Y-107902438D01*
X104142857Y-107902438D02*
X104238095Y-107997676D01*
X104238095Y-107997676D02*
X104285714Y-108092914D01*
X104285714Y-108092914D02*
X104333333Y-108283390D01*
X104333333Y-108283390D02*
X104333333Y-108426247D01*
X104333333Y-108426247D02*
X104285714Y-108616723D01*
X104285714Y-108616723D02*
X104238095Y-108711961D01*
X104238095Y-108711961D02*
X104142857Y-108807200D01*
X104142857Y-108807200D02*
X104000000Y-108854819D01*
X104000000Y-108854819D02*
X103761905Y-108854819D01*
X105285714Y-108854819D02*
X104714286Y-108854819D01*
X105000000Y-108854819D02*
X105000000Y-107854819D01*
X105000000Y-107854819D02*
X104904762Y-107997676D01*
X104904762Y-107997676D02*
X104809524Y-108092914D01*
X104809524Y-108092914D02*
X104714286Y-108140533D01*
X78135656Y-89541903D02*
X78088037Y-89589523D01*
X78088037Y-89589523D02*
X77945180Y-89637142D01*
X77945180Y-89637142D02*
X77849942Y-89637142D01*
X77849942Y-89637142D02*
X77707085Y-89589523D01*
X77707085Y-89589523D02*
X77611847Y-89494284D01*
X77611847Y-89494284D02*
X77564228Y-89399046D01*
X77564228Y-89399046D02*
X77516609Y-89208570D01*
X77516609Y-89208570D02*
X77516609Y-89065713D01*
X77516609Y-89065713D02*
X77564228Y-88875237D01*
X77564228Y-88875237D02*
X77611847Y-88779999D01*
X77611847Y-88779999D02*
X77707085Y-88684761D01*
X77707085Y-88684761D02*
X77849942Y-88637142D01*
X77849942Y-88637142D02*
X77945180Y-88637142D01*
X77945180Y-88637142D02*
X78088037Y-88684761D01*
X78088037Y-88684761D02*
X78135656Y-88732380D01*
X79040418Y-88637142D02*
X78564228Y-88637142D01*
X78564228Y-88637142D02*
X78516609Y-89113332D01*
X78516609Y-89113332D02*
X78564228Y-89065713D01*
X78564228Y-89065713D02*
X78659466Y-89018094D01*
X78659466Y-89018094D02*
X78897561Y-89018094D01*
X78897561Y-89018094D02*
X78992799Y-89065713D01*
X78992799Y-89065713D02*
X79040418Y-89113332D01*
X79040418Y-89113332D02*
X79088037Y-89208570D01*
X79088037Y-89208570D02*
X79088037Y-89446665D01*
X79088037Y-89446665D02*
X79040418Y-89541903D01*
X79040418Y-89541903D02*
X78992799Y-89589523D01*
X78992799Y-89589523D02*
X78897561Y-89637142D01*
X78897561Y-89637142D02*
X78659466Y-89637142D01*
X78659466Y-89637142D02*
X78564228Y-89589523D01*
X78564228Y-89589523D02*
X78516609Y-89541903D01*
X114033333Y-103559580D02*
X113985714Y-103607200D01*
X113985714Y-103607200D02*
X113842857Y-103654819D01*
X113842857Y-103654819D02*
X113747619Y-103654819D01*
X113747619Y-103654819D02*
X113604762Y-103607200D01*
X113604762Y-103607200D02*
X113509524Y-103511961D01*
X113509524Y-103511961D02*
X113461905Y-103416723D01*
X113461905Y-103416723D02*
X113414286Y-103226247D01*
X113414286Y-103226247D02*
X113414286Y-103083390D01*
X113414286Y-103083390D02*
X113461905Y-102892914D01*
X113461905Y-102892914D02*
X113509524Y-102797676D01*
X113509524Y-102797676D02*
X113604762Y-102702438D01*
X113604762Y-102702438D02*
X113747619Y-102654819D01*
X113747619Y-102654819D02*
X113842857Y-102654819D01*
X113842857Y-102654819D02*
X113985714Y-102702438D01*
X113985714Y-102702438D02*
X114033333Y-102750057D01*
X114366667Y-102654819D02*
X115033333Y-102654819D01*
X115033333Y-102654819D02*
X114604762Y-103654819D01*
X84550595Y-66104819D02*
X84550595Y-66914342D01*
X84550595Y-66914342D02*
X84598214Y-67009580D01*
X84598214Y-67009580D02*
X84645833Y-67057200D01*
X84645833Y-67057200D02*
X84741071Y-67104819D01*
X84741071Y-67104819D02*
X84931547Y-67104819D01*
X84931547Y-67104819D02*
X85026785Y-67057200D01*
X85026785Y-67057200D02*
X85074404Y-67009580D01*
X85074404Y-67009580D02*
X85122023Y-66914342D01*
X85122023Y-66914342D02*
X85122023Y-66104819D01*
X86026785Y-66438152D02*
X86026785Y-67104819D01*
X85788690Y-66057200D02*
X85550595Y-66771485D01*
X85550595Y-66771485D02*
X86169642Y-66771485D01*
D12*
X187658116Y-31376109D02*
X187491450Y-31138014D01*
X187372402Y-31376109D02*
X187372402Y-30876109D01*
X187372402Y-30876109D02*
X187562878Y-30876109D01*
X187562878Y-30876109D02*
X187610497Y-30899919D01*
X187610497Y-30899919D02*
X187634307Y-30923728D01*
X187634307Y-30923728D02*
X187658116Y-30971347D01*
X187658116Y-30971347D02*
X187658116Y-31042776D01*
X187658116Y-31042776D02*
X187634307Y-31090395D01*
X187634307Y-31090395D02*
X187610497Y-31114204D01*
X187610497Y-31114204D02*
X187562878Y-31138014D01*
X187562878Y-31138014D02*
X187372402Y-31138014D01*
X188134307Y-31376109D02*
X187848593Y-31376109D01*
X187991450Y-31376109D02*
X187991450Y-30876109D01*
X187991450Y-30876109D02*
X187943831Y-30947538D01*
X187943831Y-30947538D02*
X187896212Y-30995157D01*
X187896212Y-30995157D02*
X187848593Y-31018966D01*
X188443830Y-30876109D02*
X188491449Y-30876109D01*
X188491449Y-30876109D02*
X188539068Y-30899919D01*
X188539068Y-30899919D02*
X188562878Y-30923728D01*
X188562878Y-30923728D02*
X188586687Y-30971347D01*
X188586687Y-30971347D02*
X188610497Y-31066585D01*
X188610497Y-31066585D02*
X188610497Y-31185633D01*
X188610497Y-31185633D02*
X188586687Y-31280871D01*
X188586687Y-31280871D02*
X188562878Y-31328490D01*
X188562878Y-31328490D02*
X188539068Y-31352300D01*
X188539068Y-31352300D02*
X188491449Y-31376109D01*
X188491449Y-31376109D02*
X188443830Y-31376109D01*
X188443830Y-31376109D02*
X188396211Y-31352300D01*
X188396211Y-31352300D02*
X188372402Y-31328490D01*
X188372402Y-31328490D02*
X188348592Y-31280871D01*
X188348592Y-31280871D02*
X188324783Y-31185633D01*
X188324783Y-31185633D02*
X188324783Y-31066585D01*
X188324783Y-31066585D02*
X188348592Y-30971347D01*
X188348592Y-30971347D02*
X188372402Y-30923728D01*
X188372402Y-30923728D02*
X188396211Y-30899919D01*
X188396211Y-30899919D02*
X188443830Y-30876109D01*
D11*
X137188333Y-41359580D02*
X137140714Y-41407200D01*
X137140714Y-41407200D02*
X136997857Y-41454819D01*
X136997857Y-41454819D02*
X136902619Y-41454819D01*
X136902619Y-41454819D02*
X136759762Y-41407200D01*
X136759762Y-41407200D02*
X136664524Y-41311961D01*
X136664524Y-41311961D02*
X136616905Y-41216723D01*
X136616905Y-41216723D02*
X136569286Y-41026247D01*
X136569286Y-41026247D02*
X136569286Y-40883390D01*
X136569286Y-40883390D02*
X136616905Y-40692914D01*
X136616905Y-40692914D02*
X136664524Y-40597676D01*
X136664524Y-40597676D02*
X136759762Y-40502438D01*
X136759762Y-40502438D02*
X136902619Y-40454819D01*
X136902619Y-40454819D02*
X136997857Y-40454819D01*
X136997857Y-40454819D02*
X137140714Y-40502438D01*
X137140714Y-40502438D02*
X137188333Y-40550057D01*
X138045476Y-40788152D02*
X138045476Y-41454819D01*
X137807381Y-40407200D02*
X137569286Y-41121485D01*
X137569286Y-41121485D02*
X138188333Y-41121485D01*
X130250595Y-32004819D02*
X130250595Y-32814342D01*
X130250595Y-32814342D02*
X130298214Y-32909580D01*
X130298214Y-32909580D02*
X130345833Y-32957200D01*
X130345833Y-32957200D02*
X130441071Y-33004819D01*
X130441071Y-33004819D02*
X130631547Y-33004819D01*
X130631547Y-33004819D02*
X130726785Y-32957200D01*
X130726785Y-32957200D02*
X130774404Y-32909580D01*
X130774404Y-32909580D02*
X130822023Y-32814342D01*
X130822023Y-32814342D02*
X130822023Y-32004819D01*
X131250595Y-32100057D02*
X131298214Y-32052438D01*
X131298214Y-32052438D02*
X131393452Y-32004819D01*
X131393452Y-32004819D02*
X131631547Y-32004819D01*
X131631547Y-32004819D02*
X131726785Y-32052438D01*
X131726785Y-32052438D02*
X131774404Y-32100057D01*
X131774404Y-32100057D02*
X131822023Y-32195295D01*
X131822023Y-32195295D02*
X131822023Y-32290533D01*
X131822023Y-32290533D02*
X131774404Y-32433390D01*
X131774404Y-32433390D02*
X131202976Y-33004819D01*
X131202976Y-33004819D02*
X131822023Y-33004819D01*
D12*
X201724026Y-31376109D02*
X201557360Y-31138014D01*
X201438312Y-31376109D02*
X201438312Y-30876109D01*
X201438312Y-30876109D02*
X201628788Y-30876109D01*
X201628788Y-30876109D02*
X201676407Y-30899919D01*
X201676407Y-30899919D02*
X201700217Y-30923728D01*
X201700217Y-30923728D02*
X201724026Y-30971347D01*
X201724026Y-30971347D02*
X201724026Y-31042776D01*
X201724026Y-31042776D02*
X201700217Y-31090395D01*
X201700217Y-31090395D02*
X201676407Y-31114204D01*
X201676407Y-31114204D02*
X201628788Y-31138014D01*
X201628788Y-31138014D02*
X201438312Y-31138014D01*
X202200217Y-31376109D02*
X201914503Y-31376109D01*
X202057360Y-31376109D02*
X202057360Y-30876109D01*
X202057360Y-30876109D02*
X202009741Y-30947538D01*
X202009741Y-30947538D02*
X201962122Y-30995157D01*
X201962122Y-30995157D02*
X201914503Y-31018966D01*
X202652597Y-30876109D02*
X202414502Y-30876109D01*
X202414502Y-30876109D02*
X202390693Y-31114204D01*
X202390693Y-31114204D02*
X202414502Y-31090395D01*
X202414502Y-31090395D02*
X202462121Y-31066585D01*
X202462121Y-31066585D02*
X202581169Y-31066585D01*
X202581169Y-31066585D02*
X202628788Y-31090395D01*
X202628788Y-31090395D02*
X202652597Y-31114204D01*
X202652597Y-31114204D02*
X202676407Y-31161823D01*
X202676407Y-31161823D02*
X202676407Y-31280871D01*
X202676407Y-31280871D02*
X202652597Y-31328490D01*
X202652597Y-31328490D02*
X202628788Y-31352300D01*
X202628788Y-31352300D02*
X202581169Y-31376109D01*
X202581169Y-31376109D02*
X202462121Y-31376109D01*
X202462121Y-31376109D02*
X202414502Y-31352300D01*
X202414502Y-31352300D02*
X202390693Y-31328490D01*
D11*
X90133333Y-92059580D02*
X90085714Y-92107200D01*
X90085714Y-92107200D02*
X89942857Y-92154819D01*
X89942857Y-92154819D02*
X89847619Y-92154819D01*
X89847619Y-92154819D02*
X89704762Y-92107200D01*
X89704762Y-92107200D02*
X89609524Y-92011961D01*
X89609524Y-92011961D02*
X89561905Y-91916723D01*
X89561905Y-91916723D02*
X89514286Y-91726247D01*
X89514286Y-91726247D02*
X89514286Y-91583390D01*
X89514286Y-91583390D02*
X89561905Y-91392914D01*
X89561905Y-91392914D02*
X89609524Y-91297676D01*
X89609524Y-91297676D02*
X89704762Y-91202438D01*
X89704762Y-91202438D02*
X89847619Y-91154819D01*
X89847619Y-91154819D02*
X89942857Y-91154819D01*
X89942857Y-91154819D02*
X90085714Y-91202438D01*
X90085714Y-91202438D02*
X90133333Y-91250057D01*
X90990476Y-91154819D02*
X90800000Y-91154819D01*
X90800000Y-91154819D02*
X90704762Y-91202438D01*
X90704762Y-91202438D02*
X90657143Y-91250057D01*
X90657143Y-91250057D02*
X90561905Y-91392914D01*
X90561905Y-91392914D02*
X90514286Y-91583390D01*
X90514286Y-91583390D02*
X90514286Y-91964342D01*
X90514286Y-91964342D02*
X90561905Y-92059580D01*
X90561905Y-92059580D02*
X90609524Y-92107200D01*
X90609524Y-92107200D02*
X90704762Y-92154819D01*
X90704762Y-92154819D02*
X90895238Y-92154819D01*
X90895238Y-92154819D02*
X90990476Y-92107200D01*
X90990476Y-92107200D02*
X91038095Y-92059580D01*
X91038095Y-92059580D02*
X91085714Y-91964342D01*
X91085714Y-91964342D02*
X91085714Y-91726247D01*
X91085714Y-91726247D02*
X91038095Y-91631009D01*
X91038095Y-91631009D02*
X90990476Y-91583390D01*
X90990476Y-91583390D02*
X90895238Y-91535771D01*
X90895238Y-91535771D02*
X90704762Y-91535771D01*
X90704762Y-91535771D02*
X90609524Y-91583390D01*
X90609524Y-91583390D02*
X90561905Y-91631009D01*
X90561905Y-91631009D02*
X90514286Y-91726247D01*
X144954819Y-37738094D02*
X143954819Y-37738094D01*
X143954819Y-37738094D02*
X143954819Y-37499999D01*
X143954819Y-37499999D02*
X144002438Y-37357142D01*
X144002438Y-37357142D02*
X144097676Y-37261904D01*
X144097676Y-37261904D02*
X144192914Y-37214285D01*
X144192914Y-37214285D02*
X144383390Y-37166666D01*
X144383390Y-37166666D02*
X144526247Y-37166666D01*
X144526247Y-37166666D02*
X144716723Y-37214285D01*
X144716723Y-37214285D02*
X144811961Y-37261904D01*
X144811961Y-37261904D02*
X144907200Y-37357142D01*
X144907200Y-37357142D02*
X144954819Y-37499999D01*
X144954819Y-37499999D02*
X144954819Y-37738094D01*
X143954819Y-36261904D02*
X143954819Y-36738094D01*
X143954819Y-36738094D02*
X144431009Y-36785713D01*
X144431009Y-36785713D02*
X144383390Y-36738094D01*
X144383390Y-36738094D02*
X144335771Y-36642856D01*
X144335771Y-36642856D02*
X144335771Y-36404761D01*
X144335771Y-36404761D02*
X144383390Y-36309523D01*
X144383390Y-36309523D02*
X144431009Y-36261904D01*
X144431009Y-36261904D02*
X144526247Y-36214285D01*
X144526247Y-36214285D02*
X144764342Y-36214285D01*
X144764342Y-36214285D02*
X144859580Y-36261904D01*
X144859580Y-36261904D02*
X144907200Y-36309523D01*
X144907200Y-36309523D02*
X144954819Y-36404761D01*
X144954819Y-36404761D02*
X144954819Y-36642856D01*
X144954819Y-36642856D02*
X144907200Y-36738094D01*
X144907200Y-36738094D02*
X144859580Y-36785713D01*
D12*
X182234848Y-31376109D02*
X182068182Y-31138014D01*
X181949134Y-31376109D02*
X181949134Y-30876109D01*
X181949134Y-30876109D02*
X182139610Y-30876109D01*
X182139610Y-30876109D02*
X182187229Y-30899919D01*
X182187229Y-30899919D02*
X182211039Y-30923728D01*
X182211039Y-30923728D02*
X182234848Y-30971347D01*
X182234848Y-30971347D02*
X182234848Y-31042776D01*
X182234848Y-31042776D02*
X182211039Y-31090395D01*
X182211039Y-31090395D02*
X182187229Y-31114204D01*
X182187229Y-31114204D02*
X182139610Y-31138014D01*
X182139610Y-31138014D02*
X181949134Y-31138014D01*
X182520563Y-31090395D02*
X182472944Y-31066585D01*
X182472944Y-31066585D02*
X182449134Y-31042776D01*
X182449134Y-31042776D02*
X182425325Y-30995157D01*
X182425325Y-30995157D02*
X182425325Y-30971347D01*
X182425325Y-30971347D02*
X182449134Y-30923728D01*
X182449134Y-30923728D02*
X182472944Y-30899919D01*
X182472944Y-30899919D02*
X182520563Y-30876109D01*
X182520563Y-30876109D02*
X182615801Y-30876109D01*
X182615801Y-30876109D02*
X182663420Y-30899919D01*
X182663420Y-30899919D02*
X182687229Y-30923728D01*
X182687229Y-30923728D02*
X182711039Y-30971347D01*
X182711039Y-30971347D02*
X182711039Y-30995157D01*
X182711039Y-30995157D02*
X182687229Y-31042776D01*
X182687229Y-31042776D02*
X182663420Y-31066585D01*
X182663420Y-31066585D02*
X182615801Y-31090395D01*
X182615801Y-31090395D02*
X182520563Y-31090395D01*
X182520563Y-31090395D02*
X182472944Y-31114204D01*
X182472944Y-31114204D02*
X182449134Y-31138014D01*
X182449134Y-31138014D02*
X182425325Y-31185633D01*
X182425325Y-31185633D02*
X182425325Y-31280871D01*
X182425325Y-31280871D02*
X182449134Y-31328490D01*
X182449134Y-31328490D02*
X182472944Y-31352300D01*
X182472944Y-31352300D02*
X182520563Y-31376109D01*
X182520563Y-31376109D02*
X182615801Y-31376109D01*
X182615801Y-31376109D02*
X182663420Y-31352300D01*
X182663420Y-31352300D02*
X182687229Y-31328490D01*
X182687229Y-31328490D02*
X182711039Y-31280871D01*
X182711039Y-31280871D02*
X182711039Y-31185633D01*
X182711039Y-31185633D02*
X182687229Y-31138014D01*
X182687229Y-31138014D02*
X182663420Y-31114204D01*
X182663420Y-31114204D02*
X182615801Y-31090395D01*
D11*
X132999819Y-46288333D02*
X133714104Y-46288333D01*
X133714104Y-46288333D02*
X133856961Y-46335952D01*
X133856961Y-46335952D02*
X133952200Y-46431190D01*
X133952200Y-46431190D02*
X133999819Y-46574047D01*
X133999819Y-46574047D02*
X133999819Y-46669285D01*
X133999819Y-45288333D02*
X133999819Y-45859761D01*
X133999819Y-45574047D02*
X132999819Y-45574047D01*
X132999819Y-45574047D02*
X133142676Y-45669285D01*
X133142676Y-45669285D02*
X133237914Y-45764523D01*
X133237914Y-45764523D02*
X133285533Y-45859761D01*
X74616667Y-45107200D02*
X74759524Y-45154819D01*
X74759524Y-45154819D02*
X74997619Y-45154819D01*
X74997619Y-45154819D02*
X75092857Y-45107200D01*
X75092857Y-45107200D02*
X75140476Y-45059580D01*
X75140476Y-45059580D02*
X75188095Y-44964342D01*
X75188095Y-44964342D02*
X75188095Y-44869104D01*
X75188095Y-44869104D02*
X75140476Y-44773866D01*
X75140476Y-44773866D02*
X75092857Y-44726247D01*
X75092857Y-44726247D02*
X74997619Y-44678628D01*
X74997619Y-44678628D02*
X74807143Y-44631009D01*
X74807143Y-44631009D02*
X74711905Y-44583390D01*
X74711905Y-44583390D02*
X74664286Y-44535771D01*
X74664286Y-44535771D02*
X74616667Y-44440533D01*
X74616667Y-44440533D02*
X74616667Y-44345295D01*
X74616667Y-44345295D02*
X74664286Y-44250057D01*
X74664286Y-44250057D02*
X74711905Y-44202438D01*
X74711905Y-44202438D02*
X74807143Y-44154819D01*
X74807143Y-44154819D02*
X75045238Y-44154819D01*
X75045238Y-44154819D02*
X75188095Y-44202438D01*
X75521429Y-44154819D02*
X75759524Y-45154819D01*
X75759524Y-45154819D02*
X75950000Y-44440533D01*
X75950000Y-44440533D02*
X76140476Y-45154819D01*
X76140476Y-45154819D02*
X76378572Y-44154819D01*
X77283333Y-45154819D02*
X76711905Y-45154819D01*
X76997619Y-45154819D02*
X76997619Y-44154819D01*
X76997619Y-44154819D02*
X76902381Y-44297676D01*
X76902381Y-44297676D02*
X76807143Y-44392914D01*
X76807143Y-44392914D02*
X76711905Y-44440533D01*
X92891905Y-103404819D02*
X92891905Y-102404819D01*
X92891905Y-102404819D02*
X93130000Y-102404819D01*
X93130000Y-102404819D02*
X93272857Y-102452438D01*
X93272857Y-102452438D02*
X93368095Y-102547676D01*
X93368095Y-102547676D02*
X93415714Y-102642914D01*
X93415714Y-102642914D02*
X93463333Y-102833390D01*
X93463333Y-102833390D02*
X93463333Y-102976247D01*
X93463333Y-102976247D02*
X93415714Y-103166723D01*
X93415714Y-103166723D02*
X93368095Y-103261961D01*
X93368095Y-103261961D02*
X93272857Y-103357200D01*
X93272857Y-103357200D02*
X93130000Y-103404819D01*
X93130000Y-103404819D02*
X92891905Y-103404819D01*
X93844286Y-102500057D02*
X93891905Y-102452438D01*
X93891905Y-102452438D02*
X93987143Y-102404819D01*
X93987143Y-102404819D02*
X94225238Y-102404819D01*
X94225238Y-102404819D02*
X94320476Y-102452438D01*
X94320476Y-102452438D02*
X94368095Y-102500057D01*
X94368095Y-102500057D02*
X94415714Y-102595295D01*
X94415714Y-102595295D02*
X94415714Y-102690533D01*
X94415714Y-102690533D02*
X94368095Y-102833390D01*
X94368095Y-102833390D02*
X93796667Y-103404819D01*
X93796667Y-103404819D02*
X94415714Y-103404819D01*
D12*
X207360389Y-31376109D02*
X207193723Y-31138014D01*
X207074675Y-31376109D02*
X207074675Y-30876109D01*
X207074675Y-30876109D02*
X207265151Y-30876109D01*
X207265151Y-30876109D02*
X207312770Y-30899919D01*
X207312770Y-30899919D02*
X207336580Y-30923728D01*
X207336580Y-30923728D02*
X207360389Y-30971347D01*
X207360389Y-30971347D02*
X207360389Y-31042776D01*
X207360389Y-31042776D02*
X207336580Y-31090395D01*
X207336580Y-31090395D02*
X207312770Y-31114204D01*
X207312770Y-31114204D02*
X207265151Y-31138014D01*
X207265151Y-31138014D02*
X207074675Y-31138014D01*
X207836580Y-31376109D02*
X207550866Y-31376109D01*
X207693723Y-31376109D02*
X207693723Y-30876109D01*
X207693723Y-30876109D02*
X207646104Y-30947538D01*
X207646104Y-30947538D02*
X207598485Y-30995157D01*
X207598485Y-30995157D02*
X207550866Y-31018966D01*
X208003246Y-30876109D02*
X208336579Y-30876109D01*
X208336579Y-30876109D02*
X208122294Y-31376109D01*
D11*
X93761905Y-124454819D02*
X93761905Y-123454819D01*
X93761905Y-123454819D02*
X94000000Y-123454819D01*
X94000000Y-123454819D02*
X94142857Y-123502438D01*
X94142857Y-123502438D02*
X94238095Y-123597676D01*
X94238095Y-123597676D02*
X94285714Y-123692914D01*
X94285714Y-123692914D02*
X94333333Y-123883390D01*
X94333333Y-123883390D02*
X94333333Y-124026247D01*
X94333333Y-124026247D02*
X94285714Y-124216723D01*
X94285714Y-124216723D02*
X94238095Y-124311961D01*
X94238095Y-124311961D02*
X94142857Y-124407200D01*
X94142857Y-124407200D02*
X94000000Y-124454819D01*
X94000000Y-124454819D02*
X93761905Y-124454819D01*
X94666667Y-123454819D02*
X95285714Y-123454819D01*
X95285714Y-123454819D02*
X94952381Y-123835771D01*
X94952381Y-123835771D02*
X95095238Y-123835771D01*
X95095238Y-123835771D02*
X95190476Y-123883390D01*
X95190476Y-123883390D02*
X95238095Y-123931009D01*
X95238095Y-123931009D02*
X95285714Y-124026247D01*
X95285714Y-124026247D02*
X95285714Y-124264342D01*
X95285714Y-124264342D02*
X95238095Y-124359580D01*
X95238095Y-124359580D02*
X95190476Y-124407200D01*
X95190476Y-124407200D02*
X95095238Y-124454819D01*
X95095238Y-124454819D02*
X94809524Y-124454819D01*
X94809524Y-124454819D02*
X94714286Y-124407200D01*
X94714286Y-124407200D02*
X94666667Y-124359580D01*
X92738095Y-133454819D02*
X92738095Y-132454819D01*
X93309523Y-133454819D02*
X92880952Y-132883390D01*
X93309523Y-132454819D02*
X92738095Y-133026247D01*
X137553333Y-45279819D02*
X137220000Y-44803628D01*
X136981905Y-45279819D02*
X136981905Y-44279819D01*
X136981905Y-44279819D02*
X137362857Y-44279819D01*
X137362857Y-44279819D02*
X137458095Y-44327438D01*
X137458095Y-44327438D02*
X137505714Y-44375057D01*
X137505714Y-44375057D02*
X137553333Y-44470295D01*
X137553333Y-44470295D02*
X137553333Y-44613152D01*
X137553333Y-44613152D02*
X137505714Y-44708390D01*
X137505714Y-44708390D02*
X137458095Y-44756009D01*
X137458095Y-44756009D02*
X137362857Y-44803628D01*
X137362857Y-44803628D02*
X136981905Y-44803628D01*
X137886667Y-44279819D02*
X138505714Y-44279819D01*
X138505714Y-44279819D02*
X138172381Y-44660771D01*
X138172381Y-44660771D02*
X138315238Y-44660771D01*
X138315238Y-44660771D02*
X138410476Y-44708390D01*
X138410476Y-44708390D02*
X138458095Y-44756009D01*
X138458095Y-44756009D02*
X138505714Y-44851247D01*
X138505714Y-44851247D02*
X138505714Y-45089342D01*
X138505714Y-45089342D02*
X138458095Y-45184580D01*
X138458095Y-45184580D02*
X138410476Y-45232200D01*
X138410476Y-45232200D02*
X138315238Y-45279819D01*
X138315238Y-45279819D02*
X138029524Y-45279819D01*
X138029524Y-45279819D02*
X137934286Y-45232200D01*
X137934286Y-45232200D02*
X137886667Y-45184580D01*
%TO.C,C2*%
D13*
X90534420Y-45990000D02*
X90815580Y-45990000D01*
X90534420Y-47010000D02*
X90815580Y-47010000D01*
%TO.C,R14*%
X198704773Y-33087742D02*
X198704773Y-33562258D01*
X199749773Y-33087742D02*
X199749773Y-33562258D01*
%TO.C,L1*%
X71900000Y-118100000D02*
X71900000Y-106600000D01*
X72550000Y-105950000D02*
X75300000Y-105950000D01*
X72550000Y-118750000D02*
X75300000Y-118750000D01*
X81300000Y-105950000D02*
X84050000Y-105950000D01*
X81300000Y-118750000D02*
X84050000Y-118750000D01*
X84700000Y-106600000D02*
X84700000Y-118100000D01*
X71900000Y-106600000D02*
G75*
G02*
X72550000Y-105950000I650000J0D01*
G01*
X72550000Y-118750000D02*
G75*
G02*
X71900000Y-118100000I1J650001D01*
G01*
X84050000Y-105950000D02*
G75*
G02*
X84700000Y-106600000I0J-650000D01*
G01*
X84700000Y-118100000D02*
G75*
G02*
X84050000Y-118750000I-650001J1D01*
G01*
%TO.C,R16*%
X204341136Y-33087742D02*
X204341136Y-33562258D01*
X205386136Y-33087742D02*
X205386136Y-33562258D01*
%TO.C,SW2*%
X78950000Y-59250000D02*
X78950000Y-60750000D01*
X80200000Y-63250000D02*
X84700000Y-63250000D01*
X84700000Y-56750000D02*
X80200000Y-56750000D01*
X85950000Y-60750000D02*
X85950000Y-59250000D01*
%TO.C,R2*%
X90437742Y-59477500D02*
X90912258Y-59477500D01*
X90437742Y-60522500D02*
X90912258Y-60522500D01*
%TO.C,F1*%
X104790000Y-98023752D02*
X104790000Y-95251248D01*
X108210000Y-98023752D02*
X108210000Y-95251248D01*
%TO.C,K10*%
D14*
X186150000Y-107200000D02*
X211000000Y-107200000D01*
X211000000Y-113200000D01*
X186150000Y-113200000D01*
X186150000Y-107200000D01*
%TO.C,R12*%
D13*
X193068409Y-33087742D02*
X193068409Y-33562258D01*
X194113409Y-33087742D02*
X194113409Y-33562258D01*
%TO.C,U3*%
X99900000Y-123100000D02*
X100850000Y-123100000D01*
X99900000Y-124465000D02*
X99900000Y-123100000D01*
X110300000Y-123100000D02*
X109350000Y-123100000D01*
X110300000Y-124465000D02*
X110300000Y-123100000D01*
X109310000Y-120275000D02*
X109780000Y-119935000D01*
X109780000Y-120615000D01*
X109310000Y-120275000D01*
G36*
X109780000Y-120615000D02*
G01*
X109310000Y-120275000D01*
X109780000Y-119935000D01*
X109780000Y-120615000D01*
G37*
%TO.C,J3*%
X109847500Y-72555000D02*
X117887500Y-72555000D01*
X109847500Y-83295000D02*
X109847500Y-72555000D01*
X113467500Y-73363000D02*
X113467500Y-72555000D01*
X113467500Y-78295000D02*
X113467500Y-76987000D01*
X113467500Y-83295000D02*
X113467500Y-82055000D01*
X114467500Y-73363000D02*
X114467500Y-72555000D01*
X114467500Y-78295000D02*
X114467500Y-76987000D01*
X114467500Y-83295000D02*
X114467500Y-82055000D01*
X115767500Y-74632000D02*
X115767500Y-72555000D01*
X115767500Y-78295000D02*
X115767500Y-75718000D01*
X115767500Y-83295000D02*
X115767500Y-82055000D01*
X117887500Y-72555000D02*
X117887500Y-79875000D01*
X117887500Y-80475000D02*
X117887500Y-83295000D01*
X117887500Y-83295000D02*
X109847500Y-83295000D01*
X117887500Y-80175000D02*
X118497500Y-79735000D01*
X118497500Y-80615000D01*
X117887500Y-80175000D01*
G36*
X118497500Y-80615000D02*
G01*
X117887500Y-80175000D01*
X118497500Y-79735000D01*
X118497500Y-80615000D01*
G37*
%TO.C,R4*%
X135127500Y-49587742D02*
X135127500Y-50062258D01*
X136172500Y-49587742D02*
X136172500Y-50062258D01*
%TO.C,R11*%
X190250227Y-33087742D02*
X190250227Y-33562258D01*
X191295227Y-33087742D02*
X191295227Y-33562258D01*
%TO.C,J6*%
X174080000Y-44841538D02*
X182120000Y-44841538D01*
X174080000Y-47661538D02*
X174080000Y-44841538D01*
X174080000Y-115581538D02*
X174080000Y-48261538D01*
X176200000Y-44841538D02*
X176200000Y-46081538D01*
X176200000Y-49841538D02*
X176200000Y-52418538D01*
X176200000Y-53504538D02*
X176200000Y-57418538D01*
X176200000Y-58504538D02*
X176200000Y-62418538D01*
X176200000Y-63504538D02*
X176200000Y-67418538D01*
X176200000Y-68504538D02*
X176200000Y-72418538D01*
X176200000Y-73504538D02*
X176200000Y-77418538D01*
X176200000Y-78504538D02*
X176200000Y-82418538D01*
X176200000Y-83504538D02*
X176200000Y-87418538D01*
X176200000Y-88504538D02*
X176200000Y-92418538D01*
X176200000Y-93504538D02*
X176200000Y-97418538D01*
X176200000Y-98504538D02*
X176200000Y-102418538D01*
X176200000Y-103504538D02*
X176200000Y-107418538D01*
X176200000Y-108504538D02*
X176200000Y-112418538D01*
X176200000Y-113504538D02*
X176200000Y-115581538D01*
X177500000Y-44841538D02*
X177500000Y-46081538D01*
X177500000Y-49841538D02*
X177500000Y-51149538D01*
X177500000Y-54773538D02*
X177500000Y-56149538D01*
X177500000Y-59773538D02*
X177500000Y-61149538D01*
X177500000Y-64773538D02*
X177500000Y-66149538D01*
X177500000Y-69773538D02*
X177500000Y-71149538D01*
X177500000Y-74773538D02*
X177500000Y-76149538D01*
X177500000Y-79773538D02*
X177500000Y-81149538D01*
X177500000Y-84773538D02*
X177500000Y-86149538D01*
X177500000Y-89773538D02*
X177500000Y-91149538D01*
X177500000Y-94773538D02*
X177500000Y-96149538D01*
X177500000Y-99773538D02*
X177500000Y-101149538D01*
X177500000Y-104773538D02*
X177500000Y-106149538D01*
X177500000Y-109773538D02*
X177500000Y-111149538D01*
X177500000Y-114773538D02*
X177500000Y-115581538D01*
X178500000Y-44841538D02*
X178500000Y-46081538D01*
X178500000Y-49841538D02*
X178500000Y-51149538D01*
X178500000Y-54773538D02*
X178500000Y-56149538D01*
X178500000Y-59773538D02*
X178500000Y-61149538D01*
X178500000Y-64773538D02*
X178500000Y-66149538D01*
X178500000Y-69773538D02*
X178500000Y-71149538D01*
X178500000Y-74773538D02*
X178500000Y-76149538D01*
X178500000Y-79773538D02*
X178500000Y-81149538D01*
X178500000Y-84773538D02*
X178500000Y-86149538D01*
X178500000Y-89773538D02*
X178500000Y-91149538D01*
X178500000Y-94773538D02*
X178500000Y-96149538D01*
X178500000Y-99773538D02*
X178500000Y-101149538D01*
X178500000Y-104773538D02*
X178500000Y-106149538D01*
X178500000Y-109773538D02*
X178500000Y-111149538D01*
X178500000Y-114773538D02*
X178500000Y-115581538D01*
X182120000Y-44841538D02*
X182120000Y-115581538D01*
X182120000Y-115581538D02*
X174080000Y-115581538D01*
X174080000Y-47961538D02*
X173470000Y-48401538D01*
X173470000Y-47521538D01*
X174080000Y-47961538D01*
G36*
X174080000Y-47961538D02*
G01*
X173470000Y-48401538D01*
X173470000Y-47521538D01*
X174080000Y-47961538D01*
G37*
%TO.C,K7*%
D14*
X186150000Y-86000000D02*
X211000000Y-86000000D01*
X211000000Y-92000000D01*
X186150000Y-92000000D01*
X186150000Y-86000000D01*
%TO.C,U1*%
D13*
X98750000Y-27790000D02*
X98750000Y-34540000D01*
X98750000Y-27790000D02*
X116750000Y-27790000D01*
X98750000Y-52540000D02*
X98750000Y-53290000D01*
X98750000Y-53290000D02*
X99750000Y-53290000D01*
X116750000Y-27790000D02*
X116750000Y-34540000D01*
X116750000Y-33730000D02*
X98750000Y-33730000D01*
X116750000Y-52540000D02*
X116750000Y-53290000D01*
X116750000Y-53290000D02*
X115750000Y-53290000D01*
%TO.C,C10*%
X91990000Y-68634420D02*
X91990000Y-68915580D01*
X93010000Y-68634420D02*
X93010000Y-68915580D01*
%TO.C,C1*%
X90238748Y-42265000D02*
X90761252Y-42265000D01*
X90238748Y-43735000D02*
X90761252Y-43735000D01*
%TO.C,K8*%
D14*
X186150000Y-93000000D02*
X211000000Y-93000000D01*
X211000000Y-99000000D01*
X186150000Y-99000000D01*
X186150000Y-93000000D01*
%TO.C,C3*%
D13*
X90534420Y-56490000D02*
X90815580Y-56490000D01*
X90534420Y-57510000D02*
X90815580Y-57510000D01*
%TO.C,C9*%
X89265000Y-69211252D02*
X89265000Y-68688748D01*
X90735000Y-69211252D02*
X90735000Y-68688748D01*
%TO.C,R7*%
X178977500Y-33087742D02*
X178977500Y-33562258D01*
X180022500Y-33087742D02*
X180022500Y-33562258D01*
%TO.C,J4*%
X109847500Y-58805000D02*
X117887500Y-58805000D01*
X109847500Y-69545000D02*
X109847500Y-58805000D01*
X113467500Y-59613000D02*
X113467500Y-58805000D01*
X113467500Y-64545000D02*
X113467500Y-63237000D01*
X113467500Y-69545000D02*
X113467500Y-68305000D01*
X114467500Y-59613000D02*
X114467500Y-58805000D01*
X114467500Y-64545000D02*
X114467500Y-63237000D01*
X114467500Y-69545000D02*
X114467500Y-68305000D01*
X115767500Y-60882000D02*
X115767500Y-58805000D01*
X115767500Y-64545000D02*
X115767500Y-61968000D01*
X115767500Y-69545000D02*
X115767500Y-68305000D01*
X117887500Y-58805000D02*
X117887500Y-66125000D01*
X117887500Y-66725000D02*
X117887500Y-69545000D01*
X117887500Y-69545000D02*
X109847500Y-69545000D01*
X117887500Y-66425000D02*
X118497500Y-65985000D01*
X118497500Y-66865000D01*
X117887500Y-66425000D01*
G36*
X118497500Y-66865000D02*
G01*
X117887500Y-66425000D01*
X118497500Y-65985000D01*
X118497500Y-66865000D01*
G37*
%TO.C,R18*%
X209977500Y-33087742D02*
X209977500Y-33562258D01*
X211022500Y-33087742D02*
X211022500Y-33562258D01*
%TO.C,C11*%
X152490000Y-35415580D02*
X152490000Y-35134420D01*
X153510000Y-35415580D02*
X153510000Y-35134420D01*
%TO.C,K1*%
D14*
X186150000Y-44000000D02*
X211000000Y-44000000D01*
X211000000Y-50000000D01*
X186150000Y-50000000D01*
X186150000Y-44000000D01*
%TO.C,K12*%
X186150000Y-121000000D02*
X211000000Y-121000000D01*
X211000000Y-127000000D01*
X186150000Y-127000000D01*
X186150000Y-121000000D01*
%TO.C,R6*%
D13*
X107477500Y-61437742D02*
X107477500Y-61912258D01*
X108522500Y-61437742D02*
X108522500Y-61912258D01*
%TO.C,K6*%
D14*
X186150000Y-79000000D02*
X211000000Y-79000000D01*
X211000000Y-85000000D01*
X186150000Y-85000000D01*
X186150000Y-79000000D01*
%TO.C,K9*%
X186150000Y-100000000D02*
X211000000Y-100000000D01*
X211000000Y-106000000D01*
X186150000Y-106000000D01*
X186150000Y-100000000D01*
%TO.C,C8*%
D13*
X79765000Y-68738748D02*
X79765000Y-69261252D01*
X81235000Y-68738748D02*
X81235000Y-69261252D01*
%TO.C,K5*%
D14*
X186150000Y-71950000D02*
X211000000Y-71950000D01*
X211000000Y-77950000D01*
X186150000Y-77950000D01*
X186150000Y-71950000D01*
%TO.C,K2*%
X186150000Y-51000000D02*
X211000000Y-51000000D01*
X211000000Y-57000000D01*
X186150000Y-57000000D01*
X186150000Y-51000000D01*
%TO.C,R9*%
D13*
X184613864Y-33087742D02*
X184613864Y-33562258D01*
X185658864Y-33087742D02*
X185658864Y-33562258D01*
%TO.C,K3*%
D14*
X186150000Y-57850000D02*
X211000000Y-57850000D01*
X211000000Y-63850000D01*
X186150000Y-63850000D01*
X186150000Y-57850000D01*
%TO.C,R13*%
D13*
X195886591Y-33087742D02*
X195886591Y-33562258D01*
X196931591Y-33087742D02*
X196931591Y-33562258D01*
%TO.C,R1*%
X90387742Y-48977500D02*
X90862258Y-48977500D01*
X90387742Y-50022500D02*
X90862258Y-50022500D01*
%TO.C,J2*%
X109847500Y-88630000D02*
X117887500Y-88630000D01*
X109847500Y-99370000D02*
X109847500Y-88630000D01*
X113467500Y-89438000D02*
X113467500Y-88630000D01*
X113467500Y-94370000D02*
X113467500Y-93062000D01*
X113467500Y-99370000D02*
X113467500Y-98130000D01*
X114467500Y-89438000D02*
X114467500Y-88630000D01*
X114467500Y-94370000D02*
X114467500Y-93062000D01*
X114467500Y-99370000D02*
X114467500Y-98130000D01*
X115767500Y-90707000D02*
X115767500Y-88630000D01*
X115767500Y-94370000D02*
X115767500Y-91793000D01*
X115767500Y-99370000D02*
X115767500Y-98130000D01*
X117887500Y-88630000D02*
X117887500Y-95950000D01*
X117887500Y-96550000D02*
X117887500Y-99370000D01*
X117887500Y-99370000D02*
X109847500Y-99370000D01*
X117887500Y-96250000D02*
X118497500Y-95810000D01*
X118497500Y-96690000D01*
X117887500Y-96250000D01*
G36*
X118497500Y-96690000D02*
G01*
X117887500Y-96250000D01*
X118497500Y-95810000D01*
X118497500Y-96690000D01*
G37*
%TO.C,K11*%
D14*
X186150000Y-114000000D02*
X211000000Y-114000000D01*
X211000000Y-120000000D01*
X186150000Y-120000000D01*
X186150000Y-114000000D01*
%TO.C,K4*%
X186150000Y-64900000D02*
X211000000Y-64900000D01*
X211000000Y-70900000D01*
X186150000Y-70900000D01*
X186150000Y-64900000D01*
%TO.C,D4*%
D13*
X123850000Y-31990000D02*
X123850000Y-37500000D01*
X127150000Y-31990000D02*
X123850000Y-31990000D01*
X127150000Y-31990000D02*
X127150000Y-37500000D01*
%TO.C,R5*%
X107477500Y-73937742D02*
X107477500Y-74412258D01*
X108522500Y-73937742D02*
X108522500Y-74412258D01*
%TO.C,D1*%
X102350000Y-104740000D02*
X102350000Y-110550000D01*
X106650000Y-104740000D02*
X102350000Y-104740000D01*
X106650000Y-104740000D02*
X106650000Y-110550000D01*
%TO.C,C5*%
X77060000Y-97462323D02*
X73383000Y-97462323D01*
X77060000Y-97502323D02*
X73393000Y-97502323D01*
X77060000Y-97542323D02*
X73404000Y-97542323D01*
X77060000Y-97582323D02*
X73415000Y-97582323D01*
X77060000Y-97622323D02*
X73427000Y-97622323D01*
X77060000Y-97662323D02*
X73439000Y-97662323D01*
X77060000Y-97702323D02*
X73451000Y-97702323D01*
X77060000Y-97742323D02*
X73463000Y-97742323D01*
X77060000Y-97782323D02*
X73476000Y-97782323D01*
X77060000Y-97822323D02*
X73490000Y-97822323D01*
X77060000Y-97862323D02*
X73503000Y-97862323D01*
X77060000Y-97902323D02*
X73518000Y-97902323D01*
X77060000Y-97942323D02*
X73532000Y-97942323D01*
X77060000Y-97982323D02*
X73547000Y-97982323D01*
X77060000Y-98022323D02*
X73562000Y-98022323D01*
X77060000Y-98062323D02*
X73578000Y-98062323D01*
X77060000Y-98102323D02*
X73594000Y-98102323D01*
X77060000Y-98142323D02*
X73610000Y-98142323D01*
X77060000Y-98182323D02*
X73627000Y-98182323D01*
X77060000Y-98222323D02*
X73644000Y-98222323D01*
X77060000Y-98262323D02*
X73662000Y-98262323D01*
X77060000Y-98302323D02*
X73680000Y-98302323D01*
X77060000Y-98342323D02*
X73698000Y-98342323D01*
X77060000Y-98382323D02*
X73717000Y-98382323D01*
X77060000Y-98422323D02*
X73736000Y-98422323D01*
X77060000Y-98462323D02*
X73756000Y-98462323D01*
X77060000Y-98502323D02*
X73776000Y-98502323D01*
X77060000Y-98542323D02*
X73796000Y-98542323D01*
X77060000Y-98582323D02*
X73817000Y-98582323D01*
X77060000Y-98622323D02*
X73839000Y-98622323D01*
X77060000Y-98662323D02*
X73861000Y-98662323D01*
X77060000Y-98702323D02*
X73883000Y-98702323D01*
X77060000Y-98742323D02*
X73906000Y-98742323D01*
X77060000Y-98782323D02*
X73929000Y-98782323D01*
X77060000Y-98822323D02*
X73953000Y-98822323D01*
X77060000Y-98862323D02*
X73977000Y-98862323D01*
X77060000Y-98902323D02*
X74002000Y-98902323D01*
X77060000Y-98942323D02*
X74028000Y-98942323D01*
X77060000Y-98982323D02*
X74053000Y-98982323D01*
X77060000Y-99022323D02*
X74080000Y-99022323D01*
X77060000Y-99062323D02*
X74107000Y-99062323D01*
X77060000Y-99102323D02*
X74134000Y-99102323D01*
X77060000Y-99142323D02*
X74162000Y-99142323D01*
X77060000Y-99182323D02*
X74191000Y-99182323D01*
X77060000Y-99222323D02*
X74220000Y-99222323D01*
X77060000Y-99262323D02*
X74250000Y-99262323D01*
X77060000Y-99302323D02*
X74280000Y-99302323D01*
X77060000Y-99342323D02*
X74312000Y-99342323D01*
X77060000Y-99382323D02*
X74343000Y-99382323D01*
X77060000Y-99422323D02*
X74376000Y-99422323D01*
X77060000Y-99462323D02*
X74409000Y-99462323D01*
X77060000Y-99502323D02*
X74442000Y-99502323D01*
X77060000Y-99542323D02*
X74477000Y-99542323D01*
X77060000Y-99582323D02*
X74512000Y-99582323D01*
X77060000Y-99622323D02*
X74548000Y-99622323D01*
X77060000Y-99662323D02*
X74584000Y-99662323D01*
X77060000Y-99702323D02*
X74622000Y-99702323D01*
X77060000Y-99742323D02*
X74660000Y-99742323D01*
X77060000Y-99782323D02*
X74699000Y-99782323D01*
X77060000Y-99822323D02*
X74739000Y-99822323D01*
X77060000Y-99862323D02*
X74780000Y-99862323D01*
X77060000Y-99902323D02*
X74822000Y-99902323D01*
X78899000Y-101262323D02*
X77701000Y-101262323D01*
X79162000Y-101222323D02*
X77438000Y-101222323D01*
X79362000Y-101182323D02*
X77238000Y-101182323D01*
X79530000Y-101142323D02*
X77070000Y-101142323D01*
X79677000Y-101102323D02*
X76923000Y-101102323D01*
X79809000Y-101062323D02*
X76791000Y-101062323D01*
X79930000Y-101022323D02*
X76670000Y-101022323D01*
X80042000Y-100982323D02*
X76558000Y-100982323D01*
X80146000Y-100942323D02*
X76454000Y-100942323D01*
X80244000Y-100902323D02*
X76356000Y-100902323D01*
X80337000Y-100862323D02*
X76263000Y-100862323D01*
X80424000Y-100822323D02*
X76176000Y-100822323D01*
X80508000Y-100782323D02*
X76092000Y-100782323D01*
X80588000Y-100742323D02*
X76012000Y-100742323D01*
X80665000Y-100702323D02*
X75935000Y-100702323D01*
X80739000Y-100662323D02*
X75861000Y-100662323D01*
X80810000Y-100622323D02*
X75790000Y-100622323D01*
X80878000Y-100582323D02*
X75722000Y-100582323D01*
X80944000Y-100542323D02*
X75656000Y-100542323D01*
X81008000Y-100502323D02*
X75592000Y-100502323D01*
X81070000Y-100462323D02*
X75530000Y-100462323D01*
X81130000Y-100422323D02*
X75470000Y-100422323D01*
X81175000Y-90702677D02*
X81175000Y-91702677D01*
X81188000Y-100382323D02*
X75412000Y-100382323D01*
X81245000Y-100342323D02*
X75355000Y-100342323D01*
X81300000Y-100302323D02*
X75300000Y-100302323D01*
X81353000Y-100262323D02*
X75247000Y-100262323D01*
X81405000Y-100222323D02*
X75195000Y-100222323D01*
X81456000Y-100182323D02*
X75144000Y-100182323D01*
X81505000Y-100142323D02*
X75095000Y-100142323D01*
X81554000Y-100102323D02*
X75046000Y-100102323D01*
X81601000Y-100062323D02*
X74999000Y-100062323D01*
X81647000Y-100022323D02*
X74953000Y-100022323D01*
X81675000Y-91202677D02*
X80675000Y-91202677D01*
X81691000Y-99982323D02*
X74909000Y-99982323D01*
X81735000Y-99942323D02*
X74865000Y-99942323D01*
X81778000Y-99902323D02*
X79540000Y-99902323D01*
X81820000Y-99862323D02*
X79540000Y-99862323D01*
X81861000Y-99822323D02*
X79540000Y-99822323D01*
X81901000Y-99782323D02*
X79540000Y-99782323D01*
X81940000Y-99742323D02*
X79540000Y-99742323D01*
X81978000Y-99702323D02*
X79540000Y-99702323D01*
X82016000Y-99662323D02*
X79540000Y-99662323D01*
X82052000Y-99622323D02*
X79540000Y-99622323D01*
X82088000Y-99582323D02*
X79540000Y-99582323D01*
X82123000Y-99542323D02*
X79540000Y-99542323D01*
X82158000Y-99502323D02*
X79540000Y-99502323D01*
X82191000Y-99462323D02*
X79540000Y-99462323D01*
X82224000Y-99422323D02*
X79540000Y-99422323D01*
X82257000Y-99382323D02*
X79540000Y-99382323D01*
X82288000Y-99342323D02*
X79540000Y-99342323D01*
X82320000Y-99302323D02*
X79540000Y-99302323D01*
X82350000Y-99262323D02*
X79540000Y-99262323D01*
X82380000Y-99222323D02*
X79540000Y-99222323D01*
X82409000Y-99182323D02*
X79540000Y-99182323D01*
X82438000Y-99142323D02*
X79540000Y-99142323D01*
X82466000Y-99102323D02*
X79540000Y-99102323D01*
X82493000Y-99062323D02*
X79540000Y-99062323D01*
X82520000Y-99022323D02*
X79540000Y-99022323D01*
X82547000Y-98982323D02*
X79540000Y-98982323D01*
X82572000Y-98942323D02*
X79540000Y-98942323D01*
X82598000Y-98902323D02*
X79540000Y-98902323D01*
X82623000Y-98862323D02*
X79540000Y-98862323D01*
X82647000Y-98822323D02*
X79540000Y-98822323D01*
X82671000Y-98782323D02*
X79540000Y-98782323D01*
X82694000Y-98742323D02*
X79540000Y-98742323D01*
X82717000Y-98702323D02*
X79540000Y-98702323D01*
X82739000Y-98662323D02*
X79540000Y-98662323D01*
X82761000Y-98622323D02*
X79540000Y-98622323D01*
X82783000Y-98582323D02*
X79540000Y-98582323D01*
X82804000Y-98542323D02*
X79540000Y-98542323D01*
X82824000Y-98502323D02*
X79540000Y-98502323D01*
X82844000Y-98462323D02*
X79540000Y-98462323D01*
X82864000Y-98422323D02*
X79540000Y-98422323D01*
X82883000Y-98382323D02*
X79540000Y-98382323D01*
X82902000Y-98342323D02*
X79540000Y-98342323D01*
X82920000Y-98302323D02*
X79540000Y-98302323D01*
X82938000Y-98262323D02*
X79540000Y-98262323D01*
X82956000Y-98222323D02*
X79540000Y-98222323D01*
X82973000Y-98182323D02*
X79540000Y-98182323D01*
X82990000Y-98142323D02*
X79540000Y-98142323D01*
X83006000Y-98102323D02*
X79540000Y-98102323D01*
X83022000Y-98062323D02*
X79540000Y-98062323D01*
X83038000Y-98022323D02*
X79540000Y-98022323D01*
X83053000Y-97982323D02*
X79540000Y-97982323D01*
X83068000Y-97942323D02*
X79540000Y-97942323D01*
X83082000Y-97902323D02*
X79540000Y-97902323D01*
X83097000Y-97862323D02*
X79540000Y-97862323D01*
X83110000Y-97822323D02*
X79540000Y-97822323D01*
X83124000Y-97782323D02*
X79540000Y-97782323D01*
X83137000Y-97742323D02*
X79540000Y-97742323D01*
X83149000Y-97702323D02*
X79540000Y-97702323D01*
X83161000Y-97662323D02*
X79540000Y-97662323D01*
X83173000Y-97622323D02*
X79540000Y-97622323D01*
X83185000Y-97582323D02*
X79540000Y-97582323D01*
X83196000Y-97542323D02*
X79540000Y-97542323D01*
X83207000Y-97502323D02*
X79540000Y-97502323D01*
X83217000Y-97462323D02*
X79540000Y-97462323D01*
X83228000Y-97422323D02*
X73372000Y-97422323D01*
X83237000Y-97382323D02*
X73363000Y-97382323D01*
X83247000Y-97342323D02*
X73353000Y-97342323D01*
X83256000Y-97302323D02*
X73344000Y-97302323D01*
X83265000Y-97262323D02*
X73335000Y-97262323D01*
X83273000Y-97222323D02*
X73327000Y-97222323D01*
X83281000Y-97182323D02*
X73319000Y-97182323D01*
X83289000Y-97142323D02*
X73311000Y-97142323D01*
X83297000Y-97102323D02*
X73303000Y-97102323D01*
X83304000Y-97062323D02*
X73296000Y-97062323D01*
X83311000Y-97022323D02*
X73289000Y-97022323D01*
X83317000Y-96982323D02*
X73283000Y-96982323D01*
X83323000Y-96942323D02*
X73277000Y-96942323D01*
X83329000Y-96902323D02*
X73271000Y-96902323D01*
X83335000Y-96862323D02*
X73265000Y-96862323D01*
X83340000Y-96822323D02*
X73260000Y-96822323D01*
X83345000Y-96782323D02*
X73255000Y-96782323D01*
X83349000Y-96742323D02*
X73251000Y-96742323D01*
X83354000Y-96702323D02*
X73246000Y-96702323D01*
X83357000Y-96662323D02*
X73243000Y-96662323D01*
X83361000Y-96622323D02*
X73239000Y-96622323D01*
X83364000Y-96582323D02*
X73236000Y-96582323D01*
X83367000Y-96542323D02*
X73233000Y-96542323D01*
X83370000Y-96502323D02*
X73230000Y-96502323D01*
X83372000Y-96462323D02*
X73228000Y-96462323D01*
X83374000Y-96422323D02*
X73226000Y-96422323D01*
X83376000Y-96382323D02*
X73224000Y-96382323D01*
X83377000Y-96342323D02*
X73223000Y-96342323D01*
X83379000Y-96262323D02*
X73221000Y-96262323D01*
X83379000Y-96302323D02*
X73221000Y-96302323D01*
X83380000Y-96182323D02*
X73220000Y-96182323D01*
X83380000Y-96222323D02*
X73220000Y-96222323D01*
X83420000Y-96182323D02*
G75*
G02*
X73180000Y-96182323I-5120000J0D01*
G01*
X73180000Y-96182323D02*
G75*
G02*
X83420000Y-96182323I5120000J0D01*
G01*
%TO.C,C7*%
X109762500Y-105702500D02*
X110550000Y-105702500D01*
X110156250Y-105308750D02*
X110156250Y-106096250D01*
X110790000Y-105204437D02*
X110790000Y-106490000D01*
X110790000Y-105204437D02*
X111854437Y-104140000D01*
X110790000Y-109895563D02*
X110790000Y-108610000D01*
X110790000Y-109895563D02*
X111854437Y-110960000D01*
X111854437Y-104140000D02*
X117610000Y-104140000D01*
X111854437Y-110960000D02*
X117610000Y-110960000D01*
X117610000Y-104140000D02*
X117610000Y-106490000D01*
X117610000Y-110960000D02*
X117610000Y-108610000D01*
%TO.C,U4*%
X84402500Y-67490000D02*
X86222500Y-67490000D01*
X84402500Y-67540000D02*
X84402500Y-67490000D01*
X84402500Y-70610000D02*
X84402500Y-70560000D01*
X86222500Y-67490000D02*
X86222500Y-67540000D01*
X86222500Y-68660000D02*
X86222500Y-69440000D01*
X86222500Y-70560000D02*
X86222500Y-70610000D01*
X86222500Y-70610000D02*
X84402500Y-70610000D01*
X83862500Y-67540000D02*
X83622500Y-67210000D01*
X84102500Y-67210000D01*
X83862500Y-67540000D01*
G36*
X83862500Y-67540000D02*
G01*
X83622500Y-67210000D01*
X84102500Y-67210000D01*
X83862500Y-67540000D01*
G37*
%TO.C,R10*%
X187432045Y-33087742D02*
X187432045Y-33562258D01*
X188477045Y-33087742D02*
X188477045Y-33562258D01*
%TO.C,C4*%
X134915000Y-41859420D02*
X134915000Y-42140580D01*
X135935000Y-41859420D02*
X135935000Y-42140580D01*
%TO.C,U2*%
X130102500Y-33390000D02*
X131922500Y-33390000D01*
X130102500Y-33440000D02*
X130102500Y-33390000D01*
X130102500Y-36510000D02*
X130102500Y-36460000D01*
X131922500Y-33390000D02*
X131922500Y-33440000D01*
X131922500Y-36460000D02*
X131922500Y-36510000D01*
X131922500Y-36510000D02*
X130102500Y-36510000D01*
X129562500Y-33440000D02*
X129322500Y-33110000D01*
X129802500Y-33110000D01*
X129562500Y-33440000D01*
G36*
X129562500Y-33440000D02*
G01*
X129322500Y-33110000D01*
X129802500Y-33110000D01*
X129562500Y-33440000D01*
G37*
%TO.C,R15*%
X201522955Y-33087742D02*
X201522955Y-33562258D01*
X202567955Y-33087742D02*
X202567955Y-33562258D01*
%TO.C,C6*%
X85862500Y-94202500D02*
X86650000Y-94202500D01*
X86256250Y-93808750D02*
X86256250Y-94596250D01*
X86890000Y-93704437D02*
X86890000Y-94990000D01*
X86890000Y-93704437D02*
X87954437Y-92640000D01*
X86890000Y-98395563D02*
X86890000Y-97110000D01*
X86890000Y-98395563D02*
X87954437Y-99460000D01*
X87954437Y-92640000D02*
X93710000Y-92640000D01*
X87954437Y-99460000D02*
X93710000Y-99460000D01*
X93710000Y-92640000D02*
X93710000Y-94990000D01*
X93710000Y-99460000D02*
X93710000Y-97110000D01*
%TO.C,D5*%
X145600000Y-40450000D02*
X145600000Y-33450000D01*
X145600000Y-40450000D02*
X151100000Y-40450000D01*
X149250000Y-34250000D02*
X147450000Y-34250000D01*
X149250000Y-39650000D02*
X147450000Y-39650000D01*
X150650000Y-33450000D02*
X145600000Y-33450000D01*
X151100000Y-33900000D02*
X150650000Y-33450000D01*
X151100000Y-40450000D02*
X151100000Y-33900000D01*
%TO.C,R8*%
X181795682Y-33087742D02*
X181795682Y-33562258D01*
X182840682Y-33087742D02*
X182840682Y-33562258D01*
%TO.C,J1*%
X124000000Y-41255000D02*
X124000000Y-50655000D01*
X125900000Y-41255000D02*
X124000000Y-41255000D01*
X125900000Y-50655000D02*
X124000000Y-50655000D01*
X129800000Y-41255000D02*
X127800000Y-41255000D01*
X129800000Y-50655000D02*
X127800000Y-50655000D01*
%TO.C,SW1*%
X78950000Y-43700000D02*
X78950000Y-45200000D01*
X80200000Y-47700000D02*
X84700000Y-47700000D01*
X84700000Y-41200000D02*
X80200000Y-41200000D01*
X85950000Y-45200000D02*
X85950000Y-43700000D01*
%TO.C,D2*%
X90330000Y-103750000D02*
X96930000Y-103750000D01*
X90330000Y-112350000D02*
X96930000Y-112350000D01*
X89310000Y-104370000D02*
X89030000Y-104370000D01*
X89310000Y-104090000D01*
X89310000Y-104370000D01*
G36*
X89310000Y-104370000D02*
G01*
X89030000Y-104370000D01*
X89310000Y-104090000D01*
X89310000Y-104370000D01*
G37*
%TO.C,R17*%
X207159318Y-33087742D02*
X207159318Y-33562258D01*
X208204318Y-33087742D02*
X208204318Y-33562258D01*
%TO.C,D3*%
X88080000Y-128185000D02*
X93520000Y-128185000D01*
X88080000Y-128305000D02*
X93520000Y-128305000D01*
X88080000Y-128425000D02*
X93520000Y-128425000D01*
X90800000Y-119200000D02*
X90800000Y-120110000D01*
X90800000Y-130760000D02*
X90800000Y-129850000D01*
X88080000Y-120110000D02*
X93520000Y-120110000D01*
X93520000Y-129850000D01*
X88080000Y-129850000D01*
X88080000Y-120110000D01*
%TO.C,R3*%
X135127500Y-46062258D02*
X135127500Y-45587742D01*
X136172500Y-46062258D02*
X136172500Y-45587742D01*
%TD*%
M02*
