M48
; DRILL file KiCad 10.0.4 date 2026-07-07T13:21:18
; FORMAT={-:-/ absolute / metric / decimal}
; #@! TF.CreationDate,2026-07-07T13:21:18-07:00
; #@! TF.GenerationSoftware,Kicad,Pcbnew,10.0.4
; #@! TF.FileFunction,Plated,1,2,PTH
FMAT,2
METRIC
; #@! TA.AperFunction,Plated,PTH,ViaDrill
T1C0.300
; #@! TA.AperFunction,Plated,PTH,ViaDrill
T2C0.400
; #@! TA.AperFunction,Plated,PTH,ComponentDrill
T3C0.600
; #@! TA.AperFunction,Plated,PTH,ComponentDrill
T4C1.000
; #@! TA.AperFunction,Plated,PTH,ComponentDrill
T5C1.100
; #@! TA.AperFunction,Plated,PTH,ComponentDrill
T6C1.300
; #@! TA.AperFunction,Plated,PTH,ComponentDrill
T7C1.600
%
G90
G05
T1
X71.5Y-46.0
X71.5Y-61.5
X76.5Y-41.5
X77.5Y-122.0
X89.4Y-62.0
X89.4Y-67.0
X89.5Y-48.5
X90.399Y-47.601
X90.6Y-62.0
X90.806Y-44.306
X91.5Y-40.0
X91.654Y-45.154
X93.199Y-40.199
X95.5Y-38.5
X96.0Y-35.0
X96.5Y-41.0
X96.5Y-55.5
X97.0Y-125.5
X97.0Y-132.0
X97.5Y-46.0
X98.0Y-119.5
X98.998Y-55.002
X99.0Y-58.0
X100.5Y-48.0
X101.0Y-50.5
X101.066Y-43.566
X101.5Y-68.6
X102.6Y-49.0
X102.6Y-54.5
X102.6Y-55.3
X102.6Y-56.5
X103.5Y-51.5
X103.5Y-116.9
X105.5Y-57.5
X106.0Y-54.5
X106.0Y-124.0
X106.24Y-51.74
X107.0Y-54.5
X107.664Y-51.164
X108.385Y-57.754
X108.5Y-59.4
X108.588Y-51.088
X109.5Y-55.7
X110.5Y-109.0
X111.998Y-59.506
X112.0Y-120.0
X112.0Y-126.0
X112.0Y-132.5
X112.245Y-58.745
X113.245Y-57.754
X113.835Y-57.154
X114.5Y-51.5
X114.5Y-56.5
X114.918Y-58.954
X115.5Y-55.7
X115.924Y-54.5
X117.0Y-54.5
X117.9Y-47.0
X118.434Y-36.434
X118.5Y-53.5
X118.57Y-33.93
X119.1Y-46.0
X119.1Y-47.0
X119.37Y-33.93
X119.937Y-53.9
X120.0Y-57.754
X120.17Y-33.93
X120.5Y-43.0
X120.5Y-47.5
X120.969Y-33.899
X121.0Y-40.0
X121.828Y-33.889
X123.0Y-129.5
X125.0Y-53.0
X127.5Y-38.0
X128.174Y-35.826
X128.648Y-42.2
X130.326Y-39.674
X130.5Y-38.0
X130.5Y-45.0
X132.0Y-39.5
X133.226Y-44.333
X133.724Y-37.776
X134.0Y-38.9
X134.0Y-42.0
X134.124Y-45.132
X135.5Y-52.5
X136.0Y-36.5
X137.0Y-43.5
X141.0Y-38.9
X147.5Y-129.5
X158.506Y-37.105
X158.699Y-34.65
X177.0Y-32.85
X177.0Y-37.099
X178.0Y-34.25
X178.0Y-37.099
X179.5Y-129.5
X181.0Y-34.25
X181.0Y-37.099
X183.5Y-109.6
X183.5Y-110.8
X184.0Y-34.05
X184.0Y-37.099
X186.5Y-34.05
X186.5Y-37.099
X189.5Y-34.05
X189.5Y-37.099
X192.0Y-34.05
X192.5Y-37.099
X195.0Y-34.25
X195.0Y-37.099
X198.5Y-34.65
X198.5Y-38.0
X201.5Y-35.0
X201.5Y-37.099
X204.0Y-35.0
X207.276Y-35.276
X207.5Y-37.0
X208.124Y-36.124
X214.0Y-31.0
X218.0Y-31.0
X220.5Y-121.5
X221.5Y-42.0
X225.5Y-61.5
X226.0Y-99.0
T2
X92.0Y-106.0
X108.5Y-116.5
T4
X78.3Y-93.682
X78.3Y-98.682
X188.34Y-47.0
X188.34Y-54.0
X188.34Y-60.85
X188.34Y-67.9
X188.34Y-74.95
X188.34Y-82.0
X188.34Y-89.0
X188.34Y-96.0
X188.34Y-103.0
X188.34Y-110.2
X188.34Y-117.0
X188.34Y-124.0
X195.96Y-47.0
X195.96Y-54.0
X195.96Y-60.85
X195.96Y-67.9
X195.96Y-74.95
X195.96Y-82.0
X195.96Y-89.0
X195.96Y-96.0
X195.96Y-103.0
X195.96Y-110.2
X195.96Y-117.0
X195.96Y-124.0
X206.12Y-47.0
X206.12Y-54.0
X206.12Y-60.85
X206.12Y-67.9
X206.12Y-74.95
X206.12Y-82.0
X206.12Y-89.0
X206.12Y-96.0
X206.12Y-103.0
X206.12Y-110.2
X206.12Y-117.0
X206.12Y-124.0
X208.66Y-47.0
X208.66Y-54.0
X208.66Y-60.85
X208.66Y-67.9
X208.66Y-74.95
X208.66Y-82.0
X208.66Y-89.0
X208.66Y-96.0
X208.66Y-103.0
X208.66Y-110.2
X208.66Y-117.0
X208.66Y-124.0
T5
X79.2Y-42.2
X79.2Y-46.7
X79.2Y-57.75
X79.2Y-62.25
X85.7Y-42.2
X85.7Y-46.7
X85.7Y-57.75
X85.7Y-62.25
T6
X113.968Y-61.425
X113.968Y-66.425
X113.968Y-75.175
X113.968Y-80.175
X113.968Y-91.25
X113.968Y-96.25
X178.0Y-47.962
X178.0Y-52.962
X178.0Y-57.962
X178.0Y-62.962
X178.0Y-67.962
X178.0Y-72.962
X178.0Y-77.962
X178.0Y-82.962
X178.0Y-87.962
X178.0Y-92.962
X178.0Y-97.962
X178.0Y-102.962
X178.0Y-107.962
X178.0Y-112.962
T7
X90.8Y-117.36
X90.8Y-132.6
T3
G00X127.15Y-41.635
M15
G01X126.55Y-41.635
M16
G05
G00X127.15Y-50.275
M15
G01X126.55Y-50.275
M16
G05
G00X131.58Y-41.635
M15
G01X130.48Y-41.635
M16
G05
G00X131.58Y-50.275
M15
G01X130.48Y-50.275
M16
G05
M30
