%TF.GenerationSoftware,KiCad,Pcbnew,10.0.4*%
%TF.CreationDate,2026-07-07T13:21:09-07:00*%
%TF.ProjectId,main-controller-v1,6d61696e-2d63-46f6-9e74-726f6c6c6572,rev?*%
%TF.SameCoordinates,Original*%
%TF.FileFunction,Profile,NP*%
%FSLAX46Y46*%
G04 Gerber Fmt 4.6, Leading zero omitted, Abs format (unit mm)*
G04 Created by KiCad (PCBNEW 10.0.4) date 2026-07-07 13:21:09*
%MOMM*%
%LPD*%
G01*
G04 APERTURE LIST*
%TA.AperFunction,Profile*%
%ADD10C,0.500000*%
%TD*%
G04 APERTURE END LIST*
D10*
X67502620Y-43481400D02*
X69433020Y-43481400D01*
X67502620Y-78000000D02*
X67502620Y-43481400D01*
X67502620Y-84654800D02*
X69255220Y-84654800D01*
X67502620Y-119173400D02*
X67502620Y-84654800D01*
X69255220Y-78000000D02*
X67502620Y-78000000D01*
X69255220Y-84654800D02*
X69255220Y-78000000D01*
X69433020Y-119173400D02*
X67502620Y-119173400D01*
X69433020Y-119173400D02*
G75*
G02*
X77053000Y-126793400I-20J-7620000D01*
G01*
X77053020Y-24990200D02*
X97500020Y-24990200D01*
X77053020Y-35861400D02*
G75*
G02*
X69433020Y-43481400I-7619990J-10D01*
G01*
X77053020Y-35861400D02*
X77053020Y-24990200D01*
X77053020Y-137664600D02*
X77053020Y-126793400D01*
X84584119Y-35886800D02*
G75*
G02*
X81155121Y-35886800I-1714499J0D01*
G01*
X81155121Y-35886800D02*
G75*
G02*
X84584119Y-35886800I1714499J0D01*
G01*
X84584119Y-126768000D02*
G75*
G02*
X81155121Y-126768000I-1714499J0D01*
G01*
X81155121Y-126768000D02*
G75*
G02*
X84584119Y-126768000I1714499J0D01*
G01*
X97500020Y-24990200D02*
X97500020Y-33743040D01*
X97500020Y-33743040D02*
X117499980Y-33743040D01*
X103011820Y-135912000D02*
X103011820Y-137664600D01*
X103011820Y-137664600D02*
X77053020Y-137664600D01*
X109666620Y-135912000D02*
X103011820Y-135912000D01*
X109666620Y-137664600D02*
X109666620Y-135912000D01*
X117499980Y-24990200D02*
X145506020Y-24990200D01*
X117499980Y-33743040D02*
X117499980Y-24990200D01*
X145506020Y-24990200D02*
X145506020Y-26742800D01*
X145506020Y-26742800D02*
X152160820Y-26742800D01*
X145506020Y-135912000D02*
X145506020Y-137664600D01*
X145506020Y-137664600D02*
X109666620Y-137664600D01*
X152160820Y-24990200D02*
X188000220Y-24990200D01*
X152160820Y-26742800D02*
X152160820Y-24990200D01*
X152160820Y-135912000D02*
X145506020Y-135912000D01*
X152160820Y-137664600D02*
X152160820Y-135912000D01*
X188000220Y-24990200D02*
X188000220Y-26742800D01*
X188000220Y-26742800D02*
X194655020Y-26742800D01*
X188000220Y-135912000D02*
X188000220Y-137664600D01*
X188000220Y-137664600D02*
X152160820Y-137664600D01*
X194655020Y-24990200D02*
X220613820Y-24990200D01*
X194655020Y-26742800D02*
X194655020Y-24990200D01*
X194655020Y-135912000D02*
X188000220Y-135912000D01*
X194655020Y-137664600D02*
X194655020Y-135912000D01*
X216511719Y-35886800D02*
G75*
G02*
X213082721Y-35886800I-1714499J0D01*
G01*
X213082721Y-35886800D02*
G75*
G02*
X216511719Y-35886800I1714499J0D01*
G01*
X216511719Y-126768000D02*
G75*
G02*
X213082721Y-126768000I-1714499J0D01*
G01*
X213082721Y-126768000D02*
G75*
G02*
X216511719Y-126768000I1714499J0D01*
G01*
X220613820Y-24990200D02*
X220613820Y-35861400D01*
X220613820Y-126793400D02*
X220613820Y-137664600D01*
X220613820Y-126793400D02*
G75*
G02*
X228233820Y-119173420I7619980J0D01*
G01*
X220613820Y-137664600D02*
X194655020Y-137664600D01*
X228233820Y-43481400D02*
G75*
G02*
X220613800Y-35861400I-20J7620000D01*
G01*
X228233820Y-43481400D02*
X230164220Y-43481400D01*
X228411619Y-78000000D02*
X228411619Y-84654800D01*
X228411619Y-84654800D02*
X230164220Y-84654800D01*
X230164220Y-43481400D02*
X230164220Y-78000000D01*
X230164220Y-78000000D02*
X228411619Y-78000000D01*
X230164220Y-84654800D02*
X230164220Y-119173400D01*
X230164220Y-119173400D02*
X228233820Y-119173400D01*
M02*
