G04 #@! TF.GenerationSoftware,KiCad,Pcbnew,10.0.4*
G04 #@! TF.CreationDate,2026-07-27T04:45:34-07:00*
G04 #@! TF.ProjectId,main-controller-v1,6d61696e-2d63-46f6-9e74-726f6c6c6572,rev?*
G04 #@! TF.SameCoordinates,Original*
G04 #@! TF.FileFunction,Paste,Top*
G04 #@! TF.FilePolarity,Positive*
%FSLAX46Y46*%
G04 Gerber Fmt 4.6, Leading zero omitted, Abs format (unit mm)*
G04 Created by KiCad (PCBNEW 10.0.4) date 2026-07-27 04:45:34*
%MOMM*%
%LPD*%
G01*
G04 APERTURE LIST*
G04 Aperture macros list*
%AMRoundRect*
0 Rectangle with rounded corners*
0 $1 Rounding radius*
0 $2 $3 $4 $5 $6 $7 $8 $9 X,Y pos of 4 corners*
0 Add a 4 corners polygon primitive as box body*
4,1,4,$2,$3,$4,$5,$6,$7,$8,$9,$2,$3,0*
0 Add four circle primitives for the rounded corners*
1,1,$1+$1,$2,$3*
1,1,$1+$1,$4,$5*
1,1,$1+$1,$6,$7*
1,1,$1+$1,$8,$9*
0 Add four rect primitives between the rounded corners*
20,1,$1+$1,$2,$3,$4,$5,0*
20,1,$1+$1,$4,$5,$6,$7,0*
20,1,$1+$1,$6,$7,$8,$9,0*
20,1,$1+$1,$8,$9,$2,$3,0*%
G04 Aperture macros list end*
%ADD10RoundRect,0.225000X-0.225000X-0.250000X0.225000X-0.250000X0.225000X0.250000X-0.225000X0.250000X0*%
%ADD11RoundRect,0.200000X-0.275000X0.200000X-0.275000X-0.200000X0.275000X-0.200000X0.275000X0.200000X0*%
%ADD12R,5.400000X2.900000*%
%ADD13RoundRect,0.250000X-0.312500X-0.625000X0.312500X-0.625000X0.312500X0.625000X-0.312500X0.625000X0*%
%ADD14RoundRect,0.200000X-0.200000X-0.275000X0.200000X-0.275000X0.200000X0.275000X-0.200000X0.275000X0*%
%ADD15RoundRect,0.250000X1.450000X-0.312500X1.450000X0.312500X-1.450000X0.312500X-1.450000X-0.312500X0*%
%ADD16RoundRect,0.250000X-2.375000X2.025000X-2.375000X-2.025000X2.375000X-2.025000X2.375000X2.025000X0*%
%ADD17RoundRect,0.250000X-0.300000X2.050000X-0.300000X-2.050000X0.300000X-2.050000X0.300000X2.050000X0*%
%ADD18R,1.500000X0.900000*%
%ADD19R,0.900000X1.500000*%
%ADD20R,0.900000X0.900000*%
%ADD21RoundRect,0.225000X-0.250000X0.225000X-0.250000X-0.225000X0.250000X-0.225000X0.250000X0.225000X0*%
%ADD22RoundRect,0.250000X-0.250000X-0.475000X0.250000X-0.475000X0.250000X0.475000X-0.250000X0.475000X0*%
%ADD23RoundRect,0.250000X0.475000X-0.250000X0.475000X0.250000X-0.475000X0.250000X-0.475000X-0.250000X0*%
%ADD24RoundRect,0.225000X0.250000X-0.225000X0.250000X0.225000X-0.250000X0.225000X-0.250000X-0.225000X0*%
%ADD25RoundRect,0.250000X-0.475000X0.250000X-0.475000X-0.250000X0.475000X-0.250000X0.475000X0.250000X0*%
%ADD26RoundRect,0.250000X-1.000000X-0.650000X1.000000X-0.650000X1.000000X0.650000X-1.000000X0.650000X0*%
%ADD27RoundRect,0.250000X0.900000X-1.000000X0.900000X1.000000X-0.900000X1.000000X-0.900000X-1.000000X0*%
%ADD28RoundRect,0.250000X-1.250000X-0.550000X1.250000X-0.550000X1.250000X0.550000X-1.250000X0.550000X0*%
%ADD29RoundRect,0.150000X-0.512500X-0.150000X0.512500X-0.150000X0.512500X0.150000X-0.512500X0.150000X0*%
%ADD30RoundRect,0.250000X-1.500000X-0.550000X1.500000X-0.550000X1.500000X0.550000X-1.500000X0.550000X0*%
%ADD31RoundRect,0.090000X0.360000X-0.660000X0.360000X0.660000X-0.360000X0.660000X-0.360000X-0.660000X0*%
%ADD32R,2.000000X1.100000*%
%ADD33RoundRect,0.200000X0.275000X-0.200000X0.275000X0.200000X-0.275000X0.200000X-0.275000X-0.200000X0*%
G04 APERTURE END LIST*
D10*
G04 #@! TO.C,C2*
X89900000Y-46500000D03*
X91450000Y-46500000D03*
G04 #@! TD*
D11*
G04 #@! TO.C,R14*
X199227273Y-33000000D03*
X199227273Y-34650000D03*
G04 #@! TD*
D12*
G04 #@! TO.C,L1*
X78300000Y-117200000D03*
X78300000Y-107500000D03*
G04 #@! TD*
D13*
G04 #@! TO.C,R_JMP1*
X105075000Y-89500000D03*
X108000000Y-89500000D03*
G04 #@! TD*
D11*
G04 #@! TO.C,R16*
X204863636Y-33000000D03*
X204863636Y-34650000D03*
G04 #@! TD*
D14*
G04 #@! TO.C,R2*
X89850000Y-60000000D03*
X91500000Y-60000000D03*
G04 #@! TD*
D15*
G04 #@! TO.C,F1*
X106500000Y-98775000D03*
X106500000Y-94500000D03*
G04 #@! TD*
D11*
G04 #@! TO.C,R12*
X193590909Y-33000000D03*
X193590909Y-34650000D03*
G04 #@! TD*
D16*
G04 #@! TO.C,U3*
X107875000Y-127000000D03*
X102325000Y-127000000D03*
X107875000Y-131850000D03*
X102325000Y-131850000D03*
D17*
X108500000Y-120275000D03*
X106800000Y-120275000D03*
X105100000Y-120275000D03*
X103400000Y-120275000D03*
X101700000Y-120275000D03*
G04 #@! TD*
D11*
G04 #@! TO.C,R4*
X135650000Y-49000000D03*
X135650000Y-50650000D03*
G04 #@! TD*
G04 #@! TO.C,R11*
X190772727Y-33000000D03*
X190772727Y-34650000D03*
G04 #@! TD*
D18*
G04 #@! TO.C,U1*
X99000000Y-35280000D03*
X99000000Y-36550000D03*
X99000000Y-37820000D03*
X99000000Y-39090000D03*
X99000000Y-40360000D03*
X99000000Y-41630000D03*
X99000000Y-42900000D03*
X99000000Y-44170000D03*
X99000000Y-45440000D03*
X99000000Y-46710000D03*
X99000000Y-47980000D03*
X99000000Y-49250000D03*
X99000000Y-50520000D03*
X99000000Y-51790000D03*
D19*
X100765000Y-53040000D03*
X102035000Y-53040000D03*
X103305000Y-53040000D03*
X104575000Y-53040000D03*
X105845000Y-53040000D03*
X107115000Y-53040000D03*
X108385000Y-53040000D03*
X109655000Y-53040000D03*
X110925000Y-53040000D03*
X112195000Y-53040000D03*
X113465000Y-53040000D03*
X114735000Y-53040000D03*
D18*
X116500000Y-51790000D03*
X116500000Y-50520000D03*
X116500000Y-49250000D03*
X116500000Y-47980000D03*
X116500000Y-46710000D03*
X116500000Y-45440000D03*
X116500000Y-44170000D03*
X116500000Y-42900000D03*
X116500000Y-41630000D03*
X116500000Y-40360000D03*
X116500000Y-39090000D03*
X116500000Y-37820000D03*
X116500000Y-36550000D03*
X116500000Y-35280000D03*
D20*
X104850000Y-41600000D03*
X104850000Y-43000000D03*
X104850000Y-44400000D03*
X104850000Y-44400000D03*
X106250000Y-41600000D03*
X106250000Y-41600000D03*
X106250000Y-43000000D03*
X106250000Y-44400000D03*
X107650000Y-41600000D03*
X107650000Y-43000000D03*
X107650000Y-44400000D03*
G04 #@! TD*
D21*
G04 #@! TO.C,C10*
X92500000Y-68000000D03*
X92500000Y-69550000D03*
G04 #@! TD*
D22*
G04 #@! TO.C,C1*
X89550000Y-43000000D03*
X91450000Y-43000000D03*
G04 #@! TD*
D10*
G04 #@! TO.C,C3*
X89900000Y-57000000D03*
X91450000Y-57000000D03*
G04 #@! TD*
D23*
G04 #@! TO.C,C9*
X90000000Y-69900000D03*
X90000000Y-68000000D03*
G04 #@! TD*
D11*
G04 #@! TO.C,R7*
X179500000Y-33000000D03*
X179500000Y-34650000D03*
G04 #@! TD*
G04 #@! TO.C,R18*
X210500000Y-33000000D03*
X210500000Y-34650000D03*
G04 #@! TD*
D13*
G04 #@! TO.C,R_JMP4*
X95037500Y-72500000D03*
X97962500Y-72500000D03*
G04 #@! TD*
D24*
G04 #@! TO.C,C11*
X143500000Y-40550000D03*
X143500000Y-39000000D03*
G04 #@! TD*
D11*
G04 #@! TO.C,R6*
X108000000Y-60850000D03*
X108000000Y-62500000D03*
G04 #@! TD*
D13*
G04 #@! TO.C,R_JMP3*
X77037500Y-100500000D03*
X79962500Y-100500000D03*
G04 #@! TD*
D25*
G04 #@! TO.C,C8*
X80500000Y-68050000D03*
X80500000Y-69950000D03*
G04 #@! TD*
D11*
G04 #@! TO.C,R9*
X185136364Y-33000000D03*
X185136364Y-34650000D03*
G04 #@! TD*
G04 #@! TO.C,R13*
X196409091Y-33000000D03*
X196409091Y-34650000D03*
G04 #@! TD*
D14*
G04 #@! TO.C,R1*
X89800000Y-49500000D03*
X91450000Y-49500000D03*
G04 #@! TD*
D13*
G04 #@! TO.C,R_JMP2*
X119000000Y-104000000D03*
X121925000Y-104000000D03*
G04 #@! TD*
D26*
G04 #@! TO.C,D4*
X130500000Y-35000000D03*
X134500000Y-35000000D03*
G04 #@! TD*
D11*
G04 #@! TO.C,R5*
X108000000Y-73350000D03*
X108000000Y-75000000D03*
G04 #@! TD*
D27*
G04 #@! TO.C,D1*
X103500000Y-110550000D03*
X103500000Y-106250000D03*
G04 #@! TD*
D28*
G04 #@! TO.C,C7*
X94100000Y-109000000D03*
X98500000Y-109000000D03*
G04 #@! TD*
D29*
G04 #@! TO.C,U4*
X84175000Y-68100000D03*
X84175000Y-69050000D03*
X84175000Y-70000000D03*
X86450000Y-70000000D03*
X86450000Y-68100000D03*
G04 #@! TD*
D11*
G04 #@! TO.C,R10*
X187954545Y-33000000D03*
X187954545Y-34650000D03*
G04 #@! TD*
D21*
G04 #@! TO.C,C4*
X135425000Y-41225000D03*
X135425000Y-42775000D03*
G04 #@! TD*
D29*
G04 #@! TO.C,U2*
X138725000Y-34000000D03*
X138725000Y-34950000D03*
X138725000Y-35900000D03*
X141000000Y-35900000D03*
X141000000Y-34950000D03*
X141000000Y-34000000D03*
G04 #@! TD*
D11*
G04 #@! TO.C,R15*
X202045455Y-33000000D03*
X202045455Y-34650000D03*
G04 #@! TD*
D30*
G04 #@! TO.C,C6*
X119700000Y-111000000D03*
X125300000Y-111000000D03*
G04 #@! TD*
D31*
G04 #@! TO.C,D5*
X146700000Y-39400000D03*
X150000000Y-39400000D03*
X150000000Y-34500000D03*
X146700000Y-34500000D03*
G04 #@! TD*
D11*
G04 #@! TO.C,R8*
X182318182Y-33000000D03*
X182318182Y-34650000D03*
G04 #@! TD*
D32*
G04 #@! TO.C,D2*
X99600000Y-98700000D03*
X99600000Y-96300000D03*
X93400000Y-96300000D03*
X93400000Y-98700000D03*
G04 #@! TD*
D11*
G04 #@! TO.C,R17*
X207681818Y-33000000D03*
X207681818Y-34650000D03*
G04 #@! TD*
D33*
G04 #@! TO.C,R3*
X135650000Y-46650000D03*
X135650000Y-45000000D03*
G04 #@! TD*
M02*
