M48
; DRILL file KiCad 10.0.4 date 2026-07-12T09:45:53
; FORMAT={-:-/ absolute / metric / decimal}
; #@! TF.CreationDate,2026-07-12T09:45:53-07:00
; #@! TF.GenerationSoftware,Kicad,Pcbnew,10.0.4
; #@! TF.FileFunction,Plated,1,2,PTH
FMAT,2
METRIC
; #@! TA.AperFunction,Plated,PTH,ViaDrill
T1C0.300
; #@! TA.AperFunction,Plated,PTH,ViaDrill
T2C0.400
; #@! TA.AperFunction,Plated,PTH,ComponentDrill
T3C0.750
; #@! TA.AperFunction,Plated,PTH,ComponentDrill
T4C1.000
; #@! TA.AperFunction,Plated,PTH,ComponentDrill
T5C1.100
; #@! TA.AperFunction,Plated,PTH,ComponentDrill
T6C1.300
; #@! TA.AperFunction,Plated,PTH,ComponentDrill
T7C1.600
%
G90
G05
T1
X71.5Y-46.0
X71.5Y-61.5
X76.5Y-41.5
X77.5Y-122.0
X88.5Y-62.5
X89.3Y-48.0
X91.0Y-62.5
X91.5Y-48.0
X92.0Y-45.0
X93.0Y-59.4
X93.625Y-60.5
X93.8Y-59.4
X96.0Y-35.0
X96.5Y-55.5
X97.0Y-125.5
X97.0Y-132.0
X97.5Y-47.0
X97.5Y-48.0
X97.5Y-50.5
X97.5Y-52.0
X100.5Y-61.0
X102.05Y-67.4
X102.148Y-65.799
X102.5Y-46.5
X102.741Y-65.261
X103.25Y-66.74
X103.306Y-64.695
X103.5Y-67.5
X103.651Y-66.048
X104.217Y-65.482
X106.5Y-75.0
X107.099Y-62.599
X111.0Y-54.5
X112.0Y-120.0
X112.0Y-126.0
X112.0Y-132.5
X115.5Y-55.3
X116.247Y-55.601
X117.375Y-54.5
X117.4Y-57.2
X117.4Y-58.0
X118.0Y-52.0
X118.625Y-54.5
X118.718Y-48.282
X119.968Y-49.532
X120.5Y-43.0
X120.5Y-47.5
X121.0Y-40.0
X132.0Y-129.5
X135.5Y-52.5
X137.0Y-43.5
X137.5Y-34.0
X138.725Y-35.9
X146.5Y-36.0
X147.5Y-129.5
X179.5Y-129.5
X214.0Y-31.0
X218.0Y-31.0
X220.5Y-121.5
X221.5Y-42.0
X225.5Y-61.5
X226.0Y-99.0
T2
X98.0Y-119.5
X100.5Y-107.0
X101.0Y-110.5
X101.19Y-68.7
X105.843Y-113.747
X106.5Y-115.0
X113.0Y-106.5
X138.0Y-53.541
T3
X126.5Y-40.0
X126.5Y-42.0
X126.5Y-44.0
X126.5Y-46.0
X126.5Y-48.0
X126.5Y-50.0
T4
X119.3Y-126.132
X119.3Y-131.132
X188.34Y-47.0
X188.34Y-54.0
X188.34Y-60.85
X188.34Y-67.9
X188.34Y-74.95
X188.34Y-82.0
X188.34Y-89.0
X188.34Y-96.0
X188.34Y-103.0
X188.34Y-110.2
X188.34Y-117.0
X188.34Y-124.0
X195.96Y-47.0
X195.96Y-54.0
X195.96Y-60.85
X195.96Y-67.9
X195.96Y-74.95
X195.96Y-82.0
X195.96Y-89.0
X195.96Y-96.0
X195.96Y-103.0
X195.96Y-110.2
X195.96Y-117.0
X195.96Y-124.0
X206.12Y-47.0
X206.12Y-54.0
X206.12Y-60.85
X206.12Y-67.9
X206.12Y-74.95
X206.12Y-82.0
X206.12Y-89.0
X206.12Y-96.0
X206.12Y-103.0
X206.12Y-110.2
X206.12Y-117.0
X206.12Y-124.0
X208.66Y-47.0
X208.66Y-54.0
X208.66Y-60.85
X208.66Y-67.9
X208.66Y-74.95
X208.66Y-82.0
X208.66Y-89.0
X208.66Y-96.0
X208.66Y-103.0
X208.66Y-110.2
X208.66Y-117.0
X208.66Y-124.0
T5
X79.2Y-44.2
X79.2Y-48.7
X79.2Y-57.75
X79.2Y-62.25
X85.7Y-44.2
X85.7Y-48.7
X85.7Y-57.75
X85.7Y-62.25
T6
X113.968Y-61.425
X113.968Y-66.425
X113.968Y-75.175
X113.968Y-80.175
X113.968Y-91.25
X113.968Y-96.25
X178.0Y-47.962
X178.0Y-52.962
X178.0Y-57.962
X178.0Y-62.962
X178.0Y-67.962
X178.0Y-72.962
X178.0Y-77.962
X178.0Y-82.962
X178.0Y-87.962
X178.0Y-92.962
X178.0Y-97.962
X178.0Y-102.962
X178.0Y-107.962
X178.0Y-112.962
T7
X91.0Y-118.0
X91.0Y-133.24
M30
