G04 #@! TF.GenerationSoftware,KiCad,Pcbnew,10.0.4*
G04 #@! TF.CreationDate,2026-07-27T04:45:34-07:00*
G04 #@! TF.ProjectId,main-controller-v1,6d61696e-2d63-46f6-9e74-726f6c6c6572,rev?*
G04 #@! TF.SameCoordinates,Original*
G04 #@! TF.FileFunction,Copper,L2,Bot*
G04 #@! TF.FilePolarity,Positive*
%FSLAX46Y46*%
G04 Gerber Fmt 4.6, Leading zero omitted, Abs format (unit mm)*
G04 Created by KiCad (PCBNEW 10.0.4) date 2026-07-27 04:45:34*
%MOMM*%
%LPD*%
G01*
G04 APERTURE LIST*
G04 Aperture macros list*
%AMRoundRect*
0 Rectangle with rounded corners*
0 $1 Rounding radius*
0 $2 $3 $4 $5 $6 $7 $8 $9 X,Y pos of 4 corners*
0 Add a 4 corners polygon primitive as box body*
4,1,4,$2,$3,$4,$5,$6,$7,$8,$9,$2,$3,0*
0 Add four circle primitives for the rounded corners*
1,1,$1+$1,$2,$3*
1,1,$1+$1,$4,$5*
1,1,$1+$1,$6,$7*
1,1,$1+$1,$8,$9*
0 Add four rect primitives between the rounded corners*
20,1,$1+$1,$2,$3,$4,$5,0*
20,1,$1+$1,$4,$5,$6,$7,0*
20,1,$1+$1,$6,$7,$8,$9,0*
20,1,$1+$1,$8,$9,$2,$3,0*%
G04 Aperture macros list end*
G04 #@! TA.AperFunction,ComponentPad*
%ADD10C,2.000000*%
G04 #@! TD*
G04 #@! TA.AperFunction,ComponentPad*
%ADD11C,1.800000*%
G04 #@! TD*
G04 #@! TA.AperFunction,ComponentPad*
%ADD12RoundRect,0.250001X1.149999X-1.149999X1.149999X1.149999X-1.149999X1.149999X-1.149999X-1.149999X0*%
G04 #@! TD*
G04 #@! TA.AperFunction,ComponentPad*
%ADD13C,2.800000*%
G04 #@! TD*
G04 #@! TA.AperFunction,ComponentPad*
%ADD14RoundRect,0.250001X-1.149999X1.149999X-1.149999X-1.149999X1.149999X-1.149999X1.149999X1.149999X0*%
G04 #@! TD*
G04 #@! TA.AperFunction,ComponentPad*
%ADD15RoundRect,0.250000X-0.750000X0.750000X-0.750000X-0.750000X0.750000X-0.750000X0.750000X0.750000X0*%
G04 #@! TD*
G04 #@! TA.AperFunction,ComponentPad*
%ADD16RoundRect,0.250000X-0.625000X0.350000X-0.625000X-0.350000X0.625000X-0.350000X0.625000X0.350000X0*%
G04 #@! TD*
G04 #@! TA.AperFunction,ComponentPad*
%ADD17O,1.750000X1.200000*%
G04 #@! TD*
G04 #@! TA.AperFunction,ComponentPad*
%ADD18RoundRect,0.250000X-1.350000X1.350000X-1.350000X-1.350000X1.350000X-1.350000X1.350000X1.350000X0*%
G04 #@! TD*
G04 #@! TA.AperFunction,ComponentPad*
%ADD19C,3.200000*%
G04 #@! TD*
G04 #@! TA.AperFunction,ViaPad*
%ADD20C,0.600000*%
G04 #@! TD*
G04 #@! TA.AperFunction,ViaPad*
%ADD21C,0.800000*%
G04 #@! TD*
G04 #@! TA.AperFunction,Conductor*
%ADD22C,0.200000*%
G04 #@! TD*
G04 #@! TA.AperFunction,Conductor*
%ADD23C,1.500000*%
G04 #@! TD*
G04 #@! TA.AperFunction,Conductor*
%ADD24C,0.250000*%
G04 #@! TD*
G04 APERTURE END LIST*
D10*
G04 #@! TO.P,SW2,1,1_1*
G04 #@! TO.N,GND*
X79200000Y-57750000D03*
X85700000Y-57750000D03*
G04 #@! TO.P,SW2,2,2_2*
G04 #@! TO.N,Net-(U1-GPIO0{slash}BOOT)*
X79200000Y-62250000D03*
X85700000Y-62250000D03*
G04 #@! TD*
G04 #@! TO.P,K10,1,T1_1*
G04 #@! TO.N,24VAC_HOT*
X188340000Y-110200000D03*
G04 #@! TO.P,K10,2,T2_2*
G04 #@! TO.N,/Z10_OUT*
X195960000Y-110200000D03*
D11*
G04 #@! TO.P,K10,3,+_3*
G04 #@! TO.N,Net-(K10-+)*
X206120000Y-110200000D03*
G04 #@! TO.P,K10,4,-_4*
G04 #@! TO.N,GND*
X208660000Y-110200000D03*
G04 #@! TD*
D12*
G04 #@! TO.P,J3,1,Pin_1_1*
G04 #@! TO.N,/RAIN*
X113967500Y-80175000D03*
D13*
G04 #@! TO.P,J3,2,Pin_2_2*
G04 #@! TO.N,GND*
X113967500Y-75175000D03*
G04 #@! TD*
D14*
G04 #@! TO.P,J6,1,Pin_1_1*
G04 #@! TO.N,/Z1_OUT*
X178000000Y-47961538D03*
D13*
G04 #@! TO.P,J6,2,Pin_2_2*
G04 #@! TO.N,/Z2_OUT*
X178000000Y-52961538D03*
G04 #@! TO.P,J6,3,Pin_3_3*
G04 #@! TO.N,/Z3_OUT*
X178000000Y-57961538D03*
G04 #@! TO.P,J6,4,Pin_4_4*
G04 #@! TO.N,/Z4_OUT*
X178000000Y-62961538D03*
G04 #@! TO.P,J6,5,Pin_5_5*
G04 #@! TO.N,/Z5_OUT*
X178000000Y-67961538D03*
G04 #@! TO.P,J6,6,Pin_6_6*
G04 #@! TO.N,/Z6_OUT*
X178000000Y-72961538D03*
G04 #@! TO.P,J6,7,Pin_7_7*
G04 #@! TO.N,/Z7_OUT*
X178000000Y-77961538D03*
G04 #@! TO.P,J6,8,Pin_8_8*
G04 #@! TO.N,/Z8_OUT*
X178000000Y-82961538D03*
G04 #@! TO.P,J6,9,Pin_9_9*
G04 #@! TO.N,/Z9_OUT*
X178000000Y-87961538D03*
G04 #@! TO.P,J6,10,Pin_10_10*
G04 #@! TO.N,/Z10_OUT*
X178000000Y-92961538D03*
G04 #@! TO.P,J6,11,Pin_11_11*
G04 #@! TO.N,/Z11_OUT*
X178000000Y-97961538D03*
G04 #@! TO.P,J6,12,Pin_12_12*
G04 #@! TO.N,/Z12_OUT*
X178000000Y-102961538D03*
G04 #@! TO.P,J6,13,Pin_13_13*
G04 #@! TO.N,24VAC_COM*
X178000000Y-107961538D03*
G04 #@! TO.P,J6,14,Pin_14_14*
X178000000Y-112961538D03*
G04 #@! TD*
D10*
G04 #@! TO.P,K7,1,T1_1*
G04 #@! TO.N,24VAC_HOT*
X188340000Y-89000000D03*
G04 #@! TO.P,K7,2,T2_2*
G04 #@! TO.N,/Z7_OUT*
X195960000Y-89000000D03*
D11*
G04 #@! TO.P,K7,3,+_3*
G04 #@! TO.N,Net-(K7-+)*
X206120000Y-89000000D03*
G04 #@! TO.P,K7,4,-_4*
G04 #@! TO.N,GND*
X208660000Y-89000000D03*
G04 #@! TD*
D10*
G04 #@! TO.P,K8,1,T1_1*
G04 #@! TO.N,24VAC_HOT*
X188340000Y-96000000D03*
G04 #@! TO.P,K8,2,T2_2*
G04 #@! TO.N,/Z8_OUT*
X195960000Y-96000000D03*
D11*
G04 #@! TO.P,K8,3,+_3*
G04 #@! TO.N,Net-(K8-+)*
X206120000Y-96000000D03*
G04 #@! TO.P,K8,4,-_4*
G04 #@! TO.N,GND*
X208660000Y-96000000D03*
G04 #@! TD*
D12*
G04 #@! TO.P,J4,1,Pin_1_1*
G04 #@! TO.N,/FLOW*
X113967500Y-66425000D03*
D13*
G04 #@! TO.P,J4,2,Pin_2_2*
G04 #@! TO.N,GND*
X113967500Y-61425000D03*
G04 #@! TD*
D10*
G04 #@! TO.P,K1,1,T1_1*
G04 #@! TO.N,24VAC_HOT*
X188340000Y-47000000D03*
G04 #@! TO.P,K1,2,T2_2*
G04 #@! TO.N,/Z1_OUT*
X195960000Y-47000000D03*
D11*
G04 #@! TO.P,K1,3,+_3*
G04 #@! TO.N,Net-(K1-+)*
X206120000Y-47000000D03*
G04 #@! TO.P,K1,4,-_4*
G04 #@! TO.N,GND*
X208660000Y-47000000D03*
G04 #@! TD*
D10*
G04 #@! TO.P,K12,1,T1_1*
G04 #@! TO.N,24VAC_HOT*
X188340000Y-124000000D03*
G04 #@! TO.P,K12,2,T2_2*
G04 #@! TO.N,/Z12_OUT*
X195960000Y-124000000D03*
D11*
G04 #@! TO.P,K12,3,+_3*
G04 #@! TO.N,Net-(K12-+)*
X206120000Y-124000000D03*
G04 #@! TO.P,K12,4,-_4*
G04 #@! TO.N,GND*
X208660000Y-124000000D03*
G04 #@! TD*
D10*
G04 #@! TO.P,K6,1,T1_1*
G04 #@! TO.N,24VAC_HOT*
X188340000Y-82000000D03*
G04 #@! TO.P,K6,2,T2_2*
G04 #@! TO.N,/Z6_OUT*
X195960000Y-82000000D03*
D11*
G04 #@! TO.P,K6,3,+_3*
G04 #@! TO.N,Net-(K6-+)*
X206120000Y-82000000D03*
G04 #@! TO.P,K6,4,-_4*
G04 #@! TO.N,GND*
X208660000Y-82000000D03*
G04 #@! TD*
D10*
G04 #@! TO.P,K9,1,T1_1*
G04 #@! TO.N,24VAC_HOT*
X188340000Y-103000000D03*
G04 #@! TO.P,K9,2,T2_2*
G04 #@! TO.N,/Z9_OUT*
X195960000Y-103000000D03*
D11*
G04 #@! TO.P,K9,3,+_3*
G04 #@! TO.N,Net-(K9-+)*
X206120000Y-103000000D03*
G04 #@! TO.P,K9,4,-_4*
G04 #@! TO.N,GND*
X208660000Y-103000000D03*
G04 #@! TD*
D10*
G04 #@! TO.P,K5,1,T1_1*
G04 #@! TO.N,24VAC_HOT*
X188340000Y-74950000D03*
G04 #@! TO.P,K5,2,T2_2*
G04 #@! TO.N,/Z5_OUT*
X195960000Y-74950000D03*
D11*
G04 #@! TO.P,K5,3,+_3*
G04 #@! TO.N,Net-(K5-+)*
X206120000Y-74950000D03*
G04 #@! TO.P,K5,4,-_4*
G04 #@! TO.N,GND*
X208660000Y-74950000D03*
G04 #@! TD*
D10*
G04 #@! TO.P,K2,1,T1_1*
G04 #@! TO.N,24VAC_HOT*
X188340000Y-54000000D03*
G04 #@! TO.P,K2,2,T2_2*
G04 #@! TO.N,/Z2_OUT*
X195960000Y-54000000D03*
D11*
G04 #@! TO.P,K2,3,+_3*
G04 #@! TO.N,Net-(K2-+)*
X206120000Y-54000000D03*
G04 #@! TO.P,K2,4,-_4*
G04 #@! TO.N,GND*
X208660000Y-54000000D03*
G04 #@! TD*
D10*
G04 #@! TO.P,K3,1,T1_1*
G04 #@! TO.N,24VAC_HOT*
X188340000Y-60850000D03*
G04 #@! TO.P,K3,2,T2_2*
G04 #@! TO.N,/Z3_OUT*
X195960000Y-60850000D03*
D11*
G04 #@! TO.P,K3,3,+_3*
G04 #@! TO.N,Net-(K3-+)*
X206120000Y-60850000D03*
G04 #@! TO.P,K3,4,-_4*
G04 #@! TO.N,GND*
X208660000Y-60850000D03*
G04 #@! TD*
D12*
G04 #@! TO.P,J2,1,Pin_1_1*
G04 #@! TO.N,Net-(J2-Pin_1)*
X113967500Y-96250000D03*
D13*
G04 #@! TO.P,J2,2,Pin_2_2*
G04 #@! TO.N,24VAC_COM*
X113967500Y-91250000D03*
G04 #@! TD*
D10*
G04 #@! TO.P,K11,1,T1_1*
G04 #@! TO.N,24VAC_HOT*
X188340000Y-117000000D03*
G04 #@! TO.P,K11,2,T2_2*
G04 #@! TO.N,/Z11_OUT*
X195960000Y-117000000D03*
D11*
G04 #@! TO.P,K11,3,+_3*
G04 #@! TO.N,Net-(K11-+)*
X206120000Y-117000000D03*
G04 #@! TO.P,K11,4,-_4*
G04 #@! TO.N,GND*
X208660000Y-117000000D03*
G04 #@! TD*
D10*
G04 #@! TO.P,K4,1,T1_1*
G04 #@! TO.N,24VAC_HOT*
X188340000Y-67900000D03*
G04 #@! TO.P,K4,2,T2_2*
G04 #@! TO.N,/Z4_OUT*
X195960000Y-67900000D03*
D11*
G04 #@! TO.P,K4,3,+_3*
G04 #@! TO.N,Net-(K4-+)*
X206120000Y-67900000D03*
G04 #@! TO.P,K4,4,-_4*
G04 #@! TO.N,GND*
X208660000Y-67900000D03*
G04 #@! TD*
D15*
G04 #@! TO.P,C5,1*
G04 #@! TO.N,/+VRAW*
X112000000Y-105500000D03*
D10*
G04 #@! TO.P,C5,2*
G04 #@! TO.N,GND*
X112000000Y-110500000D03*
G04 #@! TD*
D16*
G04 #@! TO.P,J1,1,Pin_1_1*
G04 #@! TO.N,Net-(D4-A)*
X126500000Y-40000000D03*
D17*
G04 #@! TO.P,J1,2,Pin_2_2*
G04 #@! TO.N,/USB_D-_RAW*
X126500000Y-42000000D03*
G04 #@! TO.P,J1,3,Pin_3_3*
G04 #@! TO.N,/USB_D+_RAW*
X126500000Y-44000000D03*
G04 #@! TO.P,J1,4,Pin_4_4*
G04 #@! TO.N,Net-(J1-Pin_4)*
X126500000Y-46000000D03*
G04 #@! TO.P,J1,5,Pin_5_5*
G04 #@! TO.N,Net-(J1-Pin_5)*
X126500000Y-48000000D03*
G04 #@! TO.P,J1,6,Pin_6_6*
G04 #@! TO.N,GND*
X126500000Y-50000000D03*
G04 #@! TD*
D10*
G04 #@! TO.P,SW1,1,1_1*
G04 #@! TO.N,GND*
X79200000Y-44200000D03*
X85700000Y-44200000D03*
G04 #@! TO.P,SW1,2,2_2*
G04 #@! TO.N,Net-(U1-EN)*
X79200000Y-48700000D03*
X85700000Y-48700000D03*
G04 #@! TD*
D18*
G04 #@! TO.P,D3,1,K_1*
G04 #@! TO.N,Net-(D3-K)*
X91000000Y-118000000D03*
D19*
G04 #@! TO.P,D3,2,A_2*
G04 #@! TO.N,GND*
X91000000Y-133240000D03*
G04 #@! TD*
D20*
G04 #@! TO.N,GND*
X133000000Y-61500000D03*
X76500000Y-41500000D03*
X112000000Y-132500000D03*
X179500000Y-129500000D03*
X121000000Y-40000000D03*
X225500000Y-61500000D03*
X221500000Y-42000000D03*
X99000000Y-65500000D03*
X105000000Y-59500000D03*
X96000000Y-44000000D03*
X96500000Y-55500000D03*
X97000000Y-132000000D03*
X214000000Y-31000000D03*
X120500000Y-47500000D03*
X91000000Y-45000000D03*
X218000000Y-31000000D03*
D21*
X98000000Y-119500000D03*
D20*
X92000000Y-58500000D03*
X205000000Y-45000000D03*
X135500000Y-52500000D03*
X112000000Y-120000000D03*
X112500000Y-38000000D03*
X129500000Y-56000000D03*
X71500000Y-61500000D03*
X97000000Y-125500000D03*
X147500000Y-129500000D03*
X96000000Y-35000000D03*
X126500000Y-60000000D03*
X226000000Y-99000000D03*
X102500000Y-38000000D03*
X112000000Y-126000000D03*
X209000000Y-48500000D03*
X107000000Y-65000000D03*
X138500000Y-56000000D03*
X112000000Y-64500000D03*
X100500000Y-61000000D03*
X119000000Y-53000000D03*
X130500000Y-41000000D03*
X132000000Y-129500000D03*
X102500000Y-46500000D03*
D21*
X106500000Y-115000000D03*
D20*
X77500000Y-122000000D03*
X112500000Y-46500000D03*
X71500000Y-46000000D03*
X93500000Y-64500000D03*
X137000000Y-43500000D03*
X120500000Y-43000000D03*
X220500000Y-121500000D03*
D21*
G04 #@! TO.N,+5V*
X138000000Y-53540812D03*
X101189949Y-68699999D03*
D20*
G04 #@! TO.N,/ZONE10*
X97500000Y-47000000D03*
X117400000Y-58000000D03*
G04 #@! TO.N,Net-(U1-GPIO0{slash}BOOT)*
X91000000Y-62500000D03*
X118000000Y-52000000D03*
X93625000Y-60500000D03*
X88500000Y-62500000D03*
G04 #@! TO.N,/RAIN*
X106500000Y-75000000D03*
X93000000Y-59400000D03*
G04 #@! TO.N,Net-(U1-EN)*
X89300000Y-48000000D03*
X91500000Y-48000000D03*
G04 #@! TO.N,/FLOW*
X107099265Y-62599265D03*
X93800003Y-59400000D03*
G04 #@! TO.N,/ZONE1*
X103500000Y-67500000D03*
X102050000Y-67400000D03*
G04 #@! TO.N,/ZONE2*
X103250000Y-66740066D03*
X102148289Y-65798720D03*
G04 #@! TO.N,/ZONE11*
X97500000Y-48000000D03*
X117400000Y-57199997D03*
G04 #@! TO.N,/ZONE3*
X102740552Y-65260919D03*
X103650815Y-66047715D03*
G04 #@! TO.N,/USB_D-*
X116247099Y-55601430D03*
X119968185Y-49531815D03*
X137500000Y-34000000D03*
X97500000Y-50500000D03*
G04 #@! TO.N,/USB_D+*
X138725000Y-35900000D03*
X115500000Y-55300000D03*
X97500000Y-52000000D03*
X118718185Y-48281815D03*
G04 #@! TO.N,/ZONE4*
X103306239Y-64695231D03*
X104216502Y-65482028D03*
G04 #@! TO.N,/LED_DATA*
X118625000Y-54500000D03*
X111000000Y-54500000D03*
X117375000Y-54500000D03*
X146500000Y-36000000D03*
G04 #@! TD*
G04 #@! TO.N,+5V*
D22*
X138000000Y-53540812D02*
X122840813Y-68699999D01*
X122840813Y-68699999D02*
X101189949Y-68699999D01*
G04 #@! TO.N,/ZONE10*
X95500000Y-57500000D02*
X98000000Y-57500000D01*
X93500000Y-48500000D02*
X93500000Y-55500000D01*
X98500000Y-58000000D02*
X117400000Y-58000000D01*
X97500000Y-47000000D02*
X95000000Y-47000000D01*
X95000000Y-47000000D02*
X93500000Y-48500000D01*
X93500000Y-55500000D02*
X95500000Y-57500000D01*
X98000000Y-57500000D02*
X98500000Y-58000000D01*
G04 #@! TO.N,Net-(U1-GPIO0{slash}BOOT)*
X118000000Y-52000000D02*
X118000000Y-60500000D01*
X88500000Y-62500000D02*
X91000000Y-62500000D01*
X115000000Y-63500000D02*
X96625000Y-63500000D01*
X96625000Y-63500000D02*
X93625000Y-60500000D01*
X118000000Y-60500000D02*
X115000000Y-63500000D01*
G04 #@! TO.N,24VAC_HOT*
D23*
X188340000Y-74950000D02*
X188340000Y-82000000D01*
X188340000Y-82000000D02*
X188340000Y-89000000D01*
X188340000Y-89000000D02*
X188340000Y-96000000D01*
X188340000Y-96000000D02*
X188340000Y-103000000D01*
X188340000Y-54000000D02*
X188340000Y-60850000D01*
X188340000Y-67900000D02*
X188340000Y-74950000D01*
X188340000Y-103000000D02*
X188340000Y-110200000D01*
X188340000Y-47000000D02*
X188340000Y-54000000D01*
X188340000Y-124000000D02*
X188340000Y-117000000D01*
X188340000Y-110200000D02*
X188340000Y-117000000D01*
X188340000Y-60850000D02*
X188340000Y-67900000D01*
G04 #@! TO.N,/RAIN*
D22*
X93000000Y-61500000D02*
X106500000Y-75000000D01*
X93000000Y-59400000D02*
X93000000Y-61500000D01*
G04 #@! TO.N,Net-(U1-EN)*
X89300000Y-48000000D02*
X91500000Y-48000000D01*
G04 #@! TO.N,/FLOW*
X93800003Y-59400000D02*
X96999268Y-62599265D01*
X96999268Y-62599265D02*
X107099265Y-62599265D01*
G04 #@! TO.N,/ZONE1*
X103400000Y-67400000D02*
X103500000Y-67500000D01*
X102050000Y-67400000D02*
X103400000Y-67400000D01*
G04 #@! TO.N,/ZONE2*
X102308654Y-65798720D02*
X103250000Y-66740066D01*
X102148289Y-65798720D02*
X102308654Y-65798720D01*
G04 #@! TO.N,/ZONE11*
X94565686Y-48000000D02*
X93900000Y-48665686D01*
X97500000Y-48000000D02*
X94565686Y-48000000D01*
X98965692Y-57100000D02*
X99065689Y-57199997D01*
X95665686Y-57100000D02*
X98965692Y-57100000D01*
X93900000Y-48665686D02*
X93900000Y-55334314D01*
X93900000Y-55334314D02*
X95665686Y-57100000D01*
X99065689Y-57199997D02*
X117400000Y-57199997D01*
G04 #@! TO.N,/ZONE3*
X102740552Y-65260919D02*
X102864019Y-65260919D01*
X102864019Y-65260919D02*
X103650815Y-66047715D01*
G04 #@! TO.N,/USB_D-*
X96900000Y-51100000D02*
X96900000Y-52248529D01*
X100551471Y-55900000D02*
X115948529Y-55900000D01*
X118118185Y-48530344D02*
X118118185Y-48033286D01*
X119119656Y-49531815D02*
X118118185Y-48530344D01*
X128202208Y-41100000D02*
X135302208Y-34000000D01*
X115948529Y-55900000D02*
X116247099Y-55601430D01*
X135302208Y-34000000D02*
X137500000Y-34000000D01*
X97500000Y-50500000D02*
X96900000Y-51100000D01*
X119968185Y-49531815D02*
X119119656Y-49531815D01*
X96900000Y-52248529D02*
X100551471Y-55900000D01*
X118118185Y-48033286D02*
X125051471Y-41100000D01*
X125051471Y-41100000D02*
X128202208Y-41100000D01*
G04 #@! TO.N,/USB_D+*
X127147792Y-42900000D02*
X134147792Y-35900000D01*
X134147792Y-35900000D02*
X138725000Y-35900000D01*
X97500000Y-52000000D02*
X100800000Y-55300000D01*
X100800000Y-55300000D02*
X115500000Y-55300000D01*
X118718185Y-48281815D02*
X124100000Y-42900000D01*
X124100000Y-42900000D02*
X127147792Y-42900000D01*
G04 #@! TO.N,/ZONE4*
X103429705Y-64695231D02*
X104216502Y-65482028D01*
X103306239Y-64695231D02*
X103429705Y-64695231D01*
G04 #@! TO.N,/LED_DATA*
D24*
X118625000Y-54500000D02*
X126000000Y-54500000D01*
X140500000Y-38500000D02*
X143000000Y-36000000D01*
X136500000Y-38500000D02*
X140500000Y-38500000D01*
X132000000Y-48500000D02*
X132000000Y-43000000D01*
X143000000Y-36000000D02*
X146500000Y-36000000D01*
X126000000Y-54500000D02*
X132000000Y-48500000D01*
X111000000Y-54500000D02*
X111175000Y-54675000D01*
X132000000Y-43000000D02*
X136500000Y-38500000D01*
X111175000Y-54675000D02*
X117200000Y-54675000D01*
X117200000Y-54675000D02*
X117375000Y-54500000D01*
G04 #@! TD*
G04 #@! TA.AperFunction,Conductor*
G04 #@! TO.N,GND*
G36*
X96179153Y-25508959D02*
G01*
X96365938Y-25641491D01*
X96374607Y-25648404D01*
X96617182Y-25865182D01*
X96625017Y-25873017D01*
X96841791Y-26115587D01*
X96848709Y-26124263D01*
X96958242Y-26278633D01*
X96981240Y-26311046D01*
X96999500Y-26368335D01*
X96999500Y-33677148D01*
X96999500Y-33808932D01*
X97022819Y-33895960D01*
X97033609Y-33936230D01*
X97099496Y-34050349D01*
X97099498Y-34050351D01*
X97099500Y-34050354D01*
X97192686Y-34143540D01*
X97192688Y-34143541D01*
X97192690Y-34143543D01*
X97306810Y-34209430D01*
X97306808Y-34209430D01*
X97306812Y-34209431D01*
X97306814Y-34209432D01*
X97434108Y-34243540D01*
X97434110Y-34243540D01*
X117565850Y-34243540D01*
X117565852Y-34243540D01*
X117693146Y-34209432D01*
X117693148Y-34209430D01*
X117693150Y-34209430D01*
X117807269Y-34143543D01*
X117807269Y-34143542D01*
X117807274Y-34143540D01*
X117900460Y-34050354D01*
X117966352Y-33936226D01*
X118000460Y-33808932D01*
X118000460Y-26368335D01*
X118018719Y-26311047D01*
X118041718Y-26278633D01*
X118151259Y-26124249D01*
X118158157Y-26115600D01*
X118374950Y-25873008D01*
X118382768Y-25865190D01*
X118625360Y-25648397D01*
X118634009Y-25641499D01*
X118820807Y-25508958D01*
X118878095Y-25490700D01*
X144906500Y-25490700D01*
X144964691Y-25509607D01*
X145000655Y-25559107D01*
X145005500Y-25589700D01*
X145005500Y-26676908D01*
X145005500Y-26808692D01*
X145017830Y-26854708D01*
X145039609Y-26935990D01*
X145105496Y-27050109D01*
X145105498Y-27050111D01*
X145105500Y-27050114D01*
X145198686Y-27143300D01*
X145198688Y-27143301D01*
X145198690Y-27143303D01*
X145312810Y-27209190D01*
X145312808Y-27209190D01*
X145312812Y-27209191D01*
X145312814Y-27209192D01*
X145440108Y-27243300D01*
X145440110Y-27243300D01*
X152226690Y-27243300D01*
X152226692Y-27243300D01*
X152353986Y-27209192D01*
X152353988Y-27209190D01*
X152353990Y-27209190D01*
X152468109Y-27143303D01*
X152468109Y-27143302D01*
X152468114Y-27143300D01*
X152561300Y-27050114D01*
X152627192Y-26935986D01*
X152661300Y-26808692D01*
X152661300Y-25589700D01*
X152680207Y-25531509D01*
X152729707Y-25495545D01*
X152760300Y-25490700D01*
X187400700Y-25490700D01*
X187458891Y-25509607D01*
X187494855Y-25559107D01*
X187499700Y-25589700D01*
X187499700Y-26676908D01*
X187499700Y-26808692D01*
X187512030Y-26854708D01*
X187533809Y-26935990D01*
X187599696Y-27050109D01*
X187599698Y-27050111D01*
X187599700Y-27050114D01*
X187692886Y-27143300D01*
X187692888Y-27143301D01*
X187692890Y-27143303D01*
X187807010Y-27209190D01*
X187807008Y-27209190D01*
X187807012Y-27209191D01*
X187807014Y-27209192D01*
X187934308Y-27243300D01*
X187934310Y-27243300D01*
X194720890Y-27243300D01*
X194720892Y-27243300D01*
X194848186Y-27209192D01*
X194848188Y-27209190D01*
X194848190Y-27209190D01*
X194962309Y-27143303D01*
X194962309Y-27143302D01*
X194962314Y-27143300D01*
X195055500Y-27050114D01*
X195121392Y-26935986D01*
X195155500Y-26808692D01*
X195155500Y-25589700D01*
X195174407Y-25531509D01*
X195223907Y-25495545D01*
X195254500Y-25490700D01*
X218617508Y-25490700D01*
X218679507Y-25490700D01*
X218687274Y-25491005D01*
X218719868Y-25493570D01*
X218899322Y-25507694D01*
X218914652Y-25510121D01*
X219083898Y-25550754D01*
X219117690Y-25558867D01*
X219132464Y-25563668D01*
X219195312Y-25589700D01*
X219325368Y-25643570D01*
X219339195Y-25650615D01*
X219517234Y-25759718D01*
X219529791Y-25768841D01*
X219688577Y-25904456D01*
X219699543Y-25915422D01*
X219835157Y-26074206D01*
X219844283Y-26086767D01*
X219953381Y-26264799D01*
X219960431Y-26278636D01*
X220040331Y-26471535D01*
X220045132Y-26486309D01*
X220093876Y-26689339D01*
X220096306Y-26704682D01*
X220112995Y-26916724D01*
X220113300Y-26924492D01*
X220113300Y-36138823D01*
X220151160Y-36692311D01*
X220226707Y-37241960D01*
X220226707Y-37241961D01*
X220339584Y-37785155D01*
X220339589Y-37785174D01*
X220489271Y-38319398D01*
X220666811Y-38818946D01*
X220675067Y-38842177D01*
X220896104Y-39351054D01*
X221151352Y-39843661D01*
X221439622Y-40317701D01*
X221439628Y-40317710D01*
X221439629Y-40317711D01*
X221759557Y-40770947D01*
X221759564Y-40770956D01*
X221759569Y-40770963D01*
X222109703Y-41201335D01*
X222488390Y-41606810D01*
X222893864Y-41985496D01*
X222893868Y-41985499D01*
X222893871Y-41985502D01*
X223008604Y-42078844D01*
X223324236Y-42335630D01*
X223324245Y-42335636D01*
X223324251Y-42335641D01*
X223385939Y-42379185D01*
X223777498Y-42655578D01*
X224251538Y-42943848D01*
X224744145Y-43199096D01*
X225253022Y-43420133D01*
X225677688Y-43571059D01*
X225775800Y-43605928D01*
X225909356Y-43643348D01*
X226310033Y-43755613D01*
X226310043Y-43755615D01*
X226853237Y-43868492D01*
X226921943Y-43877935D01*
X227402879Y-43944039D01*
X227715836Y-43965445D01*
X227956375Y-43981899D01*
X227956391Y-43981899D01*
X227956395Y-43981900D01*
X228167908Y-43981900D01*
X228229907Y-43981900D01*
X228237674Y-43982205D01*
X228270268Y-43984770D01*
X228449722Y-43998894D01*
X228465052Y-44001321D01*
X228634298Y-44041954D01*
X228668090Y-44050067D01*
X228682864Y-44054868D01*
X228740739Y-44078840D01*
X228875768Y-44134770D01*
X228889595Y-44141815D01*
X229067634Y-44250918D01*
X229080191Y-44260041D01*
X229238977Y-44395656D01*
X229249943Y-44406622D01*
X229385557Y-44565406D01*
X229394683Y-44577967D01*
X229503781Y-44755999D01*
X229510831Y-44769836D01*
X229590731Y-44962735D01*
X229595532Y-44977509D01*
X229644276Y-45180539D01*
X229646706Y-45195882D01*
X229663395Y-45407924D01*
X229663700Y-45415692D01*
X229663700Y-77400500D01*
X229644793Y-77458691D01*
X229595293Y-77494655D01*
X229564700Y-77499500D01*
X228477492Y-77499500D01*
X228345708Y-77499500D01*
X228267800Y-77520375D01*
X228218409Y-77533609D01*
X228104290Y-77599496D01*
X228011096Y-77692690D01*
X227945209Y-77806809D01*
X227945208Y-77806814D01*
X227911100Y-77934108D01*
X227911100Y-84588908D01*
X227911100Y-84720692D01*
X227941179Y-84832951D01*
X227945209Y-84847990D01*
X228011096Y-84962109D01*
X228011098Y-84962111D01*
X228011100Y-84962114D01*
X228104286Y-85055300D01*
X228104288Y-85055301D01*
X228104290Y-85055303D01*
X228218410Y-85121190D01*
X228218408Y-85121190D01*
X228218412Y-85121191D01*
X228218414Y-85121192D01*
X228345708Y-85155300D01*
X229564700Y-85155300D01*
X229622891Y-85174207D01*
X229658855Y-85223707D01*
X229663700Y-85254300D01*
X229663700Y-117239106D01*
X229663395Y-117246874D01*
X229646706Y-117458917D01*
X229644276Y-117474260D01*
X229595533Y-117677288D01*
X229590732Y-117692062D01*
X229510830Y-117884964D01*
X229503777Y-117898807D01*
X229394684Y-118076829D01*
X229385553Y-118089396D01*
X229249951Y-118248166D01*
X229238970Y-118259147D01*
X229133532Y-118349199D01*
X229080196Y-118394753D01*
X229067629Y-118403883D01*
X228959494Y-118470148D01*
X228906058Y-118502895D01*
X228889607Y-118512976D01*
X228875764Y-118520029D01*
X228682862Y-118599931D01*
X228668088Y-118604732D01*
X228465060Y-118653475D01*
X228449717Y-118655905D01*
X228237675Y-118672594D01*
X228229907Y-118672899D01*
X227956374Y-118672899D01*
X227402885Y-118710760D01*
X226853241Y-118786306D01*
X226853237Y-118786306D01*
X226310043Y-118899184D01*
X226310024Y-118899189D01*
X225775801Y-119048870D01*
X225253033Y-119234663D01*
X225253027Y-119234665D01*
X225253023Y-119234667D01*
X224862566Y-119404266D01*
X224744146Y-119455703D01*
X224251539Y-119710952D01*
X224251537Y-119710953D01*
X224057029Y-119829236D01*
X223777499Y-119999222D01*
X223777495Y-119999224D01*
X223777488Y-119999229D01*
X223324252Y-120319157D01*
X223324225Y-120319178D01*
X222893872Y-120669296D01*
X222488396Y-121047983D01*
X222488384Y-121047995D01*
X222109697Y-121453471D01*
X221759579Y-121883824D01*
X221759558Y-121883851D01*
X221439630Y-122337087D01*
X221151354Y-122811136D01*
X221151353Y-122811138D01*
X220896104Y-123303745D01*
X220675069Y-123812621D01*
X220675064Y-123812632D01*
X220489271Y-124335400D01*
X220339590Y-124869623D01*
X220339585Y-124869642D01*
X220226707Y-125412836D01*
X220226707Y-125412840D01*
X220151161Y-125962484D01*
X220113300Y-126515973D01*
X220113300Y-135730306D01*
X220112995Y-135738074D01*
X220096306Y-135950117D01*
X220093876Y-135965460D01*
X220045133Y-136168488D01*
X220040332Y-136183263D01*
X219960431Y-136376160D01*
X219953378Y-136390001D01*
X219844280Y-136568033D01*
X219835149Y-136580601D01*
X219699551Y-136739366D01*
X219688566Y-136750351D01*
X219529801Y-136885949D01*
X219517233Y-136895080D01*
X219339201Y-137004178D01*
X219325360Y-137011231D01*
X219132463Y-137091132D01*
X219117688Y-137095933D01*
X218914660Y-137144676D01*
X218899317Y-137147106D01*
X218687274Y-137163795D01*
X218679506Y-137164100D01*
X195254500Y-137164100D01*
X195196309Y-137145193D01*
X195160345Y-137095693D01*
X195155500Y-137065100D01*
X195155500Y-135846108D01*
X195155500Y-135846107D01*
X195121392Y-135718813D01*
X195121390Y-135718810D01*
X195121390Y-135718808D01*
X195055503Y-135604689D01*
X195055501Y-135604687D01*
X195055500Y-135604685D01*
X194962314Y-135511499D01*
X194962311Y-135511497D01*
X194962309Y-135511495D01*
X194848189Y-135445608D01*
X194848191Y-135445608D01*
X194798799Y-135432374D01*
X194720892Y-135411499D01*
X188066092Y-135411499D01*
X187934308Y-135411499D01*
X187856400Y-135432374D01*
X187807009Y-135445608D01*
X187692890Y-135511495D01*
X187599696Y-135604689D01*
X187533809Y-135718808D01*
X187499700Y-135846108D01*
X187499700Y-137065100D01*
X187480793Y-137123291D01*
X187431293Y-137159255D01*
X187400700Y-137164100D01*
X152760300Y-137164100D01*
X152702109Y-137145193D01*
X152666145Y-137095693D01*
X152661300Y-137065100D01*
X152661300Y-135846108D01*
X152661300Y-135846107D01*
X152627192Y-135718813D01*
X152627190Y-135718810D01*
X152627190Y-135718808D01*
X152561303Y-135604689D01*
X152561301Y-135604687D01*
X152561300Y-135604685D01*
X152468114Y-135511499D01*
X152468111Y-135511497D01*
X152468109Y-135511495D01*
X152353989Y-135445608D01*
X152353991Y-135445608D01*
X152304599Y-135432374D01*
X152226692Y-135411499D01*
X145571892Y-135411499D01*
X145440108Y-135411499D01*
X145362200Y-135432374D01*
X145312809Y-135445608D01*
X145198690Y-135511495D01*
X145105496Y-135604689D01*
X145039609Y-135718808D01*
X145005500Y-135846108D01*
X145005500Y-137065100D01*
X144986593Y-137123291D01*
X144937093Y-137159255D01*
X144906500Y-137164100D01*
X110266100Y-137164100D01*
X110207909Y-137145193D01*
X110171945Y-137095693D01*
X110167100Y-137065100D01*
X110167100Y-135846108D01*
X110167100Y-135846107D01*
X110132992Y-135718813D01*
X110132990Y-135718810D01*
X110132990Y-135718808D01*
X110067103Y-135604689D01*
X110067101Y-135604687D01*
X110067100Y-135604685D01*
X109973914Y-135511499D01*
X109973911Y-135511497D01*
X109973909Y-135511495D01*
X109859789Y-135445608D01*
X109859791Y-135445608D01*
X109810399Y-135432374D01*
X109732492Y-135411499D01*
X103077692Y-135411499D01*
X102945908Y-135411499D01*
X102868000Y-135432374D01*
X102818609Y-135445608D01*
X102704490Y-135511495D01*
X102611296Y-135604689D01*
X102545409Y-135718808D01*
X102511300Y-135846108D01*
X102511300Y-137065100D01*
X102492393Y-137123291D01*
X102442893Y-137159255D01*
X102412300Y-137164100D01*
X78987293Y-137164100D01*
X78979525Y-137163795D01*
X78767482Y-137147106D01*
X78752139Y-137144676D01*
X78549109Y-137095932D01*
X78534335Y-137091131D01*
X78341436Y-137011231D01*
X78327599Y-137004181D01*
X78149563Y-136895080D01*
X78137006Y-136885957D01*
X77978222Y-136750343D01*
X77967256Y-136739377D01*
X77831641Y-136580591D01*
X77822517Y-136568033D01*
X77713415Y-136389995D01*
X77706370Y-136376168D01*
X77626468Y-136183264D01*
X77621667Y-136168490D01*
X77613554Y-136134698D01*
X77572921Y-135965452D01*
X77570494Y-135950122D01*
X77553805Y-135738074D01*
X77553500Y-135730307D01*
X77553500Y-133122021D01*
X89200000Y-133122021D01*
X89200000Y-133357978D01*
X89230798Y-133591908D01*
X89230798Y-133591913D01*
X89291867Y-133819824D01*
X89291871Y-133819837D01*
X89382163Y-134037824D01*
X89382165Y-134037829D01*
X89500142Y-134242169D01*
X89643779Y-134429362D01*
X89656497Y-134442080D01*
X90366585Y-133731990D01*
X90378599Y-133749970D01*
X90490030Y-133861401D01*
X90508007Y-133873413D01*
X89797919Y-134583502D01*
X89810637Y-134596220D01*
X89997830Y-134739857D01*
X90202170Y-134857834D01*
X90202175Y-134857836D01*
X90420162Y-134948128D01*
X90420175Y-134948132D01*
X90648088Y-135009201D01*
X90882021Y-135039999D01*
X90882023Y-135040000D01*
X91117977Y-135040000D01*
X91117978Y-135039999D01*
X91351908Y-135009201D01*
X91351913Y-135009201D01*
X91579824Y-134948132D01*
X91579837Y-134948128D01*
X91797824Y-134857836D01*
X91797829Y-134857834D01*
X92002169Y-134739857D01*
X92189368Y-134596214D01*
X92189371Y-134596212D01*
X92202080Y-134583502D01*
X91491991Y-133873413D01*
X91509970Y-133861401D01*
X91621401Y-133749970D01*
X91633413Y-133731991D01*
X92343502Y-134442080D01*
X92356212Y-134429371D01*
X92356214Y-134429368D01*
X92499857Y-134242169D01*
X92617834Y-134037829D01*
X92617836Y-134037824D01*
X92708128Y-133819837D01*
X92708132Y-133819824D01*
X92769201Y-133591913D01*
X92769201Y-133591908D01*
X92799999Y-133357978D01*
X92800000Y-133357977D01*
X92800000Y-133122023D01*
X92799999Y-133122021D01*
X92769201Y-132888091D01*
X92769201Y-132888086D01*
X92708132Y-132660175D01*
X92708128Y-132660162D01*
X92617836Y-132442175D01*
X92617834Y-132442170D01*
X92499857Y-132237830D01*
X92356220Y-132050637D01*
X92343502Y-132037919D01*
X91633413Y-132748007D01*
X91621401Y-132730030D01*
X91509970Y-132618599D01*
X91491990Y-132606585D01*
X92202080Y-131896497D01*
X92189362Y-131883779D01*
X92002169Y-131740142D01*
X91797829Y-131622165D01*
X91797824Y-131622163D01*
X91579837Y-131531871D01*
X91579824Y-131531867D01*
X91351911Y-131470798D01*
X91117978Y-131440000D01*
X90882021Y-131440000D01*
X90648091Y-131470798D01*
X90648086Y-131470798D01*
X90420175Y-131531867D01*
X90420162Y-131531871D01*
X90202175Y-131622163D01*
X90202170Y-131622165D01*
X89997830Y-131740142D01*
X89810633Y-131883782D01*
X89797918Y-131896496D01*
X90508008Y-132606586D01*
X90490030Y-132618599D01*
X90378599Y-132730030D01*
X90366586Y-132748008D01*
X89656496Y-132037918D01*
X89643782Y-132050633D01*
X89500142Y-132237830D01*
X89382165Y-132442170D01*
X89382163Y-132442175D01*
X89291871Y-132660162D01*
X89291867Y-132660175D01*
X89230798Y-132888086D01*
X89230798Y-132888091D01*
X89200000Y-133122021D01*
X77553500Y-133122021D01*
X77553500Y-126622819D01*
X80654600Y-126622819D01*
X80654600Y-126913180D01*
X80692498Y-127201044D01*
X80692498Y-127201049D01*
X80767647Y-127481508D01*
X80767651Y-127481521D01*
X80878760Y-127749764D01*
X80878762Y-127749768D01*
X80878764Y-127749772D01*
X80993475Y-127948457D01*
X81023945Y-128001232D01*
X81200695Y-128231578D01*
X81200697Y-128231580D01*
X81200701Y-128231585D01*
X81406015Y-128436899D01*
X81406019Y-128436902D01*
X81406021Y-128436904D01*
X81636367Y-128613654D01*
X81636371Y-128613657D01*
X81887828Y-128758836D01*
X82156084Y-128869951D01*
X82436548Y-128945101D01*
X82724421Y-128983000D01*
X82724422Y-128983000D01*
X83014778Y-128983000D01*
X83014779Y-128983000D01*
X83302652Y-128945101D01*
X83583116Y-128869951D01*
X83851372Y-128758836D01*
X84102829Y-128613657D01*
X84333185Y-128436899D01*
X84538499Y-128231585D01*
X84715257Y-128001229D01*
X84860436Y-127749772D01*
X84971551Y-127481516D01*
X85046701Y-127201052D01*
X85084600Y-126913179D01*
X85084600Y-126622821D01*
X85084600Y-126622819D01*
X212582200Y-126622819D01*
X212582200Y-126913180D01*
X212620098Y-127201044D01*
X212620098Y-127201049D01*
X212695247Y-127481508D01*
X212695251Y-127481521D01*
X212806360Y-127749764D01*
X212806362Y-127749768D01*
X212806364Y-127749772D01*
X212921075Y-127948457D01*
X212951545Y-128001232D01*
X213128295Y-128231578D01*
X213128297Y-128231580D01*
X213128301Y-128231585D01*
X213333615Y-128436899D01*
X213333619Y-128436902D01*
X213333621Y-128436904D01*
X213563967Y-128613654D01*
X213563971Y-128613657D01*
X213815428Y-128758836D01*
X214083684Y-128869951D01*
X214364148Y-128945101D01*
X214652021Y-128983000D01*
X214652022Y-128983000D01*
X214942378Y-128983000D01*
X214942379Y-128983000D01*
X215230252Y-128945101D01*
X215510716Y-128869951D01*
X215778972Y-128758836D01*
X216030429Y-128613657D01*
X216260785Y-128436899D01*
X216466099Y-128231585D01*
X216642857Y-128001229D01*
X216788036Y-127749772D01*
X216899151Y-127481516D01*
X216974301Y-127201052D01*
X217012200Y-126913179D01*
X217012200Y-126622821D01*
X216974301Y-126334948D01*
X216899151Y-126054484D01*
X216788036Y-125786228D01*
X216642857Y-125534771D01*
X216466099Y-125304415D01*
X216260785Y-125099101D01*
X216260780Y-125099097D01*
X216260778Y-125099095D01*
X216030432Y-124922345D01*
X216030429Y-124922343D01*
X215778972Y-124777164D01*
X215778968Y-124777162D01*
X215778964Y-124777160D01*
X215510721Y-124666051D01*
X215510720Y-124666050D01*
X215510716Y-124666049D01*
X215230252Y-124590899D01*
X215230249Y-124590898D01*
X215230247Y-124590898D01*
X214942380Y-124553000D01*
X214942379Y-124553000D01*
X214652021Y-124553000D01*
X214652019Y-124553000D01*
X214364155Y-124590898D01*
X214364150Y-124590898D01*
X214083691Y-124666047D01*
X214083678Y-124666051D01*
X213815435Y-124777160D01*
X213563967Y-124922345D01*
X213333621Y-125099095D01*
X213128295Y-125304421D01*
X212951545Y-125534767D01*
X212806360Y-125786235D01*
X212695251Y-126054478D01*
X212695247Y-126054491D01*
X212620098Y-126334950D01*
X212620098Y-126334955D01*
X212582200Y-126622819D01*
X85084600Y-126622819D01*
X85046701Y-126334948D01*
X84971551Y-126054484D01*
X84860436Y-125786228D01*
X84715257Y-125534771D01*
X84538499Y-125304415D01*
X84333185Y-125099101D01*
X84333180Y-125099097D01*
X84333178Y-125099095D01*
X84102832Y-124922345D01*
X84102829Y-124922343D01*
X83851372Y-124777164D01*
X83851368Y-124777162D01*
X83851364Y-124777160D01*
X83583121Y-124666051D01*
X83583120Y-124666050D01*
X83583116Y-124666049D01*
X83302652Y-124590899D01*
X83302649Y-124590898D01*
X83302647Y-124590898D01*
X83014780Y-124553000D01*
X83014779Y-124553000D01*
X82724421Y-124553000D01*
X82724419Y-124553000D01*
X82436555Y-124590898D01*
X82436550Y-124590898D01*
X82156091Y-124666047D01*
X82156078Y-124666051D01*
X81887835Y-124777160D01*
X81636367Y-124922345D01*
X81406021Y-125099095D01*
X81200695Y-125304421D01*
X81023945Y-125534767D01*
X80878760Y-125786235D01*
X80767651Y-126054478D01*
X80767647Y-126054491D01*
X80692498Y-126334950D01*
X80692498Y-126334955D01*
X80654600Y-126622819D01*
X77553500Y-126622819D01*
X77553500Y-126515996D01*
X77553499Y-126515974D01*
X77527350Y-126133687D01*
X77515639Y-125962479D01*
X77440092Y-125412837D01*
X77327213Y-124869632D01*
X77177527Y-124335396D01*
X76991733Y-123812621D01*
X76770697Y-123303744D01*
X76515448Y-122811137D01*
X76227178Y-122337097D01*
X76081782Y-122131118D01*
X75907242Y-121883850D01*
X75907237Y-121883844D01*
X75907231Y-121883835D01*
X75557097Y-121453463D01*
X75178411Y-121047988D01*
X74772936Y-120669302D01*
X74772929Y-120669296D01*
X74772928Y-120669295D01*
X74342575Y-120319177D01*
X74342565Y-120319169D01*
X74342564Y-120319168D01*
X74342557Y-120319163D01*
X74342548Y-120319156D01*
X73889312Y-119999228D01*
X73889311Y-119999227D01*
X73889302Y-119999221D01*
X73415262Y-119710951D01*
X72922655Y-119455702D01*
X72413778Y-119234666D01*
X72413767Y-119234662D01*
X71890999Y-119048870D01*
X71356775Y-118899188D01*
X71356756Y-118899183D01*
X70813562Y-118786306D01*
X70263927Y-118710761D01*
X70263920Y-118710760D01*
X70263918Y-118710759D01*
X70263912Y-118710759D01*
X69710424Y-118672899D01*
X69710405Y-118672899D01*
X69436892Y-118672899D01*
X69429125Y-118672594D01*
X69217083Y-118655906D01*
X69201739Y-118653476D01*
X68998711Y-118604733D01*
X68983936Y-118599932D01*
X68791038Y-118520031D01*
X68777197Y-118512978D01*
X68599165Y-118403880D01*
X68586597Y-118394749D01*
X68546275Y-118360310D01*
X68427829Y-118259148D01*
X68416850Y-118248169D01*
X68281245Y-118089396D01*
X68272118Y-118076834D01*
X68163015Y-117898795D01*
X68155972Y-117884973D01*
X68076064Y-117692059D01*
X68071265Y-117677288D01*
X68059720Y-117629197D01*
X68022521Y-117474253D01*
X68020094Y-117458922D01*
X68003405Y-117246874D01*
X68003100Y-117239107D01*
X68003100Y-116595725D01*
X89199500Y-116595725D01*
X89199500Y-119404274D01*
X89202353Y-119434694D01*
X89202355Y-119434703D01*
X89247207Y-119562883D01*
X89327845Y-119672144D01*
X89327847Y-119672146D01*
X89327850Y-119672150D01*
X89327853Y-119672152D01*
X89327855Y-119672154D01*
X89437116Y-119752792D01*
X89437117Y-119752792D01*
X89437118Y-119752793D01*
X89565301Y-119797646D01*
X89595725Y-119800499D01*
X89595727Y-119800500D01*
X89595734Y-119800500D01*
X92404273Y-119800500D01*
X92404273Y-119800499D01*
X92434699Y-119797646D01*
X92562882Y-119752793D01*
X92672150Y-119672150D01*
X92752793Y-119562882D01*
X92797646Y-119434699D01*
X92800499Y-119404273D01*
X92800500Y-119404273D01*
X92800500Y-116595727D01*
X92800499Y-116595725D01*
X92797646Y-116565301D01*
X92752793Y-116437118D01*
X92742728Y-116423481D01*
X92672154Y-116327855D01*
X92672152Y-116327853D01*
X92672150Y-116327850D01*
X92672146Y-116327847D01*
X92672144Y-116327845D01*
X92562883Y-116247207D01*
X92434703Y-116202355D01*
X92434694Y-116202353D01*
X92404274Y-116199500D01*
X92404266Y-116199500D01*
X89595734Y-116199500D01*
X89595725Y-116199500D01*
X89565305Y-116202353D01*
X89565296Y-116202355D01*
X89437116Y-116247207D01*
X89327855Y-116327845D01*
X89327845Y-116327855D01*
X89247207Y-116437116D01*
X89202355Y-116565296D01*
X89202353Y-116565305D01*
X89199500Y-116595725D01*
X68003100Y-116595725D01*
X68003100Y-112835572D01*
X176399500Y-112835572D01*
X176399500Y-113087503D01*
X176438908Y-113336318D01*
X176438910Y-113336323D01*
X176516759Y-113575917D01*
X176631130Y-113800383D01*
X176779207Y-114004194D01*
X176957344Y-114182331D01*
X177161155Y-114330408D01*
X177385621Y-114444779D01*
X177625215Y-114522628D01*
X177625216Y-114522628D01*
X177625219Y-114522629D01*
X177874035Y-114562038D01*
X177874038Y-114562038D01*
X178125965Y-114562038D01*
X178374780Y-114522629D01*
X178374781Y-114522628D01*
X178374785Y-114522628D01*
X178614379Y-114444779D01*
X178838845Y-114330408D01*
X179042656Y-114182331D01*
X179220793Y-114004194D01*
X179368870Y-113800383D01*
X179483241Y-113575917D01*
X179561090Y-113336323D01*
X179600500Y-113087500D01*
X179600500Y-112835576D01*
X179600500Y-112835572D01*
X179561091Y-112586757D01*
X179561090Y-112586753D01*
X179483241Y-112347159D01*
X179368870Y-112122693D01*
X179220793Y-111918882D01*
X179042656Y-111740745D01*
X178838845Y-111592668D01*
X178838844Y-111592667D01*
X178838842Y-111592666D01*
X178614379Y-111478297D01*
X178374780Y-111400446D01*
X178125965Y-111361038D01*
X178125962Y-111361038D01*
X177874038Y-111361038D01*
X177874035Y-111361038D01*
X177625219Y-111400446D01*
X177385620Y-111478297D01*
X177161157Y-111592666D01*
X176957345Y-111740744D01*
X176779206Y-111918883D01*
X176631128Y-112122695D01*
X176516759Y-112347158D01*
X176438908Y-112586757D01*
X176399500Y-112835572D01*
X68003100Y-112835572D01*
X68003100Y-110405554D01*
X110800000Y-110405554D01*
X110800000Y-110594445D01*
X110829546Y-110780996D01*
X110887914Y-110960635D01*
X110973667Y-111128936D01*
X110973669Y-111128940D01*
X111081382Y-111277194D01*
X111582210Y-110776365D01*
X111599901Y-110807007D01*
X111692993Y-110900099D01*
X111723632Y-110917788D01*
X111222804Y-111418616D01*
X111371059Y-111526330D01*
X111371063Y-111526332D01*
X111539364Y-111612085D01*
X111719003Y-111670453D01*
X111905555Y-111700000D01*
X112094445Y-111700000D01*
X112280996Y-111670453D01*
X112460635Y-111612085D01*
X112628934Y-111526333D01*
X112777194Y-111418615D01*
X112276367Y-110917788D01*
X112307007Y-110900099D01*
X112400099Y-110807007D01*
X112417788Y-110776367D01*
X112918615Y-111277194D01*
X113026333Y-111128934D01*
X113112085Y-110960635D01*
X113170453Y-110780996D01*
X113200000Y-110594445D01*
X113200000Y-110405554D01*
X113170453Y-110219003D01*
X113112085Y-110039364D01*
X113026332Y-109871063D01*
X113026330Y-109871059D01*
X112918616Y-109722804D01*
X112417788Y-110223632D01*
X112400099Y-110192993D01*
X112307007Y-110099901D01*
X112276365Y-110082210D01*
X112777194Y-109581382D01*
X112628940Y-109473669D01*
X112628936Y-109473667D01*
X112460635Y-109387914D01*
X112280996Y-109329546D01*
X112094445Y-109300000D01*
X111905555Y-109300000D01*
X111719003Y-109329546D01*
X111539364Y-109387914D01*
X111371063Y-109473667D01*
X111371059Y-109473669D01*
X111222804Y-109581382D01*
X111723632Y-110082210D01*
X111692993Y-110099901D01*
X111599901Y-110192993D01*
X111582210Y-110223632D01*
X111081382Y-109722804D01*
X110973669Y-109871059D01*
X110973667Y-109871063D01*
X110887914Y-110039364D01*
X110829546Y-110219003D01*
X110800000Y-110405554D01*
X68003100Y-110405554D01*
X68003100Y-107835572D01*
X176399500Y-107835572D01*
X176399500Y-108087503D01*
X176438908Y-108336318D01*
X176438910Y-108336323D01*
X176516759Y-108575917D01*
X176631130Y-108800383D01*
X176779207Y-109004194D01*
X176957344Y-109182331D01*
X177161155Y-109330408D01*
X177385621Y-109444779D01*
X177625215Y-109522628D01*
X177625216Y-109522628D01*
X177625219Y-109522629D01*
X177874035Y-109562038D01*
X177874038Y-109562038D01*
X178125965Y-109562038D01*
X178374780Y-109522629D01*
X178374781Y-109522628D01*
X178374785Y-109522628D01*
X178614379Y-109444779D01*
X178838845Y-109330408D01*
X179042656Y-109182331D01*
X179220793Y-109004194D01*
X179368870Y-108800383D01*
X179483241Y-108575917D01*
X179561090Y-108336323D01*
X179600500Y-108087500D01*
X179600500Y-107835576D01*
X179600500Y-107835572D01*
X179561091Y-107586757D01*
X179561090Y-107586753D01*
X179483241Y-107347159D01*
X179368870Y-107122693D01*
X179220793Y-106918882D01*
X179042656Y-106740745D01*
X178838845Y-106592668D01*
X178838844Y-106592667D01*
X178838842Y-106592666D01*
X178614379Y-106478297D01*
X178374780Y-106400446D01*
X178125965Y-106361038D01*
X178125962Y-106361038D01*
X177874038Y-106361038D01*
X177874035Y-106361038D01*
X177625219Y-106400446D01*
X177385620Y-106478297D01*
X177161157Y-106592666D01*
X176957345Y-106740744D01*
X176779206Y-106918883D01*
X176631128Y-107122695D01*
X176516759Y-107347158D01*
X176438908Y-107586757D01*
X176399500Y-107835572D01*
X68003100Y-107835572D01*
X68003100Y-104695725D01*
X110799500Y-104695725D01*
X110799500Y-106304274D01*
X110802353Y-106334694D01*
X110802355Y-106334703D01*
X110847207Y-106462883D01*
X110927845Y-106572144D01*
X110927847Y-106572146D01*
X110927850Y-106572150D01*
X110927853Y-106572152D01*
X110927855Y-106572154D01*
X111037116Y-106652792D01*
X111037117Y-106652792D01*
X111037118Y-106652793D01*
X111165301Y-106697646D01*
X111195725Y-106700499D01*
X111195727Y-106700500D01*
X111195734Y-106700500D01*
X112804273Y-106700500D01*
X112804273Y-106700499D01*
X112834699Y-106697646D01*
X112962882Y-106652793D01*
X113072150Y-106572150D01*
X113152793Y-106462882D01*
X113197646Y-106334699D01*
X113200499Y-106304273D01*
X113200500Y-106304273D01*
X113200500Y-104695727D01*
X113200499Y-104695725D01*
X113197646Y-104665305D01*
X113197646Y-104665301D01*
X113152793Y-104537118D01*
X113084643Y-104444778D01*
X113072154Y-104427855D01*
X113072152Y-104427853D01*
X113072150Y-104427850D01*
X113072146Y-104427847D01*
X113072144Y-104427845D01*
X112962883Y-104347207D01*
X112834703Y-104302355D01*
X112834694Y-104302353D01*
X112804274Y-104299500D01*
X112804266Y-104299500D01*
X111195734Y-104299500D01*
X111195725Y-104299500D01*
X111165305Y-104302353D01*
X111165296Y-104302355D01*
X111037116Y-104347207D01*
X110927855Y-104427845D01*
X110927845Y-104427855D01*
X110847207Y-104537116D01*
X110802355Y-104665296D01*
X110802353Y-104665305D01*
X110799500Y-104695725D01*
X68003100Y-104695725D01*
X68003100Y-102835572D01*
X176399500Y-102835572D01*
X176399500Y-103087503D01*
X176438908Y-103336318D01*
X176516759Y-103575917D01*
X176621800Y-103782073D01*
X176631130Y-103800383D01*
X176779207Y-104004194D01*
X176957344Y-104182331D01*
X177161155Y-104330408D01*
X177385621Y-104444779D01*
X177625215Y-104522628D01*
X177625216Y-104522628D01*
X177625219Y-104522629D01*
X177874035Y-104562038D01*
X177874038Y-104562038D01*
X178125965Y-104562038D01*
X178374780Y-104522629D01*
X178374781Y-104522628D01*
X178374785Y-104522628D01*
X178614379Y-104444779D01*
X178838845Y-104330408D01*
X179042656Y-104182331D01*
X179220793Y-104004194D01*
X179368870Y-103800383D01*
X179483241Y-103575917D01*
X179561090Y-103336323D01*
X179569834Y-103281118D01*
X179600500Y-103087503D01*
X179600500Y-102835572D01*
X179561091Y-102586757D01*
X179558101Y-102577555D01*
X179483241Y-102347159D01*
X179368870Y-102122693D01*
X179220793Y-101918882D01*
X179042656Y-101740745D01*
X178838845Y-101592668D01*
X178838844Y-101592667D01*
X178838842Y-101592666D01*
X178614379Y-101478297D01*
X178374780Y-101400446D01*
X178125965Y-101361038D01*
X178125962Y-101361038D01*
X177874038Y-101361038D01*
X177874035Y-101361038D01*
X177625219Y-101400446D01*
X177385620Y-101478297D01*
X177161157Y-101592666D01*
X176957345Y-101740744D01*
X176779206Y-101918883D01*
X176631128Y-102122695D01*
X176516759Y-102347158D01*
X176438908Y-102586757D01*
X176399500Y-102835572D01*
X68003100Y-102835572D01*
X68003100Y-95045726D01*
X112367000Y-95045726D01*
X112367000Y-97454265D01*
X112369853Y-97484694D01*
X112414708Y-97612885D01*
X112495345Y-97722144D01*
X112495347Y-97722146D01*
X112495350Y-97722150D01*
X112495353Y-97722152D01*
X112495355Y-97722154D01*
X112604614Y-97802791D01*
X112604616Y-97802791D01*
X112604618Y-97802793D01*
X112732802Y-97847646D01*
X112763235Y-97850500D01*
X115171764Y-97850499D01*
X115171765Y-97850499D01*
X115177850Y-97849928D01*
X115202198Y-97847646D01*
X115236704Y-97835572D01*
X176399500Y-97835572D01*
X176399500Y-98087503D01*
X176438908Y-98336318D01*
X176438910Y-98336323D01*
X176516759Y-98575917D01*
X176631130Y-98800383D01*
X176779207Y-99004194D01*
X176957344Y-99182331D01*
X177161155Y-99330408D01*
X177385621Y-99444779D01*
X177625215Y-99522628D01*
X177625216Y-99522628D01*
X177625219Y-99522629D01*
X177874035Y-99562038D01*
X177874038Y-99562038D01*
X178125965Y-99562038D01*
X178374780Y-99522629D01*
X178374781Y-99522628D01*
X178374785Y-99522628D01*
X178614379Y-99444779D01*
X178838845Y-99330408D01*
X179042656Y-99182331D01*
X179220793Y-99004194D01*
X179368870Y-98800383D01*
X179483241Y-98575917D01*
X179561090Y-98336323D01*
X179600500Y-98087500D01*
X179600500Y-97835576D01*
X179600500Y-97835572D01*
X179561091Y-97586757D01*
X179527930Y-97484698D01*
X179483241Y-97347159D01*
X179368870Y-97122693D01*
X179220793Y-96918882D01*
X179042656Y-96740745D01*
X178838845Y-96592668D01*
X178838844Y-96592667D01*
X178838842Y-96592666D01*
X178614379Y-96478297D01*
X178374780Y-96400446D01*
X178125965Y-96361038D01*
X178125962Y-96361038D01*
X177874038Y-96361038D01*
X177874035Y-96361038D01*
X177625219Y-96400446D01*
X177385620Y-96478297D01*
X177161157Y-96592666D01*
X176957345Y-96740744D01*
X176779206Y-96918883D01*
X176631128Y-97122695D01*
X176516759Y-97347158D01*
X176438908Y-97586757D01*
X176399500Y-97835572D01*
X115236704Y-97835572D01*
X115330382Y-97802793D01*
X115330385Y-97802791D01*
X115399163Y-97752031D01*
X115418774Y-97737556D01*
X115439650Y-97722150D01*
X115520293Y-97612882D01*
X115565146Y-97484698D01*
X115568000Y-97454265D01*
X115567999Y-95045736D01*
X115565146Y-95015302D01*
X115520293Y-94887118D01*
X115520291Y-94887116D01*
X115520291Y-94887114D01*
X115439654Y-94777855D01*
X115439652Y-94777853D01*
X115439650Y-94777850D01*
X115439646Y-94777847D01*
X115439644Y-94777845D01*
X115330385Y-94697208D01*
X115316197Y-94692243D01*
X115202198Y-94652354D01*
X115202196Y-94652353D01*
X115202194Y-94652353D01*
X115171772Y-94649500D01*
X112763234Y-94649500D01*
X112732805Y-94652353D01*
X112604614Y-94697208D01*
X112495355Y-94777845D01*
X112495345Y-94777855D01*
X112414708Y-94887114D01*
X112369853Y-95015305D01*
X112367000Y-95045726D01*
X68003100Y-95045726D01*
X68003100Y-91124034D01*
X112367000Y-91124034D01*
X112367000Y-91375965D01*
X112406408Y-91624780D01*
X112406410Y-91624785D01*
X112484259Y-91864379D01*
X112598630Y-92088845D01*
X112746707Y-92292656D01*
X112924844Y-92470793D01*
X113128655Y-92618870D01*
X113353121Y-92733241D01*
X113592715Y-92811090D01*
X113592716Y-92811090D01*
X113592719Y-92811091D01*
X113841535Y-92850500D01*
X113841538Y-92850500D01*
X114093465Y-92850500D01*
X114187715Y-92835572D01*
X176399500Y-92835572D01*
X176399500Y-93087503D01*
X176438908Y-93336318D01*
X176438910Y-93336323D01*
X176516759Y-93575917D01*
X176631130Y-93800383D01*
X176779207Y-94004194D01*
X176957344Y-94182331D01*
X177161155Y-94330408D01*
X177385621Y-94444779D01*
X177625215Y-94522628D01*
X177625216Y-94522628D01*
X177625219Y-94522629D01*
X177874035Y-94562038D01*
X177874038Y-94562038D01*
X178125965Y-94562038D01*
X178374780Y-94522629D01*
X178374781Y-94522628D01*
X178374785Y-94522628D01*
X178614379Y-94444779D01*
X178838845Y-94330408D01*
X179042656Y-94182331D01*
X179220793Y-94004194D01*
X179368870Y-93800383D01*
X179483241Y-93575917D01*
X179561090Y-93336323D01*
X179600500Y-93087500D01*
X179600500Y-92835576D01*
X179600500Y-92835572D01*
X179561091Y-92586757D01*
X179523412Y-92470793D01*
X179483241Y-92347159D01*
X179368870Y-92122693D01*
X179220793Y-91918882D01*
X179042656Y-91740745D01*
X178838845Y-91592668D01*
X178838844Y-91592667D01*
X178838842Y-91592666D01*
X178614379Y-91478297D01*
X178374780Y-91400446D01*
X178125965Y-91361038D01*
X178125962Y-91361038D01*
X177874038Y-91361038D01*
X177874035Y-91361038D01*
X177625219Y-91400446D01*
X177385620Y-91478297D01*
X177161157Y-91592666D01*
X176957345Y-91740744D01*
X176779206Y-91918883D01*
X176631128Y-92122695D01*
X176516759Y-92347158D01*
X176438908Y-92586757D01*
X176399500Y-92835572D01*
X114187715Y-92835572D01*
X114342280Y-92811091D01*
X114342281Y-92811090D01*
X114342285Y-92811090D01*
X114581879Y-92733241D01*
X114806345Y-92618870D01*
X115010156Y-92470793D01*
X115188293Y-92292656D01*
X115336370Y-92088845D01*
X115450741Y-91864379D01*
X115528590Y-91624785D01*
X115564122Y-91400448D01*
X115568000Y-91375965D01*
X115568000Y-91124034D01*
X115528591Y-90875219D01*
X115528590Y-90875215D01*
X115450741Y-90635621D01*
X115336370Y-90411155D01*
X115188293Y-90207344D01*
X115010156Y-90029207D01*
X114806345Y-89881130D01*
X114806344Y-89881129D01*
X114806342Y-89881128D01*
X114581879Y-89766759D01*
X114342280Y-89688908D01*
X114093465Y-89649500D01*
X114093462Y-89649500D01*
X113841538Y-89649500D01*
X113841535Y-89649500D01*
X113592719Y-89688908D01*
X113353120Y-89766759D01*
X113128657Y-89881128D01*
X112924845Y-90029206D01*
X112746706Y-90207345D01*
X112598628Y-90411157D01*
X112484259Y-90635620D01*
X112406408Y-90875219D01*
X112367000Y-91124034D01*
X68003100Y-91124034D01*
X68003100Y-87835572D01*
X176399500Y-87835572D01*
X176399500Y-88087503D01*
X176438908Y-88336318D01*
X176516759Y-88575917D01*
X176601534Y-88742299D01*
X176631130Y-88800383D01*
X176779207Y-89004194D01*
X176957344Y-89182331D01*
X177161155Y-89330408D01*
X177385621Y-89444779D01*
X177625215Y-89522628D01*
X177625216Y-89522628D01*
X177625219Y-89522629D01*
X177874035Y-89562038D01*
X177874038Y-89562038D01*
X178125965Y-89562038D01*
X178374780Y-89522629D01*
X178374781Y-89522628D01*
X178374785Y-89522628D01*
X178614379Y-89444779D01*
X178838845Y-89330408D01*
X179042656Y-89182331D01*
X179220793Y-89004194D01*
X179368870Y-88800383D01*
X179483241Y-88575917D01*
X179561090Y-88336323D01*
X179561091Y-88336318D01*
X179600500Y-88087503D01*
X179600500Y-87835572D01*
X179561091Y-87586757D01*
X179561090Y-87586753D01*
X179483241Y-87347159D01*
X179368870Y-87122693D01*
X179220793Y-86918882D01*
X179042656Y-86740745D01*
X178838845Y-86592668D01*
X178838844Y-86592667D01*
X178838842Y-86592666D01*
X178614379Y-86478297D01*
X178374780Y-86400446D01*
X178125965Y-86361038D01*
X178125962Y-86361038D01*
X177874038Y-86361038D01*
X177874035Y-86361038D01*
X177625219Y-86400446D01*
X177385620Y-86478297D01*
X177161157Y-86592666D01*
X176957345Y-86740744D01*
X176779206Y-86918883D01*
X176631128Y-87122695D01*
X176516759Y-87347158D01*
X176438908Y-87586757D01*
X176399500Y-87835572D01*
X68003100Y-87835572D01*
X68003100Y-85254300D01*
X68022007Y-85196109D01*
X68071507Y-85160145D01*
X68102100Y-85155300D01*
X69321090Y-85155300D01*
X69321092Y-85155300D01*
X69448386Y-85121192D01*
X69448388Y-85121190D01*
X69448390Y-85121190D01*
X69562509Y-85055303D01*
X69562509Y-85055302D01*
X69562514Y-85055300D01*
X69655700Y-84962114D01*
X69721592Y-84847986D01*
X69755700Y-84720692D01*
X69755700Y-82835572D01*
X176399500Y-82835572D01*
X176399500Y-83087503D01*
X176438908Y-83336318D01*
X176438910Y-83336323D01*
X176516759Y-83575917D01*
X176631130Y-83800383D01*
X176779207Y-84004194D01*
X176957344Y-84182331D01*
X177161155Y-84330408D01*
X177385621Y-84444779D01*
X177625215Y-84522628D01*
X177625216Y-84522628D01*
X177625219Y-84522629D01*
X177874035Y-84562038D01*
X177874038Y-84562038D01*
X178125965Y-84562038D01*
X178374780Y-84522629D01*
X178374781Y-84522628D01*
X178374785Y-84522628D01*
X178614379Y-84444779D01*
X178838845Y-84330408D01*
X179042656Y-84182331D01*
X179220793Y-84004194D01*
X179368870Y-83800383D01*
X179483241Y-83575917D01*
X179561090Y-83336323D01*
X179561091Y-83336318D01*
X179600500Y-83087503D01*
X179600500Y-82835572D01*
X179561091Y-82586757D01*
X179557851Y-82576785D01*
X179483241Y-82347159D01*
X179368870Y-82122693D01*
X179220793Y-81918882D01*
X179042656Y-81740745D01*
X178838845Y-81592668D01*
X178838844Y-81592667D01*
X178838842Y-81592666D01*
X178614379Y-81478297D01*
X178374780Y-81400446D01*
X178125965Y-81361038D01*
X178125962Y-81361038D01*
X177874038Y-81361038D01*
X177874035Y-81361038D01*
X177625219Y-81400446D01*
X177385620Y-81478297D01*
X177161157Y-81592666D01*
X176957345Y-81740744D01*
X176779206Y-81918883D01*
X176631128Y-82122695D01*
X176516759Y-82347158D01*
X176438908Y-82586757D01*
X176399500Y-82835572D01*
X69755700Y-82835572D01*
X69755700Y-78970726D01*
X112367000Y-78970726D01*
X112367000Y-81379265D01*
X112369853Y-81409694D01*
X112369853Y-81409696D01*
X112369854Y-81409698D01*
X112374675Y-81423475D01*
X112414708Y-81537885D01*
X112495345Y-81647144D01*
X112495347Y-81647146D01*
X112495350Y-81647150D01*
X112495353Y-81647152D01*
X112495355Y-81647154D01*
X112604614Y-81727791D01*
X112604616Y-81727791D01*
X112604618Y-81727793D01*
X112732802Y-81772646D01*
X112763235Y-81775500D01*
X115171764Y-81775499D01*
X115171765Y-81775499D01*
X115177850Y-81774928D01*
X115202198Y-81772646D01*
X115330382Y-81727793D01*
X115439650Y-81647150D01*
X115520293Y-81537882D01*
X115565146Y-81409698D01*
X115568000Y-81379265D01*
X115567999Y-78970736D01*
X115565146Y-78940302D01*
X115520293Y-78812118D01*
X115520291Y-78812116D01*
X115520291Y-78812114D01*
X115439654Y-78702855D01*
X115439652Y-78702853D01*
X115439650Y-78702850D01*
X115439646Y-78702847D01*
X115439644Y-78702845D01*
X115330385Y-78622208D01*
X115316197Y-78617243D01*
X115202198Y-78577354D01*
X115202196Y-78577353D01*
X115202194Y-78577353D01*
X115171772Y-78574500D01*
X112763234Y-78574500D01*
X112732805Y-78577353D01*
X112604614Y-78622208D01*
X112495355Y-78702845D01*
X112495345Y-78702855D01*
X112414708Y-78812114D01*
X112369853Y-78940305D01*
X112367000Y-78970726D01*
X69755700Y-78970726D01*
X69755700Y-77934108D01*
X69729298Y-77835572D01*
X176399500Y-77835572D01*
X176399500Y-78087503D01*
X176438908Y-78336318D01*
X176516759Y-78575917D01*
X176581434Y-78702850D01*
X176631130Y-78800383D01*
X176779207Y-79004194D01*
X176957344Y-79182331D01*
X177161155Y-79330408D01*
X177385621Y-79444779D01*
X177625215Y-79522628D01*
X177625216Y-79522628D01*
X177625219Y-79522629D01*
X177874035Y-79562038D01*
X177874038Y-79562038D01*
X178125965Y-79562038D01*
X178374780Y-79522629D01*
X178374781Y-79522628D01*
X178374785Y-79522628D01*
X178614379Y-79444779D01*
X178838845Y-79330408D01*
X179042656Y-79182331D01*
X179220793Y-79004194D01*
X179368870Y-78800383D01*
X179483241Y-78575917D01*
X179561090Y-78336323D01*
X179600500Y-78087500D01*
X179600500Y-77835576D01*
X179600500Y-77835572D01*
X179561091Y-77586757D01*
X179543822Y-77533608D01*
X179483241Y-77347159D01*
X179368870Y-77122693D01*
X179220793Y-76918882D01*
X179042656Y-76740745D01*
X178838845Y-76592668D01*
X178838844Y-76592667D01*
X178838842Y-76592666D01*
X178614379Y-76478297D01*
X178374780Y-76400446D01*
X178125965Y-76361038D01*
X178125962Y-76361038D01*
X177874038Y-76361038D01*
X177874035Y-76361038D01*
X177625219Y-76400446D01*
X177385620Y-76478297D01*
X177161157Y-76592666D01*
X176957345Y-76740744D01*
X176779206Y-76918883D01*
X176631128Y-77122695D01*
X176516759Y-77347158D01*
X176438908Y-77586757D01*
X176399500Y-77835572D01*
X69729298Y-77835572D01*
X69721592Y-77806814D01*
X69721589Y-77806809D01*
X69655703Y-77692690D01*
X69655701Y-77692688D01*
X69655700Y-77692686D01*
X69562514Y-77599500D01*
X69562511Y-77599498D01*
X69562509Y-77599496D01*
X69448389Y-77533609D01*
X69448391Y-77533609D01*
X69398999Y-77520375D01*
X69321092Y-77499500D01*
X69321090Y-77499500D01*
X68102100Y-77499500D01*
X68043909Y-77480593D01*
X68007945Y-77431093D01*
X68003100Y-77400500D01*
X68003100Y-62155515D01*
X77999500Y-62155515D01*
X77999500Y-62344484D01*
X78029058Y-62531113D01*
X78087453Y-62710832D01*
X78142774Y-62819407D01*
X78173240Y-62879199D01*
X78284310Y-63032073D01*
X78417927Y-63165690D01*
X78570801Y-63276760D01*
X78739168Y-63362547D01*
X78918882Y-63420940D01*
X78918883Y-63420940D01*
X78918886Y-63420941D01*
X79105516Y-63450500D01*
X79105519Y-63450500D01*
X79294484Y-63450500D01*
X79481113Y-63420941D01*
X79481114Y-63420940D01*
X79481118Y-63420940D01*
X79660832Y-63362547D01*
X79829199Y-63276760D01*
X79982073Y-63165690D01*
X80115690Y-63032073D01*
X80226760Y-62879199D01*
X80312547Y-62710832D01*
X80370940Y-62531118D01*
X80378140Y-62485659D01*
X80400500Y-62344484D01*
X80400500Y-62155515D01*
X84499500Y-62155515D01*
X84499500Y-62344484D01*
X84529058Y-62531113D01*
X84587453Y-62710832D01*
X84642774Y-62819407D01*
X84673240Y-62879199D01*
X84784310Y-63032073D01*
X84917927Y-63165690D01*
X85070801Y-63276760D01*
X85239168Y-63362547D01*
X85418882Y-63420940D01*
X85418883Y-63420940D01*
X85418886Y-63420941D01*
X85605516Y-63450500D01*
X85605519Y-63450500D01*
X85794484Y-63450500D01*
X85981113Y-63420941D01*
X85981114Y-63420940D01*
X85981118Y-63420940D01*
X86160832Y-63362547D01*
X86329199Y-63276760D01*
X86482073Y-63165690D01*
X86615690Y-63032073D01*
X86726760Y-62879199D01*
X86812547Y-62710832D01*
X86870940Y-62531118D01*
X86878140Y-62485659D01*
X86886305Y-62434108D01*
X87999500Y-62434108D01*
X87999500Y-62565892D01*
X88005090Y-62586753D01*
X88033609Y-62693190D01*
X88099496Y-62807309D01*
X88099498Y-62807311D01*
X88099500Y-62807314D01*
X88192686Y-62900500D01*
X88192688Y-62900501D01*
X88192690Y-62900503D01*
X88306810Y-62966390D01*
X88306808Y-62966390D01*
X88306812Y-62966391D01*
X88306814Y-62966392D01*
X88434108Y-63000500D01*
X88434110Y-63000500D01*
X88565890Y-63000500D01*
X88565892Y-63000500D01*
X88693186Y-62966392D01*
X88693188Y-62966390D01*
X88693190Y-62966390D01*
X88807309Y-62900503D01*
X88807309Y-62900502D01*
X88807314Y-62900500D01*
X88878319Y-62829494D01*
X88932834Y-62801719D01*
X88948321Y-62800500D01*
X90551679Y-62800500D01*
X90609870Y-62819407D01*
X90621676Y-62829490D01*
X90692686Y-62900500D01*
X90692688Y-62900501D01*
X90692690Y-62900503D01*
X90806810Y-62966390D01*
X90806808Y-62966390D01*
X90806812Y-62966391D01*
X90806814Y-62966392D01*
X90934108Y-63000500D01*
X90934110Y-63000500D01*
X91065890Y-63000500D01*
X91065892Y-63000500D01*
X91193186Y-62966392D01*
X91193188Y-62966390D01*
X91193190Y-62966390D01*
X91307309Y-62900503D01*
X91307309Y-62900502D01*
X91307314Y-62900500D01*
X91400500Y-62807314D01*
X91466392Y-62693186D01*
X91500500Y-62565892D01*
X91500500Y-62434108D01*
X91466392Y-62306814D01*
X91466390Y-62306811D01*
X91466390Y-62306809D01*
X91400503Y-62192690D01*
X91400501Y-62192688D01*
X91400500Y-62192686D01*
X91307314Y-62099500D01*
X91307311Y-62099498D01*
X91307309Y-62099496D01*
X91193189Y-62033609D01*
X91193191Y-62033609D01*
X91143799Y-62020375D01*
X91065892Y-61999500D01*
X90934108Y-61999500D01*
X90856200Y-62020375D01*
X90806809Y-62033609D01*
X90692690Y-62099496D01*
X90692689Y-62099497D01*
X90692686Y-62099499D01*
X90692686Y-62099500D01*
X90621680Y-62170505D01*
X90567166Y-62198281D01*
X90551679Y-62199500D01*
X88948321Y-62199500D01*
X88890130Y-62180593D01*
X88878323Y-62170509D01*
X88807314Y-62099500D01*
X88807311Y-62099498D01*
X88807309Y-62099496D01*
X88693189Y-62033609D01*
X88693191Y-62033609D01*
X88643799Y-62020375D01*
X88565892Y-61999500D01*
X88434108Y-61999500D01*
X88356200Y-62020375D01*
X88306809Y-62033609D01*
X88192690Y-62099496D01*
X88099496Y-62192690D01*
X88033609Y-62306809D01*
X88033608Y-62306814D01*
X87999500Y-62434108D01*
X86886305Y-62434108D01*
X86889786Y-62412132D01*
X86900500Y-62344484D01*
X86900500Y-62155515D01*
X86870941Y-61968886D01*
X86870940Y-61968882D01*
X86812547Y-61789168D01*
X86726760Y-61620801D01*
X86615690Y-61467927D01*
X86482073Y-61334310D01*
X86329199Y-61223240D01*
X86329198Y-61223239D01*
X86329196Y-61223238D01*
X86160832Y-61137453D01*
X85981113Y-61079058D01*
X85794484Y-61049500D01*
X85794481Y-61049500D01*
X85605519Y-61049500D01*
X85605516Y-61049500D01*
X85418886Y-61079058D01*
X85239167Y-61137453D01*
X85070803Y-61223238D01*
X84917928Y-61334309D01*
X84784309Y-61467928D01*
X84673238Y-61620803D01*
X84587453Y-61789167D01*
X84529058Y-61968886D01*
X84499500Y-62155515D01*
X80400500Y-62155515D01*
X80370941Y-61968886D01*
X80370940Y-61968882D01*
X80312547Y-61789168D01*
X80226760Y-61620801D01*
X80115690Y-61467927D01*
X79982073Y-61334310D01*
X79829199Y-61223240D01*
X79829198Y-61223239D01*
X79829196Y-61223238D01*
X79660832Y-61137453D01*
X79481113Y-61079058D01*
X79294484Y-61049500D01*
X79294481Y-61049500D01*
X79105519Y-61049500D01*
X79105516Y-61049500D01*
X78918886Y-61079058D01*
X78739167Y-61137453D01*
X78570803Y-61223238D01*
X78417928Y-61334309D01*
X78284309Y-61467928D01*
X78173238Y-61620803D01*
X78087453Y-61789167D01*
X78029058Y-61968886D01*
X77999500Y-62155515D01*
X68003100Y-62155515D01*
X68003100Y-59334108D01*
X92499500Y-59334108D01*
X92499500Y-59465892D01*
X92525262Y-59562038D01*
X92533609Y-59593190D01*
X92599496Y-59707309D01*
X92599498Y-59707311D01*
X92599500Y-59707314D01*
X92670505Y-59778319D01*
X92698281Y-59832834D01*
X92699500Y-59848321D01*
X92699500Y-61539564D01*
X92719977Y-61615985D01*
X92719978Y-61615988D01*
X92729264Y-61632071D01*
X92729265Y-61632073D01*
X92759540Y-61684511D01*
X105970505Y-74895476D01*
X105998281Y-74949991D01*
X105999500Y-74965478D01*
X105999500Y-75065892D01*
X106020159Y-75142993D01*
X106033609Y-75193190D01*
X106099496Y-75307309D01*
X106099498Y-75307311D01*
X106099500Y-75307314D01*
X106192686Y-75400500D01*
X106192688Y-75400501D01*
X106192690Y-75400503D01*
X106306810Y-75466390D01*
X106306808Y-75466390D01*
X106306812Y-75466391D01*
X106306814Y-75466392D01*
X106434108Y-75500500D01*
X106434110Y-75500500D01*
X106565890Y-75500500D01*
X106565892Y-75500500D01*
X106693186Y-75466392D01*
X106693188Y-75466390D01*
X106693190Y-75466390D01*
X106807309Y-75400503D01*
X106807309Y-75400502D01*
X106807314Y-75400500D01*
X106900500Y-75307314D01*
X106966392Y-75193186D01*
X107000500Y-75065892D01*
X107000500Y-75049073D01*
X112367500Y-75049073D01*
X112367500Y-75300926D01*
X112406895Y-75549663D01*
X112484721Y-75789187D01*
X112599055Y-76013580D01*
X112747087Y-76217328D01*
X112765418Y-76235659D01*
X113442230Y-75558846D01*
X113462612Y-75589351D01*
X113553149Y-75679888D01*
X113583653Y-75700269D01*
X112906841Y-76377082D01*
X112925171Y-76395412D01*
X113128919Y-76543444D01*
X113353312Y-76657778D01*
X113592836Y-76735604D01*
X113841574Y-76775000D01*
X114093426Y-76775000D01*
X114342163Y-76735604D01*
X114581687Y-76657778D01*
X114806080Y-76543444D01*
X115009828Y-76395412D01*
X115028159Y-76377082D01*
X114351346Y-75700269D01*
X114381851Y-75679888D01*
X114472388Y-75589351D01*
X114492769Y-75558846D01*
X115169582Y-76235659D01*
X115187912Y-76217328D01*
X115335944Y-76013580D01*
X115450278Y-75789187D01*
X115528104Y-75549663D01*
X115567500Y-75300926D01*
X115567500Y-75049073D01*
X115528104Y-74800336D01*
X115450278Y-74560812D01*
X115335944Y-74336419D01*
X115187912Y-74132671D01*
X115169582Y-74114341D01*
X114492769Y-74791153D01*
X114472388Y-74760649D01*
X114381851Y-74670112D01*
X114351346Y-74649730D01*
X115028159Y-73972918D01*
X115009828Y-73954587D01*
X114806080Y-73806555D01*
X114581687Y-73692221D01*
X114342163Y-73614395D01*
X114093426Y-73575000D01*
X113841574Y-73575000D01*
X113592836Y-73614395D01*
X113353312Y-73692221D01*
X113128919Y-73806555D01*
X112925171Y-73954587D01*
X112906841Y-73972918D01*
X113583653Y-74649730D01*
X113553149Y-74670112D01*
X113462612Y-74760649D01*
X113442230Y-74791153D01*
X112765418Y-74114341D01*
X112747087Y-74132671D01*
X112599055Y-74336419D01*
X112484721Y-74560812D01*
X112406895Y-74800336D01*
X112367500Y-75049073D01*
X107000500Y-75049073D01*
X107000500Y-74934108D01*
X106966392Y-74806814D01*
X106966390Y-74806811D01*
X106966390Y-74806809D01*
X106900503Y-74692690D01*
X106900501Y-74692688D01*
X106900500Y-74692686D01*
X106807314Y-74599500D01*
X106807311Y-74599498D01*
X106807309Y-74599496D01*
X106693189Y-74533609D01*
X106693191Y-74533609D01*
X106643799Y-74520375D01*
X106565892Y-74499500D01*
X106465479Y-74499500D01*
X106407288Y-74480593D01*
X106395475Y-74470504D01*
X104760543Y-72835572D01*
X176399500Y-72835572D01*
X176399500Y-73087503D01*
X176438908Y-73336318D01*
X176516759Y-73575917D01*
X176605203Y-73749500D01*
X176631130Y-73800383D01*
X176779207Y-74004194D01*
X176957344Y-74182331D01*
X177161155Y-74330408D01*
X177385621Y-74444779D01*
X177625215Y-74522628D01*
X177625216Y-74522628D01*
X177625219Y-74522629D01*
X177874035Y-74562038D01*
X177874038Y-74562038D01*
X178125965Y-74562038D01*
X178374780Y-74522629D01*
X178374781Y-74522628D01*
X178374785Y-74522628D01*
X178614379Y-74444779D01*
X178838845Y-74330408D01*
X179042656Y-74182331D01*
X179220793Y-74004194D01*
X179368870Y-73800383D01*
X179483241Y-73575917D01*
X179561090Y-73336323D01*
X179600500Y-73087500D01*
X179600500Y-72835576D01*
X179600500Y-72835572D01*
X179561091Y-72586757D01*
X179561090Y-72586753D01*
X179483241Y-72347159D01*
X179368870Y-72122693D01*
X179220793Y-71918882D01*
X179042656Y-71740745D01*
X178838845Y-71592668D01*
X178838844Y-71592667D01*
X178838842Y-71592666D01*
X178614379Y-71478297D01*
X178374780Y-71400446D01*
X178125965Y-71361038D01*
X178125962Y-71361038D01*
X177874038Y-71361038D01*
X177874035Y-71361038D01*
X177625219Y-71400446D01*
X177385620Y-71478297D01*
X177161157Y-71592666D01*
X176957345Y-71740744D01*
X176779206Y-71918883D01*
X176631128Y-72122695D01*
X176516759Y-72347158D01*
X176438908Y-72586757D01*
X176399500Y-72835572D01*
X104760543Y-72835572D01*
X101355920Y-69430949D01*
X101328143Y-69376432D01*
X101337714Y-69316000D01*
X101380979Y-69272735D01*
X101400298Y-69265319D01*
X101421733Y-69259576D01*
X101558665Y-69180519D01*
X101670469Y-69068715D01*
X101681275Y-69049999D01*
X101726745Y-69009058D01*
X101767011Y-69000499D01*
X122880376Y-69000499D01*
X122880376Y-69000498D01*
X122956802Y-68980020D01*
X123025324Y-68940459D01*
X123081273Y-68884510D01*
X124130211Y-67835572D01*
X176399500Y-67835572D01*
X176399500Y-68087503D01*
X176438908Y-68336318D01*
X176516759Y-68575917D01*
X176600064Y-68739414D01*
X176631130Y-68800383D01*
X176779207Y-69004194D01*
X176957344Y-69182331D01*
X177161155Y-69330408D01*
X177385621Y-69444779D01*
X177625215Y-69522628D01*
X177625216Y-69522628D01*
X177625219Y-69522629D01*
X177874035Y-69562038D01*
X177874038Y-69562038D01*
X178125965Y-69562038D01*
X178374780Y-69522629D01*
X178374781Y-69522628D01*
X178374785Y-69522628D01*
X178614379Y-69444779D01*
X178838845Y-69330408D01*
X179042656Y-69182331D01*
X179220793Y-69004194D01*
X179368870Y-68800383D01*
X179483241Y-68575917D01*
X179561090Y-68336323D01*
X179563289Y-68322438D01*
X179600500Y-68087503D01*
X179600500Y-67835572D01*
X179561091Y-67586757D01*
X179525609Y-67477555D01*
X179483241Y-67347159D01*
X179368870Y-67122693D01*
X179220793Y-66918882D01*
X179042656Y-66740745D01*
X178838845Y-66592668D01*
X178838844Y-66592667D01*
X178838842Y-66592666D01*
X178614379Y-66478297D01*
X178374780Y-66400446D01*
X178125965Y-66361038D01*
X178125962Y-66361038D01*
X177874038Y-66361038D01*
X177874035Y-66361038D01*
X177625219Y-66400446D01*
X177385620Y-66478297D01*
X177161157Y-66592666D01*
X176957345Y-66740744D01*
X176779206Y-66918883D01*
X176631128Y-67122695D01*
X176516759Y-67347158D01*
X176438908Y-67586757D01*
X176399500Y-67835572D01*
X124130211Y-67835572D01*
X129130210Y-62835572D01*
X176399500Y-62835572D01*
X176399500Y-63087503D01*
X176438908Y-63336318D01*
X176516759Y-63575917D01*
X176620755Y-63780022D01*
X176631130Y-63800383D01*
X176779207Y-64004194D01*
X176957344Y-64182331D01*
X177161155Y-64330408D01*
X177385621Y-64444779D01*
X177625215Y-64522628D01*
X177625216Y-64522628D01*
X177625219Y-64522629D01*
X177874035Y-64562038D01*
X177874038Y-64562038D01*
X178125965Y-64562038D01*
X178374780Y-64522629D01*
X178374781Y-64522628D01*
X178374785Y-64522628D01*
X178614379Y-64444779D01*
X178838845Y-64330408D01*
X179042656Y-64182331D01*
X179220793Y-64004194D01*
X179368870Y-63800383D01*
X179483241Y-63575917D01*
X179561090Y-63336323D01*
X179582954Y-63198281D01*
X179600500Y-63087503D01*
X179600500Y-62835572D01*
X179561091Y-62586757D01*
X179543746Y-62533374D01*
X179483241Y-62347159D01*
X179368870Y-62122693D01*
X179220793Y-61918882D01*
X179042656Y-61740745D01*
X178838845Y-61592668D01*
X178838844Y-61592667D01*
X178838842Y-61592666D01*
X178614379Y-61478297D01*
X178374780Y-61400446D01*
X178125965Y-61361038D01*
X178125962Y-61361038D01*
X177874038Y-61361038D01*
X177874035Y-61361038D01*
X177625219Y-61400446D01*
X177385620Y-61478297D01*
X177161157Y-61592666D01*
X176957345Y-61740744D01*
X176779206Y-61918883D01*
X176631128Y-62122695D01*
X176516759Y-62347158D01*
X176438908Y-62586757D01*
X176399500Y-62835572D01*
X129130210Y-62835572D01*
X134130209Y-57835572D01*
X176399500Y-57835572D01*
X176399500Y-58087503D01*
X176438908Y-58336318D01*
X176492254Y-58500500D01*
X176516759Y-58575917D01*
X176631130Y-58800383D01*
X176779207Y-59004194D01*
X176957344Y-59182331D01*
X177161155Y-59330408D01*
X177385621Y-59444779D01*
X177625215Y-59522628D01*
X177625216Y-59522628D01*
X177625219Y-59522629D01*
X177874035Y-59562038D01*
X177874038Y-59562038D01*
X178125965Y-59562038D01*
X178374780Y-59522629D01*
X178374781Y-59522628D01*
X178374785Y-59522628D01*
X178614379Y-59444779D01*
X178838845Y-59330408D01*
X179042656Y-59182331D01*
X179220793Y-59004194D01*
X179368870Y-58800383D01*
X179483241Y-58575917D01*
X179561090Y-58336323D01*
X179561091Y-58336318D01*
X179600500Y-58087503D01*
X179600500Y-57835572D01*
X179561091Y-57586757D01*
X179561090Y-57586753D01*
X179483241Y-57347159D01*
X179368870Y-57122693D01*
X179220793Y-56918882D01*
X179042656Y-56740745D01*
X178838845Y-56592668D01*
X178838844Y-56592667D01*
X178838842Y-56592666D01*
X178614379Y-56478297D01*
X178374780Y-56400446D01*
X178125965Y-56361038D01*
X178125962Y-56361038D01*
X177874038Y-56361038D01*
X177874035Y-56361038D01*
X177625219Y-56400446D01*
X177385620Y-56478297D01*
X177161157Y-56592666D01*
X176957345Y-56740744D01*
X176779206Y-56918883D01*
X176631128Y-57122695D01*
X176516759Y-57347158D01*
X176438908Y-57586757D01*
X176399500Y-57835572D01*
X134130209Y-57835572D01*
X137804442Y-54161339D01*
X137858957Y-54133564D01*
X137900065Y-54135717D01*
X137920943Y-54141312D01*
X137920944Y-54141312D01*
X138079055Y-54141312D01*
X138079057Y-54141312D01*
X138231784Y-54100389D01*
X138368716Y-54021332D01*
X138480520Y-53909528D01*
X138559577Y-53772596D01*
X138600500Y-53619869D01*
X138600500Y-53461755D01*
X138559577Y-53309028D01*
X138480520Y-53172096D01*
X138368716Y-53060292D01*
X138231784Y-52981235D01*
X138079057Y-52940312D01*
X137920943Y-52940312D01*
X137768216Y-52981235D01*
X137631284Y-53060292D01*
X137519480Y-53172096D01*
X137440423Y-53309028D01*
X137409756Y-53423481D01*
X137399500Y-53461756D01*
X137399500Y-53619868D01*
X137405093Y-53640743D01*
X137401890Y-53701845D01*
X137379470Y-53736369D01*
X122745338Y-68370503D01*
X122690821Y-68398280D01*
X122675334Y-68399499D01*
X101767011Y-68399499D01*
X101708820Y-68380592D01*
X101681275Y-68349999D01*
X101670470Y-68331285D01*
X101670469Y-68331283D01*
X101558665Y-68219479D01*
X101421733Y-68140422D01*
X101269006Y-68099499D01*
X101110892Y-68099499D01*
X100958165Y-68140422D01*
X100821233Y-68219479D01*
X100709429Y-68331283D01*
X100630372Y-68468215D01*
X100630372Y-68468216D01*
X100624628Y-68489650D01*
X100591302Y-68540963D01*
X100534180Y-68562888D01*
X100475080Y-68547049D01*
X100458998Y-68534027D01*
X99259079Y-67334108D01*
X101549500Y-67334108D01*
X101549500Y-67465892D01*
X101552626Y-67477558D01*
X101583609Y-67593190D01*
X101649496Y-67707309D01*
X101649498Y-67707311D01*
X101649500Y-67707314D01*
X101742686Y-67800500D01*
X101742688Y-67800501D01*
X101742690Y-67800503D01*
X101856810Y-67866390D01*
X101856808Y-67866390D01*
X101856812Y-67866391D01*
X101856814Y-67866392D01*
X101984108Y-67900500D01*
X101984110Y-67900500D01*
X102115890Y-67900500D01*
X102115892Y-67900500D01*
X102243186Y-67866392D01*
X102243188Y-67866390D01*
X102243190Y-67866390D01*
X102357309Y-67800503D01*
X102357309Y-67800502D01*
X102357314Y-67800500D01*
X102428319Y-67729494D01*
X102482834Y-67701719D01*
X102498321Y-67700500D01*
X102980673Y-67700500D01*
X103038864Y-67719407D01*
X103066409Y-67749999D01*
X103099500Y-67807314D01*
X103192686Y-67900500D01*
X103192688Y-67900501D01*
X103192690Y-67900503D01*
X103306810Y-67966390D01*
X103306808Y-67966390D01*
X103306812Y-67966391D01*
X103306814Y-67966392D01*
X103434108Y-68000500D01*
X103434110Y-68000500D01*
X103565890Y-68000500D01*
X103565892Y-68000500D01*
X103693186Y-67966392D01*
X103693188Y-67966390D01*
X103693190Y-67966390D01*
X103807309Y-67900503D01*
X103807309Y-67900502D01*
X103807314Y-67900500D01*
X103900500Y-67807314D01*
X103904434Y-67800500D01*
X103966390Y-67693190D01*
X103966390Y-67693188D01*
X103966392Y-67693186D01*
X104000500Y-67565892D01*
X104000500Y-67434108D01*
X103966392Y-67306814D01*
X103966390Y-67306811D01*
X103966390Y-67306809D01*
X103900503Y-67192690D01*
X103900501Y-67192688D01*
X103900500Y-67192686D01*
X103807314Y-67099500D01*
X103795512Y-67092686D01*
X103752870Y-67068066D01*
X103711930Y-67022596D01*
X103705535Y-66961746D01*
X103714136Y-66939344D01*
X103713908Y-66939250D01*
X103716390Y-66933257D01*
X103716390Y-66933254D01*
X103716392Y-66933252D01*
X103750500Y-66805958D01*
X103750500Y-66674174D01*
X103742369Y-66643829D01*
X103745571Y-66582729D01*
X103784076Y-66535179D01*
X103812369Y-66522582D01*
X103844001Y-66514107D01*
X103958129Y-66448215D01*
X104051315Y-66355029D01*
X104080944Y-66303710D01*
X104117205Y-66240905D01*
X104117205Y-66240903D01*
X104117207Y-66240901D01*
X104151315Y-66113607D01*
X104151315Y-66081528D01*
X104170222Y-66023337D01*
X104219722Y-65987373D01*
X104250315Y-65982528D01*
X104282392Y-65982528D01*
X104282394Y-65982528D01*
X104409688Y-65948420D01*
X104409690Y-65948418D01*
X104409692Y-65948418D01*
X104523811Y-65882531D01*
X104523811Y-65882530D01*
X104523816Y-65882528D01*
X104617002Y-65789342D01*
X104617005Y-65789337D01*
X104682892Y-65675218D01*
X104682892Y-65675216D01*
X104682894Y-65675214D01*
X104717002Y-65547920D01*
X104717002Y-65416136D01*
X104682894Y-65288842D01*
X104643567Y-65220726D01*
X112367000Y-65220726D01*
X112367000Y-67629265D01*
X112369853Y-67659694D01*
X112369853Y-67659696D01*
X112369854Y-67659698D01*
X112390747Y-67719407D01*
X112414708Y-67787885D01*
X112495345Y-67897144D01*
X112495347Y-67897146D01*
X112495350Y-67897150D01*
X112495353Y-67897152D01*
X112495355Y-67897154D01*
X112604614Y-67977791D01*
X112604616Y-67977791D01*
X112604618Y-67977793D01*
X112732802Y-68022646D01*
X112763235Y-68025500D01*
X115171764Y-68025499D01*
X115171765Y-68025499D01*
X115177850Y-68024928D01*
X115202198Y-68022646D01*
X115330382Y-67977793D01*
X115439650Y-67897150D01*
X115520293Y-67787882D01*
X115565146Y-67659698D01*
X115568000Y-67629265D01*
X115567999Y-65220736D01*
X115565146Y-65190302D01*
X115520293Y-65062118D01*
X115520291Y-65062116D01*
X115520291Y-65062114D01*
X115439654Y-64952855D01*
X115439652Y-64952853D01*
X115439650Y-64952850D01*
X115439646Y-64952847D01*
X115439644Y-64952845D01*
X115330385Y-64872208D01*
X115296682Y-64860415D01*
X115202198Y-64827354D01*
X115202196Y-64827353D01*
X115202194Y-64827353D01*
X115171772Y-64824500D01*
X112763234Y-64824500D01*
X112732805Y-64827353D01*
X112604614Y-64872208D01*
X112495355Y-64952845D01*
X112495345Y-64952855D01*
X112414708Y-65062114D01*
X112369853Y-65190305D01*
X112367000Y-65220726D01*
X104643567Y-65220726D01*
X104617002Y-65174714D01*
X104523816Y-65081528D01*
X104523813Y-65081526D01*
X104523811Y-65081524D01*
X104409691Y-65015637D01*
X104409693Y-65015637D01*
X104360301Y-65002403D01*
X104282394Y-64981528D01*
X104181981Y-64981528D01*
X104123790Y-64962621D01*
X104111977Y-64952532D01*
X103832067Y-64672622D01*
X103806445Y-64628243D01*
X103772631Y-64502045D01*
X103772629Y-64502042D01*
X103772629Y-64502040D01*
X103706742Y-64387921D01*
X103706740Y-64387919D01*
X103706739Y-64387917D01*
X103613553Y-64294731D01*
X103613550Y-64294729D01*
X103613548Y-64294727D01*
X103499428Y-64228840D01*
X103499430Y-64228840D01*
X103450038Y-64215606D01*
X103372131Y-64194731D01*
X103240347Y-64194731D01*
X103162439Y-64215606D01*
X103113048Y-64228840D01*
X102998929Y-64294727D01*
X102905735Y-64387921D01*
X102839848Y-64502040D01*
X102805739Y-64629340D01*
X102805739Y-64661419D01*
X102786832Y-64719610D01*
X102737332Y-64755574D01*
X102706739Y-64760419D01*
X102674660Y-64760419D01*
X102596752Y-64781294D01*
X102547361Y-64794528D01*
X102433242Y-64860415D01*
X102340048Y-64953609D01*
X102274161Y-65067728D01*
X102240052Y-65195028D01*
X102240052Y-65199220D01*
X102221145Y-65257411D01*
X102171645Y-65293375D01*
X102141052Y-65298220D01*
X102082397Y-65298220D01*
X102004489Y-65319095D01*
X101955098Y-65332329D01*
X101840979Y-65398216D01*
X101747785Y-65491410D01*
X101681898Y-65605529D01*
X101681897Y-65605534D01*
X101647789Y-65732828D01*
X101647789Y-65864612D01*
X101670245Y-65948418D01*
X101681898Y-65991910D01*
X101747785Y-66106029D01*
X101747787Y-66106031D01*
X101747789Y-66106034D01*
X101840975Y-66199220D01*
X101840977Y-66199221D01*
X101840979Y-66199223D01*
X101955099Y-66265110D01*
X101955097Y-66265110D01*
X101955101Y-66265111D01*
X101955103Y-66265112D01*
X102082397Y-66299220D01*
X102082399Y-66299220D01*
X102214180Y-66299220D01*
X102214181Y-66299220D01*
X102293047Y-66278088D01*
X102354147Y-66281289D01*
X102388673Y-66303710D01*
X102720504Y-66635541D01*
X102748281Y-66690058D01*
X102749500Y-66705545D01*
X102749500Y-66805958D01*
X102769497Y-66880588D01*
X102783609Y-66933256D01*
X102793854Y-66951000D01*
X102806576Y-67010848D01*
X102781689Y-67066744D01*
X102728701Y-67097337D01*
X102708118Y-67099500D01*
X102498321Y-67099500D01*
X102440130Y-67080593D01*
X102428323Y-67070509D01*
X102357314Y-66999500D01*
X102357311Y-66999498D01*
X102357309Y-66999496D01*
X102243189Y-66933609D01*
X102243191Y-66933609D01*
X102188227Y-66918882D01*
X102115892Y-66899500D01*
X101984108Y-66899500D01*
X101911773Y-66918882D01*
X101856809Y-66933609D01*
X101742690Y-66999496D01*
X101649496Y-67092690D01*
X101583609Y-67206809D01*
X101583608Y-67206814D01*
X101549500Y-67334108D01*
X99259079Y-67334108D01*
X93329496Y-61404525D01*
X93301719Y-61350008D01*
X93300500Y-61334521D01*
X93300500Y-61060163D01*
X93319407Y-61001972D01*
X93368907Y-60966008D01*
X93425199Y-60966008D01*
X93425546Y-60964712D01*
X93431812Y-60966391D01*
X93431814Y-60966392D01*
X93559108Y-61000500D01*
X93559110Y-61000500D01*
X93659521Y-61000500D01*
X93717712Y-61019407D01*
X93729525Y-61029496D01*
X96440489Y-63740460D01*
X96440491Y-63740461D01*
X96440492Y-63740462D01*
X96440493Y-63740463D01*
X96509008Y-63780020D01*
X96509006Y-63780020D01*
X96509010Y-63780021D01*
X96509012Y-63780022D01*
X96585438Y-63800500D01*
X96585440Y-63800500D01*
X115039563Y-63800500D01*
X115039563Y-63800499D01*
X115115989Y-63780021D01*
X115184511Y-63740460D01*
X115240460Y-63684511D01*
X118240460Y-60684511D01*
X118280022Y-60615988D01*
X118300500Y-60539562D01*
X118300500Y-60460438D01*
X118300500Y-55060163D01*
X118319407Y-55001972D01*
X118368907Y-54966008D01*
X118425199Y-54966008D01*
X118425546Y-54964712D01*
X118431812Y-54966391D01*
X118431814Y-54966392D01*
X118559108Y-55000500D01*
X118559110Y-55000500D01*
X118690890Y-55000500D01*
X118690892Y-55000500D01*
X118818186Y-54966392D01*
X118818188Y-54966390D01*
X118818190Y-54966390D01*
X118932309Y-54900503D01*
X118932310Y-54900502D01*
X118932314Y-54900500D01*
X118949500Y-54883314D01*
X118978319Y-54854496D01*
X119032836Y-54826719D01*
X119048322Y-54825500D01*
X126042851Y-54825500D01*
X126042853Y-54825500D01*
X126125639Y-54803318D01*
X126125641Y-54803316D01*
X126125643Y-54803316D01*
X126199857Y-54760468D01*
X126199857Y-54760467D01*
X126199862Y-54760465D01*
X128124755Y-52835572D01*
X176399500Y-52835572D01*
X176399500Y-53087503D01*
X176438908Y-53336318D01*
X176516759Y-53575917D01*
X176616971Y-53772596D01*
X176631130Y-53800383D01*
X176779207Y-54004194D01*
X176957344Y-54182331D01*
X177161155Y-54330408D01*
X177385621Y-54444779D01*
X177625215Y-54522628D01*
X177625216Y-54522628D01*
X177625219Y-54522629D01*
X177874035Y-54562038D01*
X177874038Y-54562038D01*
X178125965Y-54562038D01*
X178374780Y-54522629D01*
X178374781Y-54522628D01*
X178374785Y-54522628D01*
X178614379Y-54444779D01*
X178838845Y-54330408D01*
X179042656Y-54182331D01*
X179220793Y-54004194D01*
X179368870Y-53800383D01*
X179483241Y-53575917D01*
X179561090Y-53336323D01*
X179565413Y-53309028D01*
X179600500Y-53087503D01*
X179600500Y-52835572D01*
X179561091Y-52586757D01*
X179561090Y-52586753D01*
X179483241Y-52347159D01*
X179368870Y-52122693D01*
X179220793Y-51918882D01*
X179042656Y-51740745D01*
X178838845Y-51592668D01*
X178838844Y-51592667D01*
X178838842Y-51592666D01*
X178614379Y-51478297D01*
X178374780Y-51400446D01*
X178125965Y-51361038D01*
X178125962Y-51361038D01*
X177874038Y-51361038D01*
X177874035Y-51361038D01*
X177625219Y-51400446D01*
X177385620Y-51478297D01*
X177161157Y-51592666D01*
X176957345Y-51740744D01*
X176779206Y-51918883D01*
X176631128Y-52122695D01*
X176516759Y-52347158D01*
X176438908Y-52586757D01*
X176399500Y-52835572D01*
X128124755Y-52835572D01*
X132260465Y-48699862D01*
X132270596Y-48682315D01*
X132303318Y-48625638D01*
X132325500Y-48542853D01*
X132325500Y-46757264D01*
X176399500Y-46757264D01*
X176399500Y-49165803D01*
X176402353Y-49196232D01*
X176402353Y-49196234D01*
X176402354Y-49196236D01*
X176412246Y-49224505D01*
X176447208Y-49324423D01*
X176527845Y-49433682D01*
X176527847Y-49433684D01*
X176527850Y-49433688D01*
X176527853Y-49433690D01*
X176527855Y-49433692D01*
X176637114Y-49514329D01*
X176637116Y-49514329D01*
X176637118Y-49514331D01*
X176765302Y-49559184D01*
X176795735Y-49562038D01*
X179204264Y-49562037D01*
X179204265Y-49562037D01*
X179210350Y-49561466D01*
X179234698Y-49559184D01*
X179362882Y-49514331D01*
X179472150Y-49433688D01*
X179552793Y-49324420D01*
X179597646Y-49196236D01*
X179600500Y-49165803D01*
X179600499Y-46905515D01*
X187139500Y-46905515D01*
X187139500Y-47094484D01*
X187169058Y-47281113D01*
X187207850Y-47400500D01*
X187227453Y-47460832D01*
X187313240Y-47629199D01*
X187370592Y-47708136D01*
X187389500Y-47766326D01*
X187389500Y-53233670D01*
X187370593Y-53291860D01*
X187313241Y-53370797D01*
X187313239Y-53370801D01*
X187227453Y-53539167D01*
X187169058Y-53718886D01*
X187139500Y-53905515D01*
X187139500Y-54094484D01*
X187169058Y-54281113D01*
X187214916Y-54422248D01*
X187227453Y-54460832D01*
X187313240Y-54629199D01*
X187370592Y-54708136D01*
X187389500Y-54766326D01*
X187389500Y-60083670D01*
X187370593Y-60141860D01*
X187313241Y-60220797D01*
X187313239Y-60220801D01*
X187227453Y-60389167D01*
X187169058Y-60568886D01*
X187139500Y-60755515D01*
X187139500Y-60944484D01*
X187169058Y-61131113D01*
X187214916Y-61272248D01*
X187227453Y-61310832D01*
X187313240Y-61479199D01*
X187370592Y-61558136D01*
X187389500Y-61616326D01*
X187389500Y-67133670D01*
X187370593Y-67191860D01*
X187313241Y-67270797D01*
X187313239Y-67270801D01*
X187227453Y-67439167D01*
X187169058Y-67618886D01*
X187139500Y-67805515D01*
X187139500Y-67994484D01*
X187169058Y-68181113D01*
X187219488Y-68336318D01*
X187227453Y-68360832D01*
X187313240Y-68529199D01*
X187370592Y-68608136D01*
X187389500Y-68666326D01*
X187389500Y-74183670D01*
X187370593Y-74241860D01*
X187313241Y-74320797D01*
X187313239Y-74320801D01*
X187227453Y-74489167D01*
X187169058Y-74668886D01*
X187139500Y-74855515D01*
X187139500Y-75044484D01*
X187169058Y-75231113D01*
X187214916Y-75372248D01*
X187227453Y-75410832D01*
X187313240Y-75579199D01*
X187370592Y-75658136D01*
X187389500Y-75716326D01*
X187389500Y-81233670D01*
X187370593Y-81291860D01*
X187313241Y-81370797D01*
X187313239Y-81370801D01*
X187227453Y-81539167D01*
X187169058Y-81718886D01*
X187139500Y-81905515D01*
X187139500Y-82094484D01*
X187169058Y-82281113D01*
X187214916Y-82422248D01*
X187227453Y-82460832D01*
X187313240Y-82629199D01*
X187370592Y-82708136D01*
X187389500Y-82766326D01*
X187389500Y-88233670D01*
X187370593Y-88291860D01*
X187313241Y-88370797D01*
X187313239Y-88370801D01*
X187227453Y-88539167D01*
X187169058Y-88718886D01*
X187139500Y-88905515D01*
X187139500Y-89094484D01*
X187169058Y-89281113D01*
X187214916Y-89422248D01*
X187227453Y-89460832D01*
X187313240Y-89629199D01*
X187370592Y-89708136D01*
X187389500Y-89766326D01*
X187389500Y-95233670D01*
X187370593Y-95291860D01*
X187313241Y-95370797D01*
X187313239Y-95370801D01*
X187227453Y-95539167D01*
X187169058Y-95718886D01*
X187139500Y-95905515D01*
X187139500Y-96094484D01*
X187169058Y-96281113D01*
X187207832Y-96400446D01*
X187227453Y-96460832D01*
X187313240Y-96629199D01*
X187370592Y-96708136D01*
X187389500Y-96766326D01*
X187389500Y-102233670D01*
X187370593Y-102291860D01*
X187313241Y-102370797D01*
X187313239Y-102370801D01*
X187227453Y-102539167D01*
X187169058Y-102718886D01*
X187139500Y-102905515D01*
X187139500Y-103094484D01*
X187169058Y-103281113D01*
X187214916Y-103422248D01*
X187227453Y-103460832D01*
X187313240Y-103629199D01*
X187370592Y-103708136D01*
X187389500Y-103766326D01*
X187389500Y-109433670D01*
X187370593Y-109491860D01*
X187313241Y-109570797D01*
X187313239Y-109570801D01*
X187227453Y-109739167D01*
X187169058Y-109918886D01*
X187139500Y-110105515D01*
X187139500Y-110294484D01*
X187169058Y-110481113D01*
X187214916Y-110622248D01*
X187227453Y-110660832D01*
X187313240Y-110829199D01*
X187370592Y-110908136D01*
X187389500Y-110966326D01*
X187389500Y-116233670D01*
X187370593Y-116291860D01*
X187313241Y-116370797D01*
X187313239Y-116370801D01*
X187227453Y-116539167D01*
X187169058Y-116718886D01*
X187139500Y-116905515D01*
X187139500Y-117094484D01*
X187169058Y-117281113D01*
X187214916Y-117422248D01*
X187227453Y-117460832D01*
X187313240Y-117629199D01*
X187370592Y-117708136D01*
X187389500Y-117766326D01*
X187389500Y-123233670D01*
X187370593Y-123291860D01*
X187313241Y-123370797D01*
X187313239Y-123370801D01*
X187227453Y-123539167D01*
X187169058Y-123718886D01*
X187139500Y-123905515D01*
X187139500Y-124094484D01*
X187169058Y-124281113D01*
X187227453Y-124460832D01*
X187293724Y-124590898D01*
X187313240Y-124629199D01*
X187424310Y-124782073D01*
X187557927Y-124915690D01*
X187710801Y-125026760D01*
X187879168Y-125112547D01*
X188058882Y-125170940D01*
X188058883Y-125170940D01*
X188058886Y-125170941D01*
X188245516Y-125200500D01*
X188245519Y-125200500D01*
X188434484Y-125200500D01*
X188621113Y-125170941D01*
X188621114Y-125170940D01*
X188621118Y-125170940D01*
X188800832Y-125112547D01*
X188969199Y-125026760D01*
X189122073Y-124915690D01*
X189255690Y-124782073D01*
X189366760Y-124629199D01*
X189452547Y-124460832D01*
X189510940Y-124281118D01*
X189514668Y-124257579D01*
X189540500Y-124094484D01*
X189540500Y-123905515D01*
X194759500Y-123905515D01*
X194759500Y-124094484D01*
X194789058Y-124281113D01*
X194847453Y-124460832D01*
X194913724Y-124590898D01*
X194933240Y-124629199D01*
X195044310Y-124782073D01*
X195177927Y-124915690D01*
X195330801Y-125026760D01*
X195499168Y-125112547D01*
X195678882Y-125170940D01*
X195678883Y-125170940D01*
X195678886Y-125170941D01*
X195865516Y-125200500D01*
X195865519Y-125200500D01*
X196054484Y-125200500D01*
X196241113Y-125170941D01*
X196241114Y-125170940D01*
X196241118Y-125170940D01*
X196420832Y-125112547D01*
X196589199Y-125026760D01*
X196742073Y-124915690D01*
X196875690Y-124782073D01*
X196986760Y-124629199D01*
X197072547Y-124460832D01*
X197130940Y-124281118D01*
X197134668Y-124257579D01*
X197160500Y-124094484D01*
X197160500Y-123913385D01*
X205019500Y-123913385D01*
X205019500Y-124086614D01*
X205046597Y-124257702D01*
X205046598Y-124257706D01*
X205100123Y-124422438D01*
X205100125Y-124422441D01*
X205178635Y-124576528D01*
X205178768Y-124576788D01*
X205280586Y-124716928D01*
X205403072Y-124839414D01*
X205543212Y-124941232D01*
X205697555Y-125019873D01*
X205697557Y-125019873D01*
X205697558Y-125019874D01*
X205697561Y-125019876D01*
X205862293Y-125073401D01*
X205862297Y-125073402D01*
X206033386Y-125100500D01*
X206033389Y-125100500D01*
X206206614Y-125100500D01*
X206377702Y-125073402D01*
X206377706Y-125073401D01*
X206542438Y-125019876D01*
X206542440Y-125019874D01*
X206542445Y-125019873D01*
X206696788Y-124941232D01*
X206836928Y-124839414D01*
X206959414Y-124716928D01*
X207061232Y-124576788D01*
X207139873Y-124422445D01*
X207139874Y-124422440D01*
X207139876Y-124422438D01*
X207193401Y-124257706D01*
X207193402Y-124257702D01*
X207220500Y-124086614D01*
X207220500Y-123913424D01*
X207560000Y-123913424D01*
X207560000Y-124086575D01*
X207587084Y-124257579D01*
X207640588Y-124422248D01*
X207719195Y-124576523D01*
X207812974Y-124705602D01*
X208242210Y-124276365D01*
X208259901Y-124307007D01*
X208352993Y-124400099D01*
X208383631Y-124417788D01*
X207954396Y-124847024D01*
X208083471Y-124940801D01*
X208083475Y-124940804D01*
X208237751Y-125019411D01*
X208402420Y-125072915D01*
X208573425Y-125100000D01*
X208746575Y-125100000D01*
X208917579Y-125072915D01*
X209082248Y-125019411D01*
X209236524Y-124940804D01*
X209236528Y-124940802D01*
X209365602Y-124847024D01*
X208936367Y-124417789D01*
X208967007Y-124400099D01*
X209060099Y-124307007D01*
X209077789Y-124276367D01*
X209507024Y-124705602D01*
X209600802Y-124576528D01*
X209600804Y-124576524D01*
X209679411Y-124422248D01*
X209732915Y-124257579D01*
X209760000Y-124086575D01*
X209760000Y-123913424D01*
X209732915Y-123742420D01*
X209679411Y-123577751D01*
X209600804Y-123423475D01*
X209600801Y-123423471D01*
X209507024Y-123294396D01*
X209077788Y-123723631D01*
X209060099Y-123692993D01*
X208967007Y-123599901D01*
X208936365Y-123582210D01*
X209365602Y-123152974D01*
X209236523Y-123059195D01*
X209082248Y-122980588D01*
X208917579Y-122927084D01*
X208746575Y-122900000D01*
X208573425Y-122900000D01*
X208402420Y-122927084D01*
X208237751Y-122980588D01*
X208083481Y-123059192D01*
X207954397Y-123152975D01*
X208383632Y-123582210D01*
X208352993Y-123599901D01*
X208259901Y-123692993D01*
X208242210Y-123723632D01*
X207812975Y-123294397D01*
X207719192Y-123423481D01*
X207640588Y-123577751D01*
X207587084Y-123742420D01*
X207560000Y-123913424D01*
X207220500Y-123913424D01*
X207220500Y-123913385D01*
X207193402Y-123742297D01*
X207193401Y-123742293D01*
X207139876Y-123577561D01*
X207139874Y-123577558D01*
X207139873Y-123577557D01*
X207139873Y-123577555D01*
X207061232Y-123423212D01*
X206959414Y-123283072D01*
X206836928Y-123160586D01*
X206696788Y-123058768D01*
X206696787Y-123058767D01*
X206696785Y-123058766D01*
X206542441Y-122980125D01*
X206542438Y-122980123D01*
X206377706Y-122926598D01*
X206377702Y-122926597D01*
X206206614Y-122899500D01*
X206206611Y-122899500D01*
X206033389Y-122899500D01*
X206033386Y-122899500D01*
X205862297Y-122926597D01*
X205862293Y-122926598D01*
X205697561Y-122980123D01*
X205697558Y-122980125D01*
X205543214Y-123058766D01*
X205403073Y-123160585D01*
X205280585Y-123283073D01*
X205178766Y-123423214D01*
X205100125Y-123577558D01*
X205100123Y-123577561D01*
X205046598Y-123742293D01*
X205046597Y-123742297D01*
X205019500Y-123913385D01*
X197160500Y-123913385D01*
X197160500Y-123905515D01*
X197130941Y-123718886D01*
X197085083Y-123577751D01*
X197072547Y-123539168D01*
X196986760Y-123370801D01*
X196875690Y-123217927D01*
X196742073Y-123084310D01*
X196589199Y-122973240D01*
X196589198Y-122973239D01*
X196589196Y-122973238D01*
X196420832Y-122887453D01*
X196241113Y-122829058D01*
X196054484Y-122799500D01*
X196054481Y-122799500D01*
X195865519Y-122799500D01*
X195865516Y-122799500D01*
X195678886Y-122829058D01*
X195499167Y-122887453D01*
X195330803Y-122973238D01*
X195177928Y-123084309D01*
X195044309Y-123217928D01*
X194933238Y-123370803D01*
X194847453Y-123539167D01*
X194789058Y-123718886D01*
X194759500Y-123905515D01*
X189540500Y-123905515D01*
X189510941Y-123718886D01*
X189465083Y-123577751D01*
X189452547Y-123539168D01*
X189366760Y-123370801D01*
X189366758Y-123370797D01*
X189309407Y-123291860D01*
X189290500Y-123233670D01*
X189290500Y-117766327D01*
X189309405Y-117708139D01*
X189366760Y-117629199D01*
X189452547Y-117460832D01*
X189510940Y-117281118D01*
X189516977Y-117243000D01*
X189540500Y-117094484D01*
X189540500Y-116905515D01*
X194759500Y-116905515D01*
X194759500Y-117094484D01*
X194789058Y-117281113D01*
X194847453Y-117460832D01*
X194906533Y-117576785D01*
X194933240Y-117629199D01*
X195044310Y-117782073D01*
X195177927Y-117915690D01*
X195330801Y-118026760D01*
X195499168Y-118112547D01*
X195678882Y-118170940D01*
X195678883Y-118170940D01*
X195678886Y-118170941D01*
X195865516Y-118200500D01*
X195865519Y-118200500D01*
X196054484Y-118200500D01*
X196241113Y-118170941D01*
X196241114Y-118170940D01*
X196241118Y-118170940D01*
X196420832Y-118112547D01*
X196589199Y-118026760D01*
X196742073Y-117915690D01*
X196875690Y-117782073D01*
X196986760Y-117629199D01*
X197072547Y-117460832D01*
X197130940Y-117281118D01*
X197136977Y-117243000D01*
X197160500Y-117094484D01*
X197160500Y-116913385D01*
X205019500Y-116913385D01*
X205019500Y-117086614D01*
X205046597Y-117257702D01*
X205046598Y-117257706D01*
X205100123Y-117422438D01*
X205100125Y-117422441D01*
X205178635Y-117576528D01*
X205178768Y-117576788D01*
X205280586Y-117716928D01*
X205403072Y-117839414D01*
X205543212Y-117941232D01*
X205697555Y-118019873D01*
X205697557Y-118019873D01*
X205697558Y-118019874D01*
X205697561Y-118019876D01*
X205862293Y-118073401D01*
X205862297Y-118073402D01*
X206033386Y-118100500D01*
X206033389Y-118100500D01*
X206206614Y-118100500D01*
X206377702Y-118073402D01*
X206377706Y-118073401D01*
X206542438Y-118019876D01*
X206542440Y-118019874D01*
X206542445Y-118019873D01*
X206696788Y-117941232D01*
X206836928Y-117839414D01*
X206959414Y-117716928D01*
X207061232Y-117576788D01*
X207139873Y-117422445D01*
X207139874Y-117422440D01*
X207139876Y-117422438D01*
X207193401Y-117257706D01*
X207193402Y-117257702D01*
X207220500Y-117086614D01*
X207220500Y-116913424D01*
X207560000Y-116913424D01*
X207560000Y-117086575D01*
X207587084Y-117257579D01*
X207640588Y-117422248D01*
X207719195Y-117576523D01*
X207812974Y-117705602D01*
X208242210Y-117276365D01*
X208259901Y-117307007D01*
X208352993Y-117400099D01*
X208383631Y-117417788D01*
X207954396Y-117847024D01*
X208083471Y-117940801D01*
X208083475Y-117940804D01*
X208237751Y-118019411D01*
X208402420Y-118072915D01*
X208573425Y-118100000D01*
X208746575Y-118100000D01*
X208917579Y-118072915D01*
X209082248Y-118019411D01*
X209236524Y-117940804D01*
X209236528Y-117940802D01*
X209365602Y-117847024D01*
X208936367Y-117417789D01*
X208967007Y-117400099D01*
X209060099Y-117307007D01*
X209077789Y-117276367D01*
X209507024Y-117705602D01*
X209600802Y-117576528D01*
X209600804Y-117576524D01*
X209679411Y-117422248D01*
X209732915Y-117257579D01*
X209760000Y-117086575D01*
X209760000Y-116913424D01*
X209732915Y-116742420D01*
X209679411Y-116577751D01*
X209600804Y-116423475D01*
X209600801Y-116423471D01*
X209507024Y-116294396D01*
X209077788Y-116723631D01*
X209060099Y-116692993D01*
X208967007Y-116599901D01*
X208936365Y-116582210D01*
X209365602Y-116152974D01*
X209236523Y-116059195D01*
X209082248Y-115980588D01*
X208917579Y-115927084D01*
X208746575Y-115900000D01*
X208573425Y-115900000D01*
X208402420Y-115927084D01*
X208237751Y-115980588D01*
X208083481Y-116059192D01*
X207954397Y-116152975D01*
X208383632Y-116582210D01*
X208352993Y-116599901D01*
X208259901Y-116692993D01*
X208242210Y-116723632D01*
X207812975Y-116294397D01*
X207719192Y-116423481D01*
X207640588Y-116577751D01*
X207587084Y-116742420D01*
X207560000Y-116913424D01*
X207220500Y-116913424D01*
X207220500Y-116913385D01*
X207193402Y-116742297D01*
X207193401Y-116742293D01*
X207139876Y-116577561D01*
X207139874Y-116577558D01*
X207139873Y-116577557D01*
X207139873Y-116577555D01*
X207061232Y-116423212D01*
X206959414Y-116283072D01*
X206836928Y-116160586D01*
X206696788Y-116058768D01*
X206696787Y-116058767D01*
X206696785Y-116058766D01*
X206542441Y-115980125D01*
X206542438Y-115980123D01*
X206377706Y-115926598D01*
X206377702Y-115926597D01*
X206206614Y-115899500D01*
X206206611Y-115899500D01*
X206033389Y-115899500D01*
X206033386Y-115899500D01*
X205862297Y-115926597D01*
X205862293Y-115926598D01*
X205697561Y-115980123D01*
X205697558Y-115980125D01*
X205543214Y-116058766D01*
X205403073Y-116160585D01*
X205280585Y-116283073D01*
X205178766Y-116423214D01*
X205100125Y-116577558D01*
X205100123Y-116577561D01*
X205046598Y-116742293D01*
X205046597Y-116742297D01*
X205019500Y-116913385D01*
X197160500Y-116913385D01*
X197160500Y-116905515D01*
X197130941Y-116718886D01*
X197092280Y-116599901D01*
X197072547Y-116539168D01*
X196986760Y-116370801D01*
X196875690Y-116217927D01*
X196742073Y-116084310D01*
X196589199Y-115973240D01*
X196589198Y-115973239D01*
X196589196Y-115973238D01*
X196420832Y-115887453D01*
X196241113Y-115829058D01*
X196054484Y-115799500D01*
X196054481Y-115799500D01*
X195865519Y-115799500D01*
X195865516Y-115799500D01*
X195678886Y-115829058D01*
X195499167Y-115887453D01*
X195330803Y-115973238D01*
X195177928Y-116084309D01*
X195044309Y-116217928D01*
X194933238Y-116370803D01*
X194847453Y-116539167D01*
X194789058Y-116718886D01*
X194759500Y-116905515D01*
X189540500Y-116905515D01*
X189510941Y-116718886D01*
X189472280Y-116599901D01*
X189452547Y-116539168D01*
X189366760Y-116370801D01*
X189366758Y-116370797D01*
X189309407Y-116291860D01*
X189290500Y-116233670D01*
X189290500Y-110966327D01*
X189309405Y-110908139D01*
X189366760Y-110829199D01*
X189452547Y-110660832D01*
X189510940Y-110481118D01*
X189522908Y-110405554D01*
X189540500Y-110294484D01*
X189540500Y-110105515D01*
X194759500Y-110105515D01*
X194759500Y-110294484D01*
X194789058Y-110481113D01*
X194847453Y-110660832D01*
X194921932Y-110807007D01*
X194933240Y-110829199D01*
X195044310Y-110982073D01*
X195177927Y-111115690D01*
X195330801Y-111226760D01*
X195499168Y-111312547D01*
X195678882Y-111370940D01*
X195678883Y-111370940D01*
X195678886Y-111370941D01*
X195865516Y-111400500D01*
X195865519Y-111400500D01*
X196054484Y-111400500D01*
X196241113Y-111370941D01*
X196241114Y-111370940D01*
X196241118Y-111370940D01*
X196420832Y-111312547D01*
X196589199Y-111226760D01*
X196742073Y-111115690D01*
X196875690Y-110982073D01*
X196986760Y-110829199D01*
X197072547Y-110660832D01*
X197130940Y-110481118D01*
X197142908Y-110405554D01*
X197160500Y-110294484D01*
X197160500Y-110113385D01*
X205019500Y-110113385D01*
X205019500Y-110286614D01*
X205046597Y-110457702D01*
X205046598Y-110457706D01*
X205100123Y-110622438D01*
X205100125Y-110622441D01*
X205178635Y-110776528D01*
X205178768Y-110776788D01*
X205280586Y-110916928D01*
X205403072Y-111039414D01*
X205543212Y-111141232D01*
X205697555Y-111219873D01*
X205697557Y-111219873D01*
X205697558Y-111219874D01*
X205697561Y-111219876D01*
X205862293Y-111273401D01*
X205862297Y-111273402D01*
X206033386Y-111300500D01*
X206033389Y-111300500D01*
X206206614Y-111300500D01*
X206377702Y-111273402D01*
X206377706Y-111273401D01*
X206542438Y-111219876D01*
X206542440Y-111219874D01*
X206542445Y-111219873D01*
X206696788Y-111141232D01*
X206836928Y-111039414D01*
X206959414Y-110916928D01*
X207061232Y-110776788D01*
X207139873Y-110622445D01*
X207139874Y-110622440D01*
X207139876Y-110622438D01*
X207193401Y-110457706D01*
X207193402Y-110457702D01*
X207220500Y-110286614D01*
X207220500Y-110113424D01*
X207560000Y-110113424D01*
X207560000Y-110286575D01*
X207587084Y-110457579D01*
X207640588Y-110622248D01*
X207719195Y-110776523D01*
X207812974Y-110905602D01*
X208242210Y-110476365D01*
X208259901Y-110507007D01*
X208352993Y-110600099D01*
X208383631Y-110617788D01*
X207954396Y-111047024D01*
X208083471Y-111140801D01*
X208083475Y-111140804D01*
X208237751Y-111219411D01*
X208402420Y-111272915D01*
X208573425Y-111300000D01*
X208746575Y-111300000D01*
X208917579Y-111272915D01*
X209082248Y-111219411D01*
X209236524Y-111140804D01*
X209236528Y-111140802D01*
X209365602Y-111047024D01*
X208936367Y-110617789D01*
X208967007Y-110600099D01*
X209060099Y-110507007D01*
X209077789Y-110476367D01*
X209507024Y-110905602D01*
X209600802Y-110776528D01*
X209600804Y-110776524D01*
X209679411Y-110622248D01*
X209732915Y-110457579D01*
X209760000Y-110286575D01*
X209760000Y-110113424D01*
X209732915Y-109942420D01*
X209679411Y-109777751D01*
X209600804Y-109623475D01*
X209600801Y-109623471D01*
X209507024Y-109494396D01*
X209077788Y-109923631D01*
X209060099Y-109892993D01*
X208967007Y-109799901D01*
X208936365Y-109782210D01*
X209365602Y-109352974D01*
X209236523Y-109259195D01*
X209082248Y-109180588D01*
X208917579Y-109127084D01*
X208746575Y-109100000D01*
X208573425Y-109100000D01*
X208402420Y-109127084D01*
X208237751Y-109180588D01*
X208083481Y-109259192D01*
X207954397Y-109352975D01*
X208383632Y-109782210D01*
X208352993Y-109799901D01*
X208259901Y-109892993D01*
X208242210Y-109923632D01*
X207812975Y-109494397D01*
X207719192Y-109623481D01*
X207640588Y-109777751D01*
X207587084Y-109942420D01*
X207560000Y-110113424D01*
X207220500Y-110113424D01*
X207220500Y-110113385D01*
X207193402Y-109942297D01*
X207193401Y-109942293D01*
X207139876Y-109777561D01*
X207139874Y-109777558D01*
X207139873Y-109777557D01*
X207139873Y-109777555D01*
X207061232Y-109623212D01*
X206959414Y-109483072D01*
X206836928Y-109360586D01*
X206696788Y-109258768D01*
X206696787Y-109258767D01*
X206696785Y-109258766D01*
X206542441Y-109180125D01*
X206542438Y-109180123D01*
X206377706Y-109126598D01*
X206377702Y-109126597D01*
X206206614Y-109099500D01*
X206206611Y-109099500D01*
X206033389Y-109099500D01*
X206033386Y-109099500D01*
X205862297Y-109126597D01*
X205862293Y-109126598D01*
X205697561Y-109180123D01*
X205697558Y-109180125D01*
X205543214Y-109258766D01*
X205403073Y-109360585D01*
X205280585Y-109483073D01*
X205178766Y-109623214D01*
X205100125Y-109777558D01*
X205100123Y-109777561D01*
X205046598Y-109942293D01*
X205046597Y-109942297D01*
X205019500Y-110113385D01*
X197160500Y-110113385D01*
X197160500Y-110105515D01*
X197130941Y-109918886D01*
X197122528Y-109892993D01*
X197072547Y-109739168D01*
X196986760Y-109570801D01*
X196875690Y-109417927D01*
X196742073Y-109284310D01*
X196589199Y-109173240D01*
X196589198Y-109173239D01*
X196589196Y-109173238D01*
X196420832Y-109087453D01*
X196241113Y-109029058D01*
X196054484Y-108999500D01*
X196054481Y-108999500D01*
X195865519Y-108999500D01*
X195865516Y-108999500D01*
X195678886Y-109029058D01*
X195499167Y-109087453D01*
X195330803Y-109173238D01*
X195177928Y-109284309D01*
X195044309Y-109417928D01*
X194933238Y-109570803D01*
X194847453Y-109739167D01*
X194789058Y-109918886D01*
X194759500Y-110105515D01*
X189540500Y-110105515D01*
X189510941Y-109918886D01*
X189502528Y-109892993D01*
X189452547Y-109739168D01*
X189366760Y-109570801D01*
X189366758Y-109570797D01*
X189309407Y-109491860D01*
X189290500Y-109433670D01*
X189290500Y-103766327D01*
X189309405Y-103708139D01*
X189366760Y-103629199D01*
X189452547Y-103460832D01*
X189510940Y-103281118D01*
X189514668Y-103257579D01*
X189540500Y-103094484D01*
X189540500Y-102905515D01*
X194759500Y-102905515D01*
X194759500Y-103094484D01*
X194789058Y-103281113D01*
X194847453Y-103460832D01*
X194906533Y-103576785D01*
X194933240Y-103629199D01*
X195044310Y-103782073D01*
X195177927Y-103915690D01*
X195330801Y-104026760D01*
X195499168Y-104112547D01*
X195678882Y-104170940D01*
X195678883Y-104170940D01*
X195678886Y-104170941D01*
X195865516Y-104200500D01*
X195865519Y-104200500D01*
X196054484Y-104200500D01*
X196241113Y-104170941D01*
X196241114Y-104170940D01*
X196241118Y-104170940D01*
X196420832Y-104112547D01*
X196589199Y-104026760D01*
X196742073Y-103915690D01*
X196875690Y-103782073D01*
X196986760Y-103629199D01*
X197072547Y-103460832D01*
X197130940Y-103281118D01*
X197134668Y-103257579D01*
X197160500Y-103094484D01*
X197160500Y-102913385D01*
X205019500Y-102913385D01*
X205019500Y-103086614D01*
X205046597Y-103257702D01*
X205046598Y-103257706D01*
X205100123Y-103422438D01*
X205100125Y-103422441D01*
X205178635Y-103576528D01*
X205178768Y-103576788D01*
X205280586Y-103716928D01*
X205403072Y-103839414D01*
X205543212Y-103941232D01*
X205697555Y-104019873D01*
X205697557Y-104019873D01*
X205697558Y-104019874D01*
X205697561Y-104019876D01*
X205862293Y-104073401D01*
X205862297Y-104073402D01*
X206033386Y-104100500D01*
X206033389Y-104100500D01*
X206206614Y-104100500D01*
X206377702Y-104073402D01*
X206377706Y-104073401D01*
X206542438Y-104019876D01*
X206542440Y-104019874D01*
X206542445Y-104019873D01*
X206696788Y-103941232D01*
X206836928Y-103839414D01*
X206959414Y-103716928D01*
X207061232Y-103576788D01*
X207139873Y-103422445D01*
X207139874Y-103422440D01*
X207139876Y-103422438D01*
X207193401Y-103257706D01*
X207193402Y-103257702D01*
X207220500Y-103086614D01*
X207220500Y-102913424D01*
X207560000Y-102913424D01*
X207560000Y-103086575D01*
X207587084Y-103257579D01*
X207640588Y-103422248D01*
X207719195Y-103576523D01*
X207812974Y-103705602D01*
X208242210Y-103276365D01*
X208259901Y-103307007D01*
X208352993Y-103400099D01*
X208383631Y-103417788D01*
X207954396Y-103847024D01*
X208083471Y-103940801D01*
X208083475Y-103940804D01*
X208237751Y-104019411D01*
X208402420Y-104072915D01*
X208573425Y-104100000D01*
X208746575Y-104100000D01*
X208917579Y-104072915D01*
X209082248Y-104019411D01*
X209236524Y-103940804D01*
X209236528Y-103940802D01*
X209365602Y-103847024D01*
X208936367Y-103417789D01*
X208967007Y-103400099D01*
X209060099Y-103307007D01*
X209077789Y-103276367D01*
X209507024Y-103705602D01*
X209600802Y-103576528D01*
X209600804Y-103576524D01*
X209679411Y-103422248D01*
X209732915Y-103257579D01*
X209760000Y-103086575D01*
X209760000Y-102913424D01*
X209732915Y-102742420D01*
X209679411Y-102577751D01*
X209600804Y-102423475D01*
X209600801Y-102423471D01*
X209507024Y-102294396D01*
X209077788Y-102723631D01*
X209060099Y-102692993D01*
X208967007Y-102599901D01*
X208936365Y-102582210D01*
X209365602Y-102152974D01*
X209236523Y-102059195D01*
X209082248Y-101980588D01*
X208917579Y-101927084D01*
X208746575Y-101900000D01*
X208573425Y-101900000D01*
X208402420Y-101927084D01*
X208237751Y-101980588D01*
X208083481Y-102059192D01*
X207954397Y-102152975D01*
X208383632Y-102582210D01*
X208352993Y-102599901D01*
X208259901Y-102692993D01*
X208242210Y-102723632D01*
X207812975Y-102294397D01*
X207719192Y-102423481D01*
X207640588Y-102577751D01*
X207587084Y-102742420D01*
X207560000Y-102913424D01*
X207220500Y-102913424D01*
X207220500Y-102913385D01*
X207193402Y-102742297D01*
X207193401Y-102742293D01*
X207139876Y-102577561D01*
X207139874Y-102577558D01*
X207139873Y-102577557D01*
X207139873Y-102577555D01*
X207061232Y-102423212D01*
X206959414Y-102283072D01*
X206836928Y-102160586D01*
X206696788Y-102058768D01*
X206696787Y-102058767D01*
X206696785Y-102058766D01*
X206542441Y-101980125D01*
X206542438Y-101980123D01*
X206377706Y-101926598D01*
X206377702Y-101926597D01*
X206206614Y-101899500D01*
X206206611Y-101899500D01*
X206033389Y-101899500D01*
X206033386Y-101899500D01*
X205862297Y-101926597D01*
X205862293Y-101926598D01*
X205697561Y-101980123D01*
X205697558Y-101980125D01*
X205543214Y-102058766D01*
X205403073Y-102160585D01*
X205280585Y-102283073D01*
X205178766Y-102423214D01*
X205100125Y-102577558D01*
X205100123Y-102577561D01*
X205046598Y-102742293D01*
X205046597Y-102742297D01*
X205019500Y-102913385D01*
X197160500Y-102913385D01*
X197160500Y-102905515D01*
X197130941Y-102718886D01*
X197092280Y-102599901D01*
X197072547Y-102539168D01*
X196986760Y-102370801D01*
X196875690Y-102217927D01*
X196742073Y-102084310D01*
X196589199Y-101973240D01*
X196589198Y-101973239D01*
X196589196Y-101973238D01*
X196420832Y-101887453D01*
X196241113Y-101829058D01*
X196054484Y-101799500D01*
X196054481Y-101799500D01*
X195865519Y-101799500D01*
X195865516Y-101799500D01*
X195678886Y-101829058D01*
X195499167Y-101887453D01*
X195330803Y-101973238D01*
X195177928Y-102084309D01*
X195044309Y-102217928D01*
X194933238Y-102370803D01*
X194847453Y-102539167D01*
X194789058Y-102718886D01*
X194759500Y-102905515D01*
X189540500Y-102905515D01*
X189510941Y-102718886D01*
X189472280Y-102599901D01*
X189452547Y-102539168D01*
X189366760Y-102370801D01*
X189366758Y-102370797D01*
X189309407Y-102291860D01*
X189290500Y-102233670D01*
X189290500Y-96766327D01*
X189309405Y-96708139D01*
X189366760Y-96629199D01*
X189452547Y-96460832D01*
X189510940Y-96281118D01*
X189514668Y-96257579D01*
X189540500Y-96094484D01*
X189540500Y-95905515D01*
X194759500Y-95905515D01*
X194759500Y-96094484D01*
X194789058Y-96281113D01*
X194847453Y-96460832D01*
X194914626Y-96592668D01*
X194933240Y-96629199D01*
X195044310Y-96782073D01*
X195177927Y-96915690D01*
X195330801Y-97026760D01*
X195499168Y-97112547D01*
X195678882Y-97170940D01*
X195678883Y-97170940D01*
X195678886Y-97170941D01*
X195865516Y-97200500D01*
X195865519Y-97200500D01*
X196054484Y-97200500D01*
X196241113Y-97170941D01*
X196241114Y-97170940D01*
X196241118Y-97170940D01*
X196420832Y-97112547D01*
X196589199Y-97026760D01*
X196742073Y-96915690D01*
X196875690Y-96782073D01*
X196986760Y-96629199D01*
X197072547Y-96460832D01*
X197130940Y-96281118D01*
X197134668Y-96257579D01*
X197160500Y-96094484D01*
X197160500Y-95913385D01*
X205019500Y-95913385D01*
X205019500Y-96086614D01*
X205046597Y-96257702D01*
X205046598Y-96257706D01*
X205100123Y-96422438D01*
X205100125Y-96422441D01*
X205178635Y-96576528D01*
X205178768Y-96576788D01*
X205280586Y-96716928D01*
X205403072Y-96839414D01*
X205543212Y-96941232D01*
X205697555Y-97019873D01*
X205697557Y-97019873D01*
X205697558Y-97019874D01*
X205697561Y-97019876D01*
X205862293Y-97073401D01*
X205862297Y-97073402D01*
X206033386Y-97100500D01*
X206033389Y-97100500D01*
X206206614Y-97100500D01*
X206377702Y-97073402D01*
X206377706Y-97073401D01*
X206542438Y-97019876D01*
X206542440Y-97019874D01*
X206542445Y-97019873D01*
X206696788Y-96941232D01*
X206836928Y-96839414D01*
X206959414Y-96716928D01*
X207061232Y-96576788D01*
X207139873Y-96422445D01*
X207139874Y-96422440D01*
X207139876Y-96422438D01*
X207193401Y-96257706D01*
X207193402Y-96257702D01*
X207220500Y-96086614D01*
X207220500Y-95913424D01*
X207560000Y-95913424D01*
X207560000Y-96086575D01*
X207587084Y-96257579D01*
X207640588Y-96422248D01*
X207719195Y-96576523D01*
X207812974Y-96705602D01*
X208242210Y-96276365D01*
X208259901Y-96307007D01*
X208352993Y-96400099D01*
X208383631Y-96417788D01*
X207954396Y-96847024D01*
X208083471Y-96940801D01*
X208083475Y-96940804D01*
X208237751Y-97019411D01*
X208402420Y-97072915D01*
X208573425Y-97100000D01*
X208746575Y-97100000D01*
X208917579Y-97072915D01*
X209082248Y-97019411D01*
X209236524Y-96940804D01*
X209236528Y-96940802D01*
X209365602Y-96847024D01*
X208936367Y-96417789D01*
X208967007Y-96400099D01*
X209060099Y-96307007D01*
X209077789Y-96276367D01*
X209507024Y-96705602D01*
X209600802Y-96576528D01*
X209600804Y-96576524D01*
X209679411Y-96422248D01*
X209732915Y-96257579D01*
X209760000Y-96086575D01*
X209760000Y-95913424D01*
X209732915Y-95742420D01*
X209679411Y-95577751D01*
X209600804Y-95423475D01*
X209600801Y-95423471D01*
X209507024Y-95294396D01*
X209077788Y-95723631D01*
X209060099Y-95692993D01*
X208967007Y-95599901D01*
X208936365Y-95582210D01*
X209365602Y-95152974D01*
X209236523Y-95059195D01*
X209082248Y-94980588D01*
X208917579Y-94927084D01*
X208746575Y-94900000D01*
X208573425Y-94900000D01*
X208402420Y-94927084D01*
X208237751Y-94980588D01*
X208083481Y-95059192D01*
X207954397Y-95152975D01*
X208383632Y-95582210D01*
X208352993Y-95599901D01*
X208259901Y-95692993D01*
X208242210Y-95723632D01*
X207812975Y-95294397D01*
X207719192Y-95423481D01*
X207640588Y-95577751D01*
X207587084Y-95742420D01*
X207560000Y-95913424D01*
X207220500Y-95913424D01*
X207220500Y-95913385D01*
X207193402Y-95742297D01*
X207193401Y-95742293D01*
X207139876Y-95577561D01*
X207139874Y-95577558D01*
X207139873Y-95577557D01*
X207139873Y-95577555D01*
X207061232Y-95423212D01*
X206959414Y-95283072D01*
X206836928Y-95160586D01*
X206696788Y-95058768D01*
X206696787Y-95058767D01*
X206696785Y-95058766D01*
X206542441Y-94980125D01*
X206542438Y-94980123D01*
X206377706Y-94926598D01*
X206377702Y-94926597D01*
X206206614Y-94899500D01*
X206206611Y-94899500D01*
X206033389Y-94899500D01*
X206033386Y-94899500D01*
X205862297Y-94926597D01*
X205862293Y-94926598D01*
X205697561Y-94980123D01*
X205697558Y-94980125D01*
X205543214Y-95058766D01*
X205403073Y-95160585D01*
X205280585Y-95283073D01*
X205178766Y-95423214D01*
X205100125Y-95577558D01*
X205100123Y-95577561D01*
X205046598Y-95742293D01*
X205046597Y-95742297D01*
X205019500Y-95913385D01*
X197160500Y-95913385D01*
X197160500Y-95905515D01*
X197130941Y-95718886D01*
X197085083Y-95577751D01*
X197072547Y-95539168D01*
X196986760Y-95370801D01*
X196875690Y-95217927D01*
X196742073Y-95084310D01*
X196589199Y-94973240D01*
X196589198Y-94973239D01*
X196589196Y-94973238D01*
X196420832Y-94887453D01*
X196241113Y-94829058D01*
X196054484Y-94799500D01*
X196054481Y-94799500D01*
X195865519Y-94799500D01*
X195865516Y-94799500D01*
X195678886Y-94829058D01*
X195499167Y-94887453D01*
X195330803Y-94973238D01*
X195177928Y-95084309D01*
X195044309Y-95217928D01*
X194933238Y-95370803D01*
X194847453Y-95539167D01*
X194789058Y-95718886D01*
X194759500Y-95905515D01*
X189540500Y-95905515D01*
X189510941Y-95718886D01*
X189465083Y-95577751D01*
X189452547Y-95539168D01*
X189366760Y-95370801D01*
X189366758Y-95370797D01*
X189309407Y-95291860D01*
X189290500Y-95233670D01*
X189290500Y-89766327D01*
X189309405Y-89708139D01*
X189366760Y-89629199D01*
X189452547Y-89460832D01*
X189510940Y-89281118D01*
X189514668Y-89257579D01*
X189540500Y-89094484D01*
X189540500Y-88905515D01*
X194759500Y-88905515D01*
X194759500Y-89094484D01*
X194789058Y-89281113D01*
X194847453Y-89460832D01*
X194906533Y-89576785D01*
X194933240Y-89629199D01*
X195044310Y-89782073D01*
X195177927Y-89915690D01*
X195330801Y-90026760D01*
X195499168Y-90112547D01*
X195678882Y-90170940D01*
X195678883Y-90170940D01*
X195678886Y-90170941D01*
X195865516Y-90200500D01*
X195865519Y-90200500D01*
X196054484Y-90200500D01*
X196241113Y-90170941D01*
X196241114Y-90170940D01*
X196241118Y-90170940D01*
X196420832Y-90112547D01*
X196589199Y-90026760D01*
X196742073Y-89915690D01*
X196875690Y-89782073D01*
X196986760Y-89629199D01*
X197072547Y-89460832D01*
X197130940Y-89281118D01*
X197134668Y-89257579D01*
X197160500Y-89094484D01*
X197160500Y-88913385D01*
X205019500Y-88913385D01*
X205019500Y-89086614D01*
X205046597Y-89257702D01*
X205046598Y-89257706D01*
X205100123Y-89422438D01*
X205100125Y-89422441D01*
X205178635Y-89576528D01*
X205178768Y-89576788D01*
X205280586Y-89716928D01*
X205403072Y-89839414D01*
X205543212Y-89941232D01*
X205697555Y-90019873D01*
X205697557Y-90019873D01*
X205697558Y-90019874D01*
X205697561Y-90019876D01*
X205862293Y-90073401D01*
X205862297Y-90073402D01*
X206033386Y-90100500D01*
X206033389Y-90100500D01*
X206206614Y-90100500D01*
X206377702Y-90073402D01*
X206377706Y-90073401D01*
X206542438Y-90019876D01*
X206542440Y-90019874D01*
X206542445Y-90019873D01*
X206696788Y-89941232D01*
X206836928Y-89839414D01*
X206959414Y-89716928D01*
X207061232Y-89576788D01*
X207139873Y-89422445D01*
X207139874Y-89422440D01*
X207139876Y-89422438D01*
X207193401Y-89257706D01*
X207193402Y-89257702D01*
X207220500Y-89086614D01*
X207220500Y-88913424D01*
X207560000Y-88913424D01*
X207560000Y-89086575D01*
X207587084Y-89257579D01*
X207640588Y-89422248D01*
X207719195Y-89576523D01*
X207812974Y-89705602D01*
X208242210Y-89276365D01*
X208259901Y-89307007D01*
X208352993Y-89400099D01*
X208383631Y-89417788D01*
X207954396Y-89847024D01*
X208083471Y-89940801D01*
X208083475Y-89940804D01*
X208237751Y-90019411D01*
X208402420Y-90072915D01*
X208573425Y-90100000D01*
X208746575Y-90100000D01*
X208917579Y-90072915D01*
X209082248Y-90019411D01*
X209236524Y-89940804D01*
X209236528Y-89940802D01*
X209365602Y-89847024D01*
X208936367Y-89417789D01*
X208967007Y-89400099D01*
X209060099Y-89307007D01*
X209077789Y-89276367D01*
X209507024Y-89705602D01*
X209600802Y-89576528D01*
X209600804Y-89576524D01*
X209679411Y-89422248D01*
X209732915Y-89257579D01*
X209760000Y-89086575D01*
X209760000Y-88913424D01*
X209732915Y-88742420D01*
X209679411Y-88577751D01*
X209600804Y-88423475D01*
X209600801Y-88423471D01*
X209507024Y-88294396D01*
X209077788Y-88723631D01*
X209060099Y-88692993D01*
X208967007Y-88599901D01*
X208936365Y-88582210D01*
X209365602Y-88152974D01*
X209236523Y-88059195D01*
X209082248Y-87980588D01*
X208917579Y-87927084D01*
X208746575Y-87900000D01*
X208573425Y-87900000D01*
X208402420Y-87927084D01*
X208237751Y-87980588D01*
X208083481Y-88059192D01*
X207954397Y-88152975D01*
X208383632Y-88582210D01*
X208352993Y-88599901D01*
X208259901Y-88692993D01*
X208242210Y-88723632D01*
X207812975Y-88294397D01*
X207719192Y-88423481D01*
X207640588Y-88577751D01*
X207587084Y-88742420D01*
X207560000Y-88913424D01*
X207220500Y-88913424D01*
X207220500Y-88913385D01*
X207193402Y-88742297D01*
X207193401Y-88742293D01*
X207139876Y-88577561D01*
X207139874Y-88577558D01*
X207139873Y-88577557D01*
X207139873Y-88577555D01*
X207061232Y-88423212D01*
X206959414Y-88283072D01*
X206836928Y-88160586D01*
X206696788Y-88058768D01*
X206696787Y-88058767D01*
X206696785Y-88058766D01*
X206542441Y-87980125D01*
X206542438Y-87980123D01*
X206377706Y-87926598D01*
X206377702Y-87926597D01*
X206206614Y-87899500D01*
X206206611Y-87899500D01*
X206033389Y-87899500D01*
X206033386Y-87899500D01*
X205862297Y-87926597D01*
X205862293Y-87926598D01*
X205697561Y-87980123D01*
X205697558Y-87980125D01*
X205543214Y-88058766D01*
X205403073Y-88160585D01*
X205280585Y-88283073D01*
X205178766Y-88423214D01*
X205100125Y-88577558D01*
X205100123Y-88577561D01*
X205046598Y-88742293D01*
X205046597Y-88742297D01*
X205019500Y-88913385D01*
X197160500Y-88913385D01*
X197160500Y-88905515D01*
X197130941Y-88718886D01*
X197085083Y-88577751D01*
X197072547Y-88539168D01*
X196986760Y-88370801D01*
X196875690Y-88217927D01*
X196742073Y-88084310D01*
X196589199Y-87973240D01*
X196589198Y-87973239D01*
X196589196Y-87973238D01*
X196420832Y-87887453D01*
X196241113Y-87829058D01*
X196054484Y-87799500D01*
X196054481Y-87799500D01*
X195865519Y-87799500D01*
X195865516Y-87799500D01*
X195678886Y-87829058D01*
X195499167Y-87887453D01*
X195330803Y-87973238D01*
X195177928Y-88084309D01*
X195044309Y-88217928D01*
X194933238Y-88370803D01*
X194847453Y-88539167D01*
X194789058Y-88718886D01*
X194759500Y-88905515D01*
X189540500Y-88905515D01*
X189510941Y-88718886D01*
X189465083Y-88577751D01*
X189452547Y-88539168D01*
X189366760Y-88370801D01*
X189366758Y-88370797D01*
X189309407Y-88291860D01*
X189290500Y-88233670D01*
X189290500Y-82766327D01*
X189309405Y-82708139D01*
X189366760Y-82629199D01*
X189452547Y-82460832D01*
X189510940Y-82281118D01*
X189514668Y-82257579D01*
X189540500Y-82094484D01*
X189540500Y-81905515D01*
X194759500Y-81905515D01*
X194759500Y-82094484D01*
X194789058Y-82281113D01*
X194847453Y-82460832D01*
X194911614Y-82586757D01*
X194933240Y-82629199D01*
X195044310Y-82782073D01*
X195177927Y-82915690D01*
X195330801Y-83026760D01*
X195499168Y-83112547D01*
X195678882Y-83170940D01*
X195678883Y-83170940D01*
X195678886Y-83170941D01*
X195865516Y-83200500D01*
X195865519Y-83200500D01*
X196054484Y-83200500D01*
X196241113Y-83170941D01*
X196241114Y-83170940D01*
X196241118Y-83170940D01*
X196420832Y-83112547D01*
X196589199Y-83026760D01*
X196742073Y-82915690D01*
X196875690Y-82782073D01*
X196986760Y-82629199D01*
X197072547Y-82460832D01*
X197130940Y-82281118D01*
X197134668Y-82257579D01*
X197160500Y-82094484D01*
X197160500Y-81913385D01*
X205019500Y-81913385D01*
X205019500Y-82086614D01*
X205046597Y-82257702D01*
X205046598Y-82257706D01*
X205100123Y-82422438D01*
X205100125Y-82422441D01*
X205178635Y-82576528D01*
X205178768Y-82576788D01*
X205280586Y-82716928D01*
X205403072Y-82839414D01*
X205543212Y-82941232D01*
X205697555Y-83019873D01*
X205697557Y-83019873D01*
X205697558Y-83019874D01*
X205697561Y-83019876D01*
X205862293Y-83073401D01*
X205862297Y-83073402D01*
X206033386Y-83100500D01*
X206033389Y-83100500D01*
X206206614Y-83100500D01*
X206377702Y-83073402D01*
X206377706Y-83073401D01*
X206542438Y-83019876D01*
X206542440Y-83019874D01*
X206542445Y-83019873D01*
X206696788Y-82941232D01*
X206836928Y-82839414D01*
X206959414Y-82716928D01*
X207061232Y-82576788D01*
X207139873Y-82422445D01*
X207139874Y-82422440D01*
X207139876Y-82422438D01*
X207193401Y-82257706D01*
X207193402Y-82257702D01*
X207220500Y-82086614D01*
X207220500Y-81913424D01*
X207560000Y-81913424D01*
X207560000Y-82086575D01*
X207587084Y-82257579D01*
X207640588Y-82422248D01*
X207719195Y-82576523D01*
X207812974Y-82705602D01*
X208242210Y-82276365D01*
X208259901Y-82307007D01*
X208352993Y-82400099D01*
X208383631Y-82417788D01*
X207954396Y-82847024D01*
X208083471Y-82940801D01*
X208083475Y-82940804D01*
X208237751Y-83019411D01*
X208402420Y-83072915D01*
X208573425Y-83100000D01*
X208746575Y-83100000D01*
X208917579Y-83072915D01*
X209082248Y-83019411D01*
X209236524Y-82940804D01*
X209236528Y-82940802D01*
X209365602Y-82847024D01*
X208936367Y-82417789D01*
X208967007Y-82400099D01*
X209060099Y-82307007D01*
X209077789Y-82276367D01*
X209507024Y-82705602D01*
X209600802Y-82576528D01*
X209600804Y-82576524D01*
X209679411Y-82422248D01*
X209732915Y-82257579D01*
X209760000Y-82086575D01*
X209760000Y-81913424D01*
X209732915Y-81742420D01*
X209679411Y-81577751D01*
X209600804Y-81423475D01*
X209600801Y-81423471D01*
X209507024Y-81294396D01*
X209077788Y-81723631D01*
X209060099Y-81692993D01*
X208967007Y-81599901D01*
X208936365Y-81582210D01*
X209365602Y-81152974D01*
X209236523Y-81059195D01*
X209082248Y-80980588D01*
X208917579Y-80927084D01*
X208746575Y-80900000D01*
X208573425Y-80900000D01*
X208402420Y-80927084D01*
X208237751Y-80980588D01*
X208083481Y-81059192D01*
X207954397Y-81152975D01*
X208383632Y-81582210D01*
X208352993Y-81599901D01*
X208259901Y-81692993D01*
X208242210Y-81723632D01*
X207812975Y-81294397D01*
X207719192Y-81423481D01*
X207640588Y-81577751D01*
X207587084Y-81742420D01*
X207560000Y-81913424D01*
X207220500Y-81913424D01*
X207220500Y-81913385D01*
X207193402Y-81742297D01*
X207193401Y-81742293D01*
X207139876Y-81577561D01*
X207139874Y-81577558D01*
X207139873Y-81577557D01*
X207139873Y-81577555D01*
X207061232Y-81423212D01*
X206959414Y-81283072D01*
X206836928Y-81160586D01*
X206696788Y-81058768D01*
X206696787Y-81058767D01*
X206696785Y-81058766D01*
X206542441Y-80980125D01*
X206542438Y-80980123D01*
X206377706Y-80926598D01*
X206377702Y-80926597D01*
X206206614Y-80899500D01*
X206206611Y-80899500D01*
X206033389Y-80899500D01*
X206033386Y-80899500D01*
X205862297Y-80926597D01*
X205862293Y-80926598D01*
X205697561Y-80980123D01*
X205697558Y-80980125D01*
X205543214Y-81058766D01*
X205403073Y-81160585D01*
X205280585Y-81283073D01*
X205178766Y-81423214D01*
X205100125Y-81577558D01*
X205100123Y-81577561D01*
X205046598Y-81742293D01*
X205046597Y-81742297D01*
X205019500Y-81913385D01*
X197160500Y-81913385D01*
X197160500Y-81905515D01*
X197130941Y-81718886D01*
X197107634Y-81647154D01*
X197072547Y-81539168D01*
X196986760Y-81370801D01*
X196875690Y-81217927D01*
X196742073Y-81084310D01*
X196589199Y-80973240D01*
X196589198Y-80973239D01*
X196589196Y-80973238D01*
X196420832Y-80887453D01*
X196241113Y-80829058D01*
X196054484Y-80799500D01*
X196054481Y-80799500D01*
X195865519Y-80799500D01*
X195865516Y-80799500D01*
X195678886Y-80829058D01*
X195499167Y-80887453D01*
X195330803Y-80973238D01*
X195177928Y-81084309D01*
X195044309Y-81217928D01*
X194933238Y-81370803D01*
X194847453Y-81539167D01*
X194789058Y-81718886D01*
X194759500Y-81905515D01*
X189540500Y-81905515D01*
X189510941Y-81718886D01*
X189487634Y-81647154D01*
X189452547Y-81539168D01*
X189366760Y-81370801D01*
X189366758Y-81370797D01*
X189309407Y-81291860D01*
X189290500Y-81233670D01*
X189290500Y-75716327D01*
X189309405Y-75658139D01*
X189366760Y-75579199D01*
X189452547Y-75410832D01*
X189510940Y-75231118D01*
X189519828Y-75175000D01*
X189540500Y-75044484D01*
X189540500Y-74855515D01*
X194759500Y-74855515D01*
X194759500Y-75044484D01*
X194789058Y-75231113D01*
X194847453Y-75410832D01*
X194918190Y-75549663D01*
X194933240Y-75579199D01*
X195044310Y-75732073D01*
X195177927Y-75865690D01*
X195330801Y-75976760D01*
X195499168Y-76062547D01*
X195678882Y-76120940D01*
X195678883Y-76120940D01*
X195678886Y-76120941D01*
X195865516Y-76150500D01*
X195865519Y-76150500D01*
X196054484Y-76150500D01*
X196241113Y-76120941D01*
X196241114Y-76120940D01*
X196241118Y-76120940D01*
X196420832Y-76062547D01*
X196589199Y-75976760D01*
X196742073Y-75865690D01*
X196875690Y-75732073D01*
X196986760Y-75579199D01*
X197072547Y-75410832D01*
X197130940Y-75231118D01*
X197139828Y-75175000D01*
X197160500Y-75044484D01*
X197160500Y-74863385D01*
X205019500Y-74863385D01*
X205019500Y-75036614D01*
X205046597Y-75207702D01*
X205046598Y-75207706D01*
X205100123Y-75372438D01*
X205100125Y-75372441D01*
X205178635Y-75526528D01*
X205178768Y-75526788D01*
X205280586Y-75666928D01*
X205403072Y-75789414D01*
X205543212Y-75891232D01*
X205697555Y-75969873D01*
X205697557Y-75969873D01*
X205697558Y-75969874D01*
X205697561Y-75969876D01*
X205862293Y-76023401D01*
X205862297Y-76023402D01*
X206033386Y-76050500D01*
X206033389Y-76050500D01*
X206206614Y-76050500D01*
X206377702Y-76023402D01*
X206377706Y-76023401D01*
X206542438Y-75969876D01*
X206542440Y-75969874D01*
X206542445Y-75969873D01*
X206696788Y-75891232D01*
X206836928Y-75789414D01*
X206959414Y-75666928D01*
X207061232Y-75526788D01*
X207139873Y-75372445D01*
X207139874Y-75372440D01*
X207139876Y-75372438D01*
X207193401Y-75207706D01*
X207193402Y-75207702D01*
X207220500Y-75036614D01*
X207220500Y-74863424D01*
X207560000Y-74863424D01*
X207560000Y-75036575D01*
X207587084Y-75207579D01*
X207640588Y-75372248D01*
X207719195Y-75526523D01*
X207812974Y-75655602D01*
X208242210Y-75226365D01*
X208259901Y-75257007D01*
X208352993Y-75350099D01*
X208383631Y-75367788D01*
X207954396Y-75797024D01*
X208083471Y-75890801D01*
X208083475Y-75890804D01*
X208237751Y-75969411D01*
X208402420Y-76022915D01*
X208573425Y-76050000D01*
X208746575Y-76050000D01*
X208917579Y-76022915D01*
X209082248Y-75969411D01*
X209236524Y-75890804D01*
X209236528Y-75890802D01*
X209365602Y-75797024D01*
X208936367Y-75367789D01*
X208967007Y-75350099D01*
X209060099Y-75257007D01*
X209077789Y-75226367D01*
X209507024Y-75655602D01*
X209600802Y-75526528D01*
X209600804Y-75526524D01*
X209679411Y-75372248D01*
X209732915Y-75207579D01*
X209760000Y-75036575D01*
X209760000Y-74863424D01*
X209732915Y-74692420D01*
X209679411Y-74527751D01*
X209600804Y-74373475D01*
X209600801Y-74373471D01*
X209507024Y-74244396D01*
X209077788Y-74673631D01*
X209060099Y-74642993D01*
X208967007Y-74549901D01*
X208936365Y-74532210D01*
X209365602Y-74102974D01*
X209236523Y-74009195D01*
X209082248Y-73930588D01*
X208917579Y-73877084D01*
X208746575Y-73850000D01*
X208573425Y-73850000D01*
X208402420Y-73877084D01*
X208237751Y-73930588D01*
X208083481Y-74009192D01*
X207954397Y-74102975D01*
X208383632Y-74532210D01*
X208352993Y-74549901D01*
X208259901Y-74642993D01*
X208242210Y-74673632D01*
X207812975Y-74244397D01*
X207719192Y-74373481D01*
X207640588Y-74527751D01*
X207587084Y-74692420D01*
X207560000Y-74863424D01*
X207220500Y-74863424D01*
X207220500Y-74863385D01*
X207193402Y-74692297D01*
X207193401Y-74692293D01*
X207139876Y-74527561D01*
X207139874Y-74527558D01*
X207139873Y-74527557D01*
X207139873Y-74527555D01*
X207061232Y-74373212D01*
X206959414Y-74233072D01*
X206836928Y-74110586D01*
X206696788Y-74008768D01*
X206696787Y-74008767D01*
X206696785Y-74008766D01*
X206542441Y-73930125D01*
X206542438Y-73930123D01*
X206377706Y-73876598D01*
X206377702Y-73876597D01*
X206206614Y-73849500D01*
X206206611Y-73849500D01*
X206033389Y-73849500D01*
X206033386Y-73849500D01*
X205862297Y-73876597D01*
X205862293Y-73876598D01*
X205697561Y-73930123D01*
X205697558Y-73930125D01*
X205543214Y-74008766D01*
X205403073Y-74110585D01*
X205280585Y-74233073D01*
X205178766Y-74373214D01*
X205100125Y-74527558D01*
X205100123Y-74527561D01*
X205046598Y-74692293D01*
X205046597Y-74692297D01*
X205019500Y-74863385D01*
X197160500Y-74863385D01*
X197160500Y-74855515D01*
X197130941Y-74668886D01*
X197108395Y-74599496D01*
X197072547Y-74489168D01*
X196986760Y-74320801D01*
X196875690Y-74167927D01*
X196742073Y-74034310D01*
X196589199Y-73923240D01*
X196589198Y-73923239D01*
X196589196Y-73923238D01*
X196420832Y-73837453D01*
X196241113Y-73779058D01*
X196054484Y-73749500D01*
X196054481Y-73749500D01*
X195865519Y-73749500D01*
X195865516Y-73749500D01*
X195678886Y-73779058D01*
X195499167Y-73837453D01*
X195330803Y-73923238D01*
X195177928Y-74034309D01*
X195044309Y-74167928D01*
X194933238Y-74320803D01*
X194847453Y-74489167D01*
X194789058Y-74668886D01*
X194759500Y-74855515D01*
X189540500Y-74855515D01*
X189510941Y-74668886D01*
X189488395Y-74599496D01*
X189452547Y-74489168D01*
X189366760Y-74320801D01*
X189366758Y-74320797D01*
X189309407Y-74241860D01*
X189290500Y-74183670D01*
X189290500Y-68666327D01*
X189309405Y-68608139D01*
X189366760Y-68529199D01*
X189452547Y-68360832D01*
X189510940Y-68181118D01*
X189523867Y-68099499D01*
X189540500Y-67994484D01*
X189540500Y-67805515D01*
X194759500Y-67805515D01*
X194759500Y-67994484D01*
X194789058Y-68181113D01*
X194847453Y-68360832D01*
X194913088Y-68489650D01*
X194933240Y-68529199D01*
X195044310Y-68682073D01*
X195177927Y-68815690D01*
X195330801Y-68926760D01*
X195499168Y-69012547D01*
X195678882Y-69070940D01*
X195678883Y-69070940D01*
X195678886Y-69070941D01*
X195865516Y-69100500D01*
X195865519Y-69100500D01*
X196054484Y-69100500D01*
X196241113Y-69070941D01*
X196241114Y-69070940D01*
X196241118Y-69070940D01*
X196420832Y-69012547D01*
X196589199Y-68926760D01*
X196742073Y-68815690D01*
X196875690Y-68682073D01*
X196986760Y-68529199D01*
X197072547Y-68360832D01*
X197130940Y-68181118D01*
X197143867Y-68099499D01*
X197160500Y-67994484D01*
X197160500Y-67813385D01*
X205019500Y-67813385D01*
X205019500Y-67986614D01*
X205046597Y-68157702D01*
X205046598Y-68157706D01*
X205100123Y-68322438D01*
X205100125Y-68322441D01*
X205178635Y-68476528D01*
X205178768Y-68476788D01*
X205280586Y-68616928D01*
X205403072Y-68739414D01*
X205543212Y-68841232D01*
X205697555Y-68919873D01*
X205697557Y-68919873D01*
X205697558Y-68919874D01*
X205697561Y-68919876D01*
X205862293Y-68973401D01*
X205862297Y-68973402D01*
X206033386Y-69000500D01*
X206033389Y-69000500D01*
X206206614Y-69000500D01*
X206377702Y-68973402D01*
X206377706Y-68973401D01*
X206542438Y-68919876D01*
X206542440Y-68919874D01*
X206542445Y-68919873D01*
X206696788Y-68841232D01*
X206836928Y-68739414D01*
X206959414Y-68616928D01*
X207061232Y-68476788D01*
X207139873Y-68322445D01*
X207139874Y-68322440D01*
X207139876Y-68322438D01*
X207193401Y-68157706D01*
X207193402Y-68157702D01*
X207220500Y-67986614D01*
X207220500Y-67813424D01*
X207560000Y-67813424D01*
X207560000Y-67986575D01*
X207587084Y-68157579D01*
X207640588Y-68322248D01*
X207719195Y-68476523D01*
X207812974Y-68605602D01*
X208242210Y-68176365D01*
X208259901Y-68207007D01*
X208352993Y-68300099D01*
X208383631Y-68317788D01*
X207954396Y-68747024D01*
X208083471Y-68840801D01*
X208083475Y-68840804D01*
X208237751Y-68919411D01*
X208402420Y-68972915D01*
X208573425Y-69000000D01*
X208746575Y-69000000D01*
X208917579Y-68972915D01*
X209082248Y-68919411D01*
X209236524Y-68840804D01*
X209236528Y-68840802D01*
X209365602Y-68747024D01*
X208936367Y-68317789D01*
X208967007Y-68300099D01*
X209060099Y-68207007D01*
X209077789Y-68176367D01*
X209507024Y-68605602D01*
X209600802Y-68476528D01*
X209600804Y-68476524D01*
X209679411Y-68322248D01*
X209732915Y-68157579D01*
X209760000Y-67986575D01*
X209760000Y-67813424D01*
X209732915Y-67642420D01*
X209679411Y-67477751D01*
X209600804Y-67323475D01*
X209600801Y-67323471D01*
X209507024Y-67194396D01*
X209077788Y-67623631D01*
X209060099Y-67592993D01*
X208967007Y-67499901D01*
X208936365Y-67482210D01*
X209365602Y-67052974D01*
X209236523Y-66959195D01*
X209082248Y-66880588D01*
X208917579Y-66827084D01*
X208746575Y-66800000D01*
X208573425Y-66800000D01*
X208402420Y-66827084D01*
X208237751Y-66880588D01*
X208083481Y-66959192D01*
X207954397Y-67052975D01*
X208383632Y-67482210D01*
X208352993Y-67499901D01*
X208259901Y-67592993D01*
X208242210Y-67623632D01*
X207812975Y-67194397D01*
X207719192Y-67323481D01*
X207640588Y-67477751D01*
X207587084Y-67642420D01*
X207560000Y-67813424D01*
X207220500Y-67813424D01*
X207220500Y-67813385D01*
X207193402Y-67642297D01*
X207193401Y-67642293D01*
X207139876Y-67477561D01*
X207139874Y-67477558D01*
X207139873Y-67477557D01*
X207139873Y-67477555D01*
X207061232Y-67323212D01*
X206959414Y-67183072D01*
X206836928Y-67060586D01*
X206696788Y-66958768D01*
X206696787Y-66958767D01*
X206696785Y-66958766D01*
X206542441Y-66880125D01*
X206542438Y-66880123D01*
X206377706Y-66826598D01*
X206377702Y-66826597D01*
X206206614Y-66799500D01*
X206206611Y-66799500D01*
X206033389Y-66799500D01*
X206033386Y-66799500D01*
X205862297Y-66826597D01*
X205862293Y-66826598D01*
X205697561Y-66880123D01*
X205697558Y-66880125D01*
X205543214Y-66958766D01*
X205403073Y-67060585D01*
X205280585Y-67183073D01*
X205178766Y-67323214D01*
X205100125Y-67477558D01*
X205100123Y-67477561D01*
X205046598Y-67642293D01*
X205046597Y-67642297D01*
X205019500Y-67813385D01*
X197160500Y-67813385D01*
X197160500Y-67805515D01*
X197130941Y-67618886D01*
X197122592Y-67593190D01*
X197072547Y-67439168D01*
X196986760Y-67270801D01*
X196875690Y-67117927D01*
X196742073Y-66984310D01*
X196589199Y-66873240D01*
X196589198Y-66873239D01*
X196589196Y-66873238D01*
X196420832Y-66787453D01*
X196241113Y-66729058D01*
X196054484Y-66699500D01*
X196054481Y-66699500D01*
X195865519Y-66699500D01*
X195865516Y-66699500D01*
X195678886Y-66729058D01*
X195499167Y-66787453D01*
X195330803Y-66873238D01*
X195177928Y-66984309D01*
X195044309Y-67117928D01*
X194933238Y-67270803D01*
X194847453Y-67439167D01*
X194789058Y-67618886D01*
X194759500Y-67805515D01*
X189540500Y-67805515D01*
X189510941Y-67618886D01*
X189502592Y-67593190D01*
X189452547Y-67439168D01*
X189366760Y-67270801D01*
X189366758Y-67270797D01*
X189309407Y-67191860D01*
X189290500Y-67133670D01*
X189290500Y-61616327D01*
X189309405Y-61558139D01*
X189366760Y-61479199D01*
X189452547Y-61310832D01*
X189510940Y-61131118D01*
X189519185Y-61079060D01*
X189540500Y-60944484D01*
X189540500Y-60755515D01*
X194759500Y-60755515D01*
X194759500Y-60944484D01*
X194789058Y-61131113D01*
X194847453Y-61310832D01*
X194927496Y-61467927D01*
X194933240Y-61479199D01*
X195044310Y-61632073D01*
X195177927Y-61765690D01*
X195330801Y-61876760D01*
X195499168Y-61962547D01*
X195678882Y-62020940D01*
X195678883Y-62020940D01*
X195678886Y-62020941D01*
X195865516Y-62050500D01*
X195865519Y-62050500D01*
X196054484Y-62050500D01*
X196241113Y-62020941D01*
X196241114Y-62020940D01*
X196241118Y-62020940D01*
X196420832Y-61962547D01*
X196589199Y-61876760D01*
X196742073Y-61765690D01*
X196875690Y-61632073D01*
X196986760Y-61479199D01*
X197072547Y-61310832D01*
X197130940Y-61131118D01*
X197139185Y-61079060D01*
X197160500Y-60944484D01*
X197160500Y-60763385D01*
X205019500Y-60763385D01*
X205019500Y-60936614D01*
X205046597Y-61107702D01*
X205046598Y-61107706D01*
X205100123Y-61272438D01*
X205100125Y-61272441D01*
X205178635Y-61426528D01*
X205178768Y-61426788D01*
X205280586Y-61566928D01*
X205403072Y-61689414D01*
X205543212Y-61791232D01*
X205697555Y-61869873D01*
X205697557Y-61869873D01*
X205697558Y-61869874D01*
X205697561Y-61869876D01*
X205862293Y-61923401D01*
X205862297Y-61923402D01*
X206033386Y-61950500D01*
X206033389Y-61950500D01*
X206206614Y-61950500D01*
X206377702Y-61923402D01*
X206377706Y-61923401D01*
X206542438Y-61869876D01*
X206542440Y-61869874D01*
X206542445Y-61869873D01*
X206696788Y-61791232D01*
X206836928Y-61689414D01*
X206959414Y-61566928D01*
X207061232Y-61426788D01*
X207139873Y-61272445D01*
X207139874Y-61272440D01*
X207139876Y-61272438D01*
X207193401Y-61107706D01*
X207193402Y-61107702D01*
X207220500Y-60936614D01*
X207220500Y-60763424D01*
X207560000Y-60763424D01*
X207560000Y-60936575D01*
X207587084Y-61107579D01*
X207640588Y-61272248D01*
X207719195Y-61426523D01*
X207812974Y-61555602D01*
X208242210Y-61126365D01*
X208259901Y-61157007D01*
X208352993Y-61250099D01*
X208383631Y-61267788D01*
X207954396Y-61697024D01*
X208083471Y-61790801D01*
X208083475Y-61790804D01*
X208237751Y-61869411D01*
X208402420Y-61922915D01*
X208573425Y-61950000D01*
X208746575Y-61950000D01*
X208917579Y-61922915D01*
X209082248Y-61869411D01*
X209236524Y-61790804D01*
X209236528Y-61790802D01*
X209365602Y-61697024D01*
X208936367Y-61267789D01*
X208967007Y-61250099D01*
X209060099Y-61157007D01*
X209077789Y-61126367D01*
X209507024Y-61555602D01*
X209600802Y-61426528D01*
X209600804Y-61426524D01*
X209679411Y-61272248D01*
X209732915Y-61107579D01*
X209760000Y-60936575D01*
X209760000Y-60763424D01*
X209732915Y-60592420D01*
X209679411Y-60427751D01*
X209600804Y-60273475D01*
X209600801Y-60273471D01*
X209507024Y-60144396D01*
X209077788Y-60573631D01*
X209060099Y-60542993D01*
X208967007Y-60449901D01*
X208936365Y-60432210D01*
X209365602Y-60002974D01*
X209236523Y-59909195D01*
X209082248Y-59830588D01*
X208917579Y-59777084D01*
X208746575Y-59750000D01*
X208573425Y-59750000D01*
X208402420Y-59777084D01*
X208237751Y-59830588D01*
X208083481Y-59909192D01*
X207954397Y-60002975D01*
X208383632Y-60432210D01*
X208352993Y-60449901D01*
X208259901Y-60542993D01*
X208242210Y-60573632D01*
X207812975Y-60144397D01*
X207719192Y-60273481D01*
X207640588Y-60427751D01*
X207587084Y-60592420D01*
X207560000Y-60763424D01*
X207220500Y-60763424D01*
X207220500Y-60763385D01*
X207193402Y-60592297D01*
X207193401Y-60592293D01*
X207139876Y-60427561D01*
X207139874Y-60427558D01*
X207139873Y-60427557D01*
X207139873Y-60427555D01*
X207061232Y-60273212D01*
X206959414Y-60133072D01*
X206836928Y-60010586D01*
X206696788Y-59908768D01*
X206696787Y-59908767D01*
X206696785Y-59908766D01*
X206542441Y-59830125D01*
X206542438Y-59830123D01*
X206377706Y-59776598D01*
X206377702Y-59776597D01*
X206206614Y-59749500D01*
X206206611Y-59749500D01*
X206033389Y-59749500D01*
X206033386Y-59749500D01*
X205862297Y-59776597D01*
X205862293Y-59776598D01*
X205697561Y-59830123D01*
X205697558Y-59830125D01*
X205543214Y-59908766D01*
X205403073Y-60010585D01*
X205280585Y-60133073D01*
X205178766Y-60273214D01*
X205100125Y-60427558D01*
X205100123Y-60427561D01*
X205046598Y-60592293D01*
X205046597Y-60592297D01*
X205019500Y-60763385D01*
X197160500Y-60763385D01*
X197160500Y-60755515D01*
X197130941Y-60568886D01*
X197121413Y-60539562D01*
X197072547Y-60389168D01*
X196986760Y-60220801D01*
X196875690Y-60067927D01*
X196742073Y-59934310D01*
X196589199Y-59823240D01*
X196589198Y-59823239D01*
X196589196Y-59823238D01*
X196420832Y-59737453D01*
X196241113Y-59679058D01*
X196054484Y-59649500D01*
X196054481Y-59649500D01*
X195865519Y-59649500D01*
X195865516Y-59649500D01*
X195678886Y-59679058D01*
X195499167Y-59737453D01*
X195330803Y-59823238D01*
X195177928Y-59934309D01*
X195044309Y-60067928D01*
X194933238Y-60220803D01*
X194847453Y-60389167D01*
X194789058Y-60568886D01*
X194759500Y-60755515D01*
X189540500Y-60755515D01*
X189510941Y-60568886D01*
X189501413Y-60539562D01*
X189452547Y-60389168D01*
X189366760Y-60220801D01*
X189366758Y-60220797D01*
X189309407Y-60141860D01*
X189290500Y-60083670D01*
X189290500Y-54766327D01*
X189309405Y-54708139D01*
X189366760Y-54629199D01*
X189452547Y-54460832D01*
X189510940Y-54281118D01*
X189514668Y-54257579D01*
X189540500Y-54094484D01*
X189540500Y-53905515D01*
X194759500Y-53905515D01*
X194759500Y-54094484D01*
X194789058Y-54281113D01*
X194847453Y-54460832D01*
X194906533Y-54576785D01*
X194933240Y-54629199D01*
X195044310Y-54782073D01*
X195177927Y-54915690D01*
X195330801Y-55026760D01*
X195499168Y-55112547D01*
X195678882Y-55170940D01*
X195678883Y-55170940D01*
X195678886Y-55170941D01*
X195865516Y-55200500D01*
X195865519Y-55200500D01*
X196054484Y-55200500D01*
X196241113Y-55170941D01*
X196241114Y-55170940D01*
X196241118Y-55170940D01*
X196420832Y-55112547D01*
X196589199Y-55026760D01*
X196742073Y-54915690D01*
X196875690Y-54782073D01*
X196986760Y-54629199D01*
X197072547Y-54460832D01*
X197130940Y-54281118D01*
X197134668Y-54257579D01*
X197160500Y-54094484D01*
X197160500Y-53913385D01*
X205019500Y-53913385D01*
X205019500Y-54086614D01*
X205046597Y-54257702D01*
X205046598Y-54257706D01*
X205100123Y-54422438D01*
X205100125Y-54422441D01*
X205178635Y-54576528D01*
X205178768Y-54576788D01*
X205280586Y-54716928D01*
X205403072Y-54839414D01*
X205543212Y-54941232D01*
X205697555Y-55019873D01*
X205697557Y-55019873D01*
X205697558Y-55019874D01*
X205697561Y-55019876D01*
X205862293Y-55073401D01*
X205862297Y-55073402D01*
X206033386Y-55100500D01*
X206033389Y-55100500D01*
X206206614Y-55100500D01*
X206377702Y-55073402D01*
X206377706Y-55073401D01*
X206542438Y-55019876D01*
X206542440Y-55019874D01*
X206542445Y-55019873D01*
X206696788Y-54941232D01*
X206836928Y-54839414D01*
X206959414Y-54716928D01*
X207061232Y-54576788D01*
X207139873Y-54422445D01*
X207139874Y-54422440D01*
X207139876Y-54422438D01*
X207193401Y-54257706D01*
X207193402Y-54257702D01*
X207220500Y-54086614D01*
X207220500Y-53913424D01*
X207560000Y-53913424D01*
X207560000Y-54086575D01*
X207587084Y-54257579D01*
X207640588Y-54422248D01*
X207719195Y-54576523D01*
X207812974Y-54705602D01*
X208242210Y-54276365D01*
X208259901Y-54307007D01*
X208352993Y-54400099D01*
X208383631Y-54417788D01*
X207954396Y-54847024D01*
X208083471Y-54940801D01*
X208083475Y-54940804D01*
X208237751Y-55019411D01*
X208402420Y-55072915D01*
X208573425Y-55100000D01*
X208746575Y-55100000D01*
X208917579Y-55072915D01*
X209082248Y-55019411D01*
X209236524Y-54940804D01*
X209236528Y-54940802D01*
X209365602Y-54847024D01*
X208936367Y-54417789D01*
X208967007Y-54400099D01*
X209060099Y-54307007D01*
X209077789Y-54276367D01*
X209507024Y-54705602D01*
X209600802Y-54576528D01*
X209600804Y-54576524D01*
X209679411Y-54422248D01*
X209732915Y-54257579D01*
X209760000Y-54086575D01*
X209760000Y-53913424D01*
X209732915Y-53742420D01*
X209679411Y-53577751D01*
X209600804Y-53423475D01*
X209600801Y-53423471D01*
X209507024Y-53294396D01*
X209077788Y-53723631D01*
X209060099Y-53692993D01*
X208967007Y-53599901D01*
X208936365Y-53582210D01*
X209365602Y-53152974D01*
X209236523Y-53059195D01*
X209082248Y-52980588D01*
X208917579Y-52927084D01*
X208746575Y-52900000D01*
X208573425Y-52900000D01*
X208402420Y-52927084D01*
X208237751Y-52980588D01*
X208083481Y-53059192D01*
X207954397Y-53152975D01*
X208383632Y-53582210D01*
X208352993Y-53599901D01*
X208259901Y-53692993D01*
X208242210Y-53723632D01*
X207812975Y-53294397D01*
X207719192Y-53423481D01*
X207640588Y-53577751D01*
X207587084Y-53742420D01*
X207560000Y-53913424D01*
X207220500Y-53913424D01*
X207220500Y-53913385D01*
X207193402Y-53742297D01*
X207193401Y-53742293D01*
X207139876Y-53577561D01*
X207139874Y-53577558D01*
X207139873Y-53577557D01*
X207139873Y-53577555D01*
X207061232Y-53423212D01*
X206959414Y-53283072D01*
X206836928Y-53160586D01*
X206696788Y-53058768D01*
X206696787Y-53058767D01*
X206696785Y-53058766D01*
X206542441Y-52980125D01*
X206542438Y-52980123D01*
X206377706Y-52926598D01*
X206377702Y-52926597D01*
X206206614Y-52899500D01*
X206206611Y-52899500D01*
X206033389Y-52899500D01*
X206033386Y-52899500D01*
X205862297Y-52926597D01*
X205862293Y-52926598D01*
X205697561Y-52980123D01*
X205697558Y-52980125D01*
X205543214Y-53058766D01*
X205403073Y-53160585D01*
X205280585Y-53283073D01*
X205178766Y-53423214D01*
X205100125Y-53577558D01*
X205100123Y-53577561D01*
X205046598Y-53742293D01*
X205046597Y-53742297D01*
X205019500Y-53913385D01*
X197160500Y-53913385D01*
X197160500Y-53905515D01*
X197130941Y-53718886D01*
X197122528Y-53692993D01*
X197072547Y-53539168D01*
X196986760Y-53370801D01*
X196875690Y-53217927D01*
X196742073Y-53084310D01*
X196589199Y-52973240D01*
X196589198Y-52973239D01*
X196589196Y-52973238D01*
X196420832Y-52887453D01*
X196241113Y-52829058D01*
X196054484Y-52799500D01*
X196054481Y-52799500D01*
X195865519Y-52799500D01*
X195865516Y-52799500D01*
X195678886Y-52829058D01*
X195499167Y-52887453D01*
X195330803Y-52973238D01*
X195177928Y-53084309D01*
X195044309Y-53217928D01*
X194933238Y-53370803D01*
X194847453Y-53539167D01*
X194789058Y-53718886D01*
X194759500Y-53905515D01*
X189540500Y-53905515D01*
X189510941Y-53718886D01*
X189502528Y-53692993D01*
X189452547Y-53539168D01*
X189366760Y-53370801D01*
X189366758Y-53370797D01*
X189309407Y-53291860D01*
X189290500Y-53233670D01*
X189290500Y-47766327D01*
X189309405Y-47708139D01*
X189366760Y-47629199D01*
X189452547Y-47460832D01*
X189510940Y-47281118D01*
X189523867Y-47199500D01*
X189540500Y-47094484D01*
X189540500Y-46905515D01*
X194759500Y-46905515D01*
X194759500Y-47094484D01*
X194789058Y-47281113D01*
X194847453Y-47460832D01*
X194928967Y-47620814D01*
X194933240Y-47629199D01*
X195044310Y-47782073D01*
X195177927Y-47915690D01*
X195330801Y-48026760D01*
X195499168Y-48112547D01*
X195678882Y-48170940D01*
X195678883Y-48170940D01*
X195678886Y-48170941D01*
X195865516Y-48200500D01*
X195865519Y-48200500D01*
X196054484Y-48200500D01*
X196241113Y-48170941D01*
X196241114Y-48170940D01*
X196241118Y-48170940D01*
X196420832Y-48112547D01*
X196589199Y-48026760D01*
X196742073Y-47915690D01*
X196875690Y-47782073D01*
X196986760Y-47629199D01*
X197072547Y-47460832D01*
X197130940Y-47281118D01*
X197143867Y-47199500D01*
X197160500Y-47094484D01*
X197160500Y-46913385D01*
X205019500Y-46913385D01*
X205019500Y-47086614D01*
X205046597Y-47257702D01*
X205046598Y-47257706D01*
X205100123Y-47422438D01*
X205100125Y-47422441D01*
X205178635Y-47576528D01*
X205178768Y-47576788D01*
X205280586Y-47716928D01*
X205403072Y-47839414D01*
X205543212Y-47941232D01*
X205697555Y-48019873D01*
X205697557Y-48019873D01*
X205697558Y-48019874D01*
X205697561Y-48019876D01*
X205862293Y-48073401D01*
X205862297Y-48073402D01*
X206033386Y-48100500D01*
X206033389Y-48100500D01*
X206206614Y-48100500D01*
X206377702Y-48073402D01*
X206377706Y-48073401D01*
X206542438Y-48019876D01*
X206542440Y-48019874D01*
X206542445Y-48019873D01*
X206696788Y-47941232D01*
X206836928Y-47839414D01*
X206959414Y-47716928D01*
X207061232Y-47576788D01*
X207139873Y-47422445D01*
X207139874Y-47422440D01*
X207139876Y-47422438D01*
X207193401Y-47257706D01*
X207193402Y-47257702D01*
X207220500Y-47086614D01*
X207220500Y-46913424D01*
X207560000Y-46913424D01*
X207560000Y-47086575D01*
X207587084Y-47257579D01*
X207640588Y-47422248D01*
X207719195Y-47576523D01*
X207812974Y-47705602D01*
X208242210Y-47276365D01*
X208259901Y-47307007D01*
X208352993Y-47400099D01*
X208383631Y-47417788D01*
X207954396Y-47847024D01*
X208083471Y-47940801D01*
X208083475Y-47940804D01*
X208237751Y-48019411D01*
X208402420Y-48072915D01*
X208573425Y-48100000D01*
X208746575Y-48100000D01*
X208917579Y-48072915D01*
X209082248Y-48019411D01*
X209236524Y-47940804D01*
X209236528Y-47940802D01*
X209365602Y-47847024D01*
X208936367Y-47417789D01*
X208967007Y-47400099D01*
X209060099Y-47307007D01*
X209077789Y-47276367D01*
X209507024Y-47705602D01*
X209600802Y-47576528D01*
X209600804Y-47576524D01*
X209679411Y-47422248D01*
X209732915Y-47257579D01*
X209760000Y-47086575D01*
X209760000Y-46913424D01*
X209732915Y-46742420D01*
X209679411Y-46577751D01*
X209600804Y-46423475D01*
X209600801Y-46423471D01*
X209507024Y-46294396D01*
X209077788Y-46723631D01*
X209060099Y-46692993D01*
X208967007Y-46599901D01*
X208936365Y-46582210D01*
X209365602Y-46152974D01*
X209236523Y-46059195D01*
X209082248Y-45980588D01*
X208917579Y-45927084D01*
X208746575Y-45900000D01*
X208573425Y-45900000D01*
X208402420Y-45927084D01*
X208237751Y-45980588D01*
X208083481Y-46059192D01*
X207954397Y-46152975D01*
X208383632Y-46582210D01*
X208352993Y-46599901D01*
X208259901Y-46692993D01*
X208242210Y-46723632D01*
X207812975Y-46294397D01*
X207719192Y-46423481D01*
X207640588Y-46577751D01*
X207587084Y-46742420D01*
X207560000Y-46913424D01*
X207220500Y-46913424D01*
X207220500Y-46913385D01*
X207193402Y-46742297D01*
X207193401Y-46742293D01*
X207139876Y-46577561D01*
X207139874Y-46577558D01*
X207139873Y-46577557D01*
X207139873Y-46577555D01*
X207061232Y-46423212D01*
X206959414Y-46283072D01*
X206836928Y-46160586D01*
X206696788Y-46058768D01*
X206696787Y-46058767D01*
X206696785Y-46058766D01*
X206542441Y-45980125D01*
X206542438Y-45980123D01*
X206377706Y-45926598D01*
X206377702Y-45926597D01*
X206206614Y-45899500D01*
X206206611Y-45899500D01*
X206033389Y-45899500D01*
X206033386Y-45899500D01*
X205862297Y-45926597D01*
X205862293Y-45926598D01*
X205697561Y-45980123D01*
X205697558Y-45980125D01*
X205543214Y-46058766D01*
X205403073Y-46160585D01*
X205280585Y-46283073D01*
X205178766Y-46423214D01*
X205100125Y-46577558D01*
X205100123Y-46577561D01*
X205046598Y-46742293D01*
X205046597Y-46742297D01*
X205019500Y-46913385D01*
X197160500Y-46913385D01*
X197160500Y-46905515D01*
X197130941Y-46718886D01*
X197130940Y-46718882D01*
X197072547Y-46539168D01*
X196986760Y-46370801D01*
X196875690Y-46217927D01*
X196742073Y-46084310D01*
X196589199Y-45973240D01*
X196589198Y-45973239D01*
X196589196Y-45973238D01*
X196420832Y-45887453D01*
X196241113Y-45829058D01*
X196054484Y-45799500D01*
X196054481Y-45799500D01*
X195865519Y-45799500D01*
X195865516Y-45799500D01*
X195678886Y-45829058D01*
X195499167Y-45887453D01*
X195330803Y-45973238D01*
X195177928Y-46084309D01*
X195044309Y-46217928D01*
X194933238Y-46370803D01*
X194847453Y-46539167D01*
X194789058Y-46718886D01*
X194759500Y-46905515D01*
X189540500Y-46905515D01*
X189510941Y-46718886D01*
X189510940Y-46718882D01*
X189452547Y-46539168D01*
X189366760Y-46370801D01*
X189255690Y-46217927D01*
X189122073Y-46084310D01*
X188969199Y-45973240D01*
X188969198Y-45973239D01*
X188969196Y-45973238D01*
X188800832Y-45887453D01*
X188621113Y-45829058D01*
X188434484Y-45799500D01*
X188434481Y-45799500D01*
X188245519Y-45799500D01*
X188245516Y-45799500D01*
X188058886Y-45829058D01*
X187879167Y-45887453D01*
X187710803Y-45973238D01*
X187557928Y-46084309D01*
X187424309Y-46217928D01*
X187313238Y-46370803D01*
X187227453Y-46539167D01*
X187169058Y-46718886D01*
X187139500Y-46905515D01*
X179600499Y-46905515D01*
X179600499Y-46757274D01*
X179597646Y-46726840D01*
X179552793Y-46598656D01*
X179552791Y-46598654D01*
X179552791Y-46598652D01*
X179472154Y-46489393D01*
X179472152Y-46489391D01*
X179472150Y-46489388D01*
X179472146Y-46489385D01*
X179472144Y-46489383D01*
X179362885Y-46408746D01*
X179278386Y-46379179D01*
X179234698Y-46363892D01*
X179234696Y-46363891D01*
X179234694Y-46363891D01*
X179204272Y-46361038D01*
X176795734Y-46361038D01*
X176765305Y-46363891D01*
X176637114Y-46408746D01*
X176527855Y-46489383D01*
X176527845Y-46489393D01*
X176447208Y-46598652D01*
X176402353Y-46726843D01*
X176399500Y-46757264D01*
X132325500Y-46757264D01*
X132325500Y-43175835D01*
X132344407Y-43117644D01*
X132354496Y-43105831D01*
X136605831Y-38854496D01*
X136660348Y-38826719D01*
X136675835Y-38825500D01*
X140542851Y-38825500D01*
X140542853Y-38825500D01*
X140625639Y-38803318D01*
X140625641Y-38803316D01*
X140625643Y-38803316D01*
X140699857Y-38760468D01*
X140699857Y-38760467D01*
X140699862Y-38760465D01*
X143105831Y-36354496D01*
X143160348Y-36326719D01*
X143175835Y-36325500D01*
X146076678Y-36325500D01*
X146134869Y-36344407D01*
X146146681Y-36354496D01*
X146192684Y-36400499D01*
X146192690Y-36400503D01*
X146306810Y-36466390D01*
X146306808Y-36466390D01*
X146306812Y-36466391D01*
X146306814Y-36466392D01*
X146434108Y-36500500D01*
X146434110Y-36500500D01*
X146565890Y-36500500D01*
X146565892Y-36500500D01*
X146693186Y-36466392D01*
X146693188Y-36466390D01*
X146693190Y-36466390D01*
X146807309Y-36400503D01*
X146807309Y-36400502D01*
X146807314Y-36400500D01*
X146900500Y-36307314D01*
X146904434Y-36300500D01*
X146966390Y-36193190D01*
X146966390Y-36193188D01*
X146966392Y-36193186D01*
X147000500Y-36065892D01*
X147000500Y-35934108D01*
X146966392Y-35806814D01*
X146928752Y-35741619D01*
X212582200Y-35741619D01*
X212582200Y-36031980D01*
X212620098Y-36319844D01*
X212620098Y-36319849D01*
X212695247Y-36600308D01*
X212695251Y-36600321D01*
X212806360Y-36868564D01*
X212806362Y-36868568D01*
X212806364Y-36868572D01*
X212921075Y-37067257D01*
X212951545Y-37120032D01*
X213128295Y-37350378D01*
X213128297Y-37350380D01*
X213128301Y-37350385D01*
X213333615Y-37555699D01*
X213333619Y-37555702D01*
X213333621Y-37555704D01*
X213563967Y-37732454D01*
X213563971Y-37732457D01*
X213815428Y-37877636D01*
X214083684Y-37988751D01*
X214364148Y-38063901D01*
X214652021Y-38101800D01*
X214652022Y-38101800D01*
X214942378Y-38101800D01*
X214942379Y-38101800D01*
X215230252Y-38063901D01*
X215510716Y-37988751D01*
X215778972Y-37877636D01*
X216030429Y-37732457D01*
X216260785Y-37555699D01*
X216466099Y-37350385D01*
X216642857Y-37120029D01*
X216788036Y-36868572D01*
X216899151Y-36600316D01*
X216974301Y-36319852D01*
X217012200Y-36031979D01*
X217012200Y-35741621D01*
X216974301Y-35453748D01*
X216899151Y-35173284D01*
X216788036Y-34905028D01*
X216642857Y-34653571D01*
X216499230Y-34466392D01*
X216466104Y-34423221D01*
X216466102Y-34423219D01*
X216466099Y-34423215D01*
X216260785Y-34217901D01*
X216260780Y-34217897D01*
X216260778Y-34217895D01*
X216030432Y-34041145D01*
X216030429Y-34041143D01*
X215778972Y-33895964D01*
X215778968Y-33895962D01*
X215778964Y-33895960D01*
X215510721Y-33784851D01*
X215510720Y-33784850D01*
X215510716Y-33784849D01*
X215230252Y-33709699D01*
X215230249Y-33709698D01*
X215230247Y-33709698D01*
X214942380Y-33671800D01*
X214942379Y-33671800D01*
X214652021Y-33671800D01*
X214652019Y-33671800D01*
X214364155Y-33709698D01*
X214364150Y-33709698D01*
X214083691Y-33784847D01*
X214083678Y-33784851D01*
X213815435Y-33895960D01*
X213563967Y-34041145D01*
X213333621Y-34217895D01*
X213128295Y-34423221D01*
X212951545Y-34653567D01*
X212806360Y-34905035D01*
X212695251Y-35173278D01*
X212695247Y-35173291D01*
X212620098Y-35453750D01*
X212620098Y-35453755D01*
X212582200Y-35741619D01*
X146928752Y-35741619D01*
X146900500Y-35692686D01*
X146807314Y-35599500D01*
X146807311Y-35599498D01*
X146807309Y-35599496D01*
X146693189Y-35533609D01*
X146693191Y-35533609D01*
X146643799Y-35520375D01*
X146565892Y-35499500D01*
X146434108Y-35499500D01*
X146356200Y-35520375D01*
X146306809Y-35533609D01*
X146192690Y-35599496D01*
X146192684Y-35599500D01*
X146146681Y-35645504D01*
X146092164Y-35673281D01*
X146076678Y-35674500D01*
X143042853Y-35674500D01*
X142957147Y-35674500D01*
X142906478Y-35688076D01*
X142874356Y-35696683D01*
X142800142Y-35739531D01*
X140394169Y-38145504D01*
X140339652Y-38173281D01*
X140324165Y-38174500D01*
X136542853Y-38174500D01*
X136457147Y-38174500D01*
X136406478Y-38188076D01*
X136374356Y-38196683D01*
X136300142Y-38239531D01*
X131739531Y-42800142D01*
X131696683Y-42874357D01*
X131696682Y-42874359D01*
X131679211Y-42939559D01*
X131679212Y-42939560D01*
X131674500Y-42957146D01*
X131674500Y-48324165D01*
X131655593Y-48382356D01*
X131645504Y-48394169D01*
X125894169Y-54145504D01*
X125839652Y-54173281D01*
X125824165Y-54174500D01*
X119048322Y-54174500D01*
X118990131Y-54155593D01*
X118978319Y-54145504D01*
X118932315Y-54099500D01*
X118932309Y-54099496D01*
X118818189Y-54033609D01*
X118818191Y-54033609D01*
X118768799Y-54020375D01*
X118690892Y-53999500D01*
X118559108Y-53999500D01*
X118431814Y-54033608D01*
X118431812Y-54033608D01*
X118425546Y-54035288D01*
X118424746Y-54032302D01*
X118376348Y-54036091D01*
X118324192Y-54004099D01*
X118300802Y-53947561D01*
X118300500Y-53939836D01*
X118300500Y-52448321D01*
X118319407Y-52390130D01*
X118329490Y-52378323D01*
X118400500Y-52307314D01*
X118411597Y-52288093D01*
X118466390Y-52193190D01*
X118466390Y-52193188D01*
X118466392Y-52193186D01*
X118500500Y-52065892D01*
X118500500Y-51934108D01*
X118466392Y-51806814D01*
X118466390Y-51806811D01*
X118466390Y-51806809D01*
X118400503Y-51692690D01*
X118400501Y-51692688D01*
X118400500Y-51692686D01*
X118307314Y-51599500D01*
X118307311Y-51599498D01*
X118307309Y-51599496D01*
X118193189Y-51533609D01*
X118193191Y-51533609D01*
X118143799Y-51520375D01*
X118065892Y-51499500D01*
X117934108Y-51499500D01*
X117856200Y-51520375D01*
X117806809Y-51533609D01*
X117692690Y-51599496D01*
X117599496Y-51692690D01*
X117533609Y-51806809D01*
X117533608Y-51806814D01*
X117499500Y-51934108D01*
X117499500Y-52065892D01*
X117509852Y-52104525D01*
X117533609Y-52193190D01*
X117599496Y-52307309D01*
X117599498Y-52307311D01*
X117599500Y-52307314D01*
X117670505Y-52378319D01*
X117698281Y-52432834D01*
X117699500Y-52448321D01*
X117699500Y-53939836D01*
X117680593Y-53998027D01*
X117631093Y-54033991D01*
X117574802Y-54033991D01*
X117574454Y-54035288D01*
X117568187Y-54033608D01*
X117568186Y-54033608D01*
X117440892Y-53999500D01*
X117309108Y-53999500D01*
X117231200Y-54020375D01*
X117181809Y-54033609D01*
X117067690Y-54099496D01*
X116974496Y-54192690D01*
X116912541Y-54300000D01*
X116867072Y-54340941D01*
X116826805Y-54349500D01*
X111548195Y-54349500D01*
X111490004Y-54330593D01*
X111462459Y-54300000D01*
X111400503Y-54192690D01*
X111400501Y-54192688D01*
X111400500Y-54192686D01*
X111307314Y-54099500D01*
X111307311Y-54099498D01*
X111307309Y-54099496D01*
X111193189Y-54033609D01*
X111193191Y-54033609D01*
X111143799Y-54020375D01*
X111065892Y-53999500D01*
X110934108Y-53999500D01*
X110856200Y-54020375D01*
X110806809Y-54033609D01*
X110692690Y-54099496D01*
X110599496Y-54192690D01*
X110533609Y-54306809D01*
X110533608Y-54306814D01*
X110499500Y-54434108D01*
X110499500Y-54565892D01*
X110516463Y-54629199D01*
X110533609Y-54693190D01*
X110599496Y-54807309D01*
X110599498Y-54807311D01*
X110599500Y-54807314D01*
X110622684Y-54830498D01*
X110650460Y-54885013D01*
X110640889Y-54945445D01*
X110597624Y-54988710D01*
X110552679Y-54999500D01*
X100965479Y-54999500D01*
X100907288Y-54980593D01*
X100895475Y-54970504D01*
X98029496Y-52104525D01*
X98001719Y-52050008D01*
X98000500Y-52034521D01*
X98000500Y-51934109D01*
X98000500Y-51934108D01*
X97966392Y-51806814D01*
X97966390Y-51806811D01*
X97966390Y-51806809D01*
X97900503Y-51692690D01*
X97900501Y-51692688D01*
X97900500Y-51692686D01*
X97807314Y-51599500D01*
X97807311Y-51599498D01*
X97807309Y-51599496D01*
X97693189Y-51533609D01*
X97693191Y-51533609D01*
X97643799Y-51520375D01*
X97565892Y-51499500D01*
X97434108Y-51499500D01*
X97403124Y-51507802D01*
X97325122Y-51528702D01*
X97297042Y-51527230D01*
X97268907Y-51527230D01*
X97266719Y-51525640D01*
X97264021Y-51525499D01*
X97242168Y-51507802D01*
X97219407Y-51491266D01*
X97218571Y-51488695D01*
X97216471Y-51486994D01*
X97200500Y-51433075D01*
X97200500Y-51265477D01*
X97219407Y-51207286D01*
X97229485Y-51195485D01*
X97395475Y-51029494D01*
X97449990Y-51001719D01*
X97465477Y-51000500D01*
X97565890Y-51000500D01*
X97565892Y-51000500D01*
X97693186Y-50966392D01*
X97693188Y-50966390D01*
X97693190Y-50966390D01*
X97807309Y-50900503D01*
X97807309Y-50900502D01*
X97807314Y-50900500D01*
X97900500Y-50807314D01*
X97957290Y-50708951D01*
X97966390Y-50693190D01*
X97966390Y-50693188D01*
X97966392Y-50693186D01*
X98000500Y-50565892D01*
X98000500Y-50434108D01*
X97966392Y-50306814D01*
X97966390Y-50306811D01*
X97966390Y-50306809D01*
X97900503Y-50192690D01*
X97900501Y-50192688D01*
X97900500Y-50192686D01*
X97807314Y-50099500D01*
X97807311Y-50099498D01*
X97807309Y-50099496D01*
X97693189Y-50033609D01*
X97693191Y-50033609D01*
X97643799Y-50020375D01*
X97565892Y-49999500D01*
X97434108Y-49999500D01*
X97356200Y-50020375D01*
X97306809Y-50033609D01*
X97192690Y-50099496D01*
X97099496Y-50192690D01*
X97033609Y-50306809D01*
X96999500Y-50434109D01*
X96999500Y-50534521D01*
X96980593Y-50592712D01*
X96970509Y-50604518D01*
X96715489Y-50859540D01*
X96715488Y-50859539D01*
X96659539Y-50915489D01*
X96619980Y-50984007D01*
X96619978Y-50984011D01*
X96599500Y-51060435D01*
X96599500Y-52288093D01*
X96619977Y-52364514D01*
X96619979Y-52364519D01*
X96640751Y-52400498D01*
X96640752Y-52400498D01*
X96640753Y-52400500D01*
X96659540Y-52433040D01*
X100311011Y-56084511D01*
X100311010Y-56084511D01*
X100366960Y-56140460D01*
X100435478Y-56180019D01*
X100435482Y-56180021D01*
X100511906Y-56200499D01*
X100511908Y-56200500D01*
X100511909Y-56200500D01*
X115988092Y-56200500D01*
X115988092Y-56200499D01*
X116064518Y-56180021D01*
X116133040Y-56140460D01*
X116142574Y-56130925D01*
X116197090Y-56103149D01*
X116212577Y-56101930D01*
X116312989Y-56101930D01*
X116312991Y-56101930D01*
X116440285Y-56067822D01*
X116440287Y-56067820D01*
X116440289Y-56067820D01*
X116554408Y-56001933D01*
X116554408Y-56001932D01*
X116554413Y-56001930D01*
X116647599Y-55908744D01*
X116713491Y-55794616D01*
X116747599Y-55667322D01*
X116747599Y-55535538D01*
X116713491Y-55408244D01*
X116713489Y-55408241D01*
X116713489Y-55408239D01*
X116647602Y-55294120D01*
X116647600Y-55294118D01*
X116647599Y-55294116D01*
X116554413Y-55200930D01*
X116554410Y-55200928D01*
X116527231Y-55185236D01*
X116486291Y-55139766D01*
X116479896Y-55078916D01*
X116510489Y-55025928D01*
X116566384Y-55001042D01*
X116576732Y-55000500D01*
X117242853Y-55000500D01*
X117250350Y-54998490D01*
X117301606Y-54998490D01*
X117309108Y-55000500D01*
X117440890Y-55000500D01*
X117440892Y-55000500D01*
X117568186Y-54966392D01*
X117568187Y-54966391D01*
X117574454Y-54964712D01*
X117575263Y-54967731D01*
X117623458Y-54963862D01*
X117675678Y-54995748D01*
X117699182Y-55052239D01*
X117699500Y-55060163D01*
X117699500Y-56633072D01*
X117680593Y-56691263D01*
X117631093Y-56727227D01*
X117574878Y-56728699D01*
X117507561Y-56710662D01*
X117465892Y-56699497D01*
X117334108Y-56699497D01*
X117256200Y-56720372D01*
X117206809Y-56733606D01*
X117092690Y-56799493D01*
X117092689Y-56799494D01*
X117092686Y-56799496D01*
X117092686Y-56799497D01*
X117021680Y-56870502D01*
X116967166Y-56898278D01*
X116951679Y-56899497D01*
X99231167Y-56899497D01*
X99172976Y-56880590D01*
X99161169Y-56870506D01*
X99150203Y-56859540D01*
X99150200Y-56859538D01*
X99081684Y-56819980D01*
X99081680Y-56819978D01*
X99005256Y-56799500D01*
X99005254Y-56799500D01*
X95831165Y-56799500D01*
X95772974Y-56780593D01*
X95761161Y-56770504D01*
X94229496Y-55238839D01*
X94201719Y-55184322D01*
X94200500Y-55168835D01*
X94200500Y-48831165D01*
X94219407Y-48772974D01*
X94229496Y-48761161D01*
X94661161Y-48329496D01*
X94715678Y-48301719D01*
X94731165Y-48300500D01*
X97051679Y-48300500D01*
X97109870Y-48319407D01*
X97121676Y-48329490D01*
X97192686Y-48400500D01*
X97192688Y-48400501D01*
X97192690Y-48400503D01*
X97306810Y-48466390D01*
X97306808Y-48466390D01*
X97306812Y-48466391D01*
X97306814Y-48466392D01*
X97434108Y-48500500D01*
X97434110Y-48500500D01*
X97565890Y-48500500D01*
X97565892Y-48500500D01*
X97693186Y-48466392D01*
X97693188Y-48466390D01*
X97693190Y-48466390D01*
X97807309Y-48400503D01*
X97807309Y-48400502D01*
X97807314Y-48400500D01*
X97900500Y-48307314D01*
X97904434Y-48300500D01*
X97966390Y-48193190D01*
X97966390Y-48193188D01*
X97966392Y-48193186D01*
X98000500Y-48065892D01*
X98000500Y-47993721D01*
X117817685Y-47993721D01*
X117817685Y-48569908D01*
X117838162Y-48646329D01*
X117838163Y-48646331D01*
X117838164Y-48646333D01*
X117874572Y-48709394D01*
X117877725Y-48714855D01*
X118879196Y-49716326D01*
X118879195Y-49716326D01*
X118935145Y-49772275D01*
X119003663Y-49811834D01*
X119003667Y-49811836D01*
X119080091Y-49832314D01*
X119080093Y-49832315D01*
X119080094Y-49832315D01*
X119519864Y-49832315D01*
X119578055Y-49851222D01*
X119589861Y-49861305D01*
X119660871Y-49932315D01*
X119660873Y-49932316D01*
X119660875Y-49932318D01*
X119774995Y-49998205D01*
X119774993Y-49998205D01*
X119774997Y-49998206D01*
X119774999Y-49998207D01*
X119902293Y-50032315D01*
X119902295Y-50032315D01*
X120034075Y-50032315D01*
X120034077Y-50032315D01*
X120161371Y-49998207D01*
X120179651Y-49987652D01*
X120179654Y-49987652D01*
X120275494Y-49932318D01*
X120275494Y-49932317D01*
X120275499Y-49932315D01*
X120307814Y-49900000D01*
X125429217Y-49900000D01*
X126138566Y-49900000D01*
X126125000Y-49950630D01*
X126125000Y-50049370D01*
X126138566Y-50100000D01*
X125429218Y-50100000D01*
X125455742Y-50233349D01*
X125516048Y-50378940D01*
X125516052Y-50378949D01*
X125603599Y-50509969D01*
X125603602Y-50509973D01*
X125715026Y-50621397D01*
X125715030Y-50621400D01*
X125846050Y-50708947D01*
X125846059Y-50708951D01*
X125991650Y-50769257D01*
X126146204Y-50799999D01*
X126146208Y-50800000D01*
X126399999Y-50800000D01*
X126400000Y-50799999D01*
X126400000Y-50361433D01*
X126450630Y-50375000D01*
X126549370Y-50375000D01*
X126600000Y-50361433D01*
X126600000Y-50799999D01*
X126600001Y-50800000D01*
X126853792Y-50800000D01*
X126853795Y-50799999D01*
X127008349Y-50769257D01*
X127153940Y-50708951D01*
X127153949Y-50708947D01*
X127284969Y-50621400D01*
X127284973Y-50621397D01*
X127396397Y-50509973D01*
X127396400Y-50509969D01*
X127483947Y-50378949D01*
X127483951Y-50378940D01*
X127544257Y-50233349D01*
X127570782Y-50100000D01*
X126861434Y-50100000D01*
X126875000Y-50049370D01*
X126875000Y-49950630D01*
X126861434Y-49900000D01*
X127570782Y-49900000D01*
X127544257Y-49766650D01*
X127483951Y-49621059D01*
X127483947Y-49621050D01*
X127396400Y-49490030D01*
X127396397Y-49490026D01*
X127284973Y-49378602D01*
X127284969Y-49378599D01*
X127153949Y-49291052D01*
X127153940Y-49291048D01*
X127008349Y-49230742D01*
X126853795Y-49200000D01*
X126600001Y-49200000D01*
X126600000Y-49200001D01*
X126600000Y-49638566D01*
X126549370Y-49625000D01*
X126450630Y-49625000D01*
X126400000Y-49638566D01*
X126400000Y-49200001D01*
X126399999Y-49200000D01*
X126146204Y-49200000D01*
X125991650Y-49230742D01*
X125846059Y-49291048D01*
X125846050Y-49291052D01*
X125715030Y-49378599D01*
X125715026Y-49378602D01*
X125603602Y-49490026D01*
X125603599Y-49490030D01*
X125516052Y-49621050D01*
X125516048Y-49621059D01*
X125455742Y-49766650D01*
X125429217Y-49900000D01*
X120307814Y-49900000D01*
X120368685Y-49839129D01*
X120384444Y-49811834D01*
X120434575Y-49725005D01*
X120434575Y-49725003D01*
X120434577Y-49725001D01*
X120468685Y-49597707D01*
X120468685Y-49465923D01*
X120434577Y-49338629D01*
X120434575Y-49338626D01*
X120434575Y-49338624D01*
X120368688Y-49224505D01*
X120368686Y-49224503D01*
X120368685Y-49224501D01*
X120275499Y-49131315D01*
X120275496Y-49131313D01*
X120275494Y-49131311D01*
X120161374Y-49065424D01*
X120161376Y-49065424D01*
X120111984Y-49052190D01*
X120034077Y-49031315D01*
X119902293Y-49031315D01*
X119824385Y-49052190D01*
X119774994Y-49065424D01*
X119660875Y-49131311D01*
X119660874Y-49131312D01*
X119660871Y-49131314D01*
X119660871Y-49131315D01*
X119589865Y-49202320D01*
X119535351Y-49230096D01*
X119519864Y-49231315D01*
X119285135Y-49231315D01*
X119226944Y-49212408D01*
X119215131Y-49202319D01*
X118907282Y-48894470D01*
X118879505Y-48839953D01*
X118889076Y-48779521D01*
X118927784Y-48738730D01*
X119025499Y-48682315D01*
X119118685Y-48589129D01*
X119129782Y-48569908D01*
X119184575Y-48475005D01*
X119184575Y-48475003D01*
X119184577Y-48475001D01*
X119218685Y-48347707D01*
X119218685Y-48247293D01*
X119237592Y-48189102D01*
X119247681Y-48177289D01*
X119503815Y-47921155D01*
X125424500Y-47921155D01*
X125424500Y-48078844D01*
X125428808Y-48100500D01*
X125448699Y-48200500D01*
X125455263Y-48233496D01*
X125455263Y-48233498D01*
X125515603Y-48379174D01*
X125515609Y-48379185D01*
X125542137Y-48418886D01*
X125603211Y-48510289D01*
X125714711Y-48621789D01*
X125751438Y-48646329D01*
X125845814Y-48709390D01*
X125845825Y-48709396D01*
X125899638Y-48731685D01*
X125991503Y-48769737D01*
X126146158Y-48800500D01*
X126146159Y-48800500D01*
X126853841Y-48800500D01*
X126853842Y-48800500D01*
X127008497Y-48769737D01*
X127154179Y-48709394D01*
X127285289Y-48621789D01*
X127396789Y-48510289D01*
X127484394Y-48379179D01*
X127544737Y-48233497D01*
X127575500Y-48078842D01*
X127575500Y-47921158D01*
X127544737Y-47766503D01*
X127506894Y-47675142D01*
X127484396Y-47620825D01*
X127484390Y-47620814D01*
X127430569Y-47540267D01*
X127396789Y-47489711D01*
X127285289Y-47378211D01*
X127197283Y-47319407D01*
X127154185Y-47290609D01*
X127154174Y-47290603D01*
X127008497Y-47230263D01*
X126853844Y-47199500D01*
X126853842Y-47199500D01*
X126146158Y-47199500D01*
X126146155Y-47199500D01*
X125991503Y-47230263D01*
X125991501Y-47230263D01*
X125845825Y-47290603D01*
X125845814Y-47290609D01*
X125714711Y-47378211D01*
X125714707Y-47378214D01*
X125603214Y-47489707D01*
X125603211Y-47489711D01*
X125515609Y-47620814D01*
X125515603Y-47620825D01*
X125455263Y-47766501D01*
X125455263Y-47766503D01*
X125424500Y-47921155D01*
X119503815Y-47921155D01*
X121503815Y-45921155D01*
X125424500Y-45921155D01*
X125424500Y-46078844D01*
X125455263Y-46233496D01*
X125455263Y-46233498D01*
X125515603Y-46379174D01*
X125515609Y-46379185D01*
X125568312Y-46458059D01*
X125603211Y-46510289D01*
X125714711Y-46621789D01*
X125787618Y-46670504D01*
X125845814Y-46709390D01*
X125845825Y-46709396D01*
X125887940Y-46726840D01*
X125991503Y-46769737D01*
X126146158Y-46800500D01*
X126146159Y-46800500D01*
X126853841Y-46800500D01*
X126853842Y-46800500D01*
X127008497Y-46769737D01*
X127154179Y-46709394D01*
X127285289Y-46621789D01*
X127396789Y-46510289D01*
X127484394Y-46379179D01*
X127544737Y-46233497D01*
X127575500Y-46078842D01*
X127575500Y-45921158D01*
X127544737Y-45766503D01*
X127484394Y-45620821D01*
X127484393Y-45620819D01*
X127484390Y-45620814D01*
X127449017Y-45567876D01*
X127396789Y-45489711D01*
X127285289Y-45378211D01*
X127186325Y-45312085D01*
X127154185Y-45290609D01*
X127154174Y-45290603D01*
X127008497Y-45230263D01*
X126853844Y-45199500D01*
X126853842Y-45199500D01*
X126146158Y-45199500D01*
X126146155Y-45199500D01*
X125991503Y-45230263D01*
X125991501Y-45230263D01*
X125845825Y-45290603D01*
X125845814Y-45290609D01*
X125714711Y-45378211D01*
X125714707Y-45378214D01*
X125603214Y-45489707D01*
X125603211Y-45489711D01*
X125515609Y-45620814D01*
X125515603Y-45620825D01*
X125455263Y-45766501D01*
X125455263Y-45766503D01*
X125424500Y-45921155D01*
X121503815Y-45921155D01*
X121578680Y-45846290D01*
X121804146Y-45620825D01*
X124195475Y-43229496D01*
X124249992Y-43201719D01*
X124265479Y-43200500D01*
X125654567Y-43200500D01*
X125712758Y-43219407D01*
X125748722Y-43268907D01*
X125748722Y-43330093D01*
X125717361Y-43376037D01*
X125714710Y-43378211D01*
X125603214Y-43489707D01*
X125603211Y-43489711D01*
X125515609Y-43620814D01*
X125515603Y-43620825D01*
X125455263Y-43766501D01*
X125455263Y-43766503D01*
X125424500Y-43921155D01*
X125424500Y-44078844D01*
X125455263Y-44233496D01*
X125455263Y-44233498D01*
X125515603Y-44379174D01*
X125515609Y-44379185D01*
X125537731Y-44412292D01*
X125603211Y-44510289D01*
X125714711Y-44621789D01*
X125772848Y-44660635D01*
X125845814Y-44709390D01*
X125845825Y-44709396D01*
X125899638Y-44731685D01*
X125991503Y-44769737D01*
X126146158Y-44800500D01*
X126146159Y-44800500D01*
X126853841Y-44800500D01*
X126853842Y-44800500D01*
X127008497Y-44769737D01*
X127154179Y-44709394D01*
X127285289Y-44621789D01*
X127396789Y-44510289D01*
X127484394Y-44379179D01*
X127544737Y-44233497D01*
X127575500Y-44078842D01*
X127575500Y-43921158D01*
X127544737Y-43766503D01*
X127484394Y-43620821D01*
X127484393Y-43620819D01*
X127484390Y-43620814D01*
X127449017Y-43567876D01*
X127396789Y-43489711D01*
X127285289Y-43378211D01*
X127247953Y-43353263D01*
X127210076Y-43305214D01*
X127207674Y-43244076D01*
X127241668Y-43193203D01*
X127258279Y-43183468D01*
X127258162Y-43183266D01*
X127303027Y-43157362D01*
X127332303Y-43140460D01*
X127388252Y-43084511D01*
X134243267Y-36229496D01*
X134297784Y-36201719D01*
X134313271Y-36200500D01*
X138276679Y-36200500D01*
X138334870Y-36219407D01*
X138346676Y-36229490D01*
X138417686Y-36300500D01*
X138417688Y-36300501D01*
X138417690Y-36300503D01*
X138531810Y-36366390D01*
X138531808Y-36366390D01*
X138531812Y-36366391D01*
X138531814Y-36366392D01*
X138659108Y-36400500D01*
X138659110Y-36400500D01*
X138790890Y-36400500D01*
X138790892Y-36400500D01*
X138918186Y-36366392D01*
X138918188Y-36366390D01*
X138918190Y-36366390D01*
X139032309Y-36300503D01*
X139032309Y-36300502D01*
X139032314Y-36300500D01*
X139125500Y-36207314D01*
X139146926Y-36170203D01*
X139191390Y-36093190D01*
X139191390Y-36093188D01*
X139191392Y-36093186D01*
X139225500Y-35965892D01*
X139225500Y-35834108D01*
X139191392Y-35706814D01*
X139191390Y-35706811D01*
X139191390Y-35706809D01*
X139125503Y-35592690D01*
X139125501Y-35592688D01*
X139125500Y-35592686D01*
X139032314Y-35499500D01*
X139032311Y-35499498D01*
X139032309Y-35499496D01*
X138918189Y-35433609D01*
X138918191Y-35433609D01*
X138868799Y-35420375D01*
X138790892Y-35399500D01*
X138659108Y-35399500D01*
X138581200Y-35420375D01*
X138531809Y-35433609D01*
X138417690Y-35499496D01*
X138417689Y-35499497D01*
X138417686Y-35499499D01*
X138417686Y-35499500D01*
X138346680Y-35570505D01*
X138292166Y-35598281D01*
X138276679Y-35599500D01*
X134366687Y-35599500D01*
X134308496Y-35580593D01*
X134272532Y-35531093D01*
X134272532Y-35469907D01*
X134296683Y-35430496D01*
X135397683Y-34329496D01*
X135452200Y-34301719D01*
X135467687Y-34300500D01*
X137051679Y-34300500D01*
X137109870Y-34319407D01*
X137121676Y-34329490D01*
X137192686Y-34400500D01*
X137192688Y-34400501D01*
X137192690Y-34400503D01*
X137306810Y-34466390D01*
X137306808Y-34466390D01*
X137306812Y-34466391D01*
X137306814Y-34466392D01*
X137434108Y-34500500D01*
X137434110Y-34500500D01*
X137565890Y-34500500D01*
X137565892Y-34500500D01*
X137693186Y-34466392D01*
X137693188Y-34466390D01*
X137693190Y-34466390D01*
X137807309Y-34400503D01*
X137807309Y-34400502D01*
X137807314Y-34400500D01*
X137900500Y-34307314D01*
X137952126Y-34217895D01*
X137966390Y-34193190D01*
X137966390Y-34193188D01*
X137966392Y-34193186D01*
X138000500Y-34065892D01*
X138000500Y-33934108D01*
X137966392Y-33806814D01*
X137966390Y-33806811D01*
X137966390Y-33806809D01*
X137900503Y-33692690D01*
X137900501Y-33692688D01*
X137900500Y-33692686D01*
X137807314Y-33599500D01*
X137807311Y-33599498D01*
X137807309Y-33599496D01*
X137693189Y-33533609D01*
X137693191Y-33533609D01*
X137643799Y-33520375D01*
X137565892Y-33499500D01*
X137434108Y-33499500D01*
X137356200Y-33520375D01*
X137306809Y-33533609D01*
X137192690Y-33599496D01*
X137192689Y-33599497D01*
X137192686Y-33599499D01*
X137192686Y-33599500D01*
X137121680Y-33670505D01*
X137067166Y-33698281D01*
X137051679Y-33699500D01*
X135262643Y-33699500D01*
X135186220Y-33719978D01*
X135127142Y-33754087D01*
X135117698Y-33759539D01*
X128106733Y-40770504D01*
X128052216Y-40798281D01*
X128036729Y-40799500D01*
X127549270Y-40799500D01*
X127491079Y-40780593D01*
X127455115Y-40731093D01*
X127455115Y-40669907D01*
X127469615Y-40641712D01*
X127527792Y-40562883D01*
X127527791Y-40562883D01*
X127527793Y-40562882D01*
X127572646Y-40434699D01*
X127575499Y-40404273D01*
X127575500Y-40404273D01*
X127575500Y-39595727D01*
X127575499Y-39595725D01*
X127572646Y-39565305D01*
X127572646Y-39565301D01*
X127527793Y-39437118D01*
X127464275Y-39351054D01*
X127447154Y-39327855D01*
X127447152Y-39327853D01*
X127447150Y-39327850D01*
X127447146Y-39327847D01*
X127447144Y-39327845D01*
X127337883Y-39247207D01*
X127209703Y-39202355D01*
X127209694Y-39202353D01*
X127179274Y-39199500D01*
X127179266Y-39199500D01*
X125820734Y-39199500D01*
X125820725Y-39199500D01*
X125790305Y-39202353D01*
X125790296Y-39202355D01*
X125662116Y-39247207D01*
X125552855Y-39327845D01*
X125552845Y-39327855D01*
X125472207Y-39437116D01*
X125427355Y-39565296D01*
X125427353Y-39565305D01*
X125424500Y-39595725D01*
X125424500Y-40404274D01*
X125427353Y-40434694D01*
X125427355Y-40434703D01*
X125472207Y-40562883D01*
X125530385Y-40641712D01*
X125549727Y-40699760D01*
X125531255Y-40758090D01*
X125482026Y-40794423D01*
X125450730Y-40799500D01*
X125011906Y-40799500D01*
X124935482Y-40819978D01*
X124935478Y-40819980D01*
X124866962Y-40859538D01*
X117933674Y-47792826D01*
X117933673Y-47792825D01*
X117877724Y-47848775D01*
X117838165Y-47917293D01*
X117838163Y-47917297D01*
X117817685Y-47993721D01*
X98000500Y-47993721D01*
X98000500Y-47934108D01*
X97966392Y-47806814D01*
X97966390Y-47806811D01*
X97966390Y-47806809D01*
X97900503Y-47692690D01*
X97900501Y-47692688D01*
X97900500Y-47692686D01*
X97807314Y-47599500D01*
X97783474Y-47585735D01*
X97742534Y-47540267D01*
X97736138Y-47479417D01*
X97766731Y-47426429D01*
X97783474Y-47414264D01*
X97807314Y-47400500D01*
X97900500Y-47307314D01*
X97910145Y-47290609D01*
X97966390Y-47193190D01*
X97966390Y-47193188D01*
X97966392Y-47193186D01*
X98000500Y-47065892D01*
X98000500Y-46934108D01*
X97966392Y-46806814D01*
X97966390Y-46806811D01*
X97966390Y-46806809D01*
X97900503Y-46692690D01*
X97900501Y-46692688D01*
X97900500Y-46692686D01*
X97807314Y-46599500D01*
X97807311Y-46599498D01*
X97807309Y-46599496D01*
X97693189Y-46533609D01*
X97693191Y-46533609D01*
X97643799Y-46520375D01*
X97565892Y-46499500D01*
X97434108Y-46499500D01*
X97356200Y-46520375D01*
X97306809Y-46533609D01*
X97192690Y-46599496D01*
X97192689Y-46599497D01*
X97192686Y-46599499D01*
X97192686Y-46599500D01*
X97121680Y-46670505D01*
X97067166Y-46698281D01*
X97051679Y-46699500D01*
X94960435Y-46699500D01*
X94884012Y-46719978D01*
X94824934Y-46754087D01*
X94815490Y-46759539D01*
X93315489Y-48259540D01*
X93315488Y-48259539D01*
X93259539Y-48315489D01*
X93219980Y-48384007D01*
X93219978Y-48384011D01*
X93199500Y-48460435D01*
X93199500Y-55539564D01*
X93219977Y-55615985D01*
X93219979Y-55615990D01*
X93242014Y-55654156D01*
X93249616Y-55667322D01*
X93259540Y-55684511D01*
X95259540Y-57684511D01*
X95259539Y-57684511D01*
X95315489Y-57740460D01*
X95384007Y-57780019D01*
X95384011Y-57780021D01*
X95460435Y-57800499D01*
X95460437Y-57800500D01*
X95460438Y-57800500D01*
X95539562Y-57800500D01*
X97834521Y-57800500D01*
X97892712Y-57819407D01*
X97904524Y-57829496D01*
X98315488Y-58240459D01*
X98315493Y-58240463D01*
X98384008Y-58280020D01*
X98384006Y-58280020D01*
X98384010Y-58280021D01*
X98384012Y-58280022D01*
X98460438Y-58300500D01*
X98539562Y-58300500D01*
X116951679Y-58300500D01*
X117009870Y-58319407D01*
X117021676Y-58329490D01*
X117092686Y-58400500D01*
X117092688Y-58400501D01*
X117092690Y-58400503D01*
X117206810Y-58466390D01*
X117206808Y-58466390D01*
X117206812Y-58466391D01*
X117206814Y-58466392D01*
X117334108Y-58500500D01*
X117334110Y-58500500D01*
X117465890Y-58500500D01*
X117465892Y-58500500D01*
X117574879Y-58471297D01*
X117635978Y-58474500D01*
X117683528Y-58513005D01*
X117699500Y-58566924D01*
X117699500Y-60334521D01*
X117680593Y-60392712D01*
X117670504Y-60404525D01*
X114904525Y-63170504D01*
X114850008Y-63198281D01*
X114834521Y-63199500D01*
X114249591Y-63199500D01*
X114191400Y-63180593D01*
X114155436Y-63131093D01*
X114155436Y-63069907D01*
X114191400Y-63020407D01*
X114234104Y-63002719D01*
X114342163Y-62985604D01*
X114581687Y-62907778D01*
X114806080Y-62793444D01*
X115009828Y-62645412D01*
X115028159Y-62627082D01*
X114351346Y-61950269D01*
X114381851Y-61929888D01*
X114472388Y-61839351D01*
X114492769Y-61808846D01*
X115169582Y-62485659D01*
X115187912Y-62467328D01*
X115335944Y-62263580D01*
X115450278Y-62039187D01*
X115528104Y-61799663D01*
X115567500Y-61550926D01*
X115567500Y-61299073D01*
X115528104Y-61050336D01*
X115450278Y-60810812D01*
X115335944Y-60586419D01*
X115187912Y-60382671D01*
X115169582Y-60364341D01*
X114492769Y-61041153D01*
X114472388Y-61010649D01*
X114381851Y-60920112D01*
X114351346Y-60899730D01*
X115028159Y-60222918D01*
X115009828Y-60204587D01*
X114806080Y-60056555D01*
X114581687Y-59942221D01*
X114342163Y-59864395D01*
X114093426Y-59825000D01*
X113841574Y-59825000D01*
X113592836Y-59864395D01*
X113353312Y-59942221D01*
X113128919Y-60056555D01*
X112925171Y-60204587D01*
X112906841Y-60222918D01*
X113583653Y-60899730D01*
X113553149Y-60920112D01*
X113462612Y-61010649D01*
X113442230Y-61041153D01*
X112765418Y-60364341D01*
X112747087Y-60382671D01*
X112599055Y-60586419D01*
X112484721Y-60810812D01*
X112406895Y-61050336D01*
X112367500Y-61299073D01*
X112367500Y-61550926D01*
X112406895Y-61799663D01*
X112484721Y-62039187D01*
X112599055Y-62263580D01*
X112747087Y-62467328D01*
X112765418Y-62485659D01*
X113442230Y-61808846D01*
X113462612Y-61839351D01*
X113553149Y-61929888D01*
X113583653Y-61950269D01*
X112906841Y-62627082D01*
X112925171Y-62645412D01*
X113128919Y-62793444D01*
X113353312Y-62907778D01*
X113592836Y-62985604D01*
X113700896Y-63002719D01*
X113755412Y-63030496D01*
X113783190Y-63085013D01*
X113773619Y-63145445D01*
X113730354Y-63188710D01*
X113685409Y-63199500D01*
X107430101Y-63199500D01*
X107371910Y-63180593D01*
X107335946Y-63131093D01*
X107335946Y-63069907D01*
X107371910Y-63020407D01*
X107380594Y-63014766D01*
X107406579Y-62999765D01*
X107499765Y-62906579D01*
X107515575Y-62879196D01*
X107565655Y-62792455D01*
X107565655Y-62792453D01*
X107565657Y-62792451D01*
X107599765Y-62665157D01*
X107599765Y-62533373D01*
X107565657Y-62406079D01*
X107565655Y-62406076D01*
X107565655Y-62406074D01*
X107499768Y-62291955D01*
X107499766Y-62291953D01*
X107499765Y-62291951D01*
X107406579Y-62198765D01*
X107406576Y-62198763D01*
X107406574Y-62198761D01*
X107292454Y-62132874D01*
X107292456Y-62132874D01*
X107243064Y-62119640D01*
X107165157Y-62098765D01*
X107033373Y-62098765D01*
X106955465Y-62119640D01*
X106906074Y-62132874D01*
X106791955Y-62198761D01*
X106791954Y-62198762D01*
X106791951Y-62198764D01*
X106791951Y-62198765D01*
X106720945Y-62269770D01*
X106666431Y-62297546D01*
X106650944Y-62298765D01*
X97164747Y-62298765D01*
X97106556Y-62279858D01*
X97094743Y-62269769D01*
X94329499Y-59504525D01*
X94301722Y-59450008D01*
X94300503Y-59434521D01*
X94300503Y-59334109D01*
X94299512Y-59330409D01*
X94266395Y-59206814D01*
X94266393Y-59206811D01*
X94266393Y-59206809D01*
X94200506Y-59092690D01*
X94200504Y-59092688D01*
X94200503Y-59092686D01*
X94107317Y-58999500D01*
X94107314Y-58999498D01*
X94107312Y-58999496D01*
X93993192Y-58933609D01*
X93993194Y-58933609D01*
X93943802Y-58920375D01*
X93865895Y-58899500D01*
X93734111Y-58899500D01*
X93656203Y-58920375D01*
X93606812Y-58933609D01*
X93492689Y-58999499D01*
X93470003Y-59022185D01*
X93415486Y-59049961D01*
X93355054Y-59040389D01*
X93330000Y-59022186D01*
X93307314Y-58999500D01*
X93307311Y-58999498D01*
X93307309Y-58999496D01*
X93193189Y-58933609D01*
X93193191Y-58933609D01*
X93143799Y-58920375D01*
X93065892Y-58899500D01*
X92934108Y-58899500D01*
X92856200Y-58920375D01*
X92806809Y-58933609D01*
X92692690Y-58999496D01*
X92599496Y-59092690D01*
X92533609Y-59206809D01*
X92533608Y-59206814D01*
X92499500Y-59334108D01*
X68003100Y-59334108D01*
X68003100Y-57655554D01*
X78000000Y-57655554D01*
X78000000Y-57844445D01*
X78029546Y-58030996D01*
X78087914Y-58210635D01*
X78173667Y-58378936D01*
X78173669Y-58378940D01*
X78281382Y-58527194D01*
X78745607Y-58062968D01*
X78759890Y-58087708D01*
X78862292Y-58190110D01*
X78887028Y-58204391D01*
X78422804Y-58668616D01*
X78571059Y-58776330D01*
X78571063Y-58776332D01*
X78739364Y-58862085D01*
X78919003Y-58920453D01*
X79105555Y-58950000D01*
X79294445Y-58950000D01*
X79480996Y-58920453D01*
X79660635Y-58862085D01*
X79828934Y-58776333D01*
X79977194Y-58668615D01*
X79512970Y-58204391D01*
X79537708Y-58190110D01*
X79640110Y-58087708D01*
X79654391Y-58062970D01*
X80118615Y-58527194D01*
X80226333Y-58378934D01*
X80312085Y-58210635D01*
X80370453Y-58030996D01*
X80400000Y-57844445D01*
X80400000Y-57655554D01*
X84500000Y-57655554D01*
X84500000Y-57844445D01*
X84529546Y-58030996D01*
X84587914Y-58210635D01*
X84673667Y-58378936D01*
X84673669Y-58378940D01*
X84781382Y-58527194D01*
X85245607Y-58062968D01*
X85259890Y-58087708D01*
X85362292Y-58190110D01*
X85387028Y-58204391D01*
X84922804Y-58668616D01*
X85071059Y-58776330D01*
X85071063Y-58776332D01*
X85239364Y-58862085D01*
X85419003Y-58920453D01*
X85605555Y-58950000D01*
X85794445Y-58950000D01*
X85980996Y-58920453D01*
X86160635Y-58862085D01*
X86328934Y-58776333D01*
X86477194Y-58668615D01*
X86012970Y-58204391D01*
X86037708Y-58190110D01*
X86140110Y-58087708D01*
X86154391Y-58062970D01*
X86618615Y-58527194D01*
X86726333Y-58378934D01*
X86812085Y-58210635D01*
X86870453Y-58030996D01*
X86900000Y-57844445D01*
X86900000Y-57655554D01*
X86870453Y-57469003D01*
X86812085Y-57289364D01*
X86726332Y-57121063D01*
X86726330Y-57121059D01*
X86618616Y-56972804D01*
X86154391Y-57437028D01*
X86140110Y-57412292D01*
X86037708Y-57309890D01*
X86012968Y-57295607D01*
X86477194Y-56831382D01*
X86328940Y-56723669D01*
X86328936Y-56723667D01*
X86160635Y-56637914D01*
X85980996Y-56579546D01*
X85794445Y-56550000D01*
X85605555Y-56550000D01*
X85419003Y-56579546D01*
X85239364Y-56637914D01*
X85071063Y-56723667D01*
X85071059Y-56723669D01*
X84922804Y-56831382D01*
X85387029Y-57295607D01*
X85362292Y-57309890D01*
X85259890Y-57412292D01*
X85245607Y-57437029D01*
X84781382Y-56972804D01*
X84673669Y-57121059D01*
X84673667Y-57121063D01*
X84587914Y-57289364D01*
X84529546Y-57469003D01*
X84500000Y-57655554D01*
X80400000Y-57655554D01*
X80370453Y-57469003D01*
X80312085Y-57289364D01*
X80226332Y-57121063D01*
X80226330Y-57121059D01*
X80118616Y-56972804D01*
X79654391Y-57437028D01*
X79640110Y-57412292D01*
X79537708Y-57309890D01*
X79512968Y-57295607D01*
X79977194Y-56831382D01*
X79828940Y-56723669D01*
X79828936Y-56723667D01*
X79660635Y-56637914D01*
X79480996Y-56579546D01*
X79294445Y-56550000D01*
X79105555Y-56550000D01*
X78919003Y-56579546D01*
X78739364Y-56637914D01*
X78571063Y-56723667D01*
X78571059Y-56723669D01*
X78422804Y-56831382D01*
X78887029Y-57295607D01*
X78862292Y-57309890D01*
X78759890Y-57412292D01*
X78745607Y-57437029D01*
X78281382Y-56972804D01*
X78173669Y-57121059D01*
X78173667Y-57121063D01*
X78087914Y-57289364D01*
X78029546Y-57469003D01*
X78000000Y-57655554D01*
X68003100Y-57655554D01*
X68003100Y-48605515D01*
X77999500Y-48605515D01*
X77999500Y-48794484D01*
X78029058Y-48981113D01*
X78087453Y-49160832D01*
X78170806Y-49324423D01*
X78173240Y-49329199D01*
X78284310Y-49482073D01*
X78417927Y-49615690D01*
X78570801Y-49726760D01*
X78739168Y-49812547D01*
X78918882Y-49870940D01*
X78918883Y-49870940D01*
X78918886Y-49870941D01*
X79105516Y-49900500D01*
X79105519Y-49900500D01*
X79294484Y-49900500D01*
X79481113Y-49870941D01*
X79481114Y-49870940D01*
X79481118Y-49870940D01*
X79660832Y-49812547D01*
X79829199Y-49726760D01*
X79982073Y-49615690D01*
X80115690Y-49482073D01*
X80226760Y-49329199D01*
X80312547Y-49160832D01*
X80370940Y-48981118D01*
X80400500Y-48794481D01*
X80400500Y-48605519D01*
X80400500Y-48605515D01*
X84499500Y-48605515D01*
X84499500Y-48794484D01*
X84529058Y-48981113D01*
X84587453Y-49160832D01*
X84670806Y-49324423D01*
X84673240Y-49329199D01*
X84784310Y-49482073D01*
X84917927Y-49615690D01*
X85070801Y-49726760D01*
X85239168Y-49812547D01*
X85418882Y-49870940D01*
X85418883Y-49870940D01*
X85418886Y-49870941D01*
X85605516Y-49900500D01*
X85605519Y-49900500D01*
X85794484Y-49900500D01*
X85981113Y-49870941D01*
X85981114Y-49870940D01*
X85981118Y-49870940D01*
X86160832Y-49812547D01*
X86329199Y-49726760D01*
X86482073Y-49615690D01*
X86615690Y-49482073D01*
X86726760Y-49329199D01*
X86812547Y-49160832D01*
X86870940Y-48981118D01*
X86900500Y-48794481D01*
X86900500Y-48605519D01*
X86900500Y-48605515D01*
X86870941Y-48418886D01*
X86862910Y-48394169D01*
X86812547Y-48239168D01*
X86726760Y-48070801D01*
X86665009Y-47985809D01*
X86665009Y-47985807D01*
X86627447Y-47934108D01*
X88799500Y-47934108D01*
X88799500Y-48065892D01*
X88808639Y-48100000D01*
X88833609Y-48193190D01*
X88899496Y-48307309D01*
X88899498Y-48307311D01*
X88899500Y-48307314D01*
X88992686Y-48400500D01*
X88992688Y-48400501D01*
X88992690Y-48400503D01*
X89106810Y-48466390D01*
X89106808Y-48466390D01*
X89106812Y-48466391D01*
X89106814Y-48466392D01*
X89234108Y-48500500D01*
X89234110Y-48500500D01*
X89365890Y-48500500D01*
X89365892Y-48500500D01*
X89493186Y-48466392D01*
X89493188Y-48466390D01*
X89493190Y-48466390D01*
X89607309Y-48400503D01*
X89607309Y-48400502D01*
X89607314Y-48400500D01*
X89678319Y-48329494D01*
X89732834Y-48301719D01*
X89748321Y-48300500D01*
X91051679Y-48300500D01*
X91109870Y-48319407D01*
X91121676Y-48329490D01*
X91192686Y-48400500D01*
X91192688Y-48400501D01*
X91192690Y-48400503D01*
X91306810Y-48466390D01*
X91306808Y-48466390D01*
X91306812Y-48466391D01*
X91306814Y-48466392D01*
X91434108Y-48500500D01*
X91434110Y-48500500D01*
X91565890Y-48500500D01*
X91565892Y-48500500D01*
X91693186Y-48466392D01*
X91693188Y-48466390D01*
X91693190Y-48466390D01*
X91807309Y-48400503D01*
X91807309Y-48400502D01*
X91807314Y-48400500D01*
X91900500Y-48307314D01*
X91904434Y-48300500D01*
X91966390Y-48193190D01*
X91966390Y-48193188D01*
X91966392Y-48193186D01*
X92000500Y-48065892D01*
X92000500Y-47934108D01*
X91966392Y-47806814D01*
X91966390Y-47806811D01*
X91966390Y-47806809D01*
X91900503Y-47692690D01*
X91900501Y-47692688D01*
X91900500Y-47692686D01*
X91807314Y-47599500D01*
X91807311Y-47599498D01*
X91807309Y-47599496D01*
X91693189Y-47533609D01*
X91693191Y-47533609D01*
X91643799Y-47520375D01*
X91565892Y-47499500D01*
X91434108Y-47499500D01*
X91356200Y-47520375D01*
X91306809Y-47533609D01*
X91192690Y-47599496D01*
X91192689Y-47599497D01*
X91192686Y-47599499D01*
X91192686Y-47599500D01*
X91121680Y-47670505D01*
X91067166Y-47698281D01*
X91051679Y-47699500D01*
X89748321Y-47699500D01*
X89690130Y-47680593D01*
X89678323Y-47670509D01*
X89607314Y-47599500D01*
X89607311Y-47599498D01*
X89607309Y-47599496D01*
X89493189Y-47533609D01*
X89493191Y-47533609D01*
X89443799Y-47520375D01*
X89365892Y-47499500D01*
X89234108Y-47499500D01*
X89156200Y-47520375D01*
X89106809Y-47533609D01*
X88992690Y-47599496D01*
X88899496Y-47692690D01*
X88833609Y-47806809D01*
X88833608Y-47806814D01*
X88799500Y-47934108D01*
X86627447Y-47934108D01*
X86615694Y-47917932D01*
X86615692Y-47917930D01*
X86615690Y-47917927D01*
X86482073Y-47784310D01*
X86329199Y-47673240D01*
X86329198Y-47673239D01*
X86329196Y-47673238D01*
X86160832Y-47587453D01*
X85981113Y-47529058D01*
X85794484Y-47499500D01*
X85794481Y-47499500D01*
X85605519Y-47499500D01*
X85605516Y-47499500D01*
X85418886Y-47529058D01*
X85239167Y-47587453D01*
X85070803Y-47673238D01*
X84917928Y-47784309D01*
X84784309Y-47917928D01*
X84673238Y-48070803D01*
X84587453Y-48239167D01*
X84529058Y-48418886D01*
X84499500Y-48605515D01*
X80400500Y-48605515D01*
X80370941Y-48418886D01*
X80362910Y-48394169D01*
X80312547Y-48239168D01*
X80226760Y-48070801D01*
X80115690Y-47917927D01*
X79982073Y-47784310D01*
X79829199Y-47673240D01*
X79829198Y-47673239D01*
X79829196Y-47673238D01*
X79660832Y-47587453D01*
X79481113Y-47529058D01*
X79294484Y-47499500D01*
X79294481Y-47499500D01*
X79105519Y-47499500D01*
X79105516Y-47499500D01*
X78918886Y-47529058D01*
X78739167Y-47587453D01*
X78570803Y-47673238D01*
X78417928Y-47784309D01*
X78284309Y-47917928D01*
X78173238Y-48070803D01*
X78087453Y-48239167D01*
X78029058Y-48418886D01*
X77999500Y-48605515D01*
X68003100Y-48605515D01*
X68003100Y-45415691D01*
X68003405Y-45407924D01*
X68006354Y-45370453D01*
X68020093Y-45195875D01*
X68022520Y-45180546D01*
X68071266Y-44977509D01*
X68076063Y-44962744D01*
X68155975Y-44769821D01*
X68163012Y-44756009D01*
X68272122Y-44577958D01*
X68281236Y-44565414D01*
X68416862Y-44406615D01*
X68427815Y-44395662D01*
X68586614Y-44260036D01*
X68599158Y-44250922D01*
X68777209Y-44141812D01*
X68791021Y-44134775D01*
X68861566Y-44105554D01*
X78000000Y-44105554D01*
X78000000Y-44294445D01*
X78029546Y-44480996D01*
X78087914Y-44660635D01*
X78173667Y-44828936D01*
X78173669Y-44828940D01*
X78281382Y-44977194D01*
X78745607Y-44512968D01*
X78759890Y-44537708D01*
X78862292Y-44640110D01*
X78887028Y-44654391D01*
X78422804Y-45118616D01*
X78571059Y-45226330D01*
X78571063Y-45226332D01*
X78739364Y-45312085D01*
X78919003Y-45370453D01*
X79105555Y-45400000D01*
X79294445Y-45400000D01*
X79480996Y-45370453D01*
X79660635Y-45312085D01*
X79828934Y-45226333D01*
X79977194Y-45118615D01*
X79512970Y-44654391D01*
X79537708Y-44640110D01*
X79640110Y-44537708D01*
X79654391Y-44512970D01*
X80118615Y-44977194D01*
X80226333Y-44828934D01*
X80312085Y-44660635D01*
X80370453Y-44480996D01*
X80400000Y-44294445D01*
X80400000Y-44105554D01*
X84500000Y-44105554D01*
X84500000Y-44294445D01*
X84529546Y-44480996D01*
X84587914Y-44660635D01*
X84673667Y-44828936D01*
X84673669Y-44828940D01*
X84781382Y-44977194D01*
X85245607Y-44512968D01*
X85259890Y-44537708D01*
X85362292Y-44640110D01*
X85387028Y-44654391D01*
X84922804Y-45118616D01*
X85071059Y-45226330D01*
X85071063Y-45226332D01*
X85239364Y-45312085D01*
X85419003Y-45370453D01*
X85605555Y-45400000D01*
X85794445Y-45400000D01*
X85980996Y-45370453D01*
X86160635Y-45312085D01*
X86328934Y-45226333D01*
X86477194Y-45118615D01*
X86012970Y-44654391D01*
X86037708Y-44640110D01*
X86140110Y-44537708D01*
X86154391Y-44512970D01*
X86618615Y-44977194D01*
X86726333Y-44828934D01*
X86812085Y-44660635D01*
X86870453Y-44480996D01*
X86900000Y-44294445D01*
X86900000Y-44105554D01*
X86870453Y-43919003D01*
X86812085Y-43739364D01*
X86726332Y-43571063D01*
X86726330Y-43571059D01*
X86618616Y-43422804D01*
X86154391Y-43887028D01*
X86140110Y-43862292D01*
X86037708Y-43759890D01*
X86012968Y-43745607D01*
X86477194Y-43281382D01*
X86328940Y-43173669D01*
X86328936Y-43173667D01*
X86160635Y-43087914D01*
X85980996Y-43029546D01*
X85794445Y-43000000D01*
X85605555Y-43000000D01*
X85419003Y-43029546D01*
X85239364Y-43087914D01*
X85071063Y-43173667D01*
X85071059Y-43173669D01*
X84922804Y-43281382D01*
X85387029Y-43745607D01*
X85362292Y-43759890D01*
X85259890Y-43862292D01*
X85245607Y-43887029D01*
X84781382Y-43422804D01*
X84673669Y-43571059D01*
X84673667Y-43571063D01*
X84587914Y-43739364D01*
X84529546Y-43919003D01*
X84500000Y-44105554D01*
X80400000Y-44105554D01*
X80370453Y-43919003D01*
X80312085Y-43739364D01*
X80226332Y-43571063D01*
X80226330Y-43571059D01*
X80118616Y-43422804D01*
X79654391Y-43887028D01*
X79640110Y-43862292D01*
X79537708Y-43759890D01*
X79512968Y-43745607D01*
X79977194Y-43281382D01*
X79828940Y-43173669D01*
X79828936Y-43173667D01*
X79660635Y-43087914D01*
X79480996Y-43029546D01*
X79294445Y-43000000D01*
X79105555Y-43000000D01*
X78919003Y-43029546D01*
X78739364Y-43087914D01*
X78571063Y-43173667D01*
X78571059Y-43173669D01*
X78422804Y-43281382D01*
X78887029Y-43745607D01*
X78862292Y-43759890D01*
X78759890Y-43862292D01*
X78745607Y-43887029D01*
X78281382Y-43422804D01*
X78173669Y-43571059D01*
X78173667Y-43571063D01*
X78087914Y-43739364D01*
X78029546Y-43919003D01*
X78000000Y-44105554D01*
X68861566Y-44105554D01*
X68983944Y-44054863D01*
X68998703Y-44050067D01*
X69189133Y-44004348D01*
X69201738Y-44001323D01*
X69217075Y-43998893D01*
X69429125Y-43982205D01*
X69436892Y-43981900D01*
X69710403Y-43981900D01*
X69710405Y-43981900D01*
X69710409Y-43981899D01*
X69710424Y-43981899D01*
X69906255Y-43968503D01*
X70263921Y-43944039D01*
X70813562Y-43868492D01*
X71356767Y-43755613D01*
X71891003Y-43605927D01*
X72413778Y-43420133D01*
X72922655Y-43199096D01*
X73415262Y-42943848D01*
X73889302Y-42655578D01*
X74342564Y-42335630D01*
X74772936Y-41985496D01*
X75178410Y-41606810D01*
X75557097Y-41201335D01*
X75907231Y-40770963D01*
X76227178Y-40317701D01*
X76515448Y-39843661D01*
X76770696Y-39351054D01*
X76991733Y-38842177D01*
X77177527Y-38319402D01*
X77327213Y-37785166D01*
X77440092Y-37241961D01*
X77515639Y-36692319D01*
X77549780Y-36193186D01*
X77553499Y-36138823D01*
X77553500Y-36138801D01*
X77553500Y-35741619D01*
X80654600Y-35741619D01*
X80654600Y-36031980D01*
X80692498Y-36319844D01*
X80692498Y-36319849D01*
X80767647Y-36600308D01*
X80767651Y-36600321D01*
X80878760Y-36868564D01*
X80878762Y-36868568D01*
X80878764Y-36868572D01*
X80993475Y-37067257D01*
X81023945Y-37120032D01*
X81200695Y-37350378D01*
X81200697Y-37350380D01*
X81200701Y-37350385D01*
X81406015Y-37555699D01*
X81406019Y-37555702D01*
X81406021Y-37555704D01*
X81636367Y-37732454D01*
X81636371Y-37732457D01*
X81887828Y-37877636D01*
X82156084Y-37988751D01*
X82436548Y-38063901D01*
X82724421Y-38101800D01*
X82724422Y-38101800D01*
X83014778Y-38101800D01*
X83014779Y-38101800D01*
X83302652Y-38063901D01*
X83583116Y-37988751D01*
X83851372Y-37877636D01*
X84102829Y-37732457D01*
X84333185Y-37555699D01*
X84538499Y-37350385D01*
X84715257Y-37120029D01*
X84860436Y-36868572D01*
X84971551Y-36600316D01*
X85046701Y-36319852D01*
X85084600Y-36031979D01*
X85084600Y-35741621D01*
X85046701Y-35453748D01*
X84971551Y-35173284D01*
X84860436Y-34905028D01*
X84715257Y-34653571D01*
X84571630Y-34466392D01*
X84538504Y-34423221D01*
X84538502Y-34423219D01*
X84538499Y-34423215D01*
X84333185Y-34217901D01*
X84333180Y-34217897D01*
X84333178Y-34217895D01*
X84102832Y-34041145D01*
X84102829Y-34041143D01*
X83851372Y-33895964D01*
X83851368Y-33895962D01*
X83851364Y-33895960D01*
X83583121Y-33784851D01*
X83583120Y-33784850D01*
X83583116Y-33784849D01*
X83302652Y-33709699D01*
X83302649Y-33709698D01*
X83302647Y-33709698D01*
X83014780Y-33671800D01*
X83014779Y-33671800D01*
X82724421Y-33671800D01*
X82724419Y-33671800D01*
X82436555Y-33709698D01*
X82436550Y-33709698D01*
X82156091Y-33784847D01*
X82156078Y-33784851D01*
X81887835Y-33895960D01*
X81636367Y-34041145D01*
X81406021Y-34217895D01*
X81200695Y-34423221D01*
X81023945Y-34653567D01*
X80878760Y-34905035D01*
X80767651Y-35173278D01*
X80767647Y-35173291D01*
X80692498Y-35453750D01*
X80692498Y-35453755D01*
X80654600Y-35741619D01*
X77553500Y-35741619D01*
X77553500Y-26924491D01*
X77553805Y-26916724D01*
X77570493Y-26704675D01*
X77572920Y-26689346D01*
X77621667Y-26486303D01*
X77626463Y-26471544D01*
X77706375Y-26278621D01*
X77713412Y-26264809D01*
X77822522Y-26086758D01*
X77831636Y-26074214D01*
X77967262Y-25915415D01*
X77978215Y-25904462D01*
X78137014Y-25768836D01*
X78149558Y-25759722D01*
X78327609Y-25650612D01*
X78341421Y-25643575D01*
X78534344Y-25563663D01*
X78549103Y-25558867D01*
X78752146Y-25510120D01*
X78767475Y-25507693D01*
X78979525Y-25491005D01*
X78987292Y-25490700D01*
X79049292Y-25490700D01*
X96121865Y-25490700D01*
X96179153Y-25508959D01*
G37*
G04 #@! TD.AperFunction*
G04 #@! TD*
M02*
