M48
; DRILL file KiCad 10.0.4 date 2026-08-08T05:46:41
; FORMAT={-:-/ absolute / metric / decimal}
; #@! TF.CreationDate,2026-08-08T05:46:41-07:00
; #@! TF.GenerationSoftware,Kicad,Pcbnew,10.0.4
; #@! TF.FileFunction,Plated,1,2,PTH
FMAT,2
METRIC
; #@! TA.AperFunction,Plated,PTH,ViaDrill
T1C0.300
; #@! TA.AperFunction,Plated,PTH,ViaDrill
T2C0.400
; #@! TA.AperFunction,Plated,PTH,ComponentDrill
T3C0.750
; #@! TA.AperFunction,Plated,PTH,ComponentDrill
T4C0.800
; #@! TA.AperFunction,Plated,PTH,ComponentDrill
T5C1.000
; #@! TA.AperFunction,Plated,PTH,ComponentDrill
T6C1.000
; #@! TA.AperFunction,Plated,PTH,ComponentDrill
T7C1.100
; #@! TA.AperFunction,Plated,PTH,ComponentDrill
T8C1.200
; #@! TA.AperFunction,Plated,PTH,ComponentDrill
T9C1.300
; #@! TA.AperFunction,Plated,PTH,ComponentDrill
T10C1.600
%
G90
G05
T1
X71.5Y-46.0
X71.5Y-61.5
X71.5Y-89.5
X76.5Y-41.5
X77.5Y-122.0
X89.242Y-62.282
X89.3Y-48.0
X89.5Y-55.5
X91.0Y-44.5
X91.5Y-48.0
X91.5Y-61.0
X93.5Y-31.0
X97.0Y-125.5
X97.0Y-132.0
X97.5Y-42.5
X97.5Y-45.0
X99.5Y-58.5
X100.5Y-50.0
X100.5Y-51.5
X101.73Y-58.3
X102.0Y-92.0
X102.5Y-38.0
X102.5Y-46.5
X103.0Y-55.5
X111.0Y-51.5
X111.0Y-69.0
X112.0Y-51.79
X112.0Y-120.0
X112.0Y-126.0
X112.0Y-132.5
X112.5Y-38.0
X112.5Y-46.5
X116.5Y-53.49
X116.5Y-58.3
X118.0Y-52.0
X121.5Y-41.5
X125.5Y-129.5
X127.0Y-28.5
X130.0Y-35.0
X131.0Y-36.0
X131.0Y-37.5
X131.0Y-129.5
X135.5Y-31.5
X145.0Y-34.5
X149.0Y-28.5
X155.5Y-75.0
X155.5Y-80.0
X155.5Y-85.0
X156.0Y-95.0
X157.0Y-65.5
X157.0Y-70.5
X157.5Y-60.5
X161.5Y-110.0
X163.0Y-129.5
X164.5Y-73.5
X164.5Y-114.0
X165.5Y-107.0
X167.0Y-40.5
X170.5Y-86.5
X171.0Y-116.0
X171.099Y-51.454
X171.5Y-114.5
X175.0Y-118.082
X175.982Y-117.482
X176.0Y-126.0
X177.5Y-115.5
X177.956Y-119.361
X180.0Y-112.5
X181.0Y-47.0
X181.5Y-64.5
X183.0Y-81.5
X183.0Y-131.0
X185.0Y-64.5
X186.0Y-79.5
X186.0Y-91.5
X188.0Y-117.5
X189.688Y-80.188
X192.28Y-114.988
X196.0Y-118.0
X199.0Y-120.0
X208.0Y-26.0
X212.0Y-26.0
X220.5Y-121.5
X221.5Y-42.0
X225.5Y-61.5
X226.0Y-99.0
T2
X93.159Y-66.341
X98.0Y-119.5
X106.5Y-115.0
X131.0Y-41.0
T3
X126.5Y-37.5
X126.5Y-39.5
X126.5Y-41.5
X126.5Y-43.5
X126.5Y-45.5
X126.5Y-47.5
T4
X170.92Y-39.5
X171.115Y-130.988
X178.115Y-112.728
X178.42Y-57.812
X181.0Y-39.5
X181.195Y-130.988
X183.115Y-76.207
X183.115Y-94.468
X188.195Y-112.728
X188.5Y-57.812
X193.195Y-76.207
X193.195Y-94.468
X194.96Y-39.5
X194.96Y-130.8
X201.96Y-57.76
X201.96Y-112.54
X205.04Y-39.5
X205.04Y-130.8
X206.96Y-76.02
X206.96Y-94.28
X212.04Y-57.76
X212.04Y-112.54
X217.04Y-76.02
X217.04Y-94.28
T5
X178.19Y-28.96
X178.19Y-31.5
X178.19Y-34.04
X178.38Y-120.695
X178.38Y-123.235
X178.38Y-125.775
X185.19Y-47.273
X185.19Y-49.812
X185.19Y-52.352
X185.38Y-102.435
X185.38Y-104.975
X185.38Y-107.515
X185.81Y-28.96
X185.81Y-31.5
X185.81Y-34.04
X186.0Y-120.695
X186.0Y-123.235
X186.0Y-125.775
X190.38Y-65.915
X190.38Y-68.455
X190.38Y-70.995
X190.38Y-84.175
X190.38Y-86.715
X190.38Y-89.255
X192.81Y-47.273
X192.81Y-49.812
X192.81Y-52.352
X193.0Y-102.435
X193.0Y-104.975
X193.0Y-107.515
X198.0Y-65.915
X198.0Y-68.455
X198.0Y-70.995
X198.0Y-84.175
X198.0Y-86.715
X198.0Y-89.255
X201.88Y-29.0
X201.88Y-31.54
X201.88Y-34.08
X201.88Y-120.3
X201.88Y-122.84
X201.88Y-125.38
X208.88Y-47.26
X208.88Y-49.8
X208.88Y-52.34
X208.88Y-102.04
X208.88Y-104.58
X208.88Y-107.12
X209.5Y-29.0
X209.5Y-31.54
X209.5Y-34.08
X209.5Y-120.3
X209.5Y-122.84
X209.5Y-125.38
X213.88Y-65.52
X213.88Y-68.06
X213.88Y-70.6
X213.88Y-83.78
X213.88Y-86.32
X213.88Y-88.86
X216.5Y-47.26
X216.5Y-49.8
X216.5Y-52.34
X216.5Y-102.04
X216.5Y-104.58
X216.5Y-107.12
X221.5Y-65.52
X221.5Y-68.06
X221.5Y-70.6
X221.5Y-83.78
X221.5Y-86.32
X221.5Y-88.86
T6
X112.0Y-105.5
X112.0Y-110.5
T7
X79.2Y-44.2
X79.2Y-48.7
X79.2Y-57.75
X79.2Y-62.25
X85.7Y-44.2
X85.7Y-48.7
X85.7Y-57.75
X85.7Y-62.25
T8
X168.76Y-34.44
X168.875Y-125.74
X171.3Y-34.44
X171.415Y-125.74
X173.84Y-34.44
X173.955Y-125.74
X175.875Y-107.48
X175.92Y-52.812
X178.415Y-107.48
X178.46Y-52.812
X180.875Y-70.96
X180.875Y-89.22
X180.955Y-107.48
X181.0Y-52.812
X183.415Y-70.96
X183.415Y-89.22
X185.955Y-70.96
X185.955Y-89.22
X192.5Y-34.5
X192.5Y-125.8
X195.04Y-34.5
X195.04Y-125.8
X197.58Y-34.5
X197.58Y-125.8
X199.5Y-52.76
X199.5Y-107.54
X202.04Y-52.76
X202.04Y-107.54
X204.5Y-71.02
X204.5Y-89.28
X204.58Y-52.76
X204.58Y-107.54
X207.04Y-71.02
X207.04Y-89.28
X209.58Y-71.02
X209.58Y-89.28
T9
X113.968Y-65.5
X113.968Y-70.5
X113.968Y-77.25
X113.968Y-82.25
X113.968Y-91.25
X113.968Y-96.25
X158.5Y-47.962
X158.5Y-52.962
X158.5Y-57.962
X158.5Y-62.962
X158.5Y-67.962
X158.5Y-72.962
X158.5Y-77.962
X158.5Y-82.962
X158.5Y-87.962
X158.5Y-92.962
X158.5Y-97.962
X158.5Y-102.962
X158.5Y-107.962
X158.5Y-112.962
T10
X91.0Y-118.0
X91.0Y-133.24
M30
